<?xml version="1.0" encoding="UTF-8" standalone="no"?>
<!DOCTYPE svg PUBLIC "-//W3C//DTD SVG 1.1//EN"
 "http://www.w3.org/Graphics/SVG/1.1/DTD/svg11.dtd">
<!-- Generated by graphviz version 2.40.1 (20161225.0304)
 -->
<!-- Title: snakemake_dag Pages: 1 -->
<svg width="541pt" height="702pt"
 viewBox="0.00 0.00 541.00 702.00" xmlns="http://www.w3.org/2000/svg" xmlns:xlink="http://www.w3.org/1999/xlink">
<g id="graph0" class="graph" transform="scale(1 1) rotate(0) translate(4 698)">
<title>snakemake_dag</title>
<polygon fill="#ffffff" stroke="transparent" points="-4,4 -4,-698 537,-698 537,4 -4,4"/>
<!-- 1 -->
<g id="node1" class="node">
<title>1</title>
<path fill="none" stroke="#88d856" stroke-width="2" d="M74,-108C74,-108 12,-108 12,-108 6,-108 0,-102 0,-96 0,-96 0,-84 0,-84 0,-78 6,-72 12,-72 12,-72 74,-72 74,-72 80,-72 86,-78 86,-84 86,-84 86,-96 86,-96 86,-102 80,-108 74,-108"/>
<text text-anchor="middle" x="43" y="-87.5" font-family="sans" font-size="10.00" fill="#000000">index_bamfile</text>
</g>
<!-- 2 -->
<g id="node2" class="node">
<title>2</title>
<path fill="none" stroke="#88d856" stroke-width="2" d="M302,-108C302,-108 240,-108 240,-108 234,-108 228,-102 228,-96 228,-96 228,-84 228,-84 228,-78 234,-72 240,-72 240,-72 302,-72 302,-72 308,-72 314,-78 314,-84 314,-84 314,-96 314,-96 314,-102 308,-108 302,-108"/>
<text text-anchor="middle" x="271" y="-87.5" font-family="sans" font-size="10.00" fill="#000000">index_bamfile</text>
</g>
<!-- 3 -->
<g id="node3" class="node">
<title>3</title>
<path fill="none" stroke="#56d8a2" stroke-width="2" d="M169,-36C169,-36 119,-36 119,-36 113,-36 107,-30 107,-24 107,-24 107,-12 107,-12 107,-6 113,0 119,0 119,0 169,0 169,0 175,0 181,-6 181,-12 181,-12 181,-24 181,-24 181,-30 175,-36 169,-36"/>
<text text-anchor="middle" x="144" y="-15.5" font-family="sans" font-size="10.00" fill="#000000">sam_to_paf</text>
</g>
<!-- 4 -->
<g id="node4" class="node">
<title>4</title>
<path fill="none" stroke="#56d8a2" stroke-width="2" d="M397,-36C397,-36 347,-36 347,-36 341,-36 335,-30 335,-24 335,-24 335,-12 335,-12 335,-6 341,0 347,0 347,0 397,0 397,0 403,0 409,-6 409,-12 409,-12 409,-24 409,-24 409,-30 403,-36 397,-36"/>
<text text-anchor="middle" x="372" y="-15.5" font-family="sans" font-size="10.00" fill="#000000">sam_to_paf</text>
</g>
<!-- 5 -->
<g id="node5" class="node">
<title>5</title>
<path fill="none" stroke="#56d863" stroke-width="2" d="M202,-252C202,-252 172,-252 172,-252 166,-252 160,-246 160,-240 160,-240 160,-228 160,-228 160,-222 166,-216 172,-216 172,-216 202,-216 202,-216 208,-216 214,-222 214,-228 214,-228 214,-240 214,-240 214,-246 208,-252 202,-252"/>
<text text-anchor="middle" x="187" y="-231.5" font-family="sans" font-size="10.00" fill="#000000">sniffles</text>
</g>
<!-- 6 -->
<g id="node6" class="node">
<title>6</title>
<path fill="none" stroke="#56d863" stroke-width="2" d="M416,-252C416,-252 386,-252 386,-252 380,-252 374,-246 374,-240 374,-240 374,-228 374,-228 374,-222 380,-216 386,-216 386,-216 416,-216 416,-216 422,-216 428,-222 428,-228 428,-228 428,-240 428,-240 428,-246 422,-252 416,-252"/>
<text text-anchor="middle" x="401" y="-231.5" font-family="sans" font-size="10.00" fill="#000000">sniffles</text>
</g>
<!-- 7 -->
<g id="node7" class="node">
<title>7</title>
<path fill="none" stroke="#d89556" stroke-width="2" d="M105,-180C105,-180 75,-180 75,-180 69,-180 63,-174 63,-168 63,-168 63,-156 63,-156 63,-150 69,-144 75,-144 75,-144 105,-144 105,-144 111,-144 117,-150 117,-156 117,-156 117,-168 117,-168 117,-174 111,-180 105,-180"/>
<text text-anchor="middle" x="90" y="-159.5" font-family="sans" font-size="10.00" fill="#000000">sort</text>
</g>
<!-- 7&#45;&gt;1 -->
<g id="edge1" class="edge">
<title>7&#45;&gt;1</title>
<path fill="none" stroke="#c0c0c0" stroke-width="2" d="M78.1399,-143.8314C72.8371,-135.7079 66.4763,-125.9637 60.6327,-117.0118"/>
<polygon fill="#c0c0c0" stroke="#c0c0c0" stroke-width="2" points="63.4169,-114.8739 55.0198,-108.4133 57.5552,-118.7003 63.4169,-114.8739"/>
</g>
<!-- 9 -->
<g id="node9" class="node">
<title>9</title>
<path fill="none" stroke="#d8b456" stroke-width="2" d="M172,-108C172,-108 116,-108 116,-108 110,-108 104,-102 104,-96 104,-96 104,-84 104,-84 104,-78 110,-72 116,-72 116,-72 172,-72 172,-72 178,-72 184,-78 184,-84 184,-84 184,-96 184,-96 184,-102 178,-108 172,-108"/>
<text text-anchor="middle" x="144" y="-87.5" font-family="sans" font-size="10.00" fill="#000000">bam_to_sam</text>
</g>
<!-- 7&#45;&gt;9 -->
<g id="edge9" class="edge">
<title>7&#45;&gt;9</title>
<path fill="none" stroke="#c0c0c0" stroke-width="2" d="M103.6265,-143.8314C109.846,-135.5386 117.3322,-125.557 124.16,-116.4533"/>
<polygon fill="#c0c0c0" stroke="#c0c0c0" stroke-width="2" points="126.99,-118.5133 130.19,-108.4133 121.39,-114.3133 126.99,-118.5133"/>
</g>
<!-- 8 -->
<g id="node8" class="node">
<title>8</title>
<path fill="none" stroke="#d89556" stroke-width="2" d="M323,-180C323,-180 293,-180 293,-180 287,-180 281,-174 281,-168 281,-168 281,-156 281,-156 281,-150 287,-144 293,-144 293,-144 323,-144 323,-144 329,-144 335,-150 335,-156 335,-156 335,-168 335,-168 335,-174 329,-180 323,-180"/>
<text text-anchor="middle" x="308" y="-159.5" font-family="sans" font-size="10.00" fill="#000000">sort</text>
</g>
<!-- 8&#45;&gt;2 -->
<g id="edge2" class="edge">
<title>8&#45;&gt;2</title>
<path fill="none" stroke="#c0c0c0" stroke-width="2" d="M298.6633,-143.8314C294.5757,-135.8771 289.6896,-126.369 285.1691,-117.5723"/>
<polygon fill="#c0c0c0" stroke="#c0c0c0" stroke-width="2" points="288.1461,-115.7078 280.4624,-108.4133 281.9201,-118.9074 288.1461,-115.7078"/>
</g>
<!-- 10 -->
<g id="node10" class="node">
<title>10</title>
<path fill="none" stroke="#d8b456" stroke-width="2" d="M400,-108C400,-108 344,-108 344,-108 338,-108 332,-102 332,-96 332,-96 332,-84 332,-84 332,-78 338,-72 344,-72 344,-72 400,-72 400,-72 406,-72 412,-78 412,-84 412,-84 412,-96 412,-96 412,-102 406,-108 400,-108"/>
<text text-anchor="middle" x="372" y="-87.5" font-family="sans" font-size="10.00" fill="#000000">bam_to_sam</text>
</g>
<!-- 8&#45;&gt;10 -->
<g id="edge10" class="edge">
<title>8&#45;&gt;10</title>
<path fill="none" stroke="#c0c0c0" stroke-width="2" d="M324.1499,-143.8314C331.6717,-135.3694 340.7565,-125.1489 348.9804,-115.8971"/>
<polygon fill="#c0c0c0" stroke="#c0c0c0" stroke-width="2" points="351.6049,-118.2127 355.6327,-108.4133 346.373,-113.5621 351.6049,-118.2127"/>
</g>
<!-- 9&#45;&gt;3 -->
<g id="edge3" class="edge">
<title>9&#45;&gt;3</title>
<path fill="none" stroke="#c0c0c0" stroke-width="2" d="M144,-71.8314C144,-64.131 144,-54.9743 144,-46.4166"/>
<polygon fill="#c0c0c0" stroke="#c0c0c0" stroke-width="2" points="147.5001,-46.4132 144,-36.4133 140.5001,-46.4133 147.5001,-46.4132"/>
</g>
<!-- 10&#45;&gt;4 -->
<g id="edge4" class="edge">
<title>10&#45;&gt;4</title>
<path fill="none" stroke="#c0c0c0" stroke-width="2" d="M372,-71.8314C372,-64.131 372,-54.9743 372,-46.4166"/>
<polygon fill="#c0c0c0" stroke="#c0c0c0" stroke-width="2" points="375.5001,-46.4132 372,-36.4133 368.5001,-46.4133 375.5001,-46.4132"/>
</g>
<!-- 11 -->
<g id="node11" class="node">
<title>11</title>
<path fill="none" stroke="#d89556" stroke-width="2" d="M202,-324C202,-324 172,-324 172,-324 166,-324 160,-318 160,-312 160,-312 160,-300 160,-300 160,-294 166,-288 172,-288 172,-288 202,-288 202,-288 208,-288 214,-294 214,-300 214,-300 214,-312 214,-312 214,-318 208,-324 202,-324"/>
<text text-anchor="middle" x="187" y="-303.5" font-family="sans" font-size="10.00" fill="#000000">sort</text>
</g>
<!-- 11&#45;&gt;5 -->
<g id="edge5" class="edge">
<title>11&#45;&gt;5</title>
<path fill="none" stroke="#c0c0c0" stroke-width="2" d="M187,-287.8314C187,-280.131 187,-270.9743 187,-262.4166"/>
<polygon fill="#c0c0c0" stroke="#c0c0c0" stroke-width="2" points="190.5001,-262.4132 187,-252.4133 183.5001,-262.4133 190.5001,-262.4132"/>
</g>
<!-- 12 -->
<g id="node12" class="node">
<title>12</title>
<path fill="none" stroke="#d89556" stroke-width="2" d="M412,-324C412,-324 382,-324 382,-324 376,-324 370,-318 370,-312 370,-312 370,-300 370,-300 370,-294 376,-288 382,-288 382,-288 412,-288 412,-288 418,-288 424,-294 424,-300 424,-300 424,-312 424,-312 424,-318 418,-324 412,-324"/>
<text text-anchor="middle" x="397" y="-303.5" font-family="sans" font-size="10.00" fill="#000000">sort</text>
</g>
<!-- 12&#45;&gt;6 -->
<g id="edge6" class="edge">
<title>12&#45;&gt;6</title>
<path fill="none" stroke="#c0c0c0" stroke-width="2" d="M398.0094,-287.8314C398.4372,-280.131 398.9459,-270.9743 399.4213,-262.4166"/>
<polygon fill="#c0c0c0" stroke="#c0c0c0" stroke-width="2" points="402.9169,-262.592 399.977,-252.4133 395.9276,-262.2037 402.9169,-262.592"/>
</g>
<!-- 13 -->
<g id="node13" class="node">
<title>13</title>
<path fill="none" stroke="#bed856" stroke-width="2" d="M125.5,-252C125.5,-252 54.5,-252 54.5,-252 48.5,-252 42.5,-246 42.5,-240 42.5,-240 42.5,-228 42.5,-228 42.5,-222 48.5,-216 54.5,-216 54.5,-216 125.5,-216 125.5,-216 131.5,-216 137.5,-222 137.5,-228 137.5,-228 137.5,-240 137.5,-240 137.5,-246 131.5,-252 125.5,-252"/>
<text text-anchor="middle" x="90" y="-237" font-family="sans" font-size="10.00" fill="#000000">sam_to_bam</text>
<text text-anchor="middle" x="90" y="-226" font-family="sans" font-size="10.00" fill="#000000">folder: 040_wga</text>
</g>
<!-- 13&#45;&gt;7 -->
<g id="edge7" class="edge">
<title>13&#45;&gt;7</title>
<path fill="none" stroke="#c0c0c0" stroke-width="2" d="M90,-215.8314C90,-208.131 90,-198.9743 90,-190.4166"/>
<polygon fill="#c0c0c0" stroke="#c0c0c0" stroke-width="2" points="93.5001,-190.4132 90,-180.4133 86.5001,-190.4133 93.5001,-190.4132"/>
</g>
<!-- 14 -->
<g id="node14" class="node">
<title>14</title>
<path fill="none" stroke="#bed856" stroke-width="2" d="M343.5,-252C343.5,-252 272.5,-252 272.5,-252 266.5,-252 260.5,-246 260.5,-240 260.5,-240 260.5,-228 260.5,-228 260.5,-222 266.5,-216 272.5,-216 272.5,-216 343.5,-216 343.5,-216 349.5,-216 355.5,-222 355.5,-228 355.5,-228 355.5,-240 355.5,-240 355.5,-246 349.5,-252 343.5,-252"/>
<text text-anchor="middle" x="308" y="-237" font-family="sans" font-size="10.00" fill="#000000">sam_to_bam</text>
<text text-anchor="middle" x="308" y="-226" font-family="sans" font-size="10.00" fill="#000000">folder: 040_wga</text>
</g>
<!-- 14&#45;&gt;8 -->
<g id="edge8" class="edge">
<title>14&#45;&gt;8</title>
<path fill="none" stroke="#c0c0c0" stroke-width="2" d="M308,-215.8314C308,-208.131 308,-198.9743 308,-190.4166"/>
<polygon fill="#c0c0c0" stroke="#c0c0c0" stroke-width="2" points="311.5001,-190.4132 308,-180.4133 304.5001,-190.4133 311.5001,-190.4132"/>
</g>
<!-- 15 -->
<g id="node15" class="node">
<title>15</title>
<path fill="none" stroke="#bed856" stroke-width="2" d="M232,-396C232,-396 142,-396 142,-396 136,-396 130,-390 130,-384 130,-384 130,-372 130,-372 130,-366 136,-360 142,-360 142,-360 232,-360 232,-360 238,-360 244,-366 244,-372 244,-372 244,-384 244,-384 244,-390 238,-396 232,-396"/>
<text text-anchor="middle" x="187" y="-381" font-family="sans" font-size="10.00" fill="#000000">sam_to_bam</text>
<text text-anchor="middle" x="187" y="-370" font-family="sans" font-size="10.00" fill="#000000">folder: 030_mapped</text>
</g>
<!-- 15&#45;&gt;11 -->
<g id="edge11" class="edge">
<title>15&#45;&gt;11</title>
<path fill="none" stroke="#c0c0c0" stroke-width="2" d="M187,-359.8314C187,-352.131 187,-342.9743 187,-334.4166"/>
<polygon fill="#c0c0c0" stroke="#c0c0c0" stroke-width="2" points="190.5001,-334.4132 187,-324.4133 183.5001,-334.4133 190.5001,-334.4132"/>
</g>
<!-- 16 -->
<g id="node16" class="node">
<title>16</title>
<path fill="none" stroke="#bed856" stroke-width="2" d="M440,-396C440,-396 350,-396 350,-396 344,-396 338,-390 338,-384 338,-384 338,-372 338,-372 338,-366 344,-360 350,-360 350,-360 440,-360 440,-360 446,-360 452,-366 452,-372 452,-372 452,-384 452,-384 452,-390 446,-396 440,-396"/>
<text text-anchor="middle" x="395" y="-381" font-family="sans" font-size="10.00" fill="#000000">sam_to_bam</text>
<text text-anchor="middle" x="395" y="-370" font-family="sans" font-size="10.00" fill="#000000">folder: 030_mapped</text>
</g>
<!-- 16&#45;&gt;12 -->
<g id="edge12" class="edge">
<title>16&#45;&gt;12</title>
<path fill="none" stroke="#c0c0c0" stroke-width="2" d="M395.5047,-359.8314C395.7186,-352.131 395.9729,-342.9743 396.2106,-334.4166"/>
<polygon fill="#c0c0c0" stroke="#c0c0c0" stroke-width="2" points="399.7094,-334.5066 396.4885,-324.4133 392.7121,-334.3122 399.7094,-334.5066"/>
</g>
<!-- 17 -->
<g id="node17" class="node">
<title>17</title>
<path fill="none" stroke="#68d856" stroke-width="2" d="M105,-324C105,-324 75,-324 75,-324 69,-324 63,-318 63,-312 63,-312 63,-300 63,-300 63,-294 69,-288 75,-288 75,-288 105,-288 105,-288 111,-288 117,-294 117,-300 117,-300 117,-312 117,-312 117,-318 111,-324 105,-324"/>
<text text-anchor="middle" x="90" y="-303.5" font-family="sans" font-size="10.00" fill="#000000">wga</text>
</g>
<!-- 17&#45;&gt;13 -->
<g id="edge13" class="edge">
<title>17&#45;&gt;13</title>
<path fill="none" stroke="#c0c0c0" stroke-width="2" d="M90,-287.8314C90,-280.131 90,-270.9743 90,-262.4166"/>
<polygon fill="#c0c0c0" stroke="#c0c0c0" stroke-width="2" points="93.5001,-262.4132 90,-252.4133 86.5001,-262.4133 93.5001,-262.4132"/>
</g>
<!-- 18 -->
<g id="node18" class="node">
<title>18</title>
<path fill="none" stroke="#68d856" stroke-width="2" d="M325,-324C325,-324 295,-324 295,-324 289,-324 283,-318 283,-312 283,-312 283,-300 283,-300 283,-294 289,-288 295,-288 295,-288 325,-288 325,-288 331,-288 337,-294 337,-300 337,-300 337,-312 337,-312 337,-318 331,-324 325,-324"/>
<text text-anchor="middle" x="310" y="-303.5" font-family="sans" font-size="10.00" fill="#000000">wga</text>
</g>
<!-- 18&#45;&gt;14 -->
<g id="edge14" class="edge">
<title>18&#45;&gt;14</title>
<path fill="none" stroke="#c0c0c0" stroke-width="2" d="M309.4953,-287.8314C309.2814,-280.131 309.0271,-270.9743 308.7894,-262.4166"/>
<polygon fill="#c0c0c0" stroke="#c0c0c0" stroke-width="2" points="312.2879,-262.3122 308.5115,-252.4133 305.2906,-262.5066 312.2879,-262.3122"/>
</g>
<!-- 19 -->
<g id="node19" class="node">
<title>19</title>
<path fill="none" stroke="#d8d356" stroke-width="2" d="M225,-468C225,-468 151,-468 151,-468 145,-468 139,-462 139,-456 139,-456 139,-444 139,-444 139,-438 145,-432 151,-432 151,-432 225,-432 225,-432 231,-432 237,-438 237,-444 237,-444 237,-456 237,-456 237,-462 231,-468 225,-468"/>
<text text-anchor="middle" x="188" y="-453" font-family="sans" font-size="10.00" fill="#000000">map_to_genome</text>
<text text-anchor="middle" x="188" y="-442" font-family="sans" font-size="10.00" fill="#000000">indiv: BB31</text>
</g>
<!-- 19&#45;&gt;15 -->
<g id="edge15" class="edge">
<title>19&#45;&gt;15</title>
<path fill="none" stroke="#c0c0c0" stroke-width="2" d="M187.7477,-431.8314C187.6407,-424.131 187.5135,-414.9743 187.3947,-406.4166"/>
<polygon fill="#c0c0c0" stroke="#c0c0c0" stroke-width="2" points="190.8944,-406.3637 187.2557,-396.4133 183.8951,-406.4609 190.8944,-406.3637"/>
</g>
<!-- 20 -->
<g id="node20" class="node">
<title>20</title>
<path fill="none" stroke="#d8d356" stroke-width="2" d="M431,-468C431,-468 357,-468 357,-468 351,-468 345,-462 345,-456 345,-456 345,-444 345,-444 345,-438 351,-432 357,-432 357,-432 431,-432 431,-432 437,-432 443,-438 443,-444 443,-444 443,-456 443,-456 443,-462 437,-468 431,-468"/>
<text text-anchor="middle" x="394" y="-453" font-family="sans" font-size="10.00" fill="#000000">map_to_genome</text>
<text text-anchor="middle" x="394" y="-442" font-family="sans" font-size="10.00" fill="#000000">indiv: BB55</text>
</g>
<!-- 20&#45;&gt;16 -->
<g id="edge16" class="edge">
<title>20&#45;&gt;16</title>
<path fill="none" stroke="#c0c0c0" stroke-width="2" d="M394.2523,-431.8314C394.3593,-424.131 394.4865,-414.9743 394.6053,-406.4166"/>
<polygon fill="#c0c0c0" stroke="#c0c0c0" stroke-width="2" points="398.1049,-406.4609 394.7443,-396.4133 391.1056,-406.3637 398.1049,-406.4609"/>
</g>
<!-- 21 -->
<g id="node21" class="node">
<title>21</title>
<path fill="none" stroke="#d85656" stroke-width="2" d="M100,-396C100,-396 70,-396 70,-396 64,-396 58,-390 58,-384 58,-384 58,-372 58,-372 58,-366 64,-360 70,-360 70,-360 100,-360 100,-360 106,-360 112,-366 112,-372 112,-372 112,-384 112,-384 112,-390 106,-396 100,-396"/>
<text text-anchor="middle" x="85" y="-375.5" font-family="sans" font-size="10.00" fill="#000000">ragtag</text>
</g>
<!-- 21&#45;&gt;17 -->
<g id="edge17" class="edge">
<title>21&#45;&gt;17</title>
<path fill="none" stroke="#c0c0c0" stroke-width="2" d="M86.2617,-359.8314C86.7965,-352.131 87.4323,-342.9743 88.0266,-334.4166"/>
<polygon fill="#c0c0c0" stroke="#c0c0c0" stroke-width="2" points="91.52,-334.6317 88.7213,-324.4133 84.5368,-334.1467 91.52,-334.6317"/>
</g>
<!-- 22 -->
<g id="node22" class="node">
<title>22</title>
<path fill="none" stroke="#56b1d8" stroke-width="2" d="M318.5,-542.5C318.5,-542.5 269.5,-542.5 269.5,-542.5 263.5,-542.5 257.5,-536.5 257.5,-530.5 257.5,-530.5 257.5,-518.5 257.5,-518.5 257.5,-512.5 263.5,-506.5 269.5,-506.5 269.5,-506.5 318.5,-506.5 318.5,-506.5 324.5,-506.5 330.5,-512.5 330.5,-518.5 330.5,-518.5 330.5,-530.5 330.5,-530.5 330.5,-536.5 324.5,-542.5 318.5,-542.5"/>
<text text-anchor="middle" x="294" y="-522" font-family="sans" font-size="10.00" fill="#000000">prepare_ref</text>
</g>
<!-- 22&#45;&gt;17 -->
<g id="edge18" class="edge">
<title>22&#45;&gt;17</title>
<path fill="none" stroke="#c0c0c0" stroke-width="2" d="M294.801,-506.3061C295.252,-472.8782 291.3195,-401.3337 253,-360 248.5509,-355.201 173.5003,-331.5745 126.8062,-317.2099"/>
<polygon fill="#c0c0c0" stroke="#c0c0c0" stroke-width="2" points="127.6115,-313.796 117.0247,-314.2086 125.5581,-320.4881 127.6115,-313.796"/>
</g>
<!-- 22&#45;&gt;18 -->
<g id="edge20" class="edge">
<title>22&#45;&gt;18</title>
<path fill="none" stroke="#c0c0c0" stroke-width="2" d="M295.3366,-506.2466C298.1318,-468.0749 304.611,-379.5939 307.9416,-334.1098"/>
<polygon fill="#c0c0c0" stroke="#c0c0c0" stroke-width="2" points="311.4387,-334.2767 308.6784,-324.0477 304.4574,-333.7654 311.4387,-334.2767"/>
</g>
<!-- 22&#45;&gt;19 -->
<g id="edge22" class="edge">
<title>22&#45;&gt;19</title>
<path fill="none" stroke="#c0c0c0" stroke-width="2" d="M268.3404,-506.4656C254.5112,-496.7461 237.2622,-484.6229 222.2958,-474.1041"/>
<polygon fill="#c0c0c0" stroke="#c0c0c0" stroke-width="2" points="223.9848,-471.0132 213.7907,-468.1265 219.9596,-476.7402 223.9848,-471.0132"/>
</g>
<!-- 22&#45;&gt;20 -->
<g id="edge24" class="edge">
<title>22&#45;&gt;20</title>
<path fill="none" stroke="#c0c0c0" stroke-width="2" d="M318.2072,-506.4656C331.2536,-496.7461 347.5262,-484.6229 361.6455,-474.1041"/>
<polygon fill="#c0c0c0" stroke="#c0c0c0" stroke-width="2" points="363.7409,-476.9076 369.6691,-468.1265 359.5589,-471.2941 363.7409,-476.9076"/>
</g>
<!-- 23 -->
<g id="node23" class="node">
<title>23</title>
<path fill="none" stroke="#d85656" stroke-width="2" d="M512,-396C512,-396 482,-396 482,-396 476,-396 470,-390 470,-384 470,-384 470,-372 470,-372 470,-366 476,-360 482,-360 482,-360 512,-360 512,-360 518,-360 524,-366 524,-372 524,-372 524,-384 524,-384 524,-390 518,-396 512,-396"/>
<text text-anchor="middle" x="497" y="-375.5" font-family="sans" font-size="10.00" fill="#000000">ragtag</text>
</g>
<!-- 23&#45;&gt;18 -->
<g id="edge19" class="edge">
<title>23&#45;&gt;18</title>
<path fill="none" stroke="#c0c0c0" stroke-width="2" d="M469.6423,-363.8964C466.7467,-362.5314 463.8276,-361.2073 461,-360 455.5068,-357.6545 389.5077,-334.1821 346.6021,-318.9653"/>
<polygon fill="#c0c0c0" stroke="#c0c0c0" stroke-width="2" points="347.6303,-315.6165 337.0356,-315.5736 345.2912,-322.2141 347.6303,-315.6165"/>
</g>
<!-- 24 -->
<g id="node24" class="node">
<title>24</title>
<path fill="none" stroke="#56d882" stroke-width="2" d="M184.5,-545C184.5,-545 95.5,-545 95.5,-545 89.5,-545 83.5,-539 83.5,-533 83.5,-533 83.5,-516 83.5,-516 83.5,-510 89.5,-504 95.5,-504 95.5,-504 184.5,-504 184.5,-504 190.5,-504 196.5,-510 196.5,-516 196.5,-516 196.5,-533 196.5,-533 196.5,-539 190.5,-545 184.5,-545"/>
<text text-anchor="middle" x="140" y="-533" font-family="sans" font-size="10.00" fill="#000000">compress_reads</text>
<text text-anchor="middle" x="140" y="-522" font-family="sans" font-size="10.00" fill="#000000">file: BB31</text>
<text text-anchor="middle" x="140" y="-511" font-family="sans" font-size="10.00" fill="#000000">path: 010_porechop</text>
</g>
<!-- 24&#45;&gt;19 -->
<g id="edge21" class="edge">
<title>24&#45;&gt;19</title>
<path fill="none" stroke="#c0c0c0" stroke-width="2" d="M153.3707,-503.7476C158.7799,-495.352 165.092,-485.5551 170.8345,-476.6423"/>
<polygon fill="#c0c0c0" stroke="#c0c0c0" stroke-width="2" points="173.8587,-478.4106 176.3327,-468.1087 167.9743,-474.6193 173.8587,-478.4106"/>
</g>
<!-- 26 -->
<g id="node26" class="node">
<title>26</title>
<path fill="none" stroke="#5692d8" stroke-width="2" d="M109,-468C109,-468 61,-468 61,-468 55,-468 49,-462 49,-456 49,-456 49,-444 49,-444 49,-438 55,-432 61,-432 61,-432 109,-432 109,-432 115,-432 121,-438 121,-444 121,-444 121,-456 121,-456 121,-462 115,-468 109,-468"/>
<text text-anchor="middle" x="85" y="-453" font-family="sans" font-size="10.00" fill="#000000">flye</text>
<text text-anchor="middle" x="85" y="-442" font-family="sans" font-size="10.00" fill="#000000">indiv: BB31</text>
</g>
<!-- 24&#45;&gt;26 -->
<g id="edge29" class="edge">
<title>24&#45;&gt;26</title>
<path fill="none" stroke="#c0c0c0" stroke-width="2" d="M124.6794,-503.7476C118.4167,-495.2645 111.098,-485.3509 104.4634,-476.364"/>
<polygon fill="#c0c0c0" stroke="#c0c0c0" stroke-width="2" points="107.124,-474.075 98.3688,-468.1087 101.4924,-478.2326 107.124,-474.075"/>
</g>
<!-- 25 -->
<g id="node25" class="node">
<title>25</title>
<path fill="none" stroke="#56d882" stroke-width="2" d="M454.5,-545C454.5,-545 365.5,-545 365.5,-545 359.5,-545 353.5,-539 353.5,-533 353.5,-533 353.5,-516 353.5,-516 353.5,-510 359.5,-504 365.5,-504 365.5,-504 454.5,-504 454.5,-504 460.5,-504 466.5,-510 466.5,-516 466.5,-516 466.5,-533 466.5,-533 466.5,-539 460.5,-545 454.5,-545"/>
<text text-anchor="middle" x="410" y="-533" font-family="sans" font-size="10.00" fill="#000000">compress_reads</text>
<text text-anchor="middle" x="410" y="-522" font-family="sans" font-size="10.00" fill="#000000">file: BB55</text>
<text text-anchor="middle" x="410" y="-511" font-family="sans" font-size="10.00" fill="#000000">path: 010_porechop</text>
</g>
<!-- 25&#45;&gt;20 -->
<g id="edge23" class="edge">
<title>25&#45;&gt;20</title>
<path fill="none" stroke="#c0c0c0" stroke-width="2" d="M405.5431,-503.7476C403.8339,-495.7892 401.8544,-486.5718 400.0224,-478.0418"/>
<polygon fill="#c0c0c0" stroke="#c0c0c0" stroke-width="2" points="403.4109,-477.1508 397.8891,-468.1087 396.567,-478.6207 403.4109,-477.1508"/>
</g>
<!-- 27 -->
<g id="node27" class="node">
<title>27</title>
<path fill="none" stroke="#5692d8" stroke-width="2" d="M521,-468C521,-468 473,-468 473,-468 467,-468 461,-462 461,-456 461,-456 461,-444 461,-444 461,-438 467,-432 473,-432 473,-432 521,-432 521,-432 527,-432 533,-438 533,-444 533,-444 533,-456 533,-456 533,-462 527,-468 521,-468"/>
<text text-anchor="middle" x="497" y="-453" font-family="sans" font-size="10.00" fill="#000000">flye</text>
<text text-anchor="middle" x="497" y="-442" font-family="sans" font-size="10.00" fill="#000000">indiv: BB55</text>
</g>
<!-- 25&#45;&gt;27 -->
<g id="edge30" class="edge">
<title>25&#45;&gt;27</title>
<path fill="none" stroke="#c0c0c0" stroke-width="2" d="M434.2344,-503.7476C444.7536,-494.7398 457.1564,-484.119 468.1469,-474.7076"/>
<polygon fill="#c0c0c0" stroke="#c0c0c0" stroke-width="2" points="470.5338,-477.2715 475.853,-468.1087 465.9808,-471.9545 470.5338,-477.2715"/>
</g>
<!-- 26&#45;&gt;21 -->
<g id="edge25" class="edge">
<title>26&#45;&gt;21</title>
<path fill="none" stroke="#c0c0c0" stroke-width="2" d="M85,-431.8314C85,-424.131 85,-414.9743 85,-406.4166"/>
<polygon fill="#c0c0c0" stroke="#c0c0c0" stroke-width="2" points="88.5001,-406.4132 85,-396.4133 81.5001,-406.4133 88.5001,-406.4132"/>
</g>
<!-- 27&#45;&gt;23 -->
<g id="edge26" class="edge">
<title>27&#45;&gt;23</title>
<path fill="none" stroke="#c0c0c0" stroke-width="2" d="M497,-431.8314C497,-424.131 497,-414.9743 497,-406.4166"/>
<polygon fill="#c0c0c0" stroke="#c0c0c0" stroke-width="2" points="500.5001,-406.4132 497,-396.4133 493.5001,-406.4133 500.5001,-406.4132"/>
</g>
<!-- 28 -->
<g id="node28" class="node">
<title>28</title>
<path fill="none" stroke="#56d0d8" stroke-width="2" d="M188,-617C188,-617 92,-617 92,-617 86,-617 80,-611 80,-605 80,-605 80,-593 80,-593 80,-587 86,-581 92,-581 92,-581 188,-581 188,-581 194,-581 200,-587 200,-593 200,-593 200,-605 200,-605 200,-611 194,-617 188,-617"/>
<text text-anchor="middle" x="140" y="-596.5" font-family="sans" font-size="10.00" fill="#000000">combine_indiv_reads</text>
</g>
<!-- 28&#45;&gt;24 -->
<g id="edge27" class="edge">
<title>28&#45;&gt;24</title>
<path fill="none" stroke="#c0c0c0" stroke-width="2" d="M140,-580.9656C140,-573.3118 140,-564.1674 140,-555.4898"/>
<polygon fill="#c0c0c0" stroke="#c0c0c0" stroke-width="2" points="143.5001,-555.2678 140,-545.2679 136.5001,-555.2679 143.5001,-555.2678"/>
</g>
<!-- 29 -->
<g id="node29" class="node">
<title>29</title>
<path fill="none" stroke="#56d0d8" stroke-width="2" d="M458,-617C458,-617 362,-617 362,-617 356,-617 350,-611 350,-605 350,-605 350,-593 350,-593 350,-587 356,-581 362,-581 362,-581 458,-581 458,-581 464,-581 470,-587 470,-593 470,-593 470,-605 470,-605 470,-611 464,-617 458,-617"/>
<text text-anchor="middle" x="410" y="-596.5" font-family="sans" font-size="10.00" fill="#000000">combine_indiv_reads</text>
</g>
<!-- 29&#45;&gt;25 -->
<g id="edge28" class="edge">
<title>29&#45;&gt;25</title>
<path fill="none" stroke="#c0c0c0" stroke-width="2" d="M410,-580.9656C410,-573.3118 410,-564.1674 410,-555.4898"/>
<polygon fill="#c0c0c0" stroke="#c0c0c0" stroke-width="2" points="413.5001,-555.2678 410,-545.2679 406.5001,-555.2679 413.5001,-555.2678"/>
</g>
<!-- 30 -->
<g id="node30" class="node">
<title>30</title>
<path fill="none" stroke="#d87556" stroke-width="2" d="M164,-694C164,-694 116,-694 116,-694 110,-694 104,-688 104,-682 104,-682 104,-665 104,-665 104,-659 110,-653 116,-653 116,-653 164,-653 164,-653 170,-653 176,-659 176,-665 176,-665 176,-682 176,-682 176,-688 170,-694 164,-694"/>
<text text-anchor="middle" x="140" y="-682" font-family="sans" font-size="10.00" fill="#000000">porechop</text>
<text text-anchor="middle" x="140" y="-671" font-family="sans" font-size="10.00" fill="#000000">indiv: BB31</text>
<text text-anchor="middle" x="140" y="-660" font-family="sans" font-size="10.00" fill="#000000">read: test</text>
</g>
<!-- 30&#45;&gt;28 -->
<g id="edge31" class="edge">
<title>30&#45;&gt;28</title>
<path fill="none" stroke="#c0c0c0" stroke-width="2" d="M140,-652.7476C140,-644.8767 140,-635.7743 140,-627.3232"/>
<polygon fill="#c0c0c0" stroke="#c0c0c0" stroke-width="2" points="143.5001,-627.1086 140,-617.1087 136.5001,-627.1087 143.5001,-627.1086"/>
</g>
<!-- 31 -->
<g id="node31" class="node">
<title>31</title>
<path fill="none" stroke="#d87556" stroke-width="2" d="M434,-694C434,-694 386,-694 386,-694 380,-694 374,-688 374,-682 374,-682 374,-665 374,-665 374,-659 380,-653 386,-653 386,-653 434,-653 434,-653 440,-653 446,-659 446,-665 446,-665 446,-682 446,-682 446,-688 440,-694 434,-694"/>
<text text-anchor="middle" x="410" y="-682" font-family="sans" font-size="10.00" fill="#000000">porechop</text>
<text text-anchor="middle" x="410" y="-671" font-family="sans" font-size="10.00" fill="#000000">indiv: BB55</text>
<text text-anchor="middle" x="410" y="-660" font-family="sans" font-size="10.00" fill="#000000">read: test</text>
</g>
<!-- 31&#45;&gt;29 -->
<g id="edge32" class="edge">
<title>31&#45;&gt;29</title>
<path fill="none" stroke="#c0c0c0" stroke-width="2" d="M410,-652.7476C410,-644.8767 410,-635.7743 410,-627.3232"/>
<polygon fill="#c0c0c0" stroke="#c0c0c0" stroke-width="2" points="413.5001,-627.1086 410,-617.1087 406.5001,-627.1087 413.5001,-627.1086"/>
</g>
</g>
</svg>
