<?xml version="1.0" encoding="UTF-8" standalone="no"?>
<!DOCTYPE svg PUBLIC "-//W3C//DTD SVG 1.1//EN"
 "http://www.w3.org/Graphics/SVG/1.1/DTD/svg11.dtd">
<!-- Generated by graphviz version 2.40.1 (20161225.0304)
 -->
<!-- Title: snakemake_dag Pages: 1 -->
<svg width="489pt" height="558pt"
 viewBox="0.00 0.00 488.50 558.00" xmlns="http://www.w3.org/2000/svg" xmlns:xlink="http://www.w3.org/1999/xlink">
<g id="graph0" class="graph" transform="scale(1 1) rotate(0) translate(4 554)">
<title>snakemake_dag</title>
<polygon fill="#ffffff" stroke="transparent" points="-4,4 -4,-554 484.5,-554 484.5,4 -4,4"/>
<!-- 1 -->
<g id="node1" class="node">
<title>1</title>
<path fill="none" stroke="#d85656" stroke-width="2" d="M78.5,-36C78.5,-36 16.5,-36 16.5,-36 10.5,-36 4.5,-30 4.5,-24 4.5,-24 4.5,-12 4.5,-12 4.5,-6 10.5,0 16.5,0 16.5,0 78.5,0 78.5,0 84.5,0 90.5,-6 90.5,-12 90.5,-12 90.5,-24 90.5,-24 90.5,-30 84.5,-36 78.5,-36"/>
<text text-anchor="middle" x="47.5" y="-15.5" font-family="sans" font-size="10.00" fill="#000000">index_bamfile</text>
</g>
<!-- 2 -->
<g id="node2" class="node">
<title>2</title>
<path fill="none" stroke="#d85656" stroke-width="2" d="M180.5,-108C180.5,-108 118.5,-108 118.5,-108 112.5,-108 106.5,-102 106.5,-96 106.5,-96 106.5,-84 106.5,-84 106.5,-78 112.5,-72 118.5,-72 118.5,-72 180.5,-72 180.5,-72 186.5,-72 192.5,-78 192.5,-84 192.5,-84 192.5,-96 192.5,-96 192.5,-102 186.5,-108 180.5,-108"/>
<text text-anchor="middle" x="149.5" y="-87.5" font-family="sans" font-size="10.00" fill="#000000">index_bamfile</text>
</g>
<!-- 3 -->
<g id="node3" class="node">
<title>3</title>
<path fill="none" stroke="#d85656" stroke-width="2" d="M295.5,-36C295.5,-36 233.5,-36 233.5,-36 227.5,-36 221.5,-30 221.5,-24 221.5,-24 221.5,-12 221.5,-12 221.5,-6 227.5,0 233.5,0 233.5,0 295.5,0 295.5,0 301.5,0 307.5,-6 307.5,-12 307.5,-12 307.5,-24 307.5,-24 307.5,-30 301.5,-36 295.5,-36"/>
<text text-anchor="middle" x="264.5" y="-15.5" font-family="sans" font-size="10.00" fill="#000000">index_bamfile</text>
</g>
<!-- 4 -->
<g id="node4" class="node">
<title>4</title>
<path fill="none" stroke="#d85656" stroke-width="2" d="M397.5,-108C397.5,-108 335.5,-108 335.5,-108 329.5,-108 323.5,-102 323.5,-96 323.5,-96 323.5,-84 323.5,-84 323.5,-78 329.5,-72 335.5,-72 335.5,-72 397.5,-72 397.5,-72 403.5,-72 409.5,-78 409.5,-84 409.5,-84 409.5,-96 409.5,-96 409.5,-102 403.5,-108 397.5,-108"/>
<text text-anchor="middle" x="366.5" y="-87.5" font-family="sans" font-size="10.00" fill="#000000">index_bamfile</text>
</g>
<!-- 5 -->
<g id="node5" class="node">
<title>5</title>
<path fill="none" stroke="#56d8c9" stroke-width="2" d="M62.5,-108C62.5,-108 32.5,-108 32.5,-108 26.5,-108 20.5,-102 20.5,-96 20.5,-96 20.5,-84 20.5,-84 20.5,-78 26.5,-72 32.5,-72 32.5,-72 62.5,-72 62.5,-72 68.5,-72 74.5,-78 74.5,-84 74.5,-84 74.5,-96 74.5,-96 74.5,-102 68.5,-108 62.5,-108"/>
<text text-anchor="middle" x="47.5" y="-87.5" font-family="sans" font-size="10.00" fill="#000000">sort</text>
</g>
<!-- 5&#45;&gt;1 -->
<g id="edge1" class="edge">
<title>5&#45;&gt;1</title>
<path fill="none" stroke="#c0c0c0" stroke-width="2" d="M47.5,-71.8314C47.5,-64.131 47.5,-54.9743 47.5,-46.4166"/>
<polygon fill="#c0c0c0" stroke="#c0c0c0" stroke-width="2" points="51.0001,-46.4132 47.5,-36.4133 44.0001,-46.4133 51.0001,-46.4132"/>
</g>
<!-- 6 -->
<g id="node6" class="node">
<title>6</title>
<path fill="none" stroke="#56d8c9" stroke-width="2" d="M164.5,-180C164.5,-180 134.5,-180 134.5,-180 128.5,-180 122.5,-174 122.5,-168 122.5,-168 122.5,-156 122.5,-156 122.5,-150 128.5,-144 134.5,-144 134.5,-144 164.5,-144 164.5,-144 170.5,-144 176.5,-150 176.5,-156 176.5,-156 176.5,-168 176.5,-168 176.5,-174 170.5,-180 164.5,-180"/>
<text text-anchor="middle" x="149.5" y="-159.5" font-family="sans" font-size="10.00" fill="#000000">sort</text>
</g>
<!-- 6&#45;&gt;2 -->
<g id="edge2" class="edge">
<title>6&#45;&gt;2</title>
<path fill="none" stroke="#c0c0c0" stroke-width="2" d="M149.5,-143.8314C149.5,-136.131 149.5,-126.9743 149.5,-118.4166"/>
<polygon fill="#c0c0c0" stroke="#c0c0c0" stroke-width="2" points="153.0001,-118.4132 149.5,-108.4133 146.0001,-118.4133 153.0001,-118.4132"/>
</g>
<!-- 7 -->
<g id="node7" class="node">
<title>7</title>
<path fill="none" stroke="#56d8c9" stroke-width="2" d="M279.5,-108C279.5,-108 249.5,-108 249.5,-108 243.5,-108 237.5,-102 237.5,-96 237.5,-96 237.5,-84 237.5,-84 237.5,-78 243.5,-72 249.5,-72 249.5,-72 279.5,-72 279.5,-72 285.5,-72 291.5,-78 291.5,-84 291.5,-84 291.5,-96 291.5,-96 291.5,-102 285.5,-108 279.5,-108"/>
<text text-anchor="middle" x="264.5" y="-87.5" font-family="sans" font-size="10.00" fill="#000000">sort</text>
</g>
<!-- 7&#45;&gt;3 -->
<g id="edge3" class="edge">
<title>7&#45;&gt;3</title>
<path fill="none" stroke="#c0c0c0" stroke-width="2" d="M264.5,-71.8314C264.5,-64.131 264.5,-54.9743 264.5,-46.4166"/>
<polygon fill="#c0c0c0" stroke="#c0c0c0" stroke-width="2" points="268.0001,-46.4132 264.5,-36.4133 261.0001,-46.4133 268.0001,-46.4132"/>
</g>
<!-- 8 -->
<g id="node8" class="node">
<title>8</title>
<path fill="none" stroke="#56d8c9" stroke-width="2" d="M381.5,-180C381.5,-180 351.5,-180 351.5,-180 345.5,-180 339.5,-174 339.5,-168 339.5,-168 339.5,-156 339.5,-156 339.5,-150 345.5,-144 351.5,-144 351.5,-144 381.5,-144 381.5,-144 387.5,-144 393.5,-150 393.5,-156 393.5,-156 393.5,-168 393.5,-168 393.5,-174 387.5,-180 381.5,-180"/>
<text text-anchor="middle" x="366.5" y="-159.5" font-family="sans" font-size="10.00" fill="#000000">sort</text>
</g>
<!-- 8&#45;&gt;4 -->
<g id="edge4" class="edge">
<title>8&#45;&gt;4</title>
<path fill="none" stroke="#c0c0c0" stroke-width="2" d="M366.5,-143.8314C366.5,-136.131 366.5,-126.9743 366.5,-118.4166"/>
<polygon fill="#c0c0c0" stroke="#c0c0c0" stroke-width="2" points="370.0001,-118.4132 366.5,-108.4133 363.0001,-118.4133 370.0001,-118.4132"/>
</g>
<!-- 9 -->
<g id="node9" class="node">
<title>9</title>
<path fill="none" stroke="#70d856" stroke-width="2" d="M83,-180C83,-180 12,-180 12,-180 6,-180 0,-174 0,-168 0,-168 0,-156 0,-156 0,-150 6,-144 12,-144 12,-144 83,-144 83,-144 89,-144 95,-150 95,-156 95,-156 95,-168 95,-168 95,-174 89,-180 83,-180"/>
<text text-anchor="middle" x="47.5" y="-165" font-family="sans" font-size="10.00" fill="#000000">sam_to_bam</text>
<text text-anchor="middle" x="47.5" y="-154" font-family="sans" font-size="10.00" fill="#000000">folder: 040_wga</text>
</g>
<!-- 9&#45;&gt;5 -->
<g id="edge5" class="edge">
<title>9&#45;&gt;5</title>
<path fill="none" stroke="#c0c0c0" stroke-width="2" d="M47.5,-143.8314C47.5,-136.131 47.5,-126.9743 47.5,-118.4166"/>
<polygon fill="#c0c0c0" stroke="#c0c0c0" stroke-width="2" points="51.0001,-118.4132 47.5,-108.4133 44.0001,-118.4133 51.0001,-118.4132"/>
</g>
<!-- 10 -->
<g id="node10" class="node">
<title>10</title>
<path fill="none" stroke="#70d856" stroke-width="2" d="M194.5,-252C194.5,-252 104.5,-252 104.5,-252 98.5,-252 92.5,-246 92.5,-240 92.5,-240 92.5,-228 92.5,-228 92.5,-222 98.5,-216 104.5,-216 104.5,-216 194.5,-216 194.5,-216 200.5,-216 206.5,-222 206.5,-228 206.5,-228 206.5,-240 206.5,-240 206.5,-246 200.5,-252 194.5,-252"/>
<text text-anchor="middle" x="149.5" y="-237" font-family="sans" font-size="10.00" fill="#000000">sam_to_bam</text>
<text text-anchor="middle" x="149.5" y="-226" font-family="sans" font-size="10.00" fill="#000000">folder: 030_mapped</text>
</g>
<!-- 10&#45;&gt;6 -->
<g id="edge6" class="edge">
<title>10&#45;&gt;6</title>
<path fill="none" stroke="#c0c0c0" stroke-width="2" d="M149.5,-215.8314C149.5,-208.131 149.5,-198.9743 149.5,-190.4166"/>
<polygon fill="#c0c0c0" stroke="#c0c0c0" stroke-width="2" points="153.0001,-190.4132 149.5,-180.4133 146.0001,-190.4133 153.0001,-190.4132"/>
</g>
<!-- 11 -->
<g id="node11" class="node">
<title>11</title>
<path fill="none" stroke="#70d856" stroke-width="2" d="M300,-180C300,-180 229,-180 229,-180 223,-180 217,-174 217,-168 217,-168 217,-156 217,-156 217,-150 223,-144 229,-144 229,-144 300,-144 300,-144 306,-144 312,-150 312,-156 312,-156 312,-168 312,-168 312,-174 306,-180 300,-180"/>
<text text-anchor="middle" x="264.5" y="-165" font-family="sans" font-size="10.00" fill="#000000">sam_to_bam</text>
<text text-anchor="middle" x="264.5" y="-154" font-family="sans" font-size="10.00" fill="#000000">folder: 040_wga</text>
</g>
<!-- 11&#45;&gt;7 -->
<g id="edge7" class="edge">
<title>11&#45;&gt;7</title>
<path fill="none" stroke="#c0c0c0" stroke-width="2" d="M264.5,-143.8314C264.5,-136.131 264.5,-126.9743 264.5,-118.4166"/>
<polygon fill="#c0c0c0" stroke="#c0c0c0" stroke-width="2" points="268.0001,-118.4132 264.5,-108.4133 261.0001,-118.4133 268.0001,-118.4132"/>
</g>
<!-- 12 -->
<g id="node12" class="node">
<title>12</title>
<path fill="none" stroke="#70d856" stroke-width="2" d="M411.5,-252C411.5,-252 321.5,-252 321.5,-252 315.5,-252 309.5,-246 309.5,-240 309.5,-240 309.5,-228 309.5,-228 309.5,-222 315.5,-216 321.5,-216 321.5,-216 411.5,-216 411.5,-216 417.5,-216 423.5,-222 423.5,-228 423.5,-228 423.5,-240 423.5,-240 423.5,-246 417.5,-252 411.5,-252"/>
<text text-anchor="middle" x="366.5" y="-237" font-family="sans" font-size="10.00" fill="#000000">sam_to_bam</text>
<text text-anchor="middle" x="366.5" y="-226" font-family="sans" font-size="10.00" fill="#000000">folder: 030_mapped</text>
</g>
<!-- 12&#45;&gt;8 -->
<g id="edge8" class="edge">
<title>12&#45;&gt;8</title>
<path fill="none" stroke="#c0c0c0" stroke-width="2" d="M366.5,-215.8314C366.5,-208.131 366.5,-198.9743 366.5,-190.4166"/>
<polygon fill="#c0c0c0" stroke="#c0c0c0" stroke-width="2" points="370.0001,-190.4132 366.5,-180.4133 363.0001,-190.4133 370.0001,-190.4132"/>
</g>
<!-- 13 -->
<g id="node13" class="node">
<title>13</title>
<path fill="none" stroke="#d88556" stroke-width="2" d="M62.5,-252C62.5,-252 32.5,-252 32.5,-252 26.5,-252 20.5,-246 20.5,-240 20.5,-240 20.5,-228 20.5,-228 20.5,-222 26.5,-216 32.5,-216 32.5,-216 62.5,-216 62.5,-216 68.5,-216 74.5,-222 74.5,-228 74.5,-228 74.5,-240 74.5,-240 74.5,-246 68.5,-252 62.5,-252"/>
<text text-anchor="middle" x="47.5" y="-231.5" font-family="sans" font-size="10.00" fill="#000000">wga</text>
</g>
<!-- 13&#45;&gt;9 -->
<g id="edge9" class="edge">
<title>13&#45;&gt;9</title>
<path fill="none" stroke="#c0c0c0" stroke-width="2" d="M47.5,-215.8314C47.5,-208.131 47.5,-198.9743 47.5,-190.4166"/>
<polygon fill="#c0c0c0" stroke="#c0c0c0" stroke-width="2" points="51.0001,-190.4132 47.5,-180.4133 44.0001,-190.4133 51.0001,-190.4132"/>
</g>
<!-- 14 -->
<g id="node14" class="node">
<title>14</title>
<path fill="none" stroke="#d8b456" stroke-width="2" d="M186.5,-324C186.5,-324 112.5,-324 112.5,-324 106.5,-324 100.5,-318 100.5,-312 100.5,-312 100.5,-300 100.5,-300 100.5,-294 106.5,-288 112.5,-288 112.5,-288 186.5,-288 186.5,-288 192.5,-288 198.5,-294 198.5,-300 198.5,-300 198.5,-312 198.5,-312 198.5,-318 192.5,-324 186.5,-324"/>
<text text-anchor="middle" x="149.5" y="-309" font-family="sans" font-size="10.00" fill="#000000">map_to_genome</text>
<text text-anchor="middle" x="149.5" y="-298" font-family="sans" font-size="10.00" fill="#000000">indiv: BB31</text>
</g>
<!-- 14&#45;&gt;10 -->
<g id="edge10" class="edge">
<title>14&#45;&gt;10</title>
<path fill="none" stroke="#c0c0c0" stroke-width="2" d="M149.5,-287.8314C149.5,-280.131 149.5,-270.9743 149.5,-262.4166"/>
<polygon fill="#c0c0c0" stroke="#c0c0c0" stroke-width="2" points="153.0001,-262.4132 149.5,-252.4133 146.0001,-262.4133 153.0001,-262.4132"/>
</g>
<!-- 15 -->
<g id="node15" class="node">
<title>15</title>
<path fill="none" stroke="#d88556" stroke-width="2" d="M279.5,-252C279.5,-252 249.5,-252 249.5,-252 243.5,-252 237.5,-246 237.5,-240 237.5,-240 237.5,-228 237.5,-228 237.5,-222 243.5,-216 249.5,-216 249.5,-216 279.5,-216 279.5,-216 285.5,-216 291.5,-222 291.5,-228 291.5,-228 291.5,-240 291.5,-240 291.5,-246 285.5,-252 279.5,-252"/>
<text text-anchor="middle" x="264.5" y="-231.5" font-family="sans" font-size="10.00" fill="#000000">wga</text>
</g>
<!-- 15&#45;&gt;11 -->
<g id="edge11" class="edge">
<title>15&#45;&gt;11</title>
<path fill="none" stroke="#c0c0c0" stroke-width="2" d="M264.5,-215.8314C264.5,-208.131 264.5,-198.9743 264.5,-190.4166"/>
<polygon fill="#c0c0c0" stroke="#c0c0c0" stroke-width="2" points="268.0001,-190.4132 264.5,-180.4133 261.0001,-190.4133 268.0001,-190.4132"/>
</g>
<!-- 16 -->
<g id="node16" class="node">
<title>16</title>
<path fill="none" stroke="#d8b456" stroke-width="2" d="M378.5,-324C378.5,-324 304.5,-324 304.5,-324 298.5,-324 292.5,-318 292.5,-312 292.5,-312 292.5,-300 292.5,-300 292.5,-294 298.5,-288 304.5,-288 304.5,-288 378.5,-288 378.5,-288 384.5,-288 390.5,-294 390.5,-300 390.5,-300 390.5,-312 390.5,-312 390.5,-318 384.5,-324 378.5,-324"/>
<text text-anchor="middle" x="341.5" y="-309" font-family="sans" font-size="10.00" fill="#000000">map_to_genome</text>
<text text-anchor="middle" x="341.5" y="-298" font-family="sans" font-size="10.00" fill="#000000">indiv: BB55</text>
</g>
<!-- 16&#45;&gt;12 -->
<g id="edge12" class="edge">
<title>16&#45;&gt;12</title>
<path fill="none" stroke="#c0c0c0" stroke-width="2" d="M347.8086,-287.8314C350.5117,-280.0463 353.7316,-270.7729 356.731,-262.1347"/>
<polygon fill="#c0c0c0" stroke="#c0c0c0" stroke-width="2" points="360.1327,-263.0081 360.1065,-252.4133 353.52,-260.7119 360.1327,-263.0081"/>
</g>
<!-- 17 -->
<g id="node17" class="node">
<title>17</title>
<path fill="none" stroke="#56d86b" stroke-width="2" d="M70.5,-324C70.5,-324 22.5,-324 22.5,-324 16.5,-324 10.5,-318 10.5,-312 10.5,-312 10.5,-300 10.5,-300 10.5,-294 16.5,-288 22.5,-288 22.5,-288 70.5,-288 70.5,-288 76.5,-288 82.5,-294 82.5,-300 82.5,-300 82.5,-312 82.5,-312 82.5,-318 76.5,-324 70.5,-324"/>
<text text-anchor="middle" x="46.5" y="-309" font-family="sans" font-size="10.00" fill="#000000">flye</text>
<text text-anchor="middle" x="46.5" y="-298" font-family="sans" font-size="10.00" fill="#000000">indiv: BB31</text>
</g>
<!-- 17&#45;&gt;13 -->
<g id="edge13" class="edge">
<title>17&#45;&gt;13</title>
<path fill="none" stroke="#c0c0c0" stroke-width="2" d="M46.7523,-287.8314C46.8593,-280.131 46.9865,-270.9743 47.1053,-262.4166"/>
<polygon fill="#c0c0c0" stroke="#c0c0c0" stroke-width="2" points="50.6049,-262.4609 47.2443,-252.4133 43.6056,-262.3637 50.6049,-262.4609"/>
</g>
<!-- 18 -->
<g id="node18" class="node">
<title>18</title>
<path fill="none" stroke="#56d89a" stroke-width="2" d="M271,-398.5C271,-398.5 222,-398.5 222,-398.5 216,-398.5 210,-392.5 210,-386.5 210,-386.5 210,-374.5 210,-374.5 210,-368.5 216,-362.5 222,-362.5 222,-362.5 271,-362.5 271,-362.5 277,-362.5 283,-368.5 283,-374.5 283,-374.5 283,-386.5 283,-386.5 283,-392.5 277,-398.5 271,-398.5"/>
<text text-anchor="middle" x="246.5" y="-378" font-family="sans" font-size="10.00" fill="#000000">prepare_ref</text>
</g>
<!-- 18&#45;&gt;13 -->
<g id="edge14" class="edge">
<title>18&#45;&gt;13</title>
<path fill="none" stroke="#c0c0c0" stroke-width="2" d="M243.6725,-362.4956C239.4518,-341.62 229.5034,-307.5794 207.5,-288 166.8897,-251.8633 139.9013,-270.6552 84.3374,-251.7973"/>
<polygon fill="#c0c0c0" stroke="#c0c0c0" stroke-width="2" points="85.3782,-248.4509 74.7847,-248.2819 82.9606,-255.0202 85.3782,-248.4509"/>
</g>
<!-- 18&#45;&gt;14 -->
<g id="edge16" class="edge">
<title>18&#45;&gt;14</title>
<path fill="none" stroke="#c0c0c0" stroke-width="2" d="M223.019,-362.4656C210.4823,-352.8369 194.8743,-340.8493 181.2684,-330.3995"/>
<polygon fill="#c0c0c0" stroke="#c0c0c0" stroke-width="2" points="183.1637,-327.4419 173.101,-324.1265 178.8999,-332.9935 183.1637,-327.4419"/>
</g>
<!-- 18&#45;&gt;15 -->
<g id="edge18" class="edge">
<title>18&#45;&gt;15</title>
<path fill="none" stroke="#c0c0c0" stroke-width="2" d="M248.7433,-362.2419C251.8321,-337.1025 257.4231,-291.5981 261.0471,-262.1029"/>
<polygon fill="#c0c0c0" stroke="#c0c0c0" stroke-width="2" points="264.5392,-262.3802 262.285,-252.028 257.5915,-261.5265 264.5392,-262.3802"/>
</g>
<!-- 18&#45;&gt;16 -->
<g id="edge20" class="edge">
<title>18&#45;&gt;16</title>
<path fill="none" stroke="#c0c0c0" stroke-width="2" d="M269.4969,-362.4656C281.7751,-352.8369 297.0613,-340.8493 310.3866,-330.3995"/>
<polygon fill="#c0c0c0" stroke="#c0c0c0" stroke-width="2" points="312.6765,-333.0516 318.3857,-324.1265 308.3569,-327.5433 312.6765,-333.0516"/>
</g>
<!-- 19 -->
<g id="node19" class="node">
<title>19</title>
<path fill="none" stroke="#56b1d8" stroke-width="2" d="M144,-401C144,-401 55,-401 55,-401 49,-401 43,-395 43,-389 43,-389 43,-372 43,-372 43,-366 49,-360 55,-360 55,-360 144,-360 144,-360 150,-360 156,-366 156,-372 156,-372 156,-389 156,-389 156,-395 150,-401 144,-401"/>
<text text-anchor="middle" x="99.5" y="-389" font-family="sans" font-size="10.00" fill="#000000">compress_reads</text>
<text text-anchor="middle" x="99.5" y="-378" font-family="sans" font-size="10.00" fill="#000000">file: BB31</text>
<text text-anchor="middle" x="99.5" y="-367" font-family="sans" font-size="10.00" fill="#000000">path: 010_porechop</text>
</g>
<!-- 19&#45;&gt;14 -->
<g id="edge15" class="edge">
<title>19&#45;&gt;14</title>
<path fill="none" stroke="#c0c0c0" stroke-width="2" d="M113.4278,-359.7476C119.0624,-351.352 125.6375,-341.5551 131.6193,-332.6423"/>
<polygon fill="#c0c0c0" stroke="#c0c0c0" stroke-width="2" points="134.68,-334.3625 137.3465,-324.1087 128.8676,-330.4615 134.68,-334.3625"/>
</g>
<!-- 19&#45;&gt;17 -->
<g id="edge21" class="edge">
<title>19&#45;&gt;17</title>
<path fill="none" stroke="#c0c0c0" stroke-width="2" d="M84.7365,-359.7476C78.7016,-351.2645 71.6489,-341.3509 65.2556,-332.364"/>
<polygon fill="#c0c0c0" stroke="#c0c0c0" stroke-width="2" points="68.0315,-330.2282 59.3827,-324.1087 62.3276,-334.286 68.0315,-330.2282"/>
</g>
<!-- 20 -->
<g id="node20" class="node">
<title>20</title>
<path fill="none" stroke="#56d86b" stroke-width="2" d="M468.5,-324C468.5,-324 420.5,-324 420.5,-324 414.5,-324 408.5,-318 408.5,-312 408.5,-312 408.5,-300 408.5,-300 408.5,-294 414.5,-288 420.5,-288 420.5,-288 468.5,-288 468.5,-288 474.5,-288 480.5,-294 480.5,-300 480.5,-300 480.5,-312 480.5,-312 480.5,-318 474.5,-324 468.5,-324"/>
<text text-anchor="middle" x="444.5" y="-309" font-family="sans" font-size="10.00" fill="#000000">flye</text>
<text text-anchor="middle" x="444.5" y="-298" font-family="sans" font-size="10.00" fill="#000000">indiv: BB55</text>
</g>
<!-- 20&#45;&gt;15 -->
<g id="edge17" class="edge">
<title>20&#45;&gt;15</title>
<path fill="none" stroke="#c0c0c0" stroke-width="2" d="M408.1895,-291.3611C405.2539,-290.2126 402.33,-289.0802 399.5,-288 358.4932,-272.3474 345.1632,-270.6621 301.1033,-252.0462"/>
<polygon fill="#c0c0c0" stroke="#c0c0c0" stroke-width="2" points="302.4346,-248.8089 291.8643,-248.0881 299.678,-255.2433 302.4346,-248.8089"/>
</g>
<!-- 21 -->
<g id="node21" class="node">
<title>21</title>
<path fill="none" stroke="#56b1d8" stroke-width="2" d="M404,-401C404,-401 315,-401 315,-401 309,-401 303,-395 303,-389 303,-389 303,-372 303,-372 303,-366 309,-360 315,-360 315,-360 404,-360 404,-360 410,-360 416,-366 416,-372 416,-372 416,-389 416,-389 416,-395 410,-401 404,-401"/>
<text text-anchor="middle" x="359.5" y="-389" font-family="sans" font-size="10.00" fill="#000000">compress_reads</text>
<text text-anchor="middle" x="359.5" y="-378" font-family="sans" font-size="10.00" fill="#000000">file: BB55</text>
<text text-anchor="middle" x="359.5" y="-367" font-family="sans" font-size="10.00" fill="#000000">path: 010_porechop</text>
</g>
<!-- 21&#45;&gt;16 -->
<g id="edge19" class="edge">
<title>21&#45;&gt;16</title>
<path fill="none" stroke="#c0c0c0" stroke-width="2" d="M354.486,-359.7476C352.5632,-351.7892 350.3361,-342.5718 348.2752,-334.0418"/>
<polygon fill="#c0c0c0" stroke="#c0c0c0" stroke-width="2" points="351.626,-333.007 345.8752,-324.1087 344.8217,-334.651 351.626,-333.007"/>
</g>
<!-- 21&#45;&gt;20 -->
<g id="edge23" class="edge">
<title>21&#45;&gt;20</title>
<path fill="none" stroke="#c0c0c0" stroke-width="2" d="M383.1772,-359.7476C393.4546,-350.7398 405.5723,-340.119 416.3102,-330.7076"/>
<polygon fill="#c0c0c0" stroke="#c0c0c0" stroke-width="2" points="418.6258,-333.3321 423.8391,-324.1087 414.0118,-328.0679 418.6258,-333.3321"/>
</g>
<!-- 22 -->
<g id="node22" class="node">
<title>22</title>
<path fill="none" stroke="#ced856" stroke-width="2" d="M147.5,-473C147.5,-473 51.5,-473 51.5,-473 45.5,-473 39.5,-467 39.5,-461 39.5,-461 39.5,-449 39.5,-449 39.5,-443 45.5,-437 51.5,-437 51.5,-437 147.5,-437 147.5,-437 153.5,-437 159.5,-443 159.5,-449 159.5,-449 159.5,-461 159.5,-461 159.5,-467 153.5,-473 147.5,-473"/>
<text text-anchor="middle" x="99.5" y="-452.5" font-family="sans" font-size="10.00" fill="#000000">combine_indiv_reads</text>
</g>
<!-- 22&#45;&gt;19 -->
<g id="edge22" class="edge">
<title>22&#45;&gt;19</title>
<path fill="none" stroke="#c0c0c0" stroke-width="2" d="M99.5,-436.9656C99.5,-429.3118 99.5,-420.1674 99.5,-411.4898"/>
<polygon fill="#c0c0c0" stroke="#c0c0c0" stroke-width="2" points="103.0001,-411.2678 99.5,-401.2679 96.0001,-411.2679 103.0001,-411.2678"/>
</g>
<!-- 23 -->
<g id="node23" class="node">
<title>23</title>
<path fill="none" stroke="#ced856" stroke-width="2" d="M407.5,-473C407.5,-473 311.5,-473 311.5,-473 305.5,-473 299.5,-467 299.5,-461 299.5,-461 299.5,-449 299.5,-449 299.5,-443 305.5,-437 311.5,-437 311.5,-437 407.5,-437 407.5,-437 413.5,-437 419.5,-443 419.5,-449 419.5,-449 419.5,-461 419.5,-461 419.5,-467 413.5,-473 407.5,-473"/>
<text text-anchor="middle" x="359.5" y="-452.5" font-family="sans" font-size="10.00" fill="#000000">combine_indiv_reads</text>
</g>
<!-- 23&#45;&gt;21 -->
<g id="edge24" class="edge">
<title>23&#45;&gt;21</title>
<path fill="none" stroke="#c0c0c0" stroke-width="2" d="M359.5,-436.9656C359.5,-429.3118 359.5,-420.1674 359.5,-411.4898"/>
<polygon fill="#c0c0c0" stroke="#c0c0c0" stroke-width="2" points="363.0001,-411.2678 359.5,-401.2679 356.0001,-411.2679 363.0001,-411.2678"/>
</g>
<!-- 24 -->
<g id="node24" class="node">
<title>24</title>
<path fill="none" stroke="#5682d8" stroke-width="2" d="M123.5,-550C123.5,-550 75.5,-550 75.5,-550 69.5,-550 63.5,-544 63.5,-538 63.5,-538 63.5,-521 63.5,-521 63.5,-515 69.5,-509 75.5,-509 75.5,-509 123.5,-509 123.5,-509 129.5,-509 135.5,-515 135.5,-521 135.5,-521 135.5,-538 135.5,-538 135.5,-544 129.5,-550 123.5,-550"/>
<text text-anchor="middle" x="99.5" y="-538" font-family="sans" font-size="10.00" fill="#000000">porechop</text>
<text text-anchor="middle" x="99.5" y="-527" font-family="sans" font-size="10.00" fill="#000000">indiv: BB31</text>
<text text-anchor="middle" x="99.5" y="-516" font-family="sans" font-size="10.00" fill="#000000">read: test</text>
</g>
<!-- 24&#45;&gt;22 -->
<g id="edge25" class="edge">
<title>24&#45;&gt;22</title>
<path fill="none" stroke="#c0c0c0" stroke-width="2" d="M99.5,-508.7476C99.5,-500.8767 99.5,-491.7743 99.5,-483.3232"/>
<polygon fill="#c0c0c0" stroke="#c0c0c0" stroke-width="2" points="103.0001,-483.1086 99.5,-473.1087 96.0001,-483.1087 103.0001,-483.1086"/>
</g>
<!-- 25 -->
<g id="node25" class="node">
<title>25</title>
<path fill="none" stroke="#5682d8" stroke-width="2" d="M383.5,-550C383.5,-550 335.5,-550 335.5,-550 329.5,-550 323.5,-544 323.5,-538 323.5,-538 323.5,-521 323.5,-521 323.5,-515 329.5,-509 335.5,-509 335.5,-509 383.5,-509 383.5,-509 389.5,-509 395.5,-515 395.5,-521 395.5,-521 395.5,-538 395.5,-538 395.5,-544 389.5,-550 383.5,-550"/>
<text text-anchor="middle" x="359.5" y="-538" font-family="sans" font-size="10.00" fill="#000000">porechop</text>
<text text-anchor="middle" x="359.5" y="-527" font-family="sans" font-size="10.00" fill="#000000">indiv: BB55</text>
<text text-anchor="middle" x="359.5" y="-516" font-family="sans" font-size="10.00" fill="#000000">read: test</text>
</g>
<!-- 25&#45;&gt;23 -->
<g id="edge26" class="edge">
<title>25&#45;&gt;23</title>
<path fill="none" stroke="#c0c0c0" stroke-width="2" d="M359.5,-508.7476C359.5,-500.8767 359.5,-491.7743 359.5,-483.3232"/>
<polygon fill="#c0c0c0" stroke="#c0c0c0" stroke-width="2" points="363.0001,-483.1086 359.5,-473.1087 356.0001,-483.1087 363.0001,-483.1086"/>
</g>
</g>
</svg>
