<?xml version="1.0" encoding="UTF-8" standalone="no"?>
<!DOCTYPE svg PUBLIC "-//W3C//DTD SVG 1.1//EN"
 "http://www.w3.org/Graphics/SVG/1.1/DTD/svg11.dtd">
<!-- Generated by graphviz version 2.40.1 (20161225.0304)
 -->
<!-- Title: snakemake_dag Pages: 1 -->
<svg width="413pt" height="414pt"
 viewBox="0.00 0.00 413.00 414.00" xmlns="http://www.w3.org/2000/svg" xmlns:xlink="http://www.w3.org/1999/xlink">
<g id="graph0" class="graph" transform="scale(1 1) rotate(0) translate(4 410)">
<title>snakemake_dag</title>
<polygon fill="#ffffff" stroke="transparent" points="-4,4 -4,-410 409,-410 409,4 -4,4"/>
<!-- 1 -->
<g id="node1" class="node">
<title>1</title>
<path fill="none" stroke="#d85656" stroke-width="2" d="M382,-180C382,-180 334,-180 334,-180 328,-180 322,-174 322,-168 322,-168 322,-156 322,-156 322,-150 328,-144 334,-144 334,-144 382,-144 382,-144 388,-144 394,-150 394,-156 394,-156 394,-168 394,-168 394,-174 388,-180 382,-180"/>
<text text-anchor="middle" x="358" y="-165" font-family="sans" font-size="10.00" fill="#000000">flye</text>
<text text-anchor="middle" x="358" y="-154" font-family="sans" font-size="10.00" fill="#000000">indiv: BB31</text>
</g>
<!-- 2 -->
<g id="node2" class="node">
<title>2</title>
<path fill="none" stroke="#d85656" stroke-width="2" d="M60,-180C60,-180 12,-180 12,-180 6,-180 0,-174 0,-168 0,-168 0,-156 0,-156 0,-150 6,-144 12,-144 12,-144 60,-144 60,-144 66,-144 72,-150 72,-156 72,-156 72,-168 72,-168 72,-174 66,-180 60,-180"/>
<text text-anchor="middle" x="36" y="-165" font-family="sans" font-size="10.00" fill="#000000">flye</text>
<text text-anchor="middle" x="36" y="-154" font-family="sans" font-size="10.00" fill="#000000">indiv: BB55</text>
</g>
<!-- 3 -->
<g id="node3" class="node">
<title>3</title>
<path fill="none" stroke="#afd856" stroke-width="2" d="M270,-36C270,-36 240,-36 240,-36 234,-36 228,-30 228,-24 228,-24 228,-12 228,-12 228,-6 234,0 240,0 240,0 270,0 270,0 276,0 282,-6 282,-12 282,-12 282,-24 282,-24 282,-30 276,-36 270,-36"/>
<text text-anchor="middle" x="255" y="-15.5" font-family="sans" font-size="10.00" fill="#000000">sort</text>
</g>
<!-- 4 -->
<g id="node4" class="node">
<title>4</title>
<path fill="none" stroke="#afd856" stroke-width="2" d="M154,-36C154,-36 124,-36 124,-36 118,-36 112,-30 112,-24 112,-24 112,-12 112,-12 112,-6 118,0 124,0 124,0 154,0 154,0 160,0 166,-6 166,-12 166,-12 166,-24 166,-24 166,-30 160,-36 154,-36"/>
<text text-anchor="middle" x="139" y="-15.5" font-family="sans" font-size="10.00" fill="#000000">sort</text>
</g>
<!-- 5 -->
<g id="node5" class="node">
<title>5</title>
<path fill="none" stroke="#70d856" stroke-width="2" d="M389.5,-257C389.5,-257 300.5,-257 300.5,-257 294.5,-257 288.5,-251 288.5,-245 288.5,-245 288.5,-228 288.5,-228 288.5,-222 294.5,-216 300.5,-216 300.5,-216 389.5,-216 389.5,-216 395.5,-216 401.5,-222 401.5,-228 401.5,-228 401.5,-245 401.5,-245 401.5,-251 395.5,-257 389.5,-257"/>
<text text-anchor="middle" x="345" y="-245" font-family="sans" font-size="10.00" fill="#000000">compress_reads</text>
<text text-anchor="middle" x="345" y="-234" font-family="sans" font-size="10.00" fill="#000000">file: BB31</text>
<text text-anchor="middle" x="345" y="-223" font-family="sans" font-size="10.00" fill="#000000">path: 010_porechop</text>
</g>
<!-- 5&#45;&gt;1 -->
<g id="edge1" class="edge">
<title>5&#45;&gt;1</title>
<path fill="none" stroke="#c0c0c0" stroke-width="2" d="M348.6212,-215.7476C350.0099,-207.7892 351.6183,-198.5718 353.1068,-190.0418"/>
<polygon fill="#c0c0c0" stroke="#c0c0c0" stroke-width="2" points="356.5689,-190.5615 354.8401,-180.1087 349.6731,-189.3581 356.5689,-190.5615"/>
</g>
<!-- 11 -->
<g id="node11" class="node">
<title>11</title>
<path fill="none" stroke="#56d873" stroke-width="2" d="M292,-180C292,-180 218,-180 218,-180 212,-180 206,-174 206,-168 206,-168 206,-156 206,-156 206,-150 212,-144 218,-144 218,-144 292,-144 292,-144 298,-144 304,-150 304,-156 304,-156 304,-168 304,-168 304,-174 298,-180 292,-180"/>
<text text-anchor="middle" x="255" y="-165" font-family="sans" font-size="10.00" fill="#000000">map_to_genome</text>
<text text-anchor="middle" x="255" y="-154" font-family="sans" font-size="10.00" fill="#000000">indiv: BB31</text>
</g>
<!-- 5&#45;&gt;11 -->
<g id="edge11" class="edge">
<title>5&#45;&gt;11</title>
<path fill="none" stroke="#c0c0c0" stroke-width="2" d="M319.93,-215.7476C309.048,-206.7398 296.2176,-196.119 284.848,-186.7076"/>
<polygon fill="#c0c0c0" stroke="#c0c0c0" stroke-width="2" points="286.8113,-183.7891 276.8762,-180.1087 282.3477,-189.1814 286.8113,-183.7891"/>
</g>
<!-- 6 -->
<g id="node6" class="node">
<title>6</title>
<path fill="none" stroke="#70d856" stroke-width="2" d="M130.5,-257C130.5,-257 41.5,-257 41.5,-257 35.5,-257 29.5,-251 29.5,-245 29.5,-245 29.5,-228 29.5,-228 29.5,-222 35.5,-216 41.5,-216 41.5,-216 130.5,-216 130.5,-216 136.5,-216 142.5,-222 142.5,-228 142.5,-228 142.5,-245 142.5,-245 142.5,-251 136.5,-257 130.5,-257"/>
<text text-anchor="middle" x="86" y="-245" font-family="sans" font-size="10.00" fill="#000000">compress_reads</text>
<text text-anchor="middle" x="86" y="-234" font-family="sans" font-size="10.00" fill="#000000">file: BB55</text>
<text text-anchor="middle" x="86" y="-223" font-family="sans" font-size="10.00" fill="#000000">path: 010_porechop</text>
</g>
<!-- 6&#45;&gt;2 -->
<g id="edge2" class="edge">
<title>6&#45;&gt;2</title>
<path fill="none" stroke="#c0c0c0" stroke-width="2" d="M72.0722,-215.7476C66.4376,-207.352 59.8625,-197.5551 53.8807,-188.6423"/>
<polygon fill="#c0c0c0" stroke="#c0c0c0" stroke-width="2" points="56.6324,-186.4615 48.1535,-180.1087 50.82,-190.3625 56.6324,-186.4615"/>
</g>
<!-- 12 -->
<g id="node12" class="node">
<title>12</title>
<path fill="none" stroke="#56d873" stroke-width="2" d="M176,-180C176,-180 102,-180 102,-180 96,-180 90,-174 90,-168 90,-168 90,-156 90,-156 90,-150 96,-144 102,-144 102,-144 176,-144 176,-144 182,-144 188,-150 188,-156 188,-156 188,-168 188,-168 188,-174 182,-180 176,-180"/>
<text text-anchor="middle" x="139" y="-165" font-family="sans" font-size="10.00" fill="#000000">map_to_genome</text>
<text text-anchor="middle" x="139" y="-154" font-family="sans" font-size="10.00" fill="#000000">indiv: BB55</text>
</g>
<!-- 6&#45;&gt;12 -->
<g id="edge13" class="edge">
<title>6&#45;&gt;12</title>
<path fill="none" stroke="#c0c0c0" stroke-width="2" d="M100.7635,-215.7476C106.7984,-207.2645 113.8511,-197.3509 120.2444,-188.364"/>
<polygon fill="#c0c0c0" stroke="#c0c0c0" stroke-width="2" points="123.1724,-190.286 126.1173,-180.1087 117.4685,-186.2282 123.1724,-190.286"/>
</g>
<!-- 7 -->
<g id="node7" class="node">
<title>7</title>
<path fill="none" stroke="#d88d56" stroke-width="2" d="M283,-108C283,-108 227,-108 227,-108 221,-108 215,-102 215,-96 215,-96 215,-84 215,-84 215,-78 221,-72 227,-72 227,-72 283,-72 283,-72 289,-72 295,-78 295,-84 295,-84 295,-96 295,-96 295,-102 289,-108 283,-108"/>
<text text-anchor="middle" x="255" y="-87.5" font-family="sans" font-size="10.00" fill="#000000">sam_to_bam</text>
</g>
<!-- 7&#45;&gt;3 -->
<g id="edge3" class="edge">
<title>7&#45;&gt;3</title>
<path fill="none" stroke="#c0c0c0" stroke-width="2" d="M255,-71.8314C255,-64.131 255,-54.9743 255,-46.4166"/>
<polygon fill="#c0c0c0" stroke="#c0c0c0" stroke-width="2" points="258.5001,-46.4132 255,-36.4133 251.5001,-46.4133 258.5001,-46.4132"/>
</g>
<!-- 8 -->
<g id="node8" class="node">
<title>8</title>
<path fill="none" stroke="#d88d56" stroke-width="2" d="M167,-108C167,-108 111,-108 111,-108 105,-108 99,-102 99,-96 99,-96 99,-84 99,-84 99,-78 105,-72 111,-72 111,-72 167,-72 167,-72 173,-72 179,-78 179,-84 179,-84 179,-96 179,-96 179,-102 173,-108 167,-108"/>
<text text-anchor="middle" x="139" y="-87.5" font-family="sans" font-size="10.00" fill="#000000">sam_to_bam</text>
</g>
<!-- 8&#45;&gt;4 -->
<g id="edge4" class="edge">
<title>8&#45;&gt;4</title>
<path fill="none" stroke="#c0c0c0" stroke-width="2" d="M139,-71.8314C139,-64.131 139,-54.9743 139,-46.4166"/>
<polygon fill="#c0c0c0" stroke="#c0c0c0" stroke-width="2" points="142.5001,-46.4132 139,-36.4133 135.5001,-46.4133 142.5001,-46.4132"/>
</g>
<!-- 9 -->
<g id="node9" class="node">
<title>9</title>
<path fill="none" stroke="#d8cb56" stroke-width="2" d="M393,-329C393,-329 297,-329 297,-329 291,-329 285,-323 285,-317 285,-317 285,-305 285,-305 285,-299 291,-293 297,-293 297,-293 393,-293 393,-293 399,-293 405,-299 405,-305 405,-305 405,-317 405,-317 405,-323 399,-329 393,-329"/>
<text text-anchor="middle" x="345" y="-308.5" font-family="sans" font-size="10.00" fill="#000000">combine_indiv_reads</text>
</g>
<!-- 9&#45;&gt;5 -->
<g id="edge5" class="edge">
<title>9&#45;&gt;5</title>
<path fill="none" stroke="#c0c0c0" stroke-width="2" d="M345,-292.9656C345,-285.3118 345,-276.1674 345,-267.4898"/>
<polygon fill="#c0c0c0" stroke="#c0c0c0" stroke-width="2" points="348.5001,-267.2678 345,-257.2679 341.5001,-267.2679 348.5001,-267.2678"/>
</g>
<!-- 10 -->
<g id="node10" class="node">
<title>10</title>
<path fill="none" stroke="#d8cb56" stroke-width="2" d="M134,-329C134,-329 38,-329 38,-329 32,-329 26,-323 26,-317 26,-317 26,-305 26,-305 26,-299 32,-293 38,-293 38,-293 134,-293 134,-293 140,-293 146,-299 146,-305 146,-305 146,-317 146,-317 146,-323 140,-329 134,-329"/>
<text text-anchor="middle" x="86" y="-308.5" font-family="sans" font-size="10.00" fill="#000000">combine_indiv_reads</text>
</g>
<!-- 10&#45;&gt;6 -->
<g id="edge6" class="edge">
<title>10&#45;&gt;6</title>
<path fill="none" stroke="#c0c0c0" stroke-width="2" d="M86,-292.9656C86,-285.3118 86,-276.1674 86,-267.4898"/>
<polygon fill="#c0c0c0" stroke="#c0c0c0" stroke-width="2" points="89.5001,-267.2678 86,-257.2679 82.5001,-267.2679 89.5001,-267.2678"/>
</g>
<!-- 11&#45;&gt;7 -->
<g id="edge7" class="edge">
<title>11&#45;&gt;7</title>
<path fill="none" stroke="#c0c0c0" stroke-width="2" d="M255,-143.8314C255,-136.131 255,-126.9743 255,-118.4166"/>
<polygon fill="#c0c0c0" stroke="#c0c0c0" stroke-width="2" points="258.5001,-118.4132 255,-108.4133 251.5001,-118.4133 258.5001,-118.4132"/>
</g>
<!-- 12&#45;&gt;8 -->
<g id="edge8" class="edge">
<title>12&#45;&gt;8</title>
<path fill="none" stroke="#c0c0c0" stroke-width="2" d="M139,-143.8314C139,-136.131 139,-126.9743 139,-118.4166"/>
<polygon fill="#c0c0c0" stroke="#c0c0c0" stroke-width="2" points="142.5001,-118.4132 139,-108.4133 135.5001,-118.4133 142.5001,-118.4132"/>
</g>
<!-- 13 -->
<g id="node13" class="node">
<title>13</title>
<path fill="none" stroke="#5692d8" stroke-width="2" d="M369,-406C369,-406 321,-406 321,-406 315,-406 309,-400 309,-394 309,-394 309,-377 309,-377 309,-371 315,-365 321,-365 321,-365 369,-365 369,-365 375,-365 381,-371 381,-377 381,-377 381,-394 381,-394 381,-400 375,-406 369,-406"/>
<text text-anchor="middle" x="345" y="-394" font-family="sans" font-size="10.00" fill="#000000">porechop</text>
<text text-anchor="middle" x="345" y="-383" font-family="sans" font-size="10.00" fill="#000000">indiv: BB31</text>
<text text-anchor="middle" x="345" y="-372" font-family="sans" font-size="10.00" fill="#000000">read: test</text>
</g>
<!-- 13&#45;&gt;9 -->
<g id="edge9" class="edge">
<title>13&#45;&gt;9</title>
<path fill="none" stroke="#c0c0c0" stroke-width="2" d="M345,-364.7476C345,-356.8767 345,-347.7743 345,-339.3232"/>
<polygon fill="#c0c0c0" stroke="#c0c0c0" stroke-width="2" points="348.5001,-339.1086 345,-329.1087 341.5001,-339.1087 348.5001,-339.1086"/>
</g>
<!-- 14 -->
<g id="node14" class="node">
<title>14</title>
<path fill="none" stroke="#5692d8" stroke-width="2" d="M110,-406C110,-406 62,-406 62,-406 56,-406 50,-400 50,-394 50,-394 50,-377 50,-377 50,-371 56,-365 62,-365 62,-365 110,-365 110,-365 116,-365 122,-371 122,-377 122,-377 122,-394 122,-394 122,-400 116,-406 110,-406"/>
<text text-anchor="middle" x="86" y="-394" font-family="sans" font-size="10.00" fill="#000000">porechop</text>
<text text-anchor="middle" x="86" y="-383" font-family="sans" font-size="10.00" fill="#000000">indiv: BB55</text>
<text text-anchor="middle" x="86" y="-372" font-family="sans" font-size="10.00" fill="#000000">read: test</text>
</g>
<!-- 14&#45;&gt;10 -->
<g id="edge10" class="edge">
<title>14&#45;&gt;10</title>
<path fill="none" stroke="#c0c0c0" stroke-width="2" d="M86,-364.7476C86,-356.8767 86,-347.7743 86,-339.3232"/>
<polygon fill="#c0c0c0" stroke="#c0c0c0" stroke-width="2" points="89.5001,-339.1086 86,-329.1087 82.5001,-339.1087 89.5001,-339.1086"/>
</g>
<!-- 15 -->
<g id="node15" class="node">
<title>15</title>
<path fill="none" stroke="#56c9d8" stroke-width="2" d="M246.5,-254.5C246.5,-254.5 197.5,-254.5 197.5,-254.5 191.5,-254.5 185.5,-248.5 185.5,-242.5 185.5,-242.5 185.5,-230.5 185.5,-230.5 185.5,-224.5 191.5,-218.5 197.5,-218.5 197.5,-218.5 246.5,-218.5 246.5,-218.5 252.5,-218.5 258.5,-224.5 258.5,-230.5 258.5,-230.5 258.5,-242.5 258.5,-242.5 258.5,-248.5 252.5,-254.5 246.5,-254.5"/>
<text text-anchor="middle" x="222" y="-234" font-family="sans" font-size="10.00" fill="#000000">prepare_ref</text>
</g>
<!-- 15&#45;&gt;11 -->
<g id="edge12" class="edge">
<title>15&#45;&gt;11</title>
<path fill="none" stroke="#c0c0c0" stroke-width="2" d="M229.9884,-218.4656C233.8511,-209.7453 238.5708,-199.0901 242.8654,-189.3948"/>
<polygon fill="#c0c0c0" stroke="#c0c0c0" stroke-width="2" points="246.1209,-190.6872 246.9708,-180.1265 239.7206,-187.8522 246.1209,-190.6872"/>
</g>
<!-- 15&#45;&gt;12 -->
<g id="edge14" class="edge">
<title>15&#45;&gt;12</title>
<path fill="none" stroke="#c0c0c0" stroke-width="2" d="M201.908,-218.4656C191.3831,-209.0186 178.3285,-197.3009 166.8441,-186.9926"/>
<polygon fill="#c0c0c0" stroke="#c0c0c0" stroke-width="2" points="168.9744,-184.2016 159.1946,-180.1265 164.2986,-189.4109 168.9744,-184.2016"/>
</g>
</g>
</svg>
