<?xml version="1.0" encoding="UTF-8" standalone="no"?>
<!DOCTYPE svg PUBLIC "-//W3C//DTD SVG 1.1//EN"
 "http://www.w3.org/Graphics/SVG/1.1/DTD/svg11.dtd">
<!-- Generated by graphviz version 2.40.1 (20161225.0304)
 -->
<!-- Title: snakemake_dag Pages: 1 -->
<svg width="489pt" height="486pt"
 viewBox="0.00 0.00 488.50 486.00" xmlns="http://www.w3.org/2000/svg" xmlns:xlink="http://www.w3.org/1999/xlink">
<g id="graph0" class="graph" transform="scale(1 1) rotate(0) translate(4 482)">
<title>snakemake_dag</title>
<polygon fill="#ffffff" stroke="transparent" points="-4,4 -4,-482 484.5,-482 484.5,4 -4,4"/>
<!-- 1 -->
<g id="node1" class="node">
<title>1</title>
<path fill="none" stroke="#568ad8" stroke-width="2" d="M62.5,-36C62.5,-36 32.5,-36 32.5,-36 26.5,-36 20.5,-30 20.5,-24 20.5,-24 20.5,-12 20.5,-12 20.5,-6 26.5,0 32.5,0 32.5,0 62.5,0 62.5,0 68.5,0 74.5,-6 74.5,-12 74.5,-12 74.5,-24 74.5,-24 74.5,-30 68.5,-36 62.5,-36"/>
<text text-anchor="middle" x="47.5" y="-15.5" font-family="sans" font-size="10.00" fill="#000000">sort</text>
</g>
<!-- 2 -->
<g id="node2" class="node">
<title>2</title>
<path fill="none" stroke="#568ad8" stroke-width="2" d="M164.5,-108C164.5,-108 134.5,-108 134.5,-108 128.5,-108 122.5,-102 122.5,-96 122.5,-96 122.5,-84 122.5,-84 122.5,-78 128.5,-72 134.5,-72 134.5,-72 164.5,-72 164.5,-72 170.5,-72 176.5,-78 176.5,-84 176.5,-84 176.5,-96 176.5,-96 176.5,-102 170.5,-108 164.5,-108"/>
<text text-anchor="middle" x="149.5" y="-87.5" font-family="sans" font-size="10.00" fill="#000000">sort</text>
</g>
<!-- 3 -->
<g id="node3" class="node">
<title>3</title>
<path fill="none" stroke="#568ad8" stroke-width="2" d="M279.5,-36C279.5,-36 249.5,-36 249.5,-36 243.5,-36 237.5,-30 237.5,-24 237.5,-24 237.5,-12 237.5,-12 237.5,-6 243.5,0 249.5,0 249.5,0 279.5,0 279.5,0 285.5,0 291.5,-6 291.5,-12 291.5,-12 291.5,-24 291.5,-24 291.5,-30 285.5,-36 279.5,-36"/>
<text text-anchor="middle" x="264.5" y="-15.5" font-family="sans" font-size="10.00" fill="#000000">sort</text>
</g>
<!-- 4 -->
<g id="node4" class="node">
<title>4</title>
<path fill="none" stroke="#568ad8" stroke-width="2" d="M381.5,-108C381.5,-108 351.5,-108 351.5,-108 345.5,-108 339.5,-102 339.5,-96 339.5,-96 339.5,-84 339.5,-84 339.5,-78 345.5,-72 351.5,-72 351.5,-72 381.5,-72 381.5,-72 387.5,-72 393.5,-78 393.5,-84 393.5,-84 393.5,-96 393.5,-96 393.5,-102 387.5,-108 381.5,-108"/>
<text text-anchor="middle" x="366.5" y="-87.5" font-family="sans" font-size="10.00" fill="#000000">sort</text>
</g>
<!-- 5 -->
<g id="node5" class="node">
<title>5</title>
<path fill="none" stroke="#59d856" stroke-width="2" d="M83,-108C83,-108 12,-108 12,-108 6,-108 0,-102 0,-96 0,-96 0,-84 0,-84 0,-78 6,-72 12,-72 12,-72 83,-72 83,-72 89,-72 95,-78 95,-84 95,-84 95,-96 95,-96 95,-102 89,-108 83,-108"/>
<text text-anchor="middle" x="47.5" y="-93" font-family="sans" font-size="10.00" fill="#000000">sam_to_bam</text>
<text text-anchor="middle" x="47.5" y="-82" font-family="sans" font-size="10.00" fill="#000000">folder: 040_wga</text>
</g>
<!-- 5&#45;&gt;1 -->
<g id="edge1" class="edge">
<title>5&#45;&gt;1</title>
<path fill="none" stroke="#c0c0c0" stroke-width="2" d="M47.5,-71.8314C47.5,-64.131 47.5,-54.9743 47.5,-46.4166"/>
<polygon fill="#c0c0c0" stroke="#c0c0c0" stroke-width="2" points="51.0001,-46.4132 47.5,-36.4133 44.0001,-46.4133 51.0001,-46.4132"/>
</g>
<!-- 6 -->
<g id="node6" class="node">
<title>6</title>
<path fill="none" stroke="#59d856" stroke-width="2" d="M194.5,-180C194.5,-180 104.5,-180 104.5,-180 98.5,-180 92.5,-174 92.5,-168 92.5,-168 92.5,-156 92.5,-156 92.5,-150 98.5,-144 104.5,-144 104.5,-144 194.5,-144 194.5,-144 200.5,-144 206.5,-150 206.5,-156 206.5,-156 206.5,-168 206.5,-168 206.5,-174 200.5,-180 194.5,-180"/>
<text text-anchor="middle" x="149.5" y="-165" font-family="sans" font-size="10.00" fill="#000000">sam_to_bam</text>
<text text-anchor="middle" x="149.5" y="-154" font-family="sans" font-size="10.00" fill="#000000">folder: 030_mapped</text>
</g>
<!-- 6&#45;&gt;2 -->
<g id="edge2" class="edge">
<title>6&#45;&gt;2</title>
<path fill="none" stroke="#c0c0c0" stroke-width="2" d="M149.5,-143.8314C149.5,-136.131 149.5,-126.9743 149.5,-118.4166"/>
<polygon fill="#c0c0c0" stroke="#c0c0c0" stroke-width="2" points="153.0001,-118.4132 149.5,-108.4133 146.0001,-118.4133 153.0001,-118.4132"/>
</g>
<!-- 7 -->
<g id="node7" class="node">
<title>7</title>
<path fill="none" stroke="#59d856" stroke-width="2" d="M300,-108C300,-108 229,-108 229,-108 223,-108 217,-102 217,-96 217,-96 217,-84 217,-84 217,-78 223,-72 229,-72 229,-72 300,-72 300,-72 306,-72 312,-78 312,-84 312,-84 312,-96 312,-96 312,-102 306,-108 300,-108"/>
<text text-anchor="middle" x="264.5" y="-93" font-family="sans" font-size="10.00" fill="#000000">sam_to_bam</text>
<text text-anchor="middle" x="264.5" y="-82" font-family="sans" font-size="10.00" fill="#000000">folder: 040_wga</text>
</g>
<!-- 7&#45;&gt;3 -->
<g id="edge3" class="edge">
<title>7&#45;&gt;3</title>
<path fill="none" stroke="#c0c0c0" stroke-width="2" d="M264.5,-71.8314C264.5,-64.131 264.5,-54.9743 264.5,-46.4166"/>
<polygon fill="#c0c0c0" stroke="#c0c0c0" stroke-width="2" points="268.0001,-46.4132 264.5,-36.4133 261.0001,-46.4133 268.0001,-46.4132"/>
</g>
<!-- 8 -->
<g id="node8" class="node">
<title>8</title>
<path fill="none" stroke="#59d856" stroke-width="2" d="M411.5,-180C411.5,-180 321.5,-180 321.5,-180 315.5,-180 309.5,-174 309.5,-168 309.5,-168 309.5,-156 309.5,-156 309.5,-150 315.5,-144 321.5,-144 321.5,-144 411.5,-144 411.5,-144 417.5,-144 423.5,-150 423.5,-156 423.5,-156 423.5,-168 423.5,-168 423.5,-174 417.5,-180 411.5,-180"/>
<text text-anchor="middle" x="366.5" y="-165" font-family="sans" font-size="10.00" fill="#000000">sam_to_bam</text>
<text text-anchor="middle" x="366.5" y="-154" font-family="sans" font-size="10.00" fill="#000000">folder: 030_mapped</text>
</g>
<!-- 8&#45;&gt;4 -->
<g id="edge4" class="edge">
<title>8&#45;&gt;4</title>
<path fill="none" stroke="#c0c0c0" stroke-width="2" d="M366.5,-143.8314C366.5,-136.131 366.5,-126.9743 366.5,-118.4166"/>
<polygon fill="#c0c0c0" stroke="#c0c0c0" stroke-width="2" points="370.0001,-118.4132 366.5,-108.4133 363.0001,-118.4133 370.0001,-118.4132"/>
</g>
<!-- 9 -->
<g id="node9" class="node">
<title>9</title>
<path fill="none" stroke="#d88d56" stroke-width="2" d="M62.5,-180C62.5,-180 32.5,-180 32.5,-180 26.5,-180 20.5,-174 20.5,-168 20.5,-168 20.5,-156 20.5,-156 20.5,-150 26.5,-144 32.5,-144 32.5,-144 62.5,-144 62.5,-144 68.5,-144 74.5,-150 74.5,-156 74.5,-156 74.5,-168 74.5,-168 74.5,-174 68.5,-180 62.5,-180"/>
<text text-anchor="middle" x="47.5" y="-159.5" font-family="sans" font-size="10.00" fill="#000000">wga</text>
</g>
<!-- 9&#45;&gt;5 -->
<g id="edge5" class="edge">
<title>9&#45;&gt;5</title>
<path fill="none" stroke="#c0c0c0" stroke-width="2" d="M47.5,-143.8314C47.5,-136.131 47.5,-126.9743 47.5,-118.4166"/>
<polygon fill="#c0c0c0" stroke="#c0c0c0" stroke-width="2" points="51.0001,-118.4132 47.5,-108.4133 44.0001,-118.4133 51.0001,-118.4132"/>
</g>
<!-- 10 -->
<g id="node10" class="node">
<title>10</title>
<path fill="none" stroke="#56d88a" stroke-width="2" d="M186.5,-252C186.5,-252 112.5,-252 112.5,-252 106.5,-252 100.5,-246 100.5,-240 100.5,-240 100.5,-228 100.5,-228 100.5,-222 106.5,-216 112.5,-216 112.5,-216 186.5,-216 186.5,-216 192.5,-216 198.5,-222 198.5,-228 198.5,-228 198.5,-240 198.5,-240 198.5,-246 192.5,-252 186.5,-252"/>
<text text-anchor="middle" x="149.5" y="-237" font-family="sans" font-size="10.00" fill="#000000">map_to_genome</text>
<text text-anchor="middle" x="149.5" y="-226" font-family="sans" font-size="10.00" fill="#000000">indiv: BB31</text>
</g>
<!-- 10&#45;&gt;6 -->
<g id="edge6" class="edge">
<title>10&#45;&gt;6</title>
<path fill="none" stroke="#c0c0c0" stroke-width="2" d="M149.5,-215.8314C149.5,-208.131 149.5,-198.9743 149.5,-190.4166"/>
<polygon fill="#c0c0c0" stroke="#c0c0c0" stroke-width="2" points="153.0001,-190.4132 149.5,-180.4133 146.0001,-190.4133 153.0001,-190.4132"/>
</g>
<!-- 11 -->
<g id="node11" class="node">
<title>11</title>
<path fill="none" stroke="#d88d56" stroke-width="2" d="M279.5,-180C279.5,-180 249.5,-180 249.5,-180 243.5,-180 237.5,-174 237.5,-168 237.5,-168 237.5,-156 237.5,-156 237.5,-150 243.5,-144 249.5,-144 249.5,-144 279.5,-144 279.5,-144 285.5,-144 291.5,-150 291.5,-156 291.5,-156 291.5,-168 291.5,-168 291.5,-174 285.5,-180 279.5,-180"/>
<text text-anchor="middle" x="264.5" y="-159.5" font-family="sans" font-size="10.00" fill="#000000">wga</text>
</g>
<!-- 11&#45;&gt;7 -->
<g id="edge7" class="edge">
<title>11&#45;&gt;7</title>
<path fill="none" stroke="#c0c0c0" stroke-width="2" d="M264.5,-143.8314C264.5,-136.131 264.5,-126.9743 264.5,-118.4166"/>
<polygon fill="#c0c0c0" stroke="#c0c0c0" stroke-width="2" points="268.0001,-118.4132 264.5,-108.4133 261.0001,-118.4133 268.0001,-118.4132"/>
</g>
<!-- 12 -->
<g id="node12" class="node">
<title>12</title>
<path fill="none" stroke="#56d88a" stroke-width="2" d="M378.5,-252C378.5,-252 304.5,-252 304.5,-252 298.5,-252 292.5,-246 292.5,-240 292.5,-240 292.5,-228 292.5,-228 292.5,-222 298.5,-216 304.5,-216 304.5,-216 378.5,-216 378.5,-216 384.5,-216 390.5,-222 390.5,-228 390.5,-228 390.5,-240 390.5,-240 390.5,-246 384.5,-252 378.5,-252"/>
<text text-anchor="middle" x="341.5" y="-237" font-family="sans" font-size="10.00" fill="#000000">map_to_genome</text>
<text text-anchor="middle" x="341.5" y="-226" font-family="sans" font-size="10.00" fill="#000000">indiv: BB55</text>
</g>
<!-- 12&#45;&gt;8 -->
<g id="edge8" class="edge">
<title>12&#45;&gt;8</title>
<path fill="none" stroke="#c0c0c0" stroke-width="2" d="M347.8086,-215.8314C350.5117,-208.0463 353.7316,-198.7729 356.731,-190.1347"/>
<polygon fill="#c0c0c0" stroke="#c0c0c0" stroke-width="2" points="360.1327,-191.0081 360.1065,-180.4133 353.52,-188.7119 360.1327,-191.0081"/>
</g>
<!-- 13 -->
<g id="node13" class="node">
<title>13</title>
<path fill="none" stroke="#56c1d8" stroke-width="2" d="M70.5,-252C70.5,-252 22.5,-252 22.5,-252 16.5,-252 10.5,-246 10.5,-240 10.5,-240 10.5,-228 10.5,-228 10.5,-222 16.5,-216 22.5,-216 22.5,-216 70.5,-216 70.5,-216 76.5,-216 82.5,-222 82.5,-228 82.5,-228 82.5,-240 82.5,-240 82.5,-246 76.5,-252 70.5,-252"/>
<text text-anchor="middle" x="46.5" y="-237" font-family="sans" font-size="10.00" fill="#000000">flye</text>
<text text-anchor="middle" x="46.5" y="-226" font-family="sans" font-size="10.00" fill="#000000">indiv: BB31</text>
</g>
<!-- 13&#45;&gt;9 -->
<g id="edge9" class="edge">
<title>13&#45;&gt;9</title>
<path fill="none" stroke="#c0c0c0" stroke-width="2" d="M46.7523,-215.8314C46.8593,-208.131 46.9865,-198.9743 47.1053,-190.4166"/>
<polygon fill="#c0c0c0" stroke="#c0c0c0" stroke-width="2" points="50.6049,-190.4609 47.2443,-180.4133 43.6056,-190.3637 50.6049,-190.4609"/>
</g>
<!-- 14 -->
<g id="node14" class="node">
<title>14</title>
<path fill="none" stroke="#d85656" stroke-width="2" d="M271,-326.5C271,-326.5 222,-326.5 222,-326.5 216,-326.5 210,-320.5 210,-314.5 210,-314.5 210,-302.5 210,-302.5 210,-296.5 216,-290.5 222,-290.5 222,-290.5 271,-290.5 271,-290.5 277,-290.5 283,-296.5 283,-302.5 283,-302.5 283,-314.5 283,-314.5 283,-320.5 277,-326.5 271,-326.5"/>
<text text-anchor="middle" x="246.5" y="-306" font-family="sans" font-size="10.00" fill="#000000">prepare_ref</text>
</g>
<!-- 14&#45;&gt;9 -->
<g id="edge10" class="edge">
<title>14&#45;&gt;9</title>
<path fill="none" stroke="#c0c0c0" stroke-width="2" d="M243.6725,-290.4956C239.4518,-269.62 229.5034,-235.5794 207.5,-216 166.8897,-179.8633 139.9013,-198.6552 84.3374,-179.7973"/>
<polygon fill="#c0c0c0" stroke="#c0c0c0" stroke-width="2" points="85.3782,-176.4509 74.7847,-176.2819 82.9606,-183.0202 85.3782,-176.4509"/>
</g>
<!-- 14&#45;&gt;10 -->
<g id="edge12" class="edge">
<title>14&#45;&gt;10</title>
<path fill="none" stroke="#c0c0c0" stroke-width="2" d="M223.019,-290.4656C210.4823,-280.8369 194.8743,-268.8493 181.2684,-258.3995"/>
<polygon fill="#c0c0c0" stroke="#c0c0c0" stroke-width="2" points="183.1637,-255.4419 173.101,-252.1265 178.8999,-260.9935 183.1637,-255.4419"/>
</g>
<!-- 14&#45;&gt;11 -->
<g id="edge14" class="edge">
<title>14&#45;&gt;11</title>
<path fill="none" stroke="#c0c0c0" stroke-width="2" d="M248.7433,-290.2419C251.8321,-265.1025 257.4231,-219.5981 261.0471,-190.1029"/>
<polygon fill="#c0c0c0" stroke="#c0c0c0" stroke-width="2" points="264.5392,-190.3802 262.285,-180.028 257.5915,-189.5265 264.5392,-190.3802"/>
</g>
<!-- 14&#45;&gt;12 -->
<g id="edge16" class="edge">
<title>14&#45;&gt;12</title>
<path fill="none" stroke="#c0c0c0" stroke-width="2" d="M269.4969,-290.4656C281.7751,-280.8369 297.0613,-268.8493 310.3866,-258.3995"/>
<polygon fill="#c0c0c0" stroke="#c0c0c0" stroke-width="2" points="312.6765,-261.0516 318.3857,-252.1265 308.3569,-255.5433 312.6765,-261.0516"/>
</g>
<!-- 15 -->
<g id="node15" class="node">
<title>15</title>
<path fill="none" stroke="#bed856" stroke-width="2" d="M144,-329C144,-329 55,-329 55,-329 49,-329 43,-323 43,-317 43,-317 43,-300 43,-300 43,-294 49,-288 55,-288 55,-288 144,-288 144,-288 150,-288 156,-294 156,-300 156,-300 156,-317 156,-317 156,-323 150,-329 144,-329"/>
<text text-anchor="middle" x="99.5" y="-317" font-family="sans" font-size="10.00" fill="#000000">compress_reads</text>
<text text-anchor="middle" x="99.5" y="-306" font-family="sans" font-size="10.00" fill="#000000">file: BB31</text>
<text text-anchor="middle" x="99.5" y="-295" font-family="sans" font-size="10.00" fill="#000000">path: 010_porechop</text>
</g>
<!-- 15&#45;&gt;10 -->
<g id="edge11" class="edge">
<title>15&#45;&gt;10</title>
<path fill="none" stroke="#c0c0c0" stroke-width="2" d="M113.4278,-287.7476C119.0624,-279.352 125.6375,-269.5551 131.6193,-260.6423"/>
<polygon fill="#c0c0c0" stroke="#c0c0c0" stroke-width="2" points="134.68,-262.3625 137.3465,-252.1087 128.8676,-258.4615 134.68,-262.3625"/>
</g>
<!-- 15&#45;&gt;13 -->
<g id="edge17" class="edge">
<title>15&#45;&gt;13</title>
<path fill="none" stroke="#c0c0c0" stroke-width="2" d="M84.7365,-287.7476C78.7016,-279.2645 71.6489,-269.3509 65.2556,-260.364"/>
<polygon fill="#c0c0c0" stroke="#c0c0c0" stroke-width="2" points="68.0315,-258.2282 59.3827,-252.1087 62.3276,-262.286 68.0315,-258.2282"/>
</g>
<!-- 16 -->
<g id="node16" class="node">
<title>16</title>
<path fill="none" stroke="#56c1d8" stroke-width="2" d="M468.5,-252C468.5,-252 420.5,-252 420.5,-252 414.5,-252 408.5,-246 408.5,-240 408.5,-240 408.5,-228 408.5,-228 408.5,-222 414.5,-216 420.5,-216 420.5,-216 468.5,-216 468.5,-216 474.5,-216 480.5,-222 480.5,-228 480.5,-228 480.5,-240 480.5,-240 480.5,-246 474.5,-252 468.5,-252"/>
<text text-anchor="middle" x="444.5" y="-237" font-family="sans" font-size="10.00" fill="#000000">flye</text>
<text text-anchor="middle" x="444.5" y="-226" font-family="sans" font-size="10.00" fill="#000000">indiv: BB55</text>
</g>
<!-- 16&#45;&gt;11 -->
<g id="edge13" class="edge">
<title>16&#45;&gt;11</title>
<path fill="none" stroke="#c0c0c0" stroke-width="2" d="M408.1895,-219.3611C405.2539,-218.2126 402.33,-217.0802 399.5,-216 358.4932,-200.3474 345.1632,-198.6621 301.1033,-180.0462"/>
<polygon fill="#c0c0c0" stroke="#c0c0c0" stroke-width="2" points="302.4346,-176.8089 291.8643,-176.0881 299.678,-183.2433 302.4346,-176.8089"/>
</g>
<!-- 17 -->
<g id="node17" class="node">
<title>17</title>
<path fill="none" stroke="#bed856" stroke-width="2" d="M404,-329C404,-329 315,-329 315,-329 309,-329 303,-323 303,-317 303,-317 303,-300 303,-300 303,-294 309,-288 315,-288 315,-288 404,-288 404,-288 410,-288 416,-294 416,-300 416,-300 416,-317 416,-317 416,-323 410,-329 404,-329"/>
<text text-anchor="middle" x="359.5" y="-317" font-family="sans" font-size="10.00" fill="#000000">compress_reads</text>
<text text-anchor="middle" x="359.5" y="-306" font-family="sans" font-size="10.00" fill="#000000">file: BB55</text>
<text text-anchor="middle" x="359.5" y="-295" font-family="sans" font-size="10.00" fill="#000000">path: 010_porechop</text>
</g>
<!-- 17&#45;&gt;12 -->
<g id="edge15" class="edge">
<title>17&#45;&gt;12</title>
<path fill="none" stroke="#c0c0c0" stroke-width="2" d="M354.486,-287.7476C352.5632,-279.7892 350.3361,-270.5718 348.2752,-262.0418"/>
<polygon fill="#c0c0c0" stroke="#c0c0c0" stroke-width="2" points="351.626,-261.007 345.8752,-252.1087 344.8217,-262.651 351.626,-261.007"/>
</g>
<!-- 17&#45;&gt;16 -->
<g id="edge19" class="edge">
<title>17&#45;&gt;16</title>
<path fill="none" stroke="#c0c0c0" stroke-width="2" d="M383.1772,-287.7476C393.4546,-278.7398 405.5723,-268.119 416.3102,-258.7076"/>
<polygon fill="#c0c0c0" stroke="#c0c0c0" stroke-width="2" points="418.6258,-261.3321 423.8391,-252.1087 414.0118,-256.0679 418.6258,-261.3321"/>
</g>
<!-- 18 -->
<g id="node18" class="node">
<title>18</title>
<path fill="none" stroke="#56d8c1" stroke-width="2" d="M147.5,-401C147.5,-401 51.5,-401 51.5,-401 45.5,-401 39.5,-395 39.5,-389 39.5,-389 39.5,-377 39.5,-377 39.5,-371 45.5,-365 51.5,-365 51.5,-365 147.5,-365 147.5,-365 153.5,-365 159.5,-371 159.5,-377 159.5,-377 159.5,-389 159.5,-389 159.5,-395 153.5,-401 147.5,-401"/>
<text text-anchor="middle" x="99.5" y="-380.5" font-family="sans" font-size="10.00" fill="#000000">combine_indiv_reads</text>
</g>
<!-- 18&#45;&gt;15 -->
<g id="edge18" class="edge">
<title>18&#45;&gt;15</title>
<path fill="none" stroke="#c0c0c0" stroke-width="2" d="M99.5,-364.9656C99.5,-357.3118 99.5,-348.1674 99.5,-339.4898"/>
<polygon fill="#c0c0c0" stroke="#c0c0c0" stroke-width="2" points="103.0001,-339.2678 99.5,-329.2679 96.0001,-339.2679 103.0001,-339.2678"/>
</g>
<!-- 19 -->
<g id="node19" class="node">
<title>19</title>
<path fill="none" stroke="#56d8c1" stroke-width="2" d="M407.5,-401C407.5,-401 311.5,-401 311.5,-401 305.5,-401 299.5,-395 299.5,-389 299.5,-389 299.5,-377 299.5,-377 299.5,-371 305.5,-365 311.5,-365 311.5,-365 407.5,-365 407.5,-365 413.5,-365 419.5,-371 419.5,-377 419.5,-377 419.5,-389 419.5,-389 419.5,-395 413.5,-401 407.5,-401"/>
<text text-anchor="middle" x="359.5" y="-380.5" font-family="sans" font-size="10.00" fill="#000000">combine_indiv_reads</text>
</g>
<!-- 19&#45;&gt;17 -->
<g id="edge20" class="edge">
<title>19&#45;&gt;17</title>
<path fill="none" stroke="#c0c0c0" stroke-width="2" d="M359.5,-364.9656C359.5,-357.3118 359.5,-348.1674 359.5,-339.4898"/>
<polygon fill="#c0c0c0" stroke="#c0c0c0" stroke-width="2" points="363.0001,-339.2678 359.5,-329.2679 356.0001,-339.2679 363.0001,-339.2678"/>
</g>
<!-- 20 -->
<g id="node20" class="node">
<title>20</title>
<path fill="none" stroke="#d8bc56" stroke-width="2" d="M123.5,-478C123.5,-478 75.5,-478 75.5,-478 69.5,-478 63.5,-472 63.5,-466 63.5,-466 63.5,-449 63.5,-449 63.5,-443 69.5,-437 75.5,-437 75.5,-437 123.5,-437 123.5,-437 129.5,-437 135.5,-443 135.5,-449 135.5,-449 135.5,-466 135.5,-466 135.5,-472 129.5,-478 123.5,-478"/>
<text text-anchor="middle" x="99.5" y="-466" font-family="sans" font-size="10.00" fill="#000000">porechop</text>
<text text-anchor="middle" x="99.5" y="-455" font-family="sans" font-size="10.00" fill="#000000">indiv: BB31</text>
<text text-anchor="middle" x="99.5" y="-444" font-family="sans" font-size="10.00" fill="#000000">read: test</text>
</g>
<!-- 20&#45;&gt;18 -->
<g id="edge21" class="edge">
<title>20&#45;&gt;18</title>
<path fill="none" stroke="#c0c0c0" stroke-width="2" d="M99.5,-436.7476C99.5,-428.8767 99.5,-419.7743 99.5,-411.3232"/>
<polygon fill="#c0c0c0" stroke="#c0c0c0" stroke-width="2" points="103.0001,-411.1086 99.5,-401.1087 96.0001,-411.1087 103.0001,-411.1086"/>
</g>
<!-- 21 -->
<g id="node21" class="node">
<title>21</title>
<path fill="none" stroke="#d8bc56" stroke-width="2" d="M383.5,-478C383.5,-478 335.5,-478 335.5,-478 329.5,-478 323.5,-472 323.5,-466 323.5,-466 323.5,-449 323.5,-449 323.5,-443 329.5,-437 335.5,-437 335.5,-437 383.5,-437 383.5,-437 389.5,-437 395.5,-443 395.5,-449 395.5,-449 395.5,-466 395.5,-466 395.5,-472 389.5,-478 383.5,-478"/>
<text text-anchor="middle" x="359.5" y="-466" font-family="sans" font-size="10.00" fill="#000000">porechop</text>
<text text-anchor="middle" x="359.5" y="-455" font-family="sans" font-size="10.00" fill="#000000">indiv: BB55</text>
<text text-anchor="middle" x="359.5" y="-444" font-family="sans" font-size="10.00" fill="#000000">read: test</text>
</g>
<!-- 21&#45;&gt;19 -->
<g id="edge22" class="edge">
<title>21&#45;&gt;19</title>
<path fill="none" stroke="#c0c0c0" stroke-width="2" d="M359.5,-436.7476C359.5,-428.8767 359.5,-419.7743 359.5,-411.3232"/>
<polygon fill="#c0c0c0" stroke="#c0c0c0" stroke-width="2" points="363.0001,-411.1086 359.5,-401.1087 356.0001,-411.1087 363.0001,-411.1086"/>
</g>
</g>
</svg>
