<?xml version="1.0" encoding="UTF-8" standalone="no"?>
<!DOCTYPE svg PUBLIC "-//W3C//DTD SVG 1.1//EN"
 "http://www.w3.org/Graphics/SVG/1.1/DTD/svg11.dtd">
<!-- Generated by graphviz version 2.40.1 (20161225.0304)
 -->
<!-- Title: snakemake_dag Pages: 1 -->
<svg width="582pt" height="894pt"
 viewBox="0.00 0.00 582.00 894.00" xmlns="http://www.w3.org/2000/svg" xmlns:xlink="http://www.w3.org/1999/xlink">
<g id="graph0" class="graph" transform="scale(1 1) rotate(0) translate(4 890)">
<title>snakemake_dag</title>
<polygon fill="#ffffff" stroke="transparent" points="-4,4 -4,-890 578,-890 578,4 -4,4"/>
<!-- 1 -->
<g id="node1" class="node">
<title>1</title>
<path fill="none" stroke="#d88d56" stroke-width="2" d="M278.5,-196C278.5,-196 216.5,-196 216.5,-196 210.5,-196 204.5,-190 204.5,-184 204.5,-184 204.5,-172 204.5,-172 204.5,-166 210.5,-160 216.5,-160 216.5,-160 278.5,-160 278.5,-160 284.5,-160 290.5,-166 290.5,-172 290.5,-172 290.5,-184 290.5,-184 290.5,-190 284.5,-196 278.5,-196"/>
<text text-anchor="middle" x="247.5" y="-175.5" font-family="sans" font-size="10.00" fill="#000000">index_bamfile</text>
</g>
<!-- 2 -->
<g id="node2" class="node">
<title>2</title>
<path fill="none" stroke="#d88d56" stroke-width="2" d="M410.5,-196C410.5,-196 348.5,-196 348.5,-196 342.5,-196 336.5,-190 336.5,-184 336.5,-184 336.5,-172 336.5,-172 336.5,-166 342.5,-160 348.5,-160 348.5,-160 410.5,-160 410.5,-160 416.5,-160 422.5,-166 422.5,-172 422.5,-172 422.5,-184 422.5,-184 422.5,-190 416.5,-196 410.5,-196"/>
<text text-anchor="middle" x="379.5" y="-175.5" font-family="sans" font-size="10.00" fill="#000000">index_bamfile</text>
</g>
<!-- 3 -->
<g id="node3" class="node">
<title>3</title>
<path fill="none" stroke="#ced856" stroke-width="2" d="M150,-36C150,-36 113,-36 113,-36 107,-36 101,-30 101,-24 101,-24 101,-12 101,-12 101,-6 107,0 113,0 113,0 150,0 150,0 156,0 162,-6 162,-12 162,-12 162,-24 162,-24 162,-30 156,-36 150,-36"/>
<text text-anchor="middle" x="131.5" y="-15.5" font-family="sans" font-size="10.00" fill="#000000">plot_wga</text>
</g>
<!-- 4 -->
<g id="node4" class="node">
<title>4</title>
<path fill="none" stroke="#ced856" stroke-width="2" d="M506,-36C506,-36 469,-36 469,-36 463,-36 457,-30 457,-24 457,-24 457,-12 457,-12 457,-6 463,0 469,0 469,0 506,0 506,0 512,0 518,-6 518,-12 518,-12 518,-24 518,-24 518,-30 512,-36 506,-36"/>
<text text-anchor="middle" x="487.5" y="-15.5" font-family="sans" font-size="10.00" fill="#000000">plot_wga</text>
</g>
<!-- 5 -->
<g id="node5" class="node">
<title>5</title>
<path fill="none" stroke="#56a9d8" stroke-width="2" d="M197.5,-444C197.5,-444 167.5,-444 167.5,-444 161.5,-444 155.5,-438 155.5,-432 155.5,-432 155.5,-420 155.5,-420 155.5,-414 161.5,-408 167.5,-408 167.5,-408 197.5,-408 197.5,-408 203.5,-408 209.5,-414 209.5,-420 209.5,-420 209.5,-432 209.5,-432 209.5,-438 203.5,-444 197.5,-444"/>
<text text-anchor="middle" x="182.5" y="-423.5" font-family="sans" font-size="10.00" fill="#000000">sniffles</text>
</g>
<!-- 6 -->
<g id="node6" class="node">
<title>6</title>
<path fill="none" stroke="#56a9d8" stroke-width="2" d="M437.5,-444C437.5,-444 407.5,-444 407.5,-444 401.5,-444 395.5,-438 395.5,-432 395.5,-432 395.5,-420 395.5,-420 395.5,-414 401.5,-408 407.5,-408 407.5,-408 437.5,-408 437.5,-408 443.5,-408 449.5,-414 449.5,-420 449.5,-420 449.5,-432 449.5,-432 449.5,-438 443.5,-444 437.5,-444"/>
<text text-anchor="middle" x="422.5" y="-423.5" font-family="sans" font-size="10.00" fill="#000000">sniffles</text>
</g>
<!-- 7 -->
<g id="node7" class="node">
<title>7</title>
<path fill="none" stroke="#d85656" stroke-width="2" d="M262.5,-276C262.5,-276 232.5,-276 232.5,-276 226.5,-276 220.5,-270 220.5,-264 220.5,-264 220.5,-252 220.5,-252 220.5,-246 226.5,-240 232.5,-240 232.5,-240 262.5,-240 262.5,-240 268.5,-240 274.5,-246 274.5,-252 274.5,-252 274.5,-264 274.5,-264 274.5,-270 268.5,-276 262.5,-276"/>
<text text-anchor="middle" x="247.5" y="-255.5" font-family="sans" font-size="10.00" fill="#000000">sort</text>
</g>
<!-- 7&#45;&gt;1 -->
<g id="edge1" class="edge">
<title>7&#45;&gt;1</title>
<path fill="none" stroke="#c0c0c0" stroke-width="2" d="M247.5,-239.8468C247.5,-229.9251 247.5,-217.4167 247.5,-206.2492"/>
<polygon fill="#c0c0c0" stroke="#c0c0c0" stroke-width="2" points="251.0001,-206.0814 247.5,-196.0814 244.0001,-206.0814 251.0001,-206.0814"/>
</g>
<!-- 19 -->
<g id="node19" class="node">
<title>19</title>
<path fill="none" stroke="#97d856" stroke-width="2" d="M163.5,-196C163.5,-196 107.5,-196 107.5,-196 101.5,-196 95.5,-190 95.5,-184 95.5,-184 95.5,-172 95.5,-172 95.5,-166 101.5,-160 107.5,-160 107.5,-160 163.5,-160 163.5,-160 169.5,-160 175.5,-166 175.5,-172 175.5,-172 175.5,-184 175.5,-184 175.5,-190 169.5,-196 163.5,-196"/>
<text text-anchor="middle" x="135.5" y="-175.5" font-family="sans" font-size="10.00" fill="#000000">bam_to_sam</text>
</g>
<!-- 7&#45;&gt;19 -->
<g id="edge22" class="edge">
<title>7&#45;&gt;19</title>
<path fill="none" stroke="#c0c0c0" stroke-width="2" d="M222.0855,-239.8468C206.4768,-228.6977 186.2951,-214.2822 169.3431,-202.1736"/>
<polygon fill="#c0c0c0" stroke="#c0c0c0" stroke-width="2" points="170.9857,-199.0457 160.814,-196.0814 166.917,-204.7419 170.9857,-199.0457"/>
</g>
<!-- 8 -->
<g id="node8" class="node">
<title>8</title>
<path fill="none" stroke="#d85656" stroke-width="2" d="M394.5,-276C394.5,-276 364.5,-276 364.5,-276 358.5,-276 352.5,-270 352.5,-264 352.5,-264 352.5,-252 352.5,-252 352.5,-246 358.5,-240 364.5,-240 364.5,-240 394.5,-240 394.5,-240 400.5,-240 406.5,-246 406.5,-252 406.5,-252 406.5,-264 406.5,-264 406.5,-270 400.5,-276 394.5,-276"/>
<text text-anchor="middle" x="379.5" y="-255.5" font-family="sans" font-size="10.00" fill="#000000">sort</text>
</g>
<!-- 8&#45;&gt;2 -->
<g id="edge2" class="edge">
<title>8&#45;&gt;2</title>
<path fill="none" stroke="#c0c0c0" stroke-width="2" d="M379.5,-239.8468C379.5,-229.9251 379.5,-217.4167 379.5,-206.2492"/>
<polygon fill="#c0c0c0" stroke="#c0c0c0" stroke-width="2" points="383.0001,-206.0814 379.5,-196.0814 376.0001,-206.0814 383.0001,-206.0814"/>
</g>
<!-- 21 -->
<g id="node21" class="node">
<title>21</title>
<path fill="none" stroke="#97d856" stroke-width="2" d="M511.5,-196C511.5,-196 455.5,-196 455.5,-196 449.5,-196 443.5,-190 443.5,-184 443.5,-184 443.5,-172 443.5,-172 443.5,-166 449.5,-160 455.5,-160 455.5,-160 511.5,-160 511.5,-160 517.5,-160 523.5,-166 523.5,-172 523.5,-172 523.5,-184 523.5,-184 523.5,-190 517.5,-196 511.5,-196"/>
<text text-anchor="middle" x="483.5" y="-175.5" font-family="sans" font-size="10.00" fill="#000000">bam_to_sam</text>
</g>
<!-- 8&#45;&gt;21 -->
<g id="edge24" class="edge">
<title>8&#45;&gt;21</title>
<path fill="none" stroke="#c0c0c0" stroke-width="2" d="M403.0992,-239.8468C417.46,-228.8 435.9896,-214.5464 451.6403,-202.5075"/>
<polygon fill="#c0c0c0" stroke="#c0c0c0" stroke-width="2" points="454.2019,-204.9527 459.9942,-196.0814 449.9339,-199.4044 454.2019,-204.9527"/>
</g>
<!-- 9 -->
<g id="node9" class="node">
<title>9</title>
<path fill="none" stroke="#b6d856" stroke-width="2" d="M131,-372C131,-372 12,-372 12,-372 6,-372 0,-366 0,-360 0,-360 0,-332 0,-332 0,-326 6,-320 12,-320 12,-320 131,-320 131,-320 137,-320 143,-326 143,-332 143,-332 143,-360 143,-360 143,-366 137,-372 131,-372"/>
<text text-anchor="middle" x="71.5" y="-360" font-family="sans" font-size="10.00" fill="#000000">index_fa</text>
<text text-anchor="middle" x="71.5" y="-349" font-family="sans" font-size="10.00" fill="#000000">ext: fa</text>
<text text-anchor="middle" x="71.5" y="-338" font-family="sans" font-size="10.00" fill="#000000">file: BB31</text>
<text text-anchor="middle" x="71.5" y="-327" font-family="sans" font-size="10.00" fill="#000000">path: output/027_oriented</text>
</g>
<!-- 9&#45;&gt;3 -->
<g id="edge3" class="edge">
<title>9&#45;&gt;3</title>
<path fill="none" stroke="#c0c0c0" stroke-width="2" d="M67.4573,-319.9065C60.8311,-269.7815 51.5461,-157.4285 85.5,-72 89.5675,-61.7661 96.4061,-52.0929 103.5835,-43.8375"/>
<polygon fill="#c0c0c0" stroke="#c0c0c0" stroke-width="2" points="106.2597,-46.0988 110.4893,-36.3848 101.1252,-41.3409 106.2597,-46.0988"/>
</g>
<!-- 10 -->
<g id="node10" class="node">
<title>10</title>
<path fill="none" stroke="#b6d856" stroke-width="2" d="M420,-124C420,-124 199,-124 199,-124 193,-124 187,-118 187,-112 187,-112 187,-84 187,-84 187,-78 193,-72 199,-72 199,-72 420,-72 420,-72 426,-72 432,-78 432,-84 432,-84 432,-112 432,-112 432,-118 426,-124 420,-124"/>
<text text-anchor="middle" x="309.5" y="-112" font-family="sans" font-size="10.00" fill="#000000">index_fa</text>
<text text-anchor="middle" x="309.5" y="-101" font-family="sans" font-size="10.00" fill="#000000">ext: fna</text>
<text text-anchor="middle" x="309.5" y="-90" font-family="sans" font-size="10.00" fill="#000000">file: GCF_003254395.2_Amel_HAv3.1_genomic</text>
<text text-anchor="middle" x="309.5" y="-79" font-family="sans" font-size="10.00" fill="#000000">path: data</text>
</g>
<!-- 10&#45;&gt;3 -->
<g id="edge4" class="edge">
<title>10&#45;&gt;3</title>
<path fill="none" stroke="#c0c0c0" stroke-width="2" d="M251.2161,-71.805C225.1059,-60.0701 194.9755,-46.5283 171.4742,-35.966"/>
<polygon fill="#c0c0c0" stroke="#c0c0c0" stroke-width="2" points="172.7217,-32.6894 162.1658,-31.7824 169.8521,-39.0742 172.7217,-32.6894"/>
</g>
<!-- 10&#45;&gt;4 -->
<g id="edge7" class="edge">
<title>10&#45;&gt;4</title>
<path fill="none" stroke="#c0c0c0" stroke-width="2" d="M367.7839,-71.805C393.8941,-60.0701 424.0245,-46.5283 447.5258,-35.966"/>
<polygon fill="#c0c0c0" stroke="#c0c0c0" stroke-width="2" points="449.1479,-39.0742 456.8342,-31.7824 446.2783,-32.6894 449.1479,-39.0742"/>
</g>
<!-- 11 -->
<g id="node11" class="node">
<title>11</title>
<path fill="none" stroke="#56d8d0" stroke-width="2" d="M156.5,-116C156.5,-116 106.5,-116 106.5,-116 100.5,-116 94.5,-110 94.5,-104 94.5,-104 94.5,-92 94.5,-92 94.5,-86 100.5,-80 106.5,-80 106.5,-80 156.5,-80 156.5,-80 162.5,-80 168.5,-86 168.5,-92 168.5,-92 168.5,-104 168.5,-104 168.5,-110 162.5,-116 156.5,-116"/>
<text text-anchor="middle" x="131.5" y="-95.5" font-family="sans" font-size="10.00" fill="#000000">sam_to_paf</text>
</g>
<!-- 11&#45;&gt;3 -->
<g id="edge5" class="edge">
<title>11&#45;&gt;3</title>
<path fill="none" stroke="#c0c0c0" stroke-width="2" d="M131.5,-79.8468C131.5,-69.9251 131.5,-57.4167 131.5,-46.2492"/>
<polygon fill="#c0c0c0" stroke="#c0c0c0" stroke-width="2" points="135.0001,-46.0814 131.5,-36.0814 128.0001,-46.0814 135.0001,-46.0814"/>
</g>
<!-- 12 -->
<g id="node12" class="node">
<title>12</title>
<path fill="none" stroke="#b6d856" stroke-width="2" d="M562,-284C562,-284 443,-284 443,-284 437,-284 431,-278 431,-272 431,-272 431,-244 431,-244 431,-238 437,-232 443,-232 443,-232 562,-232 562,-232 568,-232 574,-238 574,-244 574,-244 574,-272 574,-272 574,-278 568,-284 562,-284"/>
<text text-anchor="middle" x="502.5" y="-272" font-family="sans" font-size="10.00" fill="#000000">index_fa</text>
<text text-anchor="middle" x="502.5" y="-261" font-family="sans" font-size="10.00" fill="#000000">ext: fa</text>
<text text-anchor="middle" x="502.5" y="-250" font-family="sans" font-size="10.00" fill="#000000">file: BB55</text>
<text text-anchor="middle" x="502.5" y="-239" font-family="sans" font-size="10.00" fill="#000000">path: output/027_oriented</text>
</g>
<!-- 12&#45;&gt;4 -->
<g id="edge6" class="edge">
<title>12&#45;&gt;4</title>
<path fill="none" stroke="#c0c0c0" stroke-width="2" d="M518.3239,-231.791C523.9374,-221.0846 529.5823,-208.3348 532.5,-196 545.1865,-142.3671 552.5422,-123.7187 533.5,-72 529.695,-61.6656 522.9356,-51.9621 515.75,-43.7098"/>
<polygon fill="#c0c0c0" stroke="#c0c0c0" stroke-width="2" points="518.192,-41.1965 508.8127,-36.2692 513.0721,-45.9701 518.192,-41.1965"/>
</g>
<!-- 13 -->
<g id="node13" class="node">
<title>13</title>
<path fill="none" stroke="#56d8d0" stroke-width="2" d="M512.5,-116C512.5,-116 462.5,-116 462.5,-116 456.5,-116 450.5,-110 450.5,-104 450.5,-104 450.5,-92 450.5,-92 450.5,-86 456.5,-80 462.5,-80 462.5,-80 512.5,-80 512.5,-80 518.5,-80 524.5,-86 524.5,-92 524.5,-92 524.5,-104 524.5,-104 524.5,-110 518.5,-116 512.5,-116"/>
<text text-anchor="middle" x="487.5" y="-95.5" font-family="sans" font-size="10.00" fill="#000000">sam_to_paf</text>
</g>
<!-- 13&#45;&gt;4 -->
<g id="edge8" class="edge">
<title>13&#45;&gt;4</title>
<path fill="none" stroke="#c0c0c0" stroke-width="2" d="M487.5,-79.8468C487.5,-69.9251 487.5,-57.4167 487.5,-46.2492"/>
<polygon fill="#c0c0c0" stroke="#c0c0c0" stroke-width="2" points="491.0001,-46.0814 487.5,-36.0814 484.0001,-46.0814 491.0001,-46.0814"/>
</g>
<!-- 14 -->
<g id="node14" class="node">
<title>14</title>
<path fill="none" stroke="#d85656" stroke-width="2" d="M197.5,-516C197.5,-516 167.5,-516 167.5,-516 161.5,-516 155.5,-510 155.5,-504 155.5,-504 155.5,-492 155.5,-492 155.5,-486 161.5,-480 167.5,-480 167.5,-480 197.5,-480 197.5,-480 203.5,-480 209.5,-486 209.5,-492 209.5,-492 209.5,-504 209.5,-504 209.5,-510 203.5,-516 197.5,-516"/>
<text text-anchor="middle" x="182.5" y="-495.5" font-family="sans" font-size="10.00" fill="#000000">sort</text>
</g>
<!-- 14&#45;&gt;5 -->
<g id="edge9" class="edge">
<title>14&#45;&gt;5</title>
<path fill="none" stroke="#c0c0c0" stroke-width="2" d="M182.5,-479.8314C182.5,-472.131 182.5,-462.9743 182.5,-454.4166"/>
<polygon fill="#c0c0c0" stroke="#c0c0c0" stroke-width="2" points="186.0001,-454.4132 182.5,-444.4133 179.0001,-454.4133 186.0001,-454.4132"/>
</g>
<!-- 15 -->
<g id="node15" class="node">
<title>15</title>
<path fill="none" stroke="#d85656" stroke-width="2" d="M422.5,-516C422.5,-516 392.5,-516 392.5,-516 386.5,-516 380.5,-510 380.5,-504 380.5,-504 380.5,-492 380.5,-492 380.5,-486 386.5,-480 392.5,-480 392.5,-480 422.5,-480 422.5,-480 428.5,-480 434.5,-486 434.5,-492 434.5,-492 434.5,-504 434.5,-504 434.5,-510 428.5,-516 422.5,-516"/>
<text text-anchor="middle" x="407.5" y="-495.5" font-family="sans" font-size="10.00" fill="#000000">sort</text>
</g>
<!-- 15&#45;&gt;6 -->
<g id="edge10" class="edge">
<title>15&#45;&gt;6</title>
<path fill="none" stroke="#c0c0c0" stroke-width="2" d="M411.2851,-479.8314C412.8894,-472.131 414.797,-462.9743 416.5799,-454.4166"/>
<polygon fill="#c0c0c0" stroke="#c0c0c0" stroke-width="2" points="420.0507,-454.9169 418.6639,-444.4133 413.1979,-453.4892 420.0507,-454.9169"/>
</g>
<!-- 16 -->
<g id="node16" class="node">
<title>16</title>
<path fill="none" stroke="#d8ac56" stroke-width="2" d="M283,-364C283,-364 212,-364 212,-364 206,-364 200,-358 200,-352 200,-352 200,-340 200,-340 200,-334 206,-328 212,-328 212,-328 283,-328 283,-328 289,-328 295,-334 295,-340 295,-340 295,-352 295,-352 295,-358 289,-364 283,-364"/>
<text text-anchor="middle" x="247.5" y="-349" font-family="sans" font-size="10.00" fill="#000000">sam_to_bam</text>
<text text-anchor="middle" x="247.5" y="-338" font-family="sans" font-size="10.00" fill="#000000">folder: 040_wga</text>
</g>
<!-- 16&#45;&gt;7 -->
<g id="edge11" class="edge">
<title>16&#45;&gt;7</title>
<path fill="none" stroke="#c0c0c0" stroke-width="2" d="M247.5,-327.7663C247.5,-315.8492 247.5,-300.0384 247.5,-286.4817"/>
<polygon fill="#c0c0c0" stroke="#c0c0c0" stroke-width="2" points="251.0001,-286.2103 247.5,-276.2103 244.0001,-286.2103 251.0001,-286.2103"/>
</g>
<!-- 17 -->
<g id="node17" class="node">
<title>17</title>
<path fill="none" stroke="#d8ac56" stroke-width="2" d="M402,-364C402,-364 331,-364 331,-364 325,-364 319,-358 319,-352 319,-352 319,-340 319,-340 319,-334 325,-328 331,-328 331,-328 402,-328 402,-328 408,-328 414,-334 414,-340 414,-340 414,-352 414,-352 414,-358 408,-364 402,-364"/>
<text text-anchor="middle" x="366.5" y="-349" font-family="sans" font-size="10.00" fill="#000000">sam_to_bam</text>
<text text-anchor="middle" x="366.5" y="-338" font-family="sans" font-size="10.00" fill="#000000">folder: 040_wga</text>
</g>
<!-- 17&#45;&gt;8 -->
<g id="edge12" class="edge">
<title>17&#45;&gt;8</title>
<path fill="none" stroke="#c0c0c0" stroke-width="2" d="M369.1936,-327.7663C370.9541,-315.8492 373.2898,-300.0384 375.2925,-286.4817"/>
<polygon fill="#c0c0c0" stroke="#c0c0c0" stroke-width="2" points="378.8108,-286.6145 376.8098,-276.2103 371.8859,-285.5914 378.8108,-286.6145"/>
</g>
<!-- 18 -->
<g id="node18" class="node">
<title>18</title>
<path fill="none" stroke="#d87556" stroke-width="2" d="M120,-516C120,-516 49,-516 49,-516 43,-516 37,-510 37,-504 37,-504 37,-492 37,-492 37,-486 43,-480 49,-480 49,-480 120,-480 120,-480 126,-480 132,-486 132,-492 132,-492 132,-504 132,-504 132,-510 126,-516 120,-516"/>
<text text-anchor="middle" x="84.5" y="-495.5" font-family="sans" font-size="10.00" fill="#000000">orient_scaffolds</text>
</g>
<!-- 18&#45;&gt;9 -->
<g id="edge13" class="edge">
<title>18&#45;&gt;9</title>
<path fill="none" stroke="#c0c0c0" stroke-width="2" d="M82.9577,-479.9667C80.9121,-456.0494 77.2538,-413.2748 74.6205,-382.4859"/>
<polygon fill="#c0c0c0" stroke="#c0c0c0" stroke-width="2" points="78.0757,-381.8113 73.7362,-372.1459 71.1011,-382.4079 78.0757,-381.8113"/>
</g>
<!-- 24 -->
<g id="node24" class="node">
<title>24</title>
<path fill="none" stroke="#568ad8" stroke-width="2" d="M269.5,-444C269.5,-444 239.5,-444 239.5,-444 233.5,-444 227.5,-438 227.5,-432 227.5,-432 227.5,-420 227.5,-420 227.5,-414 233.5,-408 239.5,-408 239.5,-408 269.5,-408 269.5,-408 275.5,-408 281.5,-414 281.5,-420 281.5,-420 281.5,-432 281.5,-432 281.5,-438 275.5,-444 269.5,-444"/>
<text text-anchor="middle" x="254.5" y="-423.5" font-family="sans" font-size="10.00" fill="#000000">wga</text>
</g>
<!-- 18&#45;&gt;24 -->
<g id="edge27" class="edge">
<title>18&#45;&gt;24</title>
<path fill="none" stroke="#c0c0c0" stroke-width="2" d="M132.0229,-479.9261C155.6024,-470.7123 184.6367,-459.0015 217.9705,-444.0906"/>
<polygon fill="#c0c0c0" stroke="#c0c0c0" stroke-width="2" points="219.8084,-447.1012 227.4854,-439.7995 216.9306,-440.7201 219.8084,-447.1012"/>
</g>
<!-- 19&#45;&gt;11 -->
<g id="edge14" class="edge">
<title>19&#45;&gt;11</title>
<path fill="none" stroke="#c0c0c0" stroke-width="2" d="M134.5923,-159.8468C134.0963,-149.9251 133.4708,-137.4167 132.9125,-126.2492"/>
<polygon fill="#c0c0c0" stroke="#c0c0c0" stroke-width="2" points="136.3992,-125.8941 132.4041,-116.0814 129.4079,-126.2437 136.3992,-125.8941"/>
</g>
<!-- 20 -->
<g id="node20" class="node">
<title>20</title>
<path fill="none" stroke="#d87556" stroke-width="2" d="M538,-516C538,-516 467,-516 467,-516 461,-516 455,-510 455,-504 455,-504 455,-492 455,-492 455,-486 461,-480 467,-480 467,-480 538,-480 538,-480 544,-480 550,-486 550,-492 550,-492 550,-504 550,-504 550,-510 544,-516 538,-516"/>
<text text-anchor="middle" x="502.5" y="-495.5" font-family="sans" font-size="10.00" fill="#000000">orient_scaffolds</text>
</g>
<!-- 20&#45;&gt;12 -->
<g id="edge15" class="edge">
<title>20&#45;&gt;12</title>
<path fill="none" stroke="#c0c0c0" stroke-width="2" d="M502.5,-479.961C502.5,-440.594 502.5,-346.3406 502.5,-294.209"/>
<polygon fill="#c0c0c0" stroke="#c0c0c0" stroke-width="2" points="506.0001,-294.0659 502.5,-284.0659 499.0001,-294.0659 506.0001,-294.0659"/>
</g>
<!-- 25 -->
<g id="node25" class="node">
<title>25</title>
<path fill="none" stroke="#568ad8" stroke-width="2" d="M365.5,-444C365.5,-444 335.5,-444 335.5,-444 329.5,-444 323.5,-438 323.5,-432 323.5,-432 323.5,-420 323.5,-420 323.5,-414 329.5,-408 335.5,-408 335.5,-408 365.5,-408 365.5,-408 371.5,-408 377.5,-414 377.5,-420 377.5,-420 377.5,-432 377.5,-432 377.5,-438 371.5,-444 365.5,-444"/>
<text text-anchor="middle" x="350.5" y="-423.5" font-family="sans" font-size="10.00" fill="#000000">wga</text>
</g>
<!-- 20&#45;&gt;25 -->
<g id="edge29" class="edge">
<title>20&#45;&gt;25</title>
<path fill="none" stroke="#c0c0c0" stroke-width="2" d="M462.9085,-479.9022C442.448,-470.4737 416.9006,-458.5854 386.6743,-444.0326"/>
<polygon fill="#c0c0c0" stroke="#c0c0c0" stroke-width="2" points="388.1139,-440.8411 377.5868,-439.6448 385.0702,-447.1447 388.1139,-440.8411"/>
</g>
<!-- 21&#45;&gt;13 -->
<g id="edge16" class="edge">
<title>21&#45;&gt;13</title>
<path fill="none" stroke="#c0c0c0" stroke-width="2" d="M484.4077,-159.8468C484.9037,-149.9251 485.5292,-137.4167 486.0875,-126.2492"/>
<polygon fill="#c0c0c0" stroke="#c0c0c0" stroke-width="2" points="489.5921,-126.2437 486.5959,-116.0814 482.6008,-125.8941 489.5921,-126.2437"/>
</g>
<!-- 22 -->
<g id="node22" class="node">
<title>22</title>
<path fill="none" stroke="#d8ac56" stroke-width="2" d="M231.5,-588C231.5,-588 141.5,-588 141.5,-588 135.5,-588 129.5,-582 129.5,-576 129.5,-576 129.5,-564 129.5,-564 129.5,-558 135.5,-552 141.5,-552 141.5,-552 231.5,-552 231.5,-552 237.5,-552 243.5,-558 243.5,-564 243.5,-564 243.5,-576 243.5,-576 243.5,-582 237.5,-588 231.5,-588"/>
<text text-anchor="middle" x="186.5" y="-573" font-family="sans" font-size="10.00" fill="#000000">sam_to_bam</text>
<text text-anchor="middle" x="186.5" y="-562" font-family="sans" font-size="10.00" fill="#000000">folder: 030_mapped</text>
</g>
<!-- 22&#45;&gt;14 -->
<g id="edge17" class="edge">
<title>22&#45;&gt;14</title>
<path fill="none" stroke="#c0c0c0" stroke-width="2" d="M185.4906,-551.8314C185.0628,-544.131 184.5541,-534.9743 184.0787,-526.4166"/>
<polygon fill="#c0c0c0" stroke="#c0c0c0" stroke-width="2" points="187.5724,-526.2037 183.523,-516.4133 180.5831,-526.592 187.5724,-526.2037"/>
</g>
<!-- 23 -->
<g id="node23" class="node">
<title>23</title>
<path fill="none" stroke="#d8ac56" stroke-width="2" d="M445.5,-588C445.5,-588 355.5,-588 355.5,-588 349.5,-588 343.5,-582 343.5,-576 343.5,-576 343.5,-564 343.5,-564 343.5,-558 349.5,-552 355.5,-552 355.5,-552 445.5,-552 445.5,-552 451.5,-552 457.5,-558 457.5,-564 457.5,-564 457.5,-576 457.5,-576 457.5,-582 451.5,-588 445.5,-588"/>
<text text-anchor="middle" x="400.5" y="-573" font-family="sans" font-size="10.00" fill="#000000">sam_to_bam</text>
<text text-anchor="middle" x="400.5" y="-562" font-family="sans" font-size="10.00" fill="#000000">folder: 030_mapped</text>
</g>
<!-- 23&#45;&gt;15 -->
<g id="edge18" class="edge">
<title>23&#45;&gt;15</title>
<path fill="none" stroke="#c0c0c0" stroke-width="2" d="M402.2664,-551.8314C403.015,-544.131 403.9053,-534.9743 404.7373,-526.4166"/>
<polygon fill="#c0c0c0" stroke="#c0c0c0" stroke-width="2" points="408.2256,-526.7051 405.7098,-516.4133 401.2585,-526.0276 408.2256,-526.7051"/>
</g>
<!-- 24&#45;&gt;16 -->
<g id="edge19" class="edge">
<title>24&#45;&gt;16</title>
<path fill="none" stroke="#c0c0c0" stroke-width="2" d="M252.9116,-407.8468C252.0434,-397.9251 250.949,-385.4167 249.9718,-374.2492"/>
<polygon fill="#c0c0c0" stroke="#c0c0c0" stroke-width="2" points="253.4406,-373.7382 249.0821,-364.0814 246.4672,-374.3485 253.4406,-373.7382"/>
</g>
<!-- 25&#45;&gt;17 -->
<g id="edge20" class="edge">
<title>25&#45;&gt;17</title>
<path fill="none" stroke="#c0c0c0" stroke-width="2" d="M354.1306,-407.8468C356.1354,-397.8228 358.6683,-385.1585 360.9191,-373.9043"/>
<polygon fill="#c0c0c0" stroke="#c0c0c0" stroke-width="2" points="364.3545,-374.5736 362.8837,-364.0814 357.4904,-373.2008 364.3545,-374.5736"/>
</g>
<!-- 26 -->
<g id="node26" class="node">
<title>26</title>
<path fill="none" stroke="#5673d8" stroke-width="2" d="M99.5,-588C99.5,-588 69.5,-588 69.5,-588 63.5,-588 57.5,-582 57.5,-576 57.5,-576 57.5,-564 57.5,-564 57.5,-558 63.5,-552 69.5,-552 69.5,-552 99.5,-552 99.5,-552 105.5,-552 111.5,-558 111.5,-564 111.5,-564 111.5,-576 111.5,-576 111.5,-582 105.5,-588 99.5,-588"/>
<text text-anchor="middle" x="84.5" y="-567.5" font-family="sans" font-size="10.00" fill="#000000">ragtag</text>
</g>
<!-- 26&#45;&gt;18 -->
<g id="edge21" class="edge">
<title>26&#45;&gt;18</title>
<path fill="none" stroke="#c0c0c0" stroke-width="2" d="M84.5,-551.8314C84.5,-544.131 84.5,-534.9743 84.5,-526.4166"/>
<polygon fill="#c0c0c0" stroke="#c0c0c0" stroke-width="2" points="88.0001,-526.4132 84.5,-516.4133 81.0001,-526.4133 88.0001,-526.4132"/>
</g>
<!-- 27 -->
<g id="node27" class="node">
<title>27</title>
<path fill="none" stroke="#5673d8" stroke-width="2" d="M517.5,-588C517.5,-588 487.5,-588 487.5,-588 481.5,-588 475.5,-582 475.5,-576 475.5,-576 475.5,-564 475.5,-564 475.5,-558 481.5,-552 487.5,-552 487.5,-552 517.5,-552 517.5,-552 523.5,-552 529.5,-558 529.5,-564 529.5,-564 529.5,-576 529.5,-576 529.5,-582 523.5,-588 517.5,-588"/>
<text text-anchor="middle" x="502.5" y="-567.5" font-family="sans" font-size="10.00" fill="#000000">ragtag</text>
</g>
<!-- 27&#45;&gt;20 -->
<g id="edge23" class="edge">
<title>27&#45;&gt;20</title>
<path fill="none" stroke="#c0c0c0" stroke-width="2" d="M502.5,-551.8314C502.5,-544.131 502.5,-534.9743 502.5,-526.4166"/>
<polygon fill="#c0c0c0" stroke="#c0c0c0" stroke-width="2" points="506.0001,-526.4132 502.5,-516.4133 499.0001,-526.4133 506.0001,-526.4132"/>
</g>
<!-- 28 -->
<g id="node28" class="node">
<title>28</title>
<path fill="none" stroke="#56c1d8" stroke-width="2" d="M224.5,-660C224.5,-660 150.5,-660 150.5,-660 144.5,-660 138.5,-654 138.5,-648 138.5,-648 138.5,-636 138.5,-636 138.5,-630 144.5,-624 150.5,-624 150.5,-624 224.5,-624 224.5,-624 230.5,-624 236.5,-630 236.5,-636 236.5,-636 236.5,-648 236.5,-648 236.5,-654 230.5,-660 224.5,-660"/>
<text text-anchor="middle" x="187.5" y="-645" font-family="sans" font-size="10.00" fill="#000000">map_to_genome</text>
<text text-anchor="middle" x="187.5" y="-634" font-family="sans" font-size="10.00" fill="#000000">indiv: BB31</text>
</g>
<!-- 28&#45;&gt;22 -->
<g id="edge25" class="edge">
<title>28&#45;&gt;22</title>
<path fill="none" stroke="#c0c0c0" stroke-width="2" d="M187.2477,-623.8314C187.1407,-616.131 187.0135,-606.9743 186.8947,-598.4166"/>
<polygon fill="#c0c0c0" stroke="#c0c0c0" stroke-width="2" points="190.3944,-598.3637 186.7557,-588.4133 183.3951,-598.4609 190.3944,-598.3637"/>
</g>
<!-- 29 -->
<g id="node29" class="node">
<title>29</title>
<path fill="none" stroke="#56c1d8" stroke-width="2" d="M436.5,-660C436.5,-660 362.5,-660 362.5,-660 356.5,-660 350.5,-654 350.5,-648 350.5,-648 350.5,-636 350.5,-636 350.5,-630 356.5,-624 362.5,-624 362.5,-624 436.5,-624 436.5,-624 442.5,-624 448.5,-630 448.5,-636 448.5,-636 448.5,-648 448.5,-648 448.5,-654 442.5,-660 436.5,-660"/>
<text text-anchor="middle" x="399.5" y="-645" font-family="sans" font-size="10.00" fill="#000000">map_to_genome</text>
<text text-anchor="middle" x="399.5" y="-634" font-family="sans" font-size="10.00" fill="#000000">indiv: BB55</text>
</g>
<!-- 29&#45;&gt;23 -->
<g id="edge26" class="edge">
<title>29&#45;&gt;23</title>
<path fill="none" stroke="#c0c0c0" stroke-width="2" d="M399.7523,-623.8314C399.8593,-616.131 399.9865,-606.9743 400.1053,-598.4166"/>
<polygon fill="#c0c0c0" stroke="#c0c0c0" stroke-width="2" points="403.6049,-598.4609 400.2443,-588.4133 396.6056,-598.3637 403.6049,-598.4609"/>
</g>
<!-- 30 -->
<g id="node30" class="node">
<title>30</title>
<path fill="none" stroke="#d8c356" stroke-width="2" d="M322,-734.5C322,-734.5 273,-734.5 273,-734.5 267,-734.5 261,-728.5 261,-722.5 261,-722.5 261,-710.5 261,-710.5 261,-704.5 267,-698.5 273,-698.5 273,-698.5 322,-698.5 322,-698.5 328,-698.5 334,-704.5 334,-710.5 334,-710.5 334,-722.5 334,-722.5 334,-728.5 328,-734.5 322,-734.5"/>
<text text-anchor="middle" x="297.5" y="-714" font-family="sans" font-size="10.00" fill="#000000">prepare_ref</text>
</g>
<!-- 30&#45;&gt;24 -->
<g id="edge28" class="edge">
<title>30&#45;&gt;24</title>
<path fill="none" stroke="#c0c0c0" stroke-width="2" d="M294.8102,-698.3279C287.5404,-649.2149 267.4591,-513.5496 258.6891,-454.3009"/>
<polygon fill="#c0c0c0" stroke="#c0c0c0" stroke-width="2" points="262.1154,-453.5449 257.1888,-444.1652 255.1909,-454.5699 262.1154,-453.5449"/>
</g>
<!-- 30&#45;&gt;25 -->
<g id="edge30" class="edge">
<title>30&#45;&gt;25</title>
<path fill="none" stroke="#c0c0c0" stroke-width="2" d="M300.8154,-698.3279C309.7758,-649.2149 334.5271,-513.5496 345.3367,-454.3009"/>
<polygon fill="#c0c0c0" stroke="#c0c0c0" stroke-width="2" points="348.8341,-454.631 347.1859,-444.1652 341.9478,-453.3746 348.8341,-454.631"/>
</g>
<!-- 30&#45;&gt;28 -->
<g id="edge34" class="edge">
<title>30&#45;&gt;28</title>
<path fill="none" stroke="#c0c0c0" stroke-width="2" d="M270.8721,-698.4656C256.3869,-688.6552 238.2862,-676.3961 222.6552,-665.8096"/>
<polygon fill="#c0c0c0" stroke="#c0c0c0" stroke-width="2" points="224.5064,-662.8363 214.264,-660.1265 220.5811,-668.6321 224.5064,-662.8363"/>
</g>
<!-- 30&#45;&gt;29 -->
<g id="edge36" class="edge">
<title>30&#45;&gt;29</title>
<path fill="none" stroke="#c0c0c0" stroke-width="2" d="M322.1914,-698.4656C335.4987,-688.7461 352.0968,-676.6229 366.4984,-666.1041"/>
<polygon fill="#c0c0c0" stroke="#c0c0c0" stroke-width="2" points="368.6715,-668.8511 374.6825,-660.1265 364.5427,-663.1983 368.6715,-668.8511"/>
</g>
<!-- 31 -->
<g id="node31" class="node">
<title>31</title>
<path fill="none" stroke="#61d856" stroke-width="2" d="M108.5,-660C108.5,-660 60.5,-660 60.5,-660 54.5,-660 48.5,-654 48.5,-648 48.5,-648 48.5,-636 48.5,-636 48.5,-630 54.5,-624 60.5,-624 60.5,-624 108.5,-624 108.5,-624 114.5,-624 120.5,-630 120.5,-636 120.5,-636 120.5,-648 120.5,-648 120.5,-654 114.5,-660 108.5,-660"/>
<text text-anchor="middle" x="84.5" y="-645" font-family="sans" font-size="10.00" fill="#000000">flye</text>
<text text-anchor="middle" x="84.5" y="-634" font-family="sans" font-size="10.00" fill="#000000">indiv: BB31</text>
</g>
<!-- 31&#45;&gt;26 -->
<g id="edge31" class="edge">
<title>31&#45;&gt;26</title>
<path fill="none" stroke="#c0c0c0" stroke-width="2" d="M84.5,-623.8314C84.5,-616.131 84.5,-606.9743 84.5,-598.4166"/>
<polygon fill="#c0c0c0" stroke="#c0c0c0" stroke-width="2" points="88.0001,-598.4132 84.5,-588.4133 81.0001,-598.4133 88.0001,-598.4132"/>
</g>
<!-- 32 -->
<g id="node32" class="node">
<title>32</title>
<path fill="none" stroke="#61d856" stroke-width="2" d="M526.5,-660C526.5,-660 478.5,-660 478.5,-660 472.5,-660 466.5,-654 466.5,-648 466.5,-648 466.5,-636 466.5,-636 466.5,-630 472.5,-624 478.5,-624 478.5,-624 526.5,-624 526.5,-624 532.5,-624 538.5,-630 538.5,-636 538.5,-636 538.5,-648 538.5,-648 538.5,-654 532.5,-660 526.5,-660"/>
<text text-anchor="middle" x="502.5" y="-645" font-family="sans" font-size="10.00" fill="#000000">flye</text>
<text text-anchor="middle" x="502.5" y="-634" font-family="sans" font-size="10.00" fill="#000000">indiv: BB55</text>
</g>
<!-- 32&#45;&gt;27 -->
<g id="edge32" class="edge">
<title>32&#45;&gt;27</title>
<path fill="none" stroke="#c0c0c0" stroke-width="2" d="M502.5,-623.8314C502.5,-616.131 502.5,-606.9743 502.5,-598.4166"/>
<polygon fill="#c0c0c0" stroke="#c0c0c0" stroke-width="2" points="506.0001,-598.4132 502.5,-588.4133 499.0001,-598.4133 506.0001,-598.4132"/>
</g>
<!-- 33 -->
<g id="node33" class="node">
<title>33</title>
<path fill="none" stroke="#56d8b9" stroke-width="2" d="M185,-737C185,-737 96,-737 96,-737 90,-737 84,-731 84,-725 84,-725 84,-708 84,-708 84,-702 90,-696 96,-696 96,-696 185,-696 185,-696 191,-696 197,-702 197,-708 197,-708 197,-725 197,-725 197,-731 191,-737 185,-737"/>
<text text-anchor="middle" x="140.5" y="-725" font-family="sans" font-size="10.00" fill="#000000">compress_reads</text>
<text text-anchor="middle" x="140.5" y="-714" font-family="sans" font-size="10.00" fill="#000000">file: BB31</text>
<text text-anchor="middle" x="140.5" y="-703" font-family="sans" font-size="10.00" fill="#000000">path: 010_porechop</text>
</g>
<!-- 33&#45;&gt;28 -->
<g id="edge33" class="edge">
<title>33&#45;&gt;28</title>
<path fill="none" stroke="#c0c0c0" stroke-width="2" d="M153.5921,-695.7476C158.8887,-687.352 165.0692,-677.5551 170.6921,-668.6423"/>
<polygon fill="#c0c0c0" stroke="#c0c0c0" stroke-width="2" points="173.7002,-670.4338 176.0757,-660.1087 167.7799,-666.6988 173.7002,-670.4338"/>
</g>
<!-- 33&#45;&gt;31 -->
<g id="edge37" class="edge">
<title>33&#45;&gt;31</title>
<path fill="none" stroke="#c0c0c0" stroke-width="2" d="M124.9009,-695.7476C118.5243,-687.2645 111.0725,-677.3509 104.3173,-668.364"/>
<polygon fill="#c0c0c0" stroke="#c0c0c0" stroke-width="2" points="106.9183,-665.9992 98.1119,-660.1087 101.3227,-670.2053 106.9183,-665.9992"/>
</g>
<!-- 34 -->
<g id="node34" class="node">
<title>34</title>
<path fill="none" stroke="#56d8b9" stroke-width="2" d="M460,-737C460,-737 371,-737 371,-737 365,-737 359,-731 359,-725 359,-725 359,-708 359,-708 359,-702 365,-696 371,-696 371,-696 460,-696 460,-696 466,-696 472,-702 472,-708 472,-708 472,-725 472,-725 472,-731 466,-737 460,-737"/>
<text text-anchor="middle" x="415.5" y="-725" font-family="sans" font-size="10.00" fill="#000000">compress_reads</text>
<text text-anchor="middle" x="415.5" y="-714" font-family="sans" font-size="10.00" fill="#000000">file: BB55</text>
<text text-anchor="middle" x="415.5" y="-703" font-family="sans" font-size="10.00" fill="#000000">path: 010_porechop</text>
</g>
<!-- 34&#45;&gt;29 -->
<g id="edge35" class="edge">
<title>34&#45;&gt;29</title>
<path fill="none" stroke="#c0c0c0" stroke-width="2" d="M411.0431,-695.7476C409.3339,-687.7892 407.3544,-678.5718 405.5224,-670.0418"/>
<polygon fill="#c0c0c0" stroke="#c0c0c0" stroke-width="2" points="408.9109,-669.1508 403.3891,-660.1087 402.067,-670.6207 408.9109,-669.1508"/>
</g>
<!-- 34&#45;&gt;32 -->
<g id="edge38" class="edge">
<title>34&#45;&gt;32</title>
<path fill="none" stroke="#c0c0c0" stroke-width="2" d="M439.7344,-695.7476C450.2536,-686.7398 462.6564,-676.119 473.6469,-666.7076"/>
<polygon fill="#c0c0c0" stroke="#c0c0c0" stroke-width="2" points="476.0338,-669.2715 481.353,-660.1087 471.4808,-663.9545 476.0338,-669.2715"/>
</g>
<!-- 35 -->
<g id="node35" class="node">
<title>35</title>
<path fill="none" stroke="#56d882" stroke-width="2" d="M188.5,-809C188.5,-809 92.5,-809 92.5,-809 86.5,-809 80.5,-803 80.5,-797 80.5,-797 80.5,-785 80.5,-785 80.5,-779 86.5,-773 92.5,-773 92.5,-773 188.5,-773 188.5,-773 194.5,-773 200.5,-779 200.5,-785 200.5,-785 200.5,-797 200.5,-797 200.5,-803 194.5,-809 188.5,-809"/>
<text text-anchor="middle" x="140.5" y="-788.5" font-family="sans" font-size="10.00" fill="#000000">combine_indiv_reads</text>
</g>
<!-- 35&#45;&gt;33 -->
<g id="edge39" class="edge">
<title>35&#45;&gt;33</title>
<path fill="none" stroke="#c0c0c0" stroke-width="2" d="M140.5,-772.9656C140.5,-765.3118 140.5,-756.1674 140.5,-747.4898"/>
<polygon fill="#c0c0c0" stroke="#c0c0c0" stroke-width="2" points="144.0001,-747.2678 140.5,-737.2679 137.0001,-747.2679 144.0001,-747.2678"/>
</g>
<!-- 36 -->
<g id="node36" class="node">
<title>36</title>
<path fill="none" stroke="#56d882" stroke-width="2" d="M463.5,-809C463.5,-809 367.5,-809 367.5,-809 361.5,-809 355.5,-803 355.5,-797 355.5,-797 355.5,-785 355.5,-785 355.5,-779 361.5,-773 367.5,-773 367.5,-773 463.5,-773 463.5,-773 469.5,-773 475.5,-779 475.5,-785 475.5,-785 475.5,-797 475.5,-797 475.5,-803 469.5,-809 463.5,-809"/>
<text text-anchor="middle" x="415.5" y="-788.5" font-family="sans" font-size="10.00" fill="#000000">combine_indiv_reads</text>
</g>
<!-- 36&#45;&gt;34 -->
<g id="edge40" class="edge">
<title>36&#45;&gt;34</title>
<path fill="none" stroke="#c0c0c0" stroke-width="2" d="M415.5,-772.9656C415.5,-765.3118 415.5,-756.1674 415.5,-747.4898"/>
<polygon fill="#c0c0c0" stroke="#c0c0c0" stroke-width="2" points="419.0001,-747.2678 415.5,-737.2679 412.0001,-747.2679 419.0001,-747.2678"/>
</g>
<!-- 37 -->
<g id="node37" class="node">
<title>37</title>
<path fill="none" stroke="#80d856" stroke-width="2" d="M164.5,-886C164.5,-886 116.5,-886 116.5,-886 110.5,-886 104.5,-880 104.5,-874 104.5,-874 104.5,-857 104.5,-857 104.5,-851 110.5,-845 116.5,-845 116.5,-845 164.5,-845 164.5,-845 170.5,-845 176.5,-851 176.5,-857 176.5,-857 176.5,-874 176.5,-874 176.5,-880 170.5,-886 164.5,-886"/>
<text text-anchor="middle" x="140.5" y="-874" font-family="sans" font-size="10.00" fill="#000000">porechop</text>
<text text-anchor="middle" x="140.5" y="-863" font-family="sans" font-size="10.00" fill="#000000">indiv: BB31</text>
<text text-anchor="middle" x="140.5" y="-852" font-family="sans" font-size="10.00" fill="#000000">read: test</text>
</g>
<!-- 37&#45;&gt;35 -->
<g id="edge41" class="edge">
<title>37&#45;&gt;35</title>
<path fill="none" stroke="#c0c0c0" stroke-width="2" d="M140.5,-844.7476C140.5,-836.8767 140.5,-827.7743 140.5,-819.3232"/>
<polygon fill="#c0c0c0" stroke="#c0c0c0" stroke-width="2" points="144.0001,-819.1086 140.5,-809.1087 137.0001,-819.1087 144.0001,-819.1086"/>
</g>
<!-- 38 -->
<g id="node38" class="node">
<title>38</title>
<path fill="none" stroke="#80d856" stroke-width="2" d="M439.5,-886C439.5,-886 391.5,-886 391.5,-886 385.5,-886 379.5,-880 379.5,-874 379.5,-874 379.5,-857 379.5,-857 379.5,-851 385.5,-845 391.5,-845 391.5,-845 439.5,-845 439.5,-845 445.5,-845 451.5,-851 451.5,-857 451.5,-857 451.5,-874 451.5,-874 451.5,-880 445.5,-886 439.5,-886"/>
<text text-anchor="middle" x="415.5" y="-874" font-family="sans" font-size="10.00" fill="#000000">porechop</text>
<text text-anchor="middle" x="415.5" y="-863" font-family="sans" font-size="10.00" fill="#000000">indiv: BB55</text>
<text text-anchor="middle" x="415.5" y="-852" font-family="sans" font-size="10.00" fill="#000000">read: test</text>
</g>
<!-- 38&#45;&gt;36 -->
<g id="edge42" class="edge">
<title>38&#45;&gt;36</title>
<path fill="none" stroke="#c0c0c0" stroke-width="2" d="M415.5,-844.7476C415.5,-836.8767 415.5,-827.7743 415.5,-819.3232"/>
<polygon fill="#c0c0c0" stroke="#c0c0c0" stroke-width="2" points="419.0001,-819.1086 415.5,-809.1087 412.0001,-819.1087 419.0001,-819.1086"/>
</g>
</g>
</svg>
