<?xml version="1.0" encoding="UTF-8" standalone="no"?>
<!DOCTYPE svg PUBLIC "-//W3C//DTD SVG 1.1//EN"
 "http://www.w3.org/Graphics/SVG/1.1/DTD/svg11.dtd">
<!-- Generated by graphviz version 2.43.0 (0)
 -->
<!-- Title: snakemake_dag Pages: 1 -->
<svg width="591pt" height="1196pt"
 viewBox="0.00 0.00 591.00 1196.00" xmlns="http://www.w3.org/2000/svg" xmlns:xlink="http://www.w3.org/1999/xlink">
<g id="graph0" class="graph" transform="scale(1 1) rotate(0) translate(4 1192)">
<title>snakemake_dag</title>
<polygon fill="white" stroke="transparent" points="-4,4 -4,-1192 587,-1192 587,4 -4,4"/>
<!-- 1 -->
<g id="node1" class="node">
<title>1</title>
<path fill="none" stroke="#56d89a" stroke-width="2" d="M421.5,-540C421.5,-540 359.5,-540 359.5,-540 353.5,-540 347.5,-534 347.5,-528 347.5,-528 347.5,-516 347.5,-516 347.5,-510 353.5,-504 359.5,-504 359.5,-504 421.5,-504 421.5,-504 427.5,-504 433.5,-510 433.5,-516 433.5,-516 433.5,-528 433.5,-528 433.5,-534 427.5,-540 421.5,-540"/>
<text text-anchor="middle" x="390.5" y="-519.5" font-family="sans" font-size="10.00">index_bamfile</text>
</g>
<!-- 2 -->
<g id="node2" class="node">
<title>2</title>
<path fill="none" stroke="#78d856" stroke-width="2" d="M49,-396C49,-396 12,-396 12,-396 6,-396 0,-390 0,-384 0,-384 0,-372 0,-372 0,-366 6,-360 12,-360 12,-360 49,-360 49,-360 55,-360 61,-366 61,-372 61,-372 61,-384 61,-384 61,-390 55,-396 49,-396"/>
<text text-anchor="middle" x="30.5" y="-375.5" font-family="sans" font-size="10.00">plot_wga</text>
</g>
<!-- 3 -->
<g id="node3" class="node">
<title>3</title>
<path fill="none" stroke="#56a9d8" stroke-width="2" d="M571,-540C571,-540 464,-540 464,-540 458,-540 452,-534 452,-528 452,-528 452,-516 452,-516 452,-510 458,-504 464,-504 464,-504 571,-504 571,-504 577,-504 583,-510 583,-516 583,-516 583,-528 583,-528 583,-534 577,-540 571,-540"/>
<text text-anchor="middle" x="517.5" y="-519.5" font-family="sans" font-size="10.00">merged_indiv_bamfiles</text>
</g>
<!-- 4 -->
<g id="node4" class="node">
<title>4</title>
<path fill="none" stroke="#c6d856" stroke-width="2" d="M375.5,-972C375.5,-972 331.5,-972 331.5,-972 325.5,-972 319.5,-966 319.5,-960 319.5,-960 319.5,-948 319.5,-948 319.5,-942 325.5,-936 331.5,-936 331.5,-936 375.5,-936 375.5,-936 381.5,-936 387.5,-942 387.5,-948 387.5,-948 387.5,-960 387.5,-960 387.5,-966 381.5,-972 375.5,-972"/>
<text text-anchor="middle" x="353.5" y="-951.5" font-family="sans" font-size="10.00">read_stats</text>
</g>
<!-- 5 -->
<g id="node5" class="node">
<title>5</title>
<path fill="none" stroke="#56d8b9" stroke-width="2" d="M143,-756C143,-756 74,-756 74,-756 68,-756 62,-750 62,-744 62,-744 62,-732 62,-732 62,-726 68,-720 74,-720 74,-720 143,-720 143,-720 149,-720 155,-726 155,-732 155,-732 155,-744 155,-744 155,-750 149,-756 143,-756"/>
<text text-anchor="middle" x="108.5" y="-735.5" font-family="sans" font-size="10.00">assembly_stats</text>
</g>
<!-- 6 -->
<g id="node6" class="node">
<title>6</title>
<path fill="none" stroke="#d88556" stroke-width="2" d="M152,-396C152,-396 91,-396 91,-396 85,-396 79,-390 79,-384 79,-384 79,-372 79,-372 79,-366 85,-360 91,-360 91,-360 152,-360 152,-360 158,-360 164,-366 164,-372 164,-372 164,-384 164,-384 164,-390 158,-396 152,-396"/>
<text text-anchor="middle" x="121.5" y="-375.5" font-family="sans" font-size="10.00">indiv_chr_plot</text>
</g>
<!-- 7 -->
<g id="node7" class="node">
<title>7</title>
<path fill="none" stroke="#88d856" stroke-width="2" d="M231.5,-324C231.5,-324 191.5,-324 191.5,-324 185.5,-324 179.5,-318 179.5,-312 179.5,-312 179.5,-300 179.5,-300 179.5,-294 185.5,-288 191.5,-288 191.5,-288 231.5,-288 231.5,-288 237.5,-288 243.5,-294 243.5,-300 243.5,-300 243.5,-312 243.5,-312 243.5,-318 237.5,-324 231.5,-324"/>
<text text-anchor="middle" x="211.5" y="-303.5" font-family="sans" font-size="10.00">index_vcf</text>
</g>
<!-- 13 -->
<g id="node13" class="node">
<title>13</title>
<path fill="none" stroke="#5663d8" stroke-width="2" d="M340.5,-252C340.5,-252 250.5,-252 250.5,-252 244.5,-252 238.5,-246 238.5,-240 238.5,-240 238.5,-228 238.5,-228 238.5,-222 244.5,-216 250.5,-216 250.5,-216 340.5,-216 340.5,-216 346.5,-216 352.5,-222 352.5,-228 352.5,-228 352.5,-240 352.5,-240 352.5,-246 346.5,-252 340.5,-252"/>
<text text-anchor="middle" x="295.5" y="-231.5" font-family="sans" font-size="10.00">merge_sniffles_vcfs</text>
</g>
<!-- 7&#45;&gt;13 -->
<g id="edge18" class="edge">
<title>7&#45;&gt;13</title>
<path fill="none" stroke="grey" stroke-width="2" d="M226.35,-287.7C236.02,-278.88 248.87,-268.03 260.92,-258.47"/>
<polygon fill="grey" stroke="grey" stroke-width="2" points="263.35,-261.02 269.08,-252.1 259.04,-255.5 263.35,-261.02"/>
</g>
<!-- 22 -->
<g id="node22" class="node">
<title>22</title>
<path fill="none" stroke="#568ad8" stroke-width="2" d="M222.5,-36C222.5,-36 180.5,-36 180.5,-36 174.5,-36 168.5,-30 168.5,-24 168.5,-24 168.5,-12 168.5,-12 168.5,-6 174.5,0 180.5,0 180.5,0 222.5,0 222.5,0 228.5,0 234.5,-6 234.5,-12 234.5,-12 234.5,-24 234.5,-24 234.5,-30 228.5,-36 222.5,-36"/>
<text text-anchor="middle" x="201.5" y="-15.5" font-family="sans" font-size="10.00">reheader4</text>
</g>
<!-- 7&#45;&gt;22 -->
<g id="edge30" class="edge">
<title>7&#45;&gt;22</title>
<path fill="none" stroke="grey" stroke-width="2" d="M207.49,-287.97C201.65,-240.29 196.67,-105.18 198.27,-46.63"/>
<polygon fill="grey" stroke="grey" stroke-width="2" points="201.78,-46.43 198.67,-36.31 194.79,-46.17 201.78,-46.43"/>
</g>
<!-- 29 -->
<g id="node29" class="node">
<title>29</title>
<path fill="none" stroke="#b6d856" stroke-width="2" d="M152.5,-252C152.5,-252 110.5,-252 110.5,-252 104.5,-252 98.5,-246 98.5,-240 98.5,-240 98.5,-228 98.5,-228 98.5,-222 104.5,-216 110.5,-216 110.5,-216 152.5,-216 152.5,-216 158.5,-216 164.5,-222 164.5,-228 164.5,-228 164.5,-240 164.5,-240 164.5,-246 158.5,-252 152.5,-252"/>
<text text-anchor="middle" x="131.5" y="-231.5" font-family="sans" font-size="10.00">reheader1</text>
</g>
<!-- 7&#45;&gt;29 -->
<g id="edge37" class="edge">
<title>7&#45;&gt;29</title>
<path fill="none" stroke="grey" stroke-width="2" d="M191.72,-287.7C181.75,-278.97 169.49,-268.24 158.64,-258.75"/>
<polygon fill="grey" stroke="grey" stroke-width="2" points="160.88,-256.06 151.05,-252.1 156.27,-261.32 160.88,-256.06"/>
</g>
<!-- 8 -->
<g id="node8" class="node">
<title>8</title>
<path fill="none" stroke="#56d8a9" stroke-width="2" d="M306.5,-612C306.5,-612 276.5,-612 276.5,-612 270.5,-612 264.5,-606 264.5,-600 264.5,-600 264.5,-588 264.5,-588 264.5,-582 270.5,-576 276.5,-576 276.5,-576 306.5,-576 306.5,-576 312.5,-576 318.5,-582 318.5,-588 318.5,-588 318.5,-600 318.5,-600 318.5,-606 312.5,-612 306.5,-612"/>
<text text-anchor="middle" x="291.5" y="-591.5" font-family="sans" font-size="10.00">sort</text>
</g>
<!-- 8&#45;&gt;1 -->
<g id="edge1" class="edge">
<title>8&#45;&gt;1</title>
<path fill="none" stroke="grey" stroke-width="2" d="M315.72,-575.88C328.42,-566.89 344.16,-555.76 357.92,-546.03"/>
<polygon fill="grey" stroke="grey" stroke-width="2" points="360.04,-548.82 366.19,-540.19 356,-543.11 360.04,-548.82"/>
</g>
<!-- 8&#45;&gt;3 -->
<g id="edge4" class="edge">
<title>8&#45;&gt;3</title>
<path fill="none" stroke="grey" stroke-width="2" d="M318.76,-584.56C351.79,-574.33 408.53,-556.75 452.95,-542.99"/>
<polygon fill="grey" stroke="grey" stroke-width="2" points="454,-546.33 462.52,-540.03 451.93,-539.64 454,-546.33"/>
</g>
<!-- 15 -->
<g id="node15" class="node">
<title>15</title>
<path fill="none" stroke="#59d856" stroke-width="2" d="M148.5,-540C148.5,-540 92.5,-540 92.5,-540 86.5,-540 80.5,-534 80.5,-528 80.5,-528 80.5,-516 80.5,-516 80.5,-510 86.5,-504 92.5,-504 92.5,-504 148.5,-504 148.5,-504 154.5,-504 160.5,-510 160.5,-516 160.5,-516 160.5,-528 160.5,-528 160.5,-534 154.5,-540 148.5,-540"/>
<text text-anchor="middle" x="120.5" y="-519.5" font-family="sans" font-size="10.00">bam_to_sam</text>
</g>
<!-- 8&#45;&gt;15 -->
<g id="edge21" class="edge">
<title>8&#45;&gt;15</title>
<path fill="none" stroke="grey" stroke-width="2" d="M264.4,-581.91C239.06,-571.53 200.59,-555.79 169.8,-543.18"/>
<polygon fill="grey" stroke="grey" stroke-width="2" points="171.1,-539.93 160.52,-539.38 168.45,-546.41 171.1,-539.93"/>
</g>
<!-- 30 -->
<g id="node30" class="node">
<title>30</title>
<path fill="none" stroke="#d85656" stroke-width="2" d="M317,-540C317,-540 266,-540 266,-540 260,-540 254,-534 254,-528 254,-528 254,-516 254,-516 254,-510 260,-504 266,-504 266,-504 317,-504 317,-504 323,-504 329,-510 329,-516 329,-516 329,-528 329,-528 329,-534 323,-540 317,-540"/>
<text text-anchor="middle" x="291.5" y="-519.5" font-family="sans" font-size="10.00">sniffles_pop</text>
</g>
<!-- 8&#45;&gt;30 -->
<g id="edge38" class="edge">
<title>8&#45;&gt;30</title>
<path fill="none" stroke="grey" stroke-width="2" d="M291.5,-575.7C291.5,-567.98 291.5,-558.71 291.5,-550.11"/>
<polygon fill="grey" stroke="grey" stroke-width="2" points="295,-550.1 291.5,-540.1 288,-550.1 295,-550.1"/>
</g>
<!-- 31 -->
<g id="node31" class="node">
<title>31</title>
<path fill="none" stroke="#56d87b" stroke-width="2" d="M223.5,-540C223.5,-540 193.5,-540 193.5,-540 187.5,-540 181.5,-534 181.5,-528 181.5,-528 181.5,-516 181.5,-516 181.5,-510 187.5,-504 193.5,-504 193.5,-504 223.5,-504 223.5,-504 229.5,-504 235.5,-510 235.5,-516 235.5,-516 235.5,-528 235.5,-528 235.5,-534 229.5,-540 223.5,-540"/>
<text text-anchor="middle" x="208.5" y="-519.5" font-family="sans" font-size="10.00">sniffles</text>
</g>
<!-- 8&#45;&gt;31 -->
<g id="edge40" class="edge">
<title>8&#45;&gt;31</title>
<path fill="none" stroke="grey" stroke-width="2" d="M270.98,-575.7C260.63,-566.97 247.91,-556.24 236.66,-546.75"/>
<polygon fill="grey" stroke="grey" stroke-width="2" points="238.68,-543.88 228.78,-540.1 234.17,-549.23 238.68,-543.88"/>
</g>
<!-- 9 -->
<g id="node9" class="node">
<title>9</title>
<path fill="none" stroke="#56d863" stroke-width="2" d="M51,-468C51,-468 16,-468 16,-468 10,-468 4,-462 4,-456 4,-456 4,-444 4,-444 4,-438 10,-432 16,-432 16,-432 51,-432 51,-432 57,-432 63,-438 63,-444 63,-444 63,-456 63,-456 63,-462 57,-468 51,-468"/>
<text text-anchor="middle" x="33.5" y="-447.5" font-family="sans" font-size="10.00">index_fa</text>
</g>
<!-- 9&#45;&gt;2 -->
<g id="edge3" class="edge">
<title>9&#45;&gt;2</title>
<path fill="none" stroke="grey" stroke-width="2" d="M32.76,-431.7C32.43,-423.98 32.03,-414.71 31.66,-406.11"/>
<polygon fill="grey" stroke="grey" stroke-width="2" points="35.16,-405.95 31.23,-396.1 28.16,-406.25 35.16,-405.95"/>
</g>
<!-- 9&#45;&gt;6 -->
<g id="edge8" class="edge">
<title>9&#45;&gt;6</title>
<path fill="none" stroke="grey" stroke-width="2" d="M55.25,-431.7C66.34,-422.88 79.97,-412.03 91.99,-402.47"/>
<polygon fill="grey" stroke="grey" stroke-width="2" points="94.35,-405.07 100,-396.1 89.99,-399.59 94.35,-405.07"/>
</g>
<!-- 10 -->
<g id="node10" class="node">
<title>10</title>
<path fill="none" stroke="#569ad8" stroke-width="2" d="M144.5,-468C144.5,-468 94.5,-468 94.5,-468 88.5,-468 82.5,-462 82.5,-456 82.5,-456 82.5,-444 82.5,-444 82.5,-438 88.5,-432 94.5,-432 94.5,-432 144.5,-432 144.5,-432 150.5,-432 156.5,-438 156.5,-444 156.5,-444 156.5,-456 156.5,-456 156.5,-462 150.5,-468 144.5,-468"/>
<text text-anchor="middle" x="119.5" y="-447.5" font-family="sans" font-size="10.00">sam_to_paf</text>
</g>
<!-- 10&#45;&gt;2 -->
<g id="edge2" class="edge">
<title>10&#45;&gt;2</title>
<path fill="none" stroke="grey" stroke-width="2" d="M97.5,-431.7C86.29,-422.88 72.5,-412.03 60.35,-402.47"/>
<polygon fill="grey" stroke="grey" stroke-width="2" points="62.27,-399.54 52.25,-396.1 57.94,-405.04 62.27,-399.54"/>
</g>
<!-- 10&#45;&gt;6 -->
<g id="edge7" class="edge">
<title>10&#45;&gt;6</title>
<path fill="none" stroke="grey" stroke-width="2" d="M119.99,-431.7C120.21,-423.98 120.48,-414.71 120.73,-406.11"/>
<polygon fill="grey" stroke="grey" stroke-width="2" points="124.22,-406.2 121.01,-396.1 117.23,-406 124.22,-406.2"/>
</g>
<!-- 11 -->
<g id="node11" class="node">
<title>11</title>
<path fill="none" stroke="#56d88a" stroke-width="2" d="M327.5,-1044C327.5,-1044 255.5,-1044 255.5,-1044 249.5,-1044 243.5,-1038 243.5,-1032 243.5,-1032 243.5,-1020 243.5,-1020 243.5,-1014 249.5,-1008 255.5,-1008 255.5,-1008 327.5,-1008 327.5,-1008 333.5,-1008 339.5,-1014 339.5,-1020 339.5,-1020 339.5,-1032 339.5,-1032 339.5,-1038 333.5,-1044 327.5,-1044"/>
<text text-anchor="middle" x="291.5" y="-1023.5" font-family="sans" font-size="10.00">compress_reads</text>
</g>
<!-- 11&#45;&gt;4 -->
<g id="edge5" class="edge">
<title>11&#45;&gt;4</title>
<path fill="none" stroke="grey" stroke-width="2" d="M306.83,-1007.7C314.26,-999.3 323.32,-989.07 331.48,-979.86"/>
<polygon fill="grey" stroke="grey" stroke-width="2" points="334.34,-981.91 338.35,-972.1 329.1,-977.27 334.34,-981.91"/>
</g>
<!-- 17 -->
<g id="node17" class="node">
<title>17</title>
<path fill="none" stroke="#56c9d8" stroke-width="2" d="M187.5,-972C187.5,-972 157.5,-972 157.5,-972 151.5,-972 145.5,-966 145.5,-960 145.5,-960 145.5,-948 145.5,-948 145.5,-942 151.5,-936 157.5,-936 157.5,-936 187.5,-936 187.5,-936 193.5,-936 199.5,-942 199.5,-948 199.5,-948 199.5,-960 199.5,-960 199.5,-966 193.5,-972 187.5,-972"/>
<text text-anchor="middle" x="172.5" y="-951.5" font-family="sans" font-size="10.00">flye</text>
</g>
<!-- 11&#45;&gt;17 -->
<g id="edge23" class="edge">
<title>11&#45;&gt;17</title>
<path fill="none" stroke="grey" stroke-width="2" d="M262.39,-1007.88C246.1,-998.29 225.66,-986.27 208.38,-976.11"/>
<polygon fill="grey" stroke="grey" stroke-width="2" points="210.07,-973.04 199.68,-970.99 206.52,-979.07 210.07,-973.04"/>
</g>
<!-- 20 -->
<g id="node20" class="node">
<title>20</title>
<path fill="none" stroke="#56d8d8" stroke-width="2" d="M331.5,-756C331.5,-756 257.5,-756 257.5,-756 251.5,-756 245.5,-750 245.5,-744 245.5,-744 245.5,-732 245.5,-732 245.5,-726 251.5,-720 257.5,-720 257.5,-720 331.5,-720 331.5,-720 337.5,-720 343.5,-726 343.5,-732 343.5,-732 343.5,-744 343.5,-744 343.5,-750 337.5,-756 331.5,-756"/>
<text text-anchor="middle" x="294.5" y="-735.5" font-family="sans" font-size="10.00">map_to_genome</text>
</g>
<!-- 11&#45;&gt;20 -->
<g id="edge27" class="edge">
<title>11&#45;&gt;20</title>
<path fill="none" stroke="grey" stroke-width="2" d="M291.68,-1007.97C292.18,-960.29 293.6,-825.18 294.21,-766.63"/>
<polygon fill="grey" stroke="grey" stroke-width="2" points="297.71,-766.34 294.32,-756.31 290.71,-766.27 297.71,-766.34"/>
</g>
<!-- 12 -->
<g id="node12" class="node">
<title>12</title>
<path fill="none" stroke="#97d856" stroke-width="2" d="M152.5,-828C152.5,-828 82.5,-828 82.5,-828 76.5,-828 70.5,-822 70.5,-816 70.5,-816 70.5,-804 70.5,-804 70.5,-798 76.5,-792 82.5,-792 82.5,-792 152.5,-792 152.5,-792 158.5,-792 164.5,-798 164.5,-804 164.5,-804 164.5,-816 164.5,-816 164.5,-822 158.5,-828 152.5,-828"/>
<text text-anchor="middle" x="117.5" y="-807.5" font-family="sans" font-size="10.00">orient_scaffolds</text>
</g>
<!-- 12&#45;&gt;5 -->
<g id="edge6" class="edge">
<title>12&#45;&gt;5</title>
<path fill="none" stroke="grey" stroke-width="2" d="M115.28,-791.7C114.28,-783.98 113.09,-774.71 111.99,-766.11"/>
<polygon fill="grey" stroke="grey" stroke-width="2" points="115.45,-765.58 110.7,-756.1 108.5,-766.47 115.45,-765.58"/>
</g>
<!-- 12&#45;&gt;9 -->
<g id="edge13" class="edge">
<title>12&#45;&gt;9</title>
<path fill="none" stroke="grey" stroke-width="2" d="M88.68,-791.95C75.72,-782.86 61.38,-770.54 52.5,-756 31.41,-721.49 33.5,-707.45 33.5,-667 33.5,-667 33.5,-667 33.5,-593 33.5,-553 33.5,-506.65 33.5,-478.08"/>
<polygon fill="grey" stroke="grey" stroke-width="2" points="37,-478.05 33.5,-468.05 30,-478.05 37,-478.05"/>
</g>
<!-- 19 -->
<g id="node19" class="node">
<title>19</title>
<path fill="none" stroke="#d89556" stroke-width="2" d="M215.5,-756C215.5,-756 185.5,-756 185.5,-756 179.5,-756 173.5,-750 173.5,-744 173.5,-744 173.5,-732 173.5,-732 173.5,-726 179.5,-720 185.5,-720 185.5,-720 215.5,-720 215.5,-720 221.5,-720 227.5,-726 227.5,-732 227.5,-732 227.5,-744 227.5,-744 227.5,-750 221.5,-756 215.5,-756"/>
<text text-anchor="middle" x="200.5" y="-735.5" font-family="sans" font-size="10.00">wga</text>
</g>
<!-- 12&#45;&gt;19 -->
<g id="edge25" class="edge">
<title>12&#45;&gt;19</title>
<path fill="none" stroke="grey" stroke-width="2" d="M138.02,-791.7C148.37,-782.97 161.09,-772.24 172.34,-762.75"/>
<polygon fill="grey" stroke="grey" stroke-width="2" points="174.83,-765.23 180.22,-756.1 170.32,-759.88 174.83,-765.23"/>
</g>
<!-- 13&#45;&gt;7 -->
<g id="edge10" class="edge">
<title>13&#45;&gt;7</title>
<path fill="none" stroke="grey" stroke-width="2" d="M280.87,-252.1C271.25,-260.89 258.41,-271.73 246.36,-281.31"/>
<polygon fill="grey" stroke="grey" stroke-width="2" points="243.91,-278.78 238.18,-287.7 248.21,-284.3 243.91,-278.78"/>
</g>
<!-- 13&#45;&gt;30 -->
<g id="edge39" class="edge">
<title>13&#45;&gt;30</title>
<path fill="none" stroke="grey" stroke-width="2" d="M295.26,-252.31C294.59,-300.31 292.7,-435.44 291.88,-493.7"/>
<polygon fill="grey" stroke="grey" stroke-width="2" points="288.38,-493.92 291.74,-503.97 295.38,-494.02 288.38,-493.92"/>
</g>
<!-- 14 -->
<g id="node14" class="node">
<title>14</title>
<path fill="none" stroke="#d8a456" stroke-width="2" d="M319.5,-684C319.5,-684 263.5,-684 263.5,-684 257.5,-684 251.5,-678 251.5,-672 251.5,-672 251.5,-660 251.5,-660 251.5,-654 257.5,-648 263.5,-648 263.5,-648 319.5,-648 319.5,-648 325.5,-648 331.5,-654 331.5,-660 331.5,-660 331.5,-672 331.5,-672 331.5,-678 325.5,-684 319.5,-684"/>
<text text-anchor="middle" x="291.5" y="-663.5" font-family="sans" font-size="10.00">sam_to_bam</text>
</g>
<!-- 14&#45;&gt;8 -->
<g id="edge12" class="edge">
<title>14&#45;&gt;8</title>
<path fill="none" stroke="grey" stroke-width="2" d="M291.5,-647.7C291.5,-639.98 291.5,-630.71 291.5,-622.11"/>
<polygon fill="grey" stroke="grey" stroke-width="2" points="295,-622.1 291.5,-612.1 288,-622.1 295,-622.1"/>
</g>
<!-- 15&#45;&gt;10 -->
<g id="edge14" class="edge">
<title>15&#45;&gt;10</title>
<path fill="none" stroke="grey" stroke-width="2" d="M120.25,-503.7C120.14,-495.98 120.01,-486.71 119.89,-478.11"/>
<polygon fill="grey" stroke="grey" stroke-width="2" points="123.39,-478.05 119.74,-468.1 116.39,-478.15 123.39,-478.05"/>
</g>
<!-- 16 -->
<g id="node16" class="node">
<title>16</title>
<path fill="none" stroke="#d6d856" stroke-width="2" d="M339.5,-1116C339.5,-1116 243.5,-1116 243.5,-1116 237.5,-1116 231.5,-1110 231.5,-1104 231.5,-1104 231.5,-1092 231.5,-1092 231.5,-1086 237.5,-1080 243.5,-1080 243.5,-1080 339.5,-1080 339.5,-1080 345.5,-1080 351.5,-1086 351.5,-1092 351.5,-1092 351.5,-1104 351.5,-1104 351.5,-1110 345.5,-1116 339.5,-1116"/>
<text text-anchor="middle" x="291.5" y="-1095.5" font-family="sans" font-size="10.00">combine_indiv_reads</text>
</g>
<!-- 16&#45;&gt;11 -->
<g id="edge15" class="edge">
<title>16&#45;&gt;11</title>
<path fill="none" stroke="grey" stroke-width="2" d="M291.5,-1079.7C291.5,-1071.98 291.5,-1062.71 291.5,-1054.11"/>
<polygon fill="grey" stroke="grey" stroke-width="2" points="295,-1054.1 291.5,-1044.1 288,-1054.1 295,-1054.1"/>
</g>
<!-- 17&#45;&gt;12 -->
<g id="edge16" class="edge">
<title>17&#45;&gt;12</title>
<path fill="none" stroke="grey" stroke-width="2" d="M158.34,-935.85C150.81,-925.93 142,-912.89 136.5,-900 128.09,-880.29 123.26,-856.49 120.57,-838.46"/>
<polygon fill="grey" stroke="grey" stroke-width="2" points="124.01,-837.76 119.2,-828.33 117.07,-838.71 124.01,-837.76"/>
</g>
<!-- 18 -->
<g id="node18" class="node">
<title>18</title>
<path fill="none" stroke="#d8cb56" stroke-width="2" d="M187.5,-900C187.5,-900 157.5,-900 157.5,-900 151.5,-900 145.5,-894 145.5,-888 145.5,-888 145.5,-876 145.5,-876 145.5,-870 151.5,-864 157.5,-864 157.5,-864 187.5,-864 187.5,-864 193.5,-864 199.5,-870 199.5,-876 199.5,-876 199.5,-888 199.5,-888 199.5,-894 193.5,-900 187.5,-900"/>
<text text-anchor="middle" x="172.5" y="-879.5" font-family="sans" font-size="10.00">ragtag</text>
</g>
<!-- 17&#45;&gt;18 -->
<g id="edge24" class="edge">
<title>17&#45;&gt;18</title>
<path fill="none" stroke="grey" stroke-width="2" d="M172.5,-935.7C172.5,-927.98 172.5,-918.71 172.5,-910.11"/>
<polygon fill="grey" stroke="grey" stroke-width="2" points="176,-910.1 172.5,-900.1 169,-910.1 176,-910.1"/>
</g>
<!-- 18&#45;&gt;12 -->
<g id="edge17" class="edge">
<title>18&#45;&gt;12</title>
<path fill="none" stroke="grey" stroke-width="2" d="M158.9,-863.7C152.38,-855.39 144.43,-845.28 137.25,-836.14"/>
<polygon fill="grey" stroke="grey" stroke-width="2" points="139.87,-833.81 130.94,-828.1 134.37,-838.13 139.87,-833.81"/>
</g>
<!-- 19&#45;&gt;14 -->
<g id="edge19" class="edge">
<title>19&#45;&gt;14</title>
<path fill="none" stroke="grey" stroke-width="2" d="M222.99,-719.7C234.46,-710.88 248.56,-700.03 260.98,-690.47"/>
<polygon fill="grey" stroke="grey" stroke-width="2" points="263.47,-692.98 269.26,-684.1 259.2,-687.43 263.47,-692.98"/>
</g>
<!-- 20&#45;&gt;14 -->
<g id="edge20" class="edge">
<title>20&#45;&gt;14</title>
<path fill="none" stroke="grey" stroke-width="2" d="M293.76,-719.7C293.43,-711.98 293.03,-702.71 292.66,-694.11"/>
<polygon fill="grey" stroke="grey" stroke-width="2" points="296.16,-693.95 292.23,-684.1 289.16,-694.25 296.16,-693.95"/>
</g>
<!-- 21 -->
<g id="node21" class="node">
<title>21</title>
<path fill="none" stroke="#68d856" stroke-width="2" d="M310.5,-1188C310.5,-1188 272.5,-1188 272.5,-1188 266.5,-1188 260.5,-1182 260.5,-1176 260.5,-1176 260.5,-1164 260.5,-1164 260.5,-1158 266.5,-1152 272.5,-1152 272.5,-1152 310.5,-1152 310.5,-1152 316.5,-1152 322.5,-1158 322.5,-1164 322.5,-1164 322.5,-1176 322.5,-1176 322.5,-1182 316.5,-1188 310.5,-1188"/>
<text text-anchor="middle" x="291.5" y="-1167.5" font-family="sans" font-size="10.00">porechop</text>
</g>
<!-- 21&#45;&gt;16 -->
<g id="edge22" class="edge">
<title>21&#45;&gt;16</title>
<path fill="none" stroke="grey" stroke-width="2" d="M291.5,-1151.7C291.5,-1143.98 291.5,-1134.71 291.5,-1126.11"/>
<polygon fill="grey" stroke="grey" stroke-width="2" points="295,-1126.1 291.5,-1116.1 288,-1126.1 295,-1126.1"/>
</g>
<!-- 22&#45;&gt;7 -->
<g id="edge11" class="edge">
<title>22&#45;&gt;7</title>
<path fill="none" stroke="grey" stroke-width="2" d="M205.54,-36.31C211.38,-84.31 216.35,-219.44 214.72,-277.7"/>
<polygon fill="grey" stroke="grey" stroke-width="2" points="211.21,-277.84 214.32,-287.97 218.2,-278.11 211.21,-277.84"/>
</g>
<!-- 23 -->
<g id="node23" class="node">
<title>23</title>
<path fill="none" stroke="#d87556" stroke-width="2" d="M249,-828C249,-828 200,-828 200,-828 194,-828 188,-822 188,-816 188,-816 188,-804 188,-804 188,-798 194,-792 200,-792 200,-792 249,-792 249,-792 255,-792 261,-798 261,-804 261,-804 261,-816 261,-816 261,-822 255,-828 249,-828"/>
<text text-anchor="middle" x="224.5" y="-807.5" font-family="sans" font-size="10.00">prepare_ref</text>
</g>
<!-- 23&#45;&gt;19 -->
<g id="edge26" class="edge">
<title>23&#45;&gt;19</title>
<path fill="none" stroke="grey" stroke-width="2" d="M218.57,-791.7C215.89,-783.9 212.67,-774.51 209.7,-765.83"/>
<polygon fill="grey" stroke="grey" stroke-width="2" points="212.92,-764.43 206.36,-756.1 206.3,-766.7 212.92,-764.43"/>
</g>
<!-- 23&#45;&gt;20 -->
<g id="edge28" class="edge">
<title>23&#45;&gt;20</title>
<path fill="none" stroke="grey" stroke-width="2" d="M241.8,-791.7C250.36,-783.14 260.84,-772.66 270.2,-763.3"/>
<polygon fill="grey" stroke="grey" stroke-width="2" points="272.8,-765.65 277.4,-756.1 267.85,-760.7 272.8,-765.65"/>
</g>
<!-- 24 -->
<g id="node24" class="node">
<title>24</title>
<path fill="none" stroke="#56d8c9" stroke-width="2" d="M152.5,-108C152.5,-108 110.5,-108 110.5,-108 104.5,-108 98.5,-102 98.5,-96 98.5,-96 98.5,-84 98.5,-84 98.5,-78 104.5,-72 110.5,-72 110.5,-72 152.5,-72 152.5,-72 158.5,-72 164.5,-78 164.5,-84 164.5,-84 164.5,-96 164.5,-96 164.5,-102 158.5,-108 152.5,-108"/>
<text text-anchor="middle" x="131.5" y="-87.5" font-family="sans" font-size="10.00">reheader3</text>
</g>
<!-- 24&#45;&gt;22 -->
<g id="edge29" class="edge">
<title>24&#45;&gt;22</title>
<path fill="none" stroke="grey" stroke-width="2" d="M148.8,-71.7C157.36,-63.14 167.84,-52.66 177.2,-43.3"/>
<polygon fill="grey" stroke="grey" stroke-width="2" points="179.8,-45.65 184.4,-36.1 174.85,-40.7 179.8,-45.65"/>
</g>
<!-- 25 -->
<g id="node25" class="node">
<title>25</title>
<path fill="none" stroke="#d8b456" stroke-width="2" d="M228.5,-396C228.5,-396 196.5,-396 196.5,-396 190.5,-396 184.5,-390 184.5,-384 184.5,-384 184.5,-372 184.5,-372 184.5,-366 190.5,-360 196.5,-360 196.5,-360 228.5,-360 228.5,-360 234.5,-360 240.5,-366 240.5,-372 240.5,-372 240.5,-384 240.5,-384 240.5,-390 234.5,-396 228.5,-396"/>
<text text-anchor="middle" x="212.5" y="-375.5" font-family="sans" font-size="10.00">sort_vcf</text>
</g>
<!-- 25&#45;&gt;7 -->
<g id="edge9" class="edge">
<title>25&#45;&gt;7</title>
<path fill="none" stroke="grey" stroke-width="2" d="M212.25,-359.7C212.14,-351.98 212.01,-342.71 211.89,-334.11"/>
<polygon fill="grey" stroke="grey" stroke-width="2" points="215.39,-334.05 211.74,-324.1 208.39,-334.15 215.39,-334.05"/>
</g>
<!-- 26 -->
<g id="node26" class="node">
<title>26</title>
<path fill="none" stroke="#567bd8" stroke-width="2" d="M152.5,-180C152.5,-180 110.5,-180 110.5,-180 104.5,-180 98.5,-174 98.5,-168 98.5,-168 98.5,-156 98.5,-156 98.5,-150 104.5,-144 110.5,-144 110.5,-144 152.5,-144 152.5,-144 158.5,-144 164.5,-150 164.5,-156 164.5,-156 164.5,-168 164.5,-168 164.5,-174 158.5,-180 152.5,-180"/>
<text text-anchor="middle" x="131.5" y="-159.5" font-family="sans" font-size="10.00">reheader2</text>
</g>
<!-- 26&#45;&gt;24 -->
<g id="edge31" class="edge">
<title>26&#45;&gt;24</title>
<path fill="none" stroke="grey" stroke-width="2" d="M131.5,-143.7C131.5,-135.98 131.5,-126.71 131.5,-118.11"/>
<polygon fill="grey" stroke="grey" stroke-width="2" points="135,-118.1 131.5,-108.1 128,-118.1 135,-118.1"/>
</g>
<!-- 27 -->
<g id="node27" class="node">
<title>27</title>
<path fill="none" stroke="#56b9d8" stroke-width="2" d="M68.5,-180C68.5,-180 18.5,-180 18.5,-180 12.5,-180 6.5,-174 6.5,-168 6.5,-168 6.5,-156 6.5,-156 6.5,-150 12.5,-144 18.5,-144 18.5,-144 68.5,-144 68.5,-144 74.5,-144 80.5,-150 80.5,-156 80.5,-156 80.5,-168 80.5,-168 80.5,-174 74.5,-180 68.5,-180"/>
<text text-anchor="middle" x="43.5" y="-159.5" font-family="sans" font-size="10.00">header_line</text>
</g>
<!-- 27&#45;&gt;24 -->
<g id="edge32" class="edge">
<title>27&#45;&gt;24</title>
<path fill="none" stroke="grey" stroke-width="2" d="M65.25,-143.7C76.34,-134.88 89.97,-124.03 101.99,-114.47"/>
<polygon fill="grey" stroke="grey" stroke-width="2" points="104.35,-117.07 110,-108.1 99.99,-111.59 104.35,-117.07"/>
</g>
<!-- 28 -->
<g id="node28" class="node">
<title>28</title>
<path fill="none" stroke="#d86656" stroke-width="2" d="M246,-468C246,-468 187,-468 187,-468 181,-468 175,-462 175,-456 175,-456 175,-444 175,-444 175,-438 181,-432 187,-432 187,-432 246,-432 246,-432 252,-432 258,-438 258,-444 258,-444 258,-456 258,-456 258,-462 252,-468 246,-468"/>
<text text-anchor="middle" x="216.5" y="-447.5" font-family="sans" font-size="10.00">sniffles_norm</text>
</g>
<!-- 28&#45;&gt;25 -->
<g id="edge33" class="edge">
<title>28&#45;&gt;25</title>
<path fill="none" stroke="grey" stroke-width="2" d="M215.51,-431.7C215.07,-423.98 214.54,-414.71 214.05,-406.11"/>
<polygon fill="grey" stroke="grey" stroke-width="2" points="217.54,-405.89 213.48,-396.1 210.55,-406.29 217.54,-405.89"/>
</g>
<!-- 29&#45;&gt;26 -->
<g id="edge34" class="edge">
<title>29&#45;&gt;26</title>
<path fill="none" stroke="grey" stroke-width="2" d="M131.5,-215.7C131.5,-207.98 131.5,-198.71 131.5,-190.11"/>
<polygon fill="grey" stroke="grey" stroke-width="2" points="135,-190.1 131.5,-180.1 128,-190.1 135,-190.1"/>
</g>
<!-- 30&#45;&gt;28 -->
<g id="edge35" class="edge">
<title>30&#45;&gt;28</title>
<path fill="none" stroke="grey" stroke-width="2" d="M272.96,-503.7C263.7,-495.05 252.34,-484.45 242.24,-475.03"/>
<polygon fill="grey" stroke="grey" stroke-width="2" points="244.52,-472.37 234.83,-468.1 239.75,-477.49 244.52,-472.37"/>
</g>
<!-- 31&#45;&gt;28 -->
<g id="edge36" class="edge">
<title>31&#45;&gt;28</title>
<path fill="none" stroke="grey" stroke-width="2" d="M210.48,-503.7C211.36,-495.98 212.42,-486.71 213.4,-478.11"/>
<polygon fill="grey" stroke="grey" stroke-width="2" points="216.89,-478.44 214.55,-468.1 209.93,-477.64 216.89,-478.44"/>
</g>
</g>
</svg>
