<?xml version="1.0" encoding="UTF-8" standalone="no"?>
<!DOCTYPE svg PUBLIC "-//W3C//DTD SVG 1.1//EN"
 "http://www.w3.org/Graphics/SVG/1.1/DTD/svg11.dtd">
<!-- Generated by graphviz version 2.43.0 (0)
 -->
<!-- Title: snakemake_dag Pages: 1 -->
<svg width="587pt" height="980pt"
 viewBox="0.00 0.00 587.00 980.00" xmlns="http://www.w3.org/2000/svg" xmlns:xlink="http://www.w3.org/1999/xlink">
<g id="graph0" class="graph" transform="scale(1 1) rotate(0) translate(4 976)">
<title>snakemake_dag</title>
<polygon fill="white" stroke="transparent" points="-4,4 -4,-976 583,-976 583,4 -4,4"/>
<!-- 1 -->
<g id="node1" class="node">
<title>1</title>
<path fill="none" stroke="#d86656" stroke-width="2" d="M417.5,-324C417.5,-324 355.5,-324 355.5,-324 349.5,-324 343.5,-318 343.5,-312 343.5,-312 343.5,-300 343.5,-300 343.5,-294 349.5,-288 355.5,-288 355.5,-288 417.5,-288 417.5,-288 423.5,-288 429.5,-294 429.5,-300 429.5,-300 429.5,-312 429.5,-312 429.5,-318 423.5,-324 417.5,-324"/>
<text text-anchor="middle" x="386.5" y="-303.5" font-family="sans" font-size="10.00">index_bamfile</text>
</g>
<!-- 2 -->
<g id="node2" class="node">
<title>2</title>
<path fill="none" stroke="#d87d56" stroke-width="2" d="M49,-180C49,-180 12,-180 12,-180 6,-180 0,-174 0,-168 0,-168 0,-156 0,-156 0,-150 6,-144 12,-144 12,-144 49,-144 49,-144 55,-144 61,-150 61,-156 61,-156 61,-168 61,-168 61,-174 55,-180 49,-180"/>
<text text-anchor="middle" x="30.5" y="-159.5" font-family="sans" font-size="10.00">plot_wga</text>
</g>
<!-- 3 -->
<g id="node3" class="node">
<title>3</title>
<path fill="none" stroke="#d88d56" stroke-width="2" d="M567,-324C567,-324 460,-324 460,-324 454,-324 448,-318 448,-312 448,-312 448,-300 448,-300 448,-294 454,-288 460,-288 460,-288 567,-288 567,-288 573,-288 579,-294 579,-300 579,-300 579,-312 579,-312 579,-318 573,-324 567,-324"/>
<text text-anchor="middle" x="513.5" y="-303.5" font-family="sans" font-size="10.00">merged_indiv_bamfiles</text>
</g>
<!-- 4 -->
<g id="node4" class="node">
<title>4</title>
<path fill="none" stroke="#567bd8" stroke-width="2" d="M375.5,-756C375.5,-756 331.5,-756 331.5,-756 325.5,-756 319.5,-750 319.5,-744 319.5,-744 319.5,-732 319.5,-732 319.5,-726 325.5,-720 331.5,-720 331.5,-720 375.5,-720 375.5,-720 381.5,-720 387.5,-726 387.5,-732 387.5,-732 387.5,-744 387.5,-744 387.5,-750 381.5,-756 375.5,-756"/>
<text text-anchor="middle" x="353.5" y="-735.5" font-family="sans" font-size="10.00">read_stats</text>
</g>
<!-- 5 -->
<g id="node5" class="node">
<title>5</title>
<path fill="none" stroke="#56d863" stroke-width="2" d="M143,-540C143,-540 74,-540 74,-540 68,-540 62,-534 62,-528 62,-528 62,-516 62,-516 62,-510 68,-504 74,-504 74,-504 143,-504 143,-504 149,-504 155,-510 155,-516 155,-516 155,-528 155,-528 155,-534 149,-540 143,-540"/>
<text text-anchor="middle" x="108.5" y="-519.5" font-family="sans" font-size="10.00">assembly_stats</text>
</g>
<!-- 6 -->
<g id="node6" class="node">
<title>6</title>
<path fill="none" stroke="#d8a456" stroke-width="2" d="M152,-180C152,-180 91,-180 91,-180 85,-180 79,-174 79,-168 79,-168 79,-156 79,-156 79,-150 85,-144 91,-144 91,-144 152,-144 152,-144 158,-144 164,-150 164,-156 164,-156 164,-168 164,-168 164,-174 158,-180 152,-180"/>
<text text-anchor="middle" x="121.5" y="-159.5" font-family="sans" font-size="10.00">indiv_chr_plot</text>
</g>
<!-- 7 -->
<g id="node7" class="node">
<title>7</title>
<path fill="none" stroke="#d8cb56" stroke-width="2" d="M242.5,-108C242.5,-108 202.5,-108 202.5,-108 196.5,-108 190.5,-102 190.5,-96 190.5,-96 190.5,-84 190.5,-84 190.5,-78 196.5,-72 202.5,-72 202.5,-72 242.5,-72 242.5,-72 248.5,-72 254.5,-78 254.5,-84 254.5,-84 254.5,-96 254.5,-96 254.5,-102 248.5,-108 242.5,-108"/>
<text text-anchor="middle" x="222.5" y="-87.5" font-family="sans" font-size="10.00">index_vcf</text>
</g>
<!-- 13 -->
<g id="node13" class="node">
<title>13</title>
<path fill="none" stroke="#d85656" stroke-width="2" d="M267.5,-36C267.5,-36 177.5,-36 177.5,-36 171.5,-36 165.5,-30 165.5,-24 165.5,-24 165.5,-12 165.5,-12 165.5,-6 171.5,0 177.5,0 177.5,0 267.5,0 267.5,0 273.5,0 279.5,-6 279.5,-12 279.5,-12 279.5,-24 279.5,-24 279.5,-30 273.5,-36 267.5,-36"/>
<text text-anchor="middle" x="222.5" y="-15.5" font-family="sans" font-size="10.00">merge_sniffles_vcfs</text>
</g>
<!-- 7&#45;&gt;13 -->
<g id="edge17" class="edge">
<title>7&#45;&gt;13</title>
<path fill="none" stroke="grey" stroke-width="2" d="M216.58,-71.7C215.79,-63.98 215.56,-54.71 215.9,-46.11"/>
<polygon fill="grey" stroke="grey" stroke-width="2" points="219.4,-46.32 216.6,-36.1 212.42,-45.84 219.4,-46.32"/>
</g>
<!-- 8 -->
<g id="node8" class="node">
<title>8</title>
<path fill="none" stroke="#88d856" stroke-width="2" d="M302.5,-396C302.5,-396 272.5,-396 272.5,-396 266.5,-396 260.5,-390 260.5,-384 260.5,-384 260.5,-372 260.5,-372 260.5,-366 266.5,-360 272.5,-360 272.5,-360 302.5,-360 302.5,-360 308.5,-360 314.5,-366 314.5,-372 314.5,-372 314.5,-384 314.5,-384 314.5,-390 308.5,-396 302.5,-396"/>
<text text-anchor="middle" x="287.5" y="-375.5" font-family="sans" font-size="10.00">sort</text>
</g>
<!-- 8&#45;&gt;1 -->
<g id="edge1" class="edge">
<title>8&#45;&gt;1</title>
<path fill="none" stroke="grey" stroke-width="2" d="M311.72,-359.88C324.42,-350.89 340.16,-339.76 353.92,-330.03"/>
<polygon fill="grey" stroke="grey" stroke-width="2" points="356.04,-332.82 362.19,-324.19 352,-327.11 356.04,-332.82"/>
</g>
<!-- 8&#45;&gt;3 -->
<g id="edge4" class="edge">
<title>8&#45;&gt;3</title>
<path fill="none" stroke="grey" stroke-width="2" d="M314.76,-368.56C347.79,-358.33 404.53,-340.75 448.95,-326.99"/>
<polygon fill="grey" stroke="grey" stroke-width="2" points="450,-330.33 458.52,-324.03 447.93,-323.64 450,-330.33"/>
</g>
<!-- 15 -->
<g id="node15" class="node">
<title>15</title>
<path fill="none" stroke="#56d8a9" stroke-width="2" d="M147.5,-324C147.5,-324 91.5,-324 91.5,-324 85.5,-324 79.5,-318 79.5,-312 79.5,-312 79.5,-300 79.5,-300 79.5,-294 85.5,-288 91.5,-288 91.5,-288 147.5,-288 147.5,-288 153.5,-288 159.5,-294 159.5,-300 159.5,-300 159.5,-312 159.5,-312 159.5,-318 153.5,-324 147.5,-324"/>
<text text-anchor="middle" x="119.5" y="-303.5" font-family="sans" font-size="10.00">bam_to_sam</text>
</g>
<!-- 8&#45;&gt;15 -->
<g id="edge20" class="edge">
<title>8&#45;&gt;15</title>
<path fill="none" stroke="grey" stroke-width="2" d="M260.13,-365.6C235.55,-355.35 198.86,-340.07 169.11,-327.67"/>
<polygon fill="grey" stroke="grey" stroke-width="2" points="170.3,-324.38 159.73,-323.76 167.61,-330.84 170.3,-324.38"/>
</g>
<!-- 25 -->
<g id="node25" class="node">
<title>25</title>
<path fill="none" stroke="#70d856" stroke-width="2" d="M313,-324C313,-324 262,-324 262,-324 256,-324 250,-318 250,-312 250,-312 250,-300 250,-300 250,-294 256,-288 262,-288 262,-288 313,-288 313,-288 319,-288 325,-294 325,-300 325,-300 325,-312 325,-312 325,-318 319,-324 313,-324"/>
<text text-anchor="middle" x="287.5" y="-303.5" font-family="sans" font-size="10.00">sniffles_pop</text>
</g>
<!-- 8&#45;&gt;25 -->
<g id="edge32" class="edge">
<title>8&#45;&gt;25</title>
<path fill="none" stroke="grey" stroke-width="2" d="M287.5,-359.7C287.5,-351.98 287.5,-342.71 287.5,-334.11"/>
<polygon fill="grey" stroke="grey" stroke-width="2" points="291,-334.1 287.5,-324.1 284,-334.1 291,-334.1"/>
</g>
<!-- 26 -->
<g id="node26" class="node">
<title>26</title>
<path fill="none" stroke="#56b9d8" stroke-width="2" d="M219.5,-324C219.5,-324 189.5,-324 189.5,-324 183.5,-324 177.5,-318 177.5,-312 177.5,-312 177.5,-300 177.5,-300 177.5,-294 183.5,-288 189.5,-288 189.5,-288 219.5,-288 219.5,-288 225.5,-288 231.5,-294 231.5,-300 231.5,-300 231.5,-312 231.5,-312 231.5,-318 225.5,-324 219.5,-324"/>
<text text-anchor="middle" x="204.5" y="-303.5" font-family="sans" font-size="10.00">sniffles</text>
</g>
<!-- 8&#45;&gt;26 -->
<g id="edge33" class="edge">
<title>8&#45;&gt;26</title>
<path fill="none" stroke="grey" stroke-width="2" d="M266.98,-359.7C256.63,-350.97 243.91,-340.24 232.66,-330.75"/>
<polygon fill="grey" stroke="grey" stroke-width="2" points="234.68,-327.88 224.78,-324.1 230.17,-333.23 234.68,-327.88"/>
</g>
<!-- 9 -->
<g id="node9" class="node">
<title>9</title>
<path fill="none" stroke="#56d873" stroke-width="2" d="M51,-252C51,-252 16,-252 16,-252 10,-252 4,-246 4,-240 4,-240 4,-228 4,-228 4,-222 10,-216 16,-216 16,-216 51,-216 51,-216 57,-216 63,-222 63,-228 63,-228 63,-240 63,-240 63,-246 57,-252 51,-252"/>
<text text-anchor="middle" x="33.5" y="-231.5" font-family="sans" font-size="10.00">index_fa</text>
</g>
<!-- 9&#45;&gt;2 -->
<g id="edge3" class="edge">
<title>9&#45;&gt;2</title>
<path fill="none" stroke="grey" stroke-width="2" d="M32.76,-215.7C32.43,-207.98 32.03,-198.71 31.66,-190.11"/>
<polygon fill="grey" stroke="grey" stroke-width="2" points="35.16,-189.95 31.23,-180.1 28.16,-190.25 35.16,-189.95"/>
</g>
<!-- 9&#45;&gt;6 -->
<g id="edge8" class="edge">
<title>9&#45;&gt;6</title>
<path fill="none" stroke="grey" stroke-width="2" d="M55.25,-215.7C66.34,-206.88 79.97,-196.03 91.99,-186.47"/>
<polygon fill="grey" stroke="grey" stroke-width="2" points="94.35,-189.07 100,-180.1 89.99,-183.59 94.35,-189.07"/>
</g>
<!-- 10 -->
<g id="node10" class="node">
<title>10</title>
<path fill="none" stroke="#d6d856" stroke-width="2" d="M144.5,-252C144.5,-252 94.5,-252 94.5,-252 88.5,-252 82.5,-246 82.5,-240 82.5,-240 82.5,-228 82.5,-228 82.5,-222 88.5,-216 94.5,-216 94.5,-216 144.5,-216 144.5,-216 150.5,-216 156.5,-222 156.5,-228 156.5,-228 156.5,-240 156.5,-240 156.5,-246 150.5,-252 144.5,-252"/>
<text text-anchor="middle" x="119.5" y="-231.5" font-family="sans" font-size="10.00">sam_to_paf</text>
</g>
<!-- 10&#45;&gt;2 -->
<g id="edge2" class="edge">
<title>10&#45;&gt;2</title>
<path fill="none" stroke="grey" stroke-width="2" d="M97.5,-215.7C86.29,-206.88 72.5,-196.03 60.35,-186.47"/>
<polygon fill="grey" stroke="grey" stroke-width="2" points="62.27,-183.54 52.25,-180.1 57.94,-189.04 62.27,-183.54"/>
</g>
<!-- 10&#45;&gt;6 -->
<g id="edge7" class="edge">
<title>10&#45;&gt;6</title>
<path fill="none" stroke="grey" stroke-width="2" d="M119.99,-215.7C120.21,-207.98 120.48,-198.71 120.73,-190.11"/>
<polygon fill="grey" stroke="grey" stroke-width="2" points="124.22,-190.2 121.01,-180.1 117.23,-190 124.22,-190.2"/>
</g>
<!-- 11 -->
<g id="node11" class="node">
<title>11</title>
<path fill="none" stroke="#56c9d8" stroke-width="2" d="M327.5,-828C327.5,-828 255.5,-828 255.5,-828 249.5,-828 243.5,-822 243.5,-816 243.5,-816 243.5,-804 243.5,-804 243.5,-798 249.5,-792 255.5,-792 255.5,-792 327.5,-792 327.5,-792 333.5,-792 339.5,-798 339.5,-804 339.5,-804 339.5,-816 339.5,-816 339.5,-822 333.5,-828 327.5,-828"/>
<text text-anchor="middle" x="291.5" y="-807.5" font-family="sans" font-size="10.00">compress_reads</text>
</g>
<!-- 11&#45;&gt;4 -->
<g id="edge5" class="edge">
<title>11&#45;&gt;4</title>
<path fill="none" stroke="grey" stroke-width="2" d="M306.83,-791.7C314.26,-783.3 323.32,-773.07 331.48,-763.86"/>
<polygon fill="grey" stroke="grey" stroke-width="2" points="334.34,-765.91 338.35,-756.1 329.1,-761.27 334.34,-765.91"/>
</g>
<!-- 17 -->
<g id="node17" class="node">
<title>17</title>
<path fill="none" stroke="#97d856" stroke-width="2" d="M187.5,-756C187.5,-756 157.5,-756 157.5,-756 151.5,-756 145.5,-750 145.5,-744 145.5,-744 145.5,-732 145.5,-732 145.5,-726 151.5,-720 157.5,-720 157.5,-720 187.5,-720 187.5,-720 193.5,-720 199.5,-726 199.5,-732 199.5,-732 199.5,-744 199.5,-744 199.5,-750 193.5,-756 187.5,-756"/>
<text text-anchor="middle" x="172.5" y="-735.5" font-family="sans" font-size="10.00">flye</text>
</g>
<!-- 11&#45;&gt;17 -->
<g id="edge22" class="edge">
<title>11&#45;&gt;17</title>
<path fill="none" stroke="grey" stroke-width="2" d="M262.39,-791.88C246.1,-782.29 225.66,-770.27 208.38,-760.11"/>
<polygon fill="grey" stroke="grey" stroke-width="2" points="210.07,-757.04 199.68,-754.99 206.52,-763.07 210.07,-757.04"/>
</g>
<!-- 20 -->
<g id="node20" class="node">
<title>20</title>
<path fill="none" stroke="#bed856" stroke-width="2" d="M331.5,-540C331.5,-540 257.5,-540 257.5,-540 251.5,-540 245.5,-534 245.5,-528 245.5,-528 245.5,-516 245.5,-516 245.5,-510 251.5,-504 257.5,-504 257.5,-504 331.5,-504 331.5,-504 337.5,-504 343.5,-510 343.5,-516 343.5,-516 343.5,-528 343.5,-528 343.5,-534 337.5,-540 331.5,-540"/>
<text text-anchor="middle" x="294.5" y="-519.5" font-family="sans" font-size="10.00">map_to_genome</text>
</g>
<!-- 11&#45;&gt;20 -->
<g id="edge26" class="edge">
<title>11&#45;&gt;20</title>
<path fill="none" stroke="grey" stroke-width="2" d="M291.68,-791.97C292.18,-744.29 293.6,-609.18 294.21,-550.63"/>
<polygon fill="grey" stroke="grey" stroke-width="2" points="297.71,-550.34 294.32,-540.31 290.71,-550.27 297.71,-550.34"/>
</g>
<!-- 12 -->
<g id="node12" class="node">
<title>12</title>
<path fill="none" stroke="#56d8d0" stroke-width="2" d="M152.5,-612C152.5,-612 82.5,-612 82.5,-612 76.5,-612 70.5,-606 70.5,-600 70.5,-600 70.5,-588 70.5,-588 70.5,-582 76.5,-576 82.5,-576 82.5,-576 152.5,-576 152.5,-576 158.5,-576 164.5,-582 164.5,-588 164.5,-588 164.5,-600 164.5,-600 164.5,-606 158.5,-612 152.5,-612"/>
<text text-anchor="middle" x="117.5" y="-591.5" font-family="sans" font-size="10.00">orient_scaffolds</text>
</g>
<!-- 12&#45;&gt;5 -->
<g id="edge6" class="edge">
<title>12&#45;&gt;5</title>
<path fill="none" stroke="grey" stroke-width="2" d="M115.28,-575.7C114.28,-567.98 113.09,-558.71 111.99,-550.11"/>
<polygon fill="grey" stroke="grey" stroke-width="2" points="115.45,-549.58 110.7,-540.1 108.5,-550.47 115.45,-549.58"/>
</g>
<!-- 12&#45;&gt;9 -->
<g id="edge12" class="edge">
<title>12&#45;&gt;9</title>
<path fill="none" stroke="grey" stroke-width="2" d="M88.68,-575.95C75.72,-566.86 61.38,-554.54 52.5,-540 31.41,-505.49 33.5,-491.45 33.5,-451 33.5,-451 33.5,-451 33.5,-377 33.5,-337 33.5,-290.65 33.5,-262.08"/>
<polygon fill="grey" stroke="grey" stroke-width="2" points="37,-262.05 33.5,-252.05 30,-262.05 37,-262.05"/>
</g>
<!-- 19 -->
<g id="node19" class="node">
<title>19</title>
<path fill="none" stroke="#56d89a" stroke-width="2" d="M215.5,-540C215.5,-540 185.5,-540 185.5,-540 179.5,-540 173.5,-534 173.5,-528 173.5,-528 173.5,-516 173.5,-516 173.5,-510 179.5,-504 185.5,-504 185.5,-504 215.5,-504 215.5,-504 221.5,-504 227.5,-510 227.5,-516 227.5,-516 227.5,-528 227.5,-528 227.5,-534 221.5,-540 215.5,-540"/>
<text text-anchor="middle" x="200.5" y="-519.5" font-family="sans" font-size="10.00">wga</text>
</g>
<!-- 12&#45;&gt;19 -->
<g id="edge25" class="edge">
<title>12&#45;&gt;19</title>
<path fill="none" stroke="grey" stroke-width="2" d="M138.02,-575.7C148.37,-566.97 161.09,-556.24 172.34,-546.75"/>
<polygon fill="grey" stroke="grey" stroke-width="2" points="174.83,-549.23 180.22,-540.1 170.32,-543.88 174.83,-549.23"/>
</g>
<!-- 13&#45;&gt;7 -->
<g id="edge10" class="edge">
<title>13&#45;&gt;7</title>
<path fill="none" stroke="grey" stroke-width="2" d="M228.4,-36.1C229.2,-43.79 229.44,-53.05 229.1,-61.67"/>
<polygon fill="grey" stroke="grey" stroke-width="2" points="225.61,-61.48 228.42,-71.7 232.59,-61.96 225.61,-61.48"/>
</g>
<!-- 13&#45;&gt;25 -->
<g id="edge31" class="edge">
<title>13&#45;&gt;25</title>
<path fill="none" stroke="grey" stroke-width="2" d="M239.69,-36.06C248.36,-45.75 258.14,-58.61 263.5,-72 291.55,-142.11 291.53,-233.1 289.41,-277.79"/>
<polygon fill="grey" stroke="grey" stroke-width="2" points="285.91,-277.69 288.86,-287.87 292.9,-278.07 285.91,-277.69"/>
</g>
<!-- 14 -->
<g id="node14" class="node">
<title>14</title>
<path fill="none" stroke="#56d88a" stroke-width="2" d="M315.5,-468C315.5,-468 259.5,-468 259.5,-468 253.5,-468 247.5,-462 247.5,-456 247.5,-456 247.5,-444 247.5,-444 247.5,-438 253.5,-432 259.5,-432 259.5,-432 315.5,-432 315.5,-432 321.5,-432 327.5,-438 327.5,-444 327.5,-444 327.5,-456 327.5,-456 327.5,-462 321.5,-468 315.5,-468"/>
<text text-anchor="middle" x="287.5" y="-447.5" font-family="sans" font-size="10.00">sam_to_bam</text>
</g>
<!-- 14&#45;&gt;8 -->
<g id="edge11" class="edge">
<title>14&#45;&gt;8</title>
<path fill="none" stroke="grey" stroke-width="2" d="M287.5,-431.7C287.5,-423.98 287.5,-414.71 287.5,-406.11"/>
<polygon fill="grey" stroke="grey" stroke-width="2" points="291,-406.1 287.5,-396.1 284,-406.1 291,-406.1"/>
</g>
<!-- 15&#45;&gt;10 -->
<g id="edge13" class="edge">
<title>15&#45;&gt;10</title>
<path fill="none" stroke="grey" stroke-width="2" d="M119.5,-287.7C119.5,-279.98 119.5,-270.71 119.5,-262.11"/>
<polygon fill="grey" stroke="grey" stroke-width="2" points="123,-262.1 119.5,-252.1 116,-262.1 123,-262.1"/>
</g>
<!-- 16 -->
<g id="node16" class="node">
<title>16</title>
<path fill="none" stroke="#afd856" stroke-width="2" d="M339.5,-900C339.5,-900 243.5,-900 243.5,-900 237.5,-900 231.5,-894 231.5,-888 231.5,-888 231.5,-876 231.5,-876 231.5,-870 237.5,-864 243.5,-864 243.5,-864 339.5,-864 339.5,-864 345.5,-864 351.5,-870 351.5,-876 351.5,-876 351.5,-888 351.5,-888 351.5,-894 345.5,-900 339.5,-900"/>
<text text-anchor="middle" x="291.5" y="-879.5" font-family="sans" font-size="10.00">combine_indiv_reads</text>
</g>
<!-- 16&#45;&gt;11 -->
<g id="edge14" class="edge">
<title>16&#45;&gt;11</title>
<path fill="none" stroke="grey" stroke-width="2" d="M291.5,-863.7C291.5,-855.98 291.5,-846.71 291.5,-838.11"/>
<polygon fill="grey" stroke="grey" stroke-width="2" points="295,-838.1 291.5,-828.1 288,-838.1 295,-838.1"/>
</g>
<!-- 17&#45;&gt;12 -->
<g id="edge16" class="edge">
<title>17&#45;&gt;12</title>
<path fill="none" stroke="grey" stroke-width="2" d="M158.34,-719.85C150.81,-709.93 142,-696.89 136.5,-684 128.09,-664.29 123.26,-640.49 120.57,-622.46"/>
<polygon fill="grey" stroke="grey" stroke-width="2" points="124.01,-621.76 119.2,-612.33 117.07,-622.71 124.01,-621.76"/>
</g>
<!-- 18 -->
<g id="node18" class="node">
<title>18</title>
<path fill="none" stroke="#d8b456" stroke-width="2" d="M187.5,-684C187.5,-684 157.5,-684 157.5,-684 151.5,-684 145.5,-678 145.5,-672 145.5,-672 145.5,-660 145.5,-660 145.5,-654 151.5,-648 157.5,-648 157.5,-648 187.5,-648 187.5,-648 193.5,-648 199.5,-654 199.5,-660 199.5,-660 199.5,-672 199.5,-672 199.5,-678 193.5,-684 187.5,-684"/>
<text text-anchor="middle" x="172.5" y="-663.5" font-family="sans" font-size="10.00">ragtag</text>
</g>
<!-- 17&#45;&gt;18 -->
<g id="edge23" class="edge">
<title>17&#45;&gt;18</title>
<path fill="none" stroke="grey" stroke-width="2" d="M172.5,-719.7C172.5,-711.98 172.5,-702.71 172.5,-694.11"/>
<polygon fill="grey" stroke="grey" stroke-width="2" points="176,-694.1 172.5,-684.1 169,-694.1 176,-694.1"/>
</g>
<!-- 18&#45;&gt;12 -->
<g id="edge15" class="edge">
<title>18&#45;&gt;12</title>
<path fill="none" stroke="grey" stroke-width="2" d="M158.9,-647.7C152.38,-639.39 144.43,-629.28 137.25,-620.14"/>
<polygon fill="grey" stroke="grey" stroke-width="2" points="139.87,-617.81 130.94,-612.1 134.37,-622.13 139.87,-617.81"/>
</g>
<!-- 19&#45;&gt;14 -->
<g id="edge19" class="edge">
<title>19&#45;&gt;14</title>
<path fill="none" stroke="grey" stroke-width="2" d="M222.01,-503.7C232.96,-494.88 246.45,-484.03 258.32,-474.47"/>
<polygon fill="grey" stroke="grey" stroke-width="2" points="260.64,-477.1 266.24,-468.1 256.26,-471.65 260.64,-477.1"/>
</g>
<!-- 20&#45;&gt;14 -->
<g id="edge18" class="edge">
<title>20&#45;&gt;14</title>
<path fill="none" stroke="grey" stroke-width="2" d="M292.77,-503.7C292,-495.98 291.07,-486.71 290.21,-478.11"/>
<polygon fill="grey" stroke="grey" stroke-width="2" points="293.69,-477.71 289.21,-468.1 286.72,-478.4 293.69,-477.71"/>
</g>
<!-- 21 -->
<g id="node21" class="node">
<title>21</title>
<path fill="none" stroke="#566bd8" stroke-width="2" d="M310.5,-972C310.5,-972 272.5,-972 272.5,-972 266.5,-972 260.5,-966 260.5,-960 260.5,-960 260.5,-948 260.5,-948 260.5,-942 266.5,-936 272.5,-936 272.5,-936 310.5,-936 310.5,-936 316.5,-936 322.5,-942 322.5,-948 322.5,-948 322.5,-960 322.5,-960 322.5,-966 316.5,-972 310.5,-972"/>
<text text-anchor="middle" x="291.5" y="-951.5" font-family="sans" font-size="10.00">porechop</text>
</g>
<!-- 21&#45;&gt;16 -->
<g id="edge21" class="edge">
<title>21&#45;&gt;16</title>
<path fill="none" stroke="grey" stroke-width="2" d="M291.5,-935.7C291.5,-927.98 291.5,-918.71 291.5,-910.11"/>
<polygon fill="grey" stroke="grey" stroke-width="2" points="295,-910.1 291.5,-900.1 288,-910.1 295,-910.1"/>
</g>
<!-- 22 -->
<g id="node22" class="node">
<title>22</title>
<path fill="none" stroke="#61d856" stroke-width="2" d="M235.5,-180C235.5,-180 203.5,-180 203.5,-180 197.5,-180 191.5,-174 191.5,-168 191.5,-168 191.5,-156 191.5,-156 191.5,-150 197.5,-144 203.5,-144 203.5,-144 235.5,-144 235.5,-144 241.5,-144 247.5,-150 247.5,-156 247.5,-156 247.5,-168 247.5,-168 247.5,-174 241.5,-180 235.5,-180"/>
<text text-anchor="middle" x="219.5" y="-159.5" font-family="sans" font-size="10.00">sort_vcf</text>
</g>
<!-- 22&#45;&gt;7 -->
<g id="edge9" class="edge">
<title>22&#45;&gt;7</title>
<path fill="none" stroke="grey" stroke-width="2" d="M220.24,-143.7C220.57,-135.98 220.97,-126.71 221.34,-118.11"/>
<polygon fill="grey" stroke="grey" stroke-width="2" points="224.84,-118.25 221.77,-108.1 217.84,-117.95 224.84,-118.25"/>
</g>
<!-- 23 -->
<g id="node23" class="node">
<title>23</title>
<path fill="none" stroke="#5692d8" stroke-width="2" d="M249,-612C249,-612 200,-612 200,-612 194,-612 188,-606 188,-600 188,-600 188,-588 188,-588 188,-582 194,-576 200,-576 200,-576 249,-576 249,-576 255,-576 261,-582 261,-588 261,-588 261,-600 261,-600 261,-606 255,-612 249,-612"/>
<text text-anchor="middle" x="224.5" y="-591.5" font-family="sans" font-size="10.00">prepare_ref</text>
</g>
<!-- 23&#45;&gt;19 -->
<g id="edge24" class="edge">
<title>23&#45;&gt;19</title>
<path fill="none" stroke="grey" stroke-width="2" d="M218.57,-575.7C215.89,-567.9 212.67,-558.51 209.7,-549.83"/>
<polygon fill="grey" stroke="grey" stroke-width="2" points="212.92,-548.43 206.36,-540.1 206.3,-550.7 212.92,-548.43"/>
</g>
<!-- 23&#45;&gt;20 -->
<g id="edge27" class="edge">
<title>23&#45;&gt;20</title>
<path fill="none" stroke="grey" stroke-width="2" d="M241.8,-575.7C250.36,-567.14 260.84,-556.66 270.2,-547.3"/>
<polygon fill="grey" stroke="grey" stroke-width="2" points="272.8,-549.65 277.4,-540.1 267.85,-544.7 272.8,-549.65"/>
</g>
<!-- 24 -->
<g id="node24" class="node">
<title>24</title>
<path fill="none" stroke="#56d8c1" stroke-width="2" d="M247,-252C247,-252 188,-252 188,-252 182,-252 176,-246 176,-240 176,-240 176,-228 176,-228 176,-222 182,-216 188,-216 188,-216 247,-216 247,-216 253,-216 259,-222 259,-228 259,-228 259,-240 259,-240 259,-246 253,-252 247,-252"/>
<text text-anchor="middle" x="217.5" y="-231.5" font-family="sans" font-size="10.00">sniffles_norm</text>
</g>
<!-- 24&#45;&gt;22 -->
<g id="edge28" class="edge">
<title>24&#45;&gt;22</title>
<path fill="none" stroke="grey" stroke-width="2" d="M217.99,-215.7C218.21,-207.98 218.48,-198.71 218.73,-190.11"/>
<polygon fill="grey" stroke="grey" stroke-width="2" points="222.22,-190.2 219.01,-180.1 215.23,-190 222.22,-190.2"/>
</g>
<!-- 25&#45;&gt;24 -->
<g id="edge30" class="edge">
<title>25&#45;&gt;24</title>
<path fill="none" stroke="grey" stroke-width="2" d="M270.2,-287.7C261.64,-279.14 251.16,-268.66 241.8,-259.3"/>
<polygon fill="grey" stroke="grey" stroke-width="2" points="244.15,-256.7 234.6,-252.1 239.2,-261.65 244.15,-256.7"/>
</g>
<!-- 26&#45;&gt;24 -->
<g id="edge29" class="edge">
<title>26&#45;&gt;24</title>
<path fill="none" stroke="grey" stroke-width="2" d="M207.71,-287.7C209.15,-279.98 210.87,-270.71 212.46,-262.11"/>
<polygon fill="grey" stroke="grey" stroke-width="2" points="215.94,-262.58 214.32,-252.1 209.06,-261.3 215.94,-262.58"/>
</g>
</g>
</svg>
