<?xml version="1.0" encoding="UTF-8" standalone="no"?>
<!DOCTYPE svg PUBLIC "-//W3C//DTD SVG 1.1//EN"
 "http://www.w3.org/Graphics/SVG/1.1/DTD/svg11.dtd">
<!-- Generated by graphviz version 2.40.1 (20161225.0304)
 -->
<!-- Title: snakemake_dag Pages: 1 -->
<svg width="498pt" height="563pt"
 viewBox="0.00 0.00 498.00 563.00" xmlns="http://www.w3.org/2000/svg" xmlns:xlink="http://www.w3.org/1999/xlink">
<g id="graph0" class="graph" transform="scale(1 1) rotate(0) translate(4 559)">
<title>snakemake_dag</title>
<polygon fill="#ffffff" stroke="transparent" points="-4,4 -4,-559 494,-559 494,4 -4,4"/>
<!-- 1 -->
<g id="node1" class="node">
<title>1</title>
<path fill="none" stroke="#56d8b9" stroke-width="2" d="M74,-38.5C74,-38.5 12,-38.5 12,-38.5 6,-38.5 0,-32.5 0,-26.5 0,-26.5 0,-14.5 0,-14.5 0,-8.5 6,-2.5 12,-2.5 12,-2.5 74,-2.5 74,-2.5 80,-2.5 86,-8.5 86,-14.5 86,-14.5 86,-26.5 86,-26.5 86,-32.5 80,-38.5 74,-38.5"/>
<text text-anchor="middle" x="43" y="-18" font-family="sans" font-size="10.00" fill="#000000">index_bamfile</text>
</g>
<!-- 2 -->
<g id="node2" class="node">
<title>2</title>
<path fill="none" stroke="#56d8b9" stroke-width="2" d="M306,-38.5C306,-38.5 244,-38.5 244,-38.5 238,-38.5 232,-32.5 232,-26.5 232,-26.5 232,-14.5 232,-14.5 232,-8.5 238,-2.5 244,-2.5 244,-2.5 306,-2.5 306,-2.5 312,-2.5 318,-8.5 318,-14.5 318,-14.5 318,-26.5 318,-26.5 318,-32.5 312,-38.5 306,-38.5"/>
<text text-anchor="middle" x="275" y="-18" font-family="sans" font-size="10.00" fill="#000000">index_bamfile</text>
</g>
<!-- 3 -->
<g id="node3" class="node">
<title>3</title>
<path fill="none" stroke="#68d856" stroke-width="2" d="M202,-41C202,-41 116,-41 116,-41 110,-41 104,-35 104,-29 104,-29 104,-12 104,-12 104,-6 110,0 116,0 116,0 202,0 202,0 208,0 214,-6 214,-12 214,-12 214,-29 214,-29 214,-35 208,-41 202,-41"/>
<text text-anchor="middle" x="159" y="-29" font-family="sans" font-size="10.00" fill="#000000">index_vcf</text>
<text text-anchor="middle" x="159" y="-18" font-family="sans" font-size="10.00" fill="#000000">file: BB31</text>
<text text-anchor="middle" x="159" y="-7" font-family="sans" font-size="10.00" fill="#000000">folder: 050_sniffles</text>
</g>
<!-- 4 -->
<g id="node4" class="node">
<title>4</title>
<path fill="none" stroke="#68d856" stroke-width="2" d="M434,-41C434,-41 348,-41 348,-41 342,-41 336,-35 336,-29 336,-29 336,-12 336,-12 336,-6 342,0 348,0 348,0 434,0 434,0 440,0 446,-6 446,-12 446,-12 446,-29 446,-29 446,-35 440,-41 434,-41"/>
<text text-anchor="middle" x="391" y="-29" font-family="sans" font-size="10.00" fill="#000000">index_vcf</text>
<text text-anchor="middle" x="391" y="-18" font-family="sans" font-size="10.00" fill="#000000">file: BB55</text>
<text text-anchor="middle" x="391" y="-7" font-family="sans" font-size="10.00" fill="#000000">folder: 050_sniffles</text>
</g>
<!-- 5 -->
<g id="node5" class="node">
<title>5</title>
<path fill="none" stroke="#d85656" stroke-width="2" d="M61,-113C61,-113 31,-113 31,-113 25,-113 19,-107 19,-101 19,-101 19,-89 19,-89 19,-83 25,-77 31,-77 31,-77 61,-77 61,-77 67,-77 73,-83 73,-89 73,-89 73,-101 73,-101 73,-107 67,-113 61,-113"/>
<text text-anchor="middle" x="46" y="-92.5" font-family="sans" font-size="10.00" fill="#000000">sort</text>
</g>
<!-- 5&#45;&gt;1 -->
<g id="edge1" class="edge">
<title>5&#45;&gt;1</title>
<path fill="none" stroke="#c0c0c0" stroke-width="2" d="M45.2738,-76.9656C44.9336,-68.5178 44.5203,-58.2542 44.1399,-48.8064"/>
<polygon fill="#c0c0c0" stroke="#c0c0c0" stroke-width="2" points="47.6295,-48.4776 43.7299,-38.6265 40.6352,-48.7593 47.6295,-48.4776"/>
</g>
<!-- 6 -->
<g id="node6" class="node">
<title>6</title>
<path fill="none" stroke="#d85656" stroke-width="2" d="M290,-113C290,-113 260,-113 260,-113 254,-113 248,-107 248,-101 248,-101 248,-89 248,-89 248,-83 254,-77 260,-77 260,-77 290,-77 290,-77 296,-77 302,-83 302,-89 302,-89 302,-101 302,-101 302,-107 296,-113 290,-113"/>
<text text-anchor="middle" x="275" y="-92.5" font-family="sans" font-size="10.00" fill="#000000">sort</text>
</g>
<!-- 6&#45;&gt;2 -->
<g id="edge2" class="edge">
<title>6&#45;&gt;2</title>
<path fill="none" stroke="#c0c0c0" stroke-width="2" d="M275,-76.9656C275,-68.5178 275,-58.2542 275,-48.8064"/>
<polygon fill="#c0c0c0" stroke="#c0c0c0" stroke-width="2" points="278.5001,-48.6265 275,-38.6265 271.5001,-48.6265 278.5001,-48.6265"/>
</g>
<!-- 7 -->
<g id="node7" class="node">
<title>7</title>
<path fill="none" stroke="#d8a456" stroke-width="2" d="M174,-113C174,-113 144,-113 144,-113 138,-113 132,-107 132,-101 132,-101 132,-89 132,-89 132,-83 138,-77 144,-77 144,-77 174,-77 174,-77 180,-77 186,-83 186,-89 186,-89 186,-101 186,-101 186,-107 180,-113 174,-113"/>
<text text-anchor="middle" x="159" y="-92.5" font-family="sans" font-size="10.00" fill="#000000">sniffles</text>
</g>
<!-- 7&#45;&gt;3 -->
<g id="edge3" class="edge">
<title>7&#45;&gt;3</title>
<path fill="none" stroke="#c0c0c0" stroke-width="2" d="M159,-76.9656C159,-69.3118 159,-60.1674 159,-51.4898"/>
<polygon fill="#c0c0c0" stroke="#c0c0c0" stroke-width="2" points="162.5001,-51.2678 159,-41.2679 155.5001,-51.2679 162.5001,-51.2678"/>
</g>
<!-- 8 -->
<g id="node8" class="node">
<title>8</title>
<path fill="none" stroke="#d8a456" stroke-width="2" d="M404,-113C404,-113 374,-113 374,-113 368,-113 362,-107 362,-101 362,-101 362,-89 362,-89 362,-83 368,-77 374,-77 374,-77 404,-77 404,-77 410,-77 416,-83 416,-89 416,-89 416,-101 416,-101 416,-107 410,-113 404,-113"/>
<text text-anchor="middle" x="389" y="-92.5" font-family="sans" font-size="10.00" fill="#000000">sniffles</text>
</g>
<!-- 8&#45;&gt;4 -->
<g id="edge4" class="edge">
<title>8&#45;&gt;4</title>
<path fill="none" stroke="#c0c0c0" stroke-width="2" d="M389.4841,-76.9656C389.6896,-69.3118 389.9351,-60.1674 390.1681,-51.4898"/>
<polygon fill="#c0c0c0" stroke="#c0c0c0" stroke-width="2" points="393.6728,-51.3582 390.4425,-41.2679 386.6753,-51.1703 393.6728,-51.3582"/>
</g>
<!-- 9 -->
<g id="node9" class="node">
<title>9</title>
<path fill="none" stroke="#56d0d8" stroke-width="2" d="M87.5,-185C87.5,-185 16.5,-185 16.5,-185 10.5,-185 4.5,-179 4.5,-173 4.5,-173 4.5,-161 4.5,-161 4.5,-155 10.5,-149 16.5,-149 16.5,-149 87.5,-149 87.5,-149 93.5,-149 99.5,-155 99.5,-161 99.5,-161 99.5,-173 99.5,-173 99.5,-179 93.5,-185 87.5,-185"/>
<text text-anchor="middle" x="52" y="-170" font-family="sans" font-size="10.00" fill="#000000">sam_to_bam</text>
<text text-anchor="middle" x="52" y="-159" font-family="sans" font-size="10.00" fill="#000000">folder: 040_wga</text>
</g>
<!-- 9&#45;&gt;5 -->
<g id="edge5" class="edge">
<title>9&#45;&gt;5</title>
<path fill="none" stroke="#c0c0c0" stroke-width="2" d="M50.4859,-148.8314C49.8442,-141.131 49.0812,-131.9743 48.3681,-123.4166"/>
<polygon fill="#c0c0c0" stroke="#c0c0c0" stroke-width="2" points="51.8529,-123.088 47.5344,-113.4133 44.8771,-123.6694 51.8529,-123.088"/>
</g>
<!-- 10 -->
<g id="node10" class="node">
<title>10</title>
<path fill="none" stroke="#56d0d8" stroke-width="2" d="M310.5,-185C310.5,-185 239.5,-185 239.5,-185 233.5,-185 227.5,-179 227.5,-173 227.5,-173 227.5,-161 227.5,-161 227.5,-155 233.5,-149 239.5,-149 239.5,-149 310.5,-149 310.5,-149 316.5,-149 322.5,-155 322.5,-161 322.5,-161 322.5,-173 322.5,-173 322.5,-179 316.5,-185 310.5,-185"/>
<text text-anchor="middle" x="275" y="-170" font-family="sans" font-size="10.00" fill="#000000">sam_to_bam</text>
<text text-anchor="middle" x="275" y="-159" font-family="sans" font-size="10.00" fill="#000000">folder: 040_wga</text>
</g>
<!-- 10&#45;&gt;6 -->
<g id="edge6" class="edge">
<title>10&#45;&gt;6</title>
<path fill="none" stroke="#c0c0c0" stroke-width="2" d="M275,-148.8314C275,-141.131 275,-131.9743 275,-123.4166"/>
<polygon fill="#c0c0c0" stroke="#c0c0c0" stroke-width="2" points="278.5001,-123.4132 275,-113.4133 271.5001,-123.4133 278.5001,-123.4132"/>
</g>
<!-- 11 -->
<g id="node11" class="node">
<title>11</title>
<path fill="none" stroke="#d85656" stroke-width="2" d="M174,-185C174,-185 144,-185 144,-185 138,-185 132,-179 132,-173 132,-173 132,-161 132,-161 132,-155 138,-149 144,-149 144,-149 174,-149 174,-149 180,-149 186,-155 186,-161 186,-161 186,-173 186,-173 186,-179 180,-185 174,-185"/>
<text text-anchor="middle" x="159" y="-164.5" font-family="sans" font-size="10.00" fill="#000000">sort</text>
</g>
<!-- 11&#45;&gt;7 -->
<g id="edge7" class="edge">
<title>11&#45;&gt;7</title>
<path fill="none" stroke="#c0c0c0" stroke-width="2" d="M159,-148.8314C159,-141.131 159,-131.9743 159,-123.4166"/>
<polygon fill="#c0c0c0" stroke="#c0c0c0" stroke-width="2" points="162.5001,-123.4132 159,-113.4133 155.5001,-123.4133 162.5001,-123.4132"/>
</g>
<!-- 12 -->
<g id="node12" class="node">
<title>12</title>
<path fill="none" stroke="#d85656" stroke-width="2" d="M402,-185C402,-185 372,-185 372,-185 366,-185 360,-179 360,-173 360,-173 360,-161 360,-161 360,-155 366,-149 372,-149 372,-149 402,-149 402,-149 408,-149 414,-155 414,-161 414,-161 414,-173 414,-173 414,-179 408,-185 402,-185"/>
<text text-anchor="middle" x="387" y="-164.5" font-family="sans" font-size="10.00" fill="#000000">sort</text>
</g>
<!-- 12&#45;&gt;8 -->
<g id="edge8" class="edge">
<title>12&#45;&gt;8</title>
<path fill="none" stroke="#c0c0c0" stroke-width="2" d="M387.5047,-148.8314C387.7186,-141.131 387.9729,-131.9743 388.2106,-123.4166"/>
<polygon fill="#c0c0c0" stroke="#c0c0c0" stroke-width="2" points="391.7094,-123.5066 388.4885,-113.4133 384.7121,-123.3122 391.7094,-123.5066"/>
</g>
<!-- 13 -->
<g id="node13" class="node">
<title>13</title>
<path fill="none" stroke="#567bd8" stroke-width="2" d="M71,-257C71,-257 41,-257 41,-257 35,-257 29,-251 29,-245 29,-245 29,-233 29,-233 29,-227 35,-221 41,-221 41,-221 71,-221 71,-221 77,-221 83,-227 83,-233 83,-233 83,-245 83,-245 83,-251 77,-257 71,-257"/>
<text text-anchor="middle" x="56" y="-236.5" font-family="sans" font-size="10.00" fill="#000000">wga</text>
</g>
<!-- 13&#45;&gt;9 -->
<g id="edge9" class="edge">
<title>13&#45;&gt;9</title>
<path fill="none" stroke="#c0c0c0" stroke-width="2" d="M54.9906,-220.8314C54.5628,-213.131 54.0541,-203.9743 53.5787,-195.4166"/>
<polygon fill="#c0c0c0" stroke="#c0c0c0" stroke-width="2" points="57.0724,-195.2037 53.023,-185.4133 50.0831,-195.592 57.0724,-195.2037"/>
</g>
<!-- 14 -->
<g id="node14" class="node">
<title>14</title>
<path fill="none" stroke="#567bd8" stroke-width="2" d="M290,-257C290,-257 260,-257 260,-257 254,-257 248,-251 248,-245 248,-245 248,-233 248,-233 248,-227 254,-221 260,-221 260,-221 290,-221 290,-221 296,-221 302,-227 302,-233 302,-233 302,-245 302,-245 302,-251 296,-257 290,-257"/>
<text text-anchor="middle" x="275" y="-236.5" font-family="sans" font-size="10.00" fill="#000000">wga</text>
</g>
<!-- 14&#45;&gt;10 -->
<g id="edge10" class="edge">
<title>14&#45;&gt;10</title>
<path fill="none" stroke="#c0c0c0" stroke-width="2" d="M275,-220.8314C275,-213.131 275,-203.9743 275,-195.4166"/>
<polygon fill="#c0c0c0" stroke="#c0c0c0" stroke-width="2" points="278.5001,-195.4132 275,-185.4133 271.5001,-195.4133 278.5001,-195.4132"/>
</g>
<!-- 15 -->
<g id="node15" class="node">
<title>15</title>
<path fill="none" stroke="#56d0d8" stroke-width="2" d="M204,-257C204,-257 114,-257 114,-257 108,-257 102,-251 102,-245 102,-245 102,-233 102,-233 102,-227 108,-221 114,-221 114,-221 204,-221 204,-221 210,-221 216,-227 216,-233 216,-233 216,-245 216,-245 216,-251 210,-257 204,-257"/>
<text text-anchor="middle" x="159" y="-242" font-family="sans" font-size="10.00" fill="#000000">sam_to_bam</text>
<text text-anchor="middle" x="159" y="-231" font-family="sans" font-size="10.00" fill="#000000">folder: 030_mapped</text>
</g>
<!-- 15&#45;&gt;11 -->
<g id="edge11" class="edge">
<title>15&#45;&gt;11</title>
<path fill="none" stroke="#c0c0c0" stroke-width="2" d="M159,-220.8314C159,-213.131 159,-203.9743 159,-195.4166"/>
<polygon fill="#c0c0c0" stroke="#c0c0c0" stroke-width="2" points="162.5001,-195.4132 159,-185.4133 155.5001,-195.4133 162.5001,-195.4132"/>
</g>
<!-- 16 -->
<g id="node16" class="node">
<title>16</title>
<path fill="none" stroke="#56d0d8" stroke-width="2" d="M429,-257C429,-257 339,-257 339,-257 333,-257 327,-251 327,-245 327,-245 327,-233 327,-233 327,-227 333,-221 339,-221 339,-221 429,-221 429,-221 435,-221 441,-227 441,-233 441,-233 441,-245 441,-245 441,-251 435,-257 429,-257"/>
<text text-anchor="middle" x="384" y="-242" font-family="sans" font-size="10.00" fill="#000000">sam_to_bam</text>
<text text-anchor="middle" x="384" y="-231" font-family="sans" font-size="10.00" fill="#000000">folder: 030_mapped</text>
</g>
<!-- 16&#45;&gt;12 -->
<g id="edge12" class="edge">
<title>16&#45;&gt;12</title>
<path fill="none" stroke="#c0c0c0" stroke-width="2" d="M384.757,-220.8314C385.0779,-213.131 385.4594,-203.9743 385.816,-195.4166"/>
<polygon fill="#c0c0c0" stroke="#c0c0c0" stroke-width="2" points="389.3133,-195.5503 386.2328,-185.4133 382.3194,-195.2589 389.3133,-195.5503"/>
</g>
<!-- 17 -->
<g id="node17" class="node">
<title>17</title>
<path fill="none" stroke="#b6d856" stroke-width="2" d="M80,-329C80,-329 32,-329 32,-329 26,-329 20,-323 20,-317 20,-317 20,-305 20,-305 20,-299 26,-293 32,-293 32,-293 80,-293 80,-293 86,-293 92,-299 92,-305 92,-305 92,-317 92,-317 92,-323 86,-329 80,-329"/>
<text text-anchor="middle" x="56" y="-314" font-family="sans" font-size="10.00" fill="#000000">flye</text>
<text text-anchor="middle" x="56" y="-303" font-family="sans" font-size="10.00" fill="#000000">indiv: BB31</text>
</g>
<!-- 17&#45;&gt;13 -->
<g id="edge13" class="edge">
<title>17&#45;&gt;13</title>
<path fill="none" stroke="#c0c0c0" stroke-width="2" d="M56,-292.8314C56,-285.131 56,-275.9743 56,-267.4166"/>
<polygon fill="#c0c0c0" stroke="#c0c0c0" stroke-width="2" points="59.5001,-267.4132 56,-257.4133 52.5001,-267.4133 59.5001,-267.4132"/>
</g>
<!-- 18 -->
<g id="node18" class="node">
<title>18</title>
<path fill="none" stroke="#56a9d8" stroke-width="2" d="M280.5,-403.5C280.5,-403.5 231.5,-403.5 231.5,-403.5 225.5,-403.5 219.5,-397.5 219.5,-391.5 219.5,-391.5 219.5,-379.5 219.5,-379.5 219.5,-373.5 225.5,-367.5 231.5,-367.5 231.5,-367.5 280.5,-367.5 280.5,-367.5 286.5,-367.5 292.5,-373.5 292.5,-379.5 292.5,-379.5 292.5,-391.5 292.5,-391.5 292.5,-397.5 286.5,-403.5 280.5,-403.5"/>
<text text-anchor="middle" x="256" y="-383" font-family="sans" font-size="10.00" fill="#000000">prepare_ref</text>
</g>
<!-- 18&#45;&gt;13 -->
<g id="edge14" class="edge">
<title>18&#45;&gt;13</title>
<path fill="none" stroke="#c0c0c0" stroke-width="2" d="M253.1725,-367.4956C248.9518,-346.62 239.0034,-312.5794 217,-293 174.1289,-254.8516 146.5515,-277.627 93,-257 92.9,-256.9615 92.7999,-256.9228 92.6997,-256.884"/>
<polygon fill="#c0c0c0" stroke="#c0c0c0" stroke-width="2" points="93.8228,-253.5591 83.2486,-252.898 91.1026,-260.009 93.8228,-253.5591"/>
</g>
<!-- 18&#45;&gt;14 -->
<g id="edge16" class="edge">
<title>18&#45;&gt;14</title>
<path fill="none" stroke="#c0c0c0" stroke-width="2" d="M258.3679,-367.2419C261.6283,-342.1025 267.5299,-296.5981 271.3553,-267.1029"/>
<polygon fill="#c0c0c0" stroke="#c0c0c0" stroke-width="2" points="274.8466,-267.3951 272.6619,-257.028 267.9047,-266.4948 274.8466,-267.3951"/>
</g>
<!-- 20 -->
<g id="node20" class="node">
<title>20</title>
<path fill="none" stroke="#d8cb56" stroke-width="2" d="M196,-329C196,-329 122,-329 122,-329 116,-329 110,-323 110,-317 110,-317 110,-305 110,-305 110,-299 116,-293 122,-293 122,-293 196,-293 196,-293 202,-293 208,-299 208,-305 208,-305 208,-317 208,-317 208,-323 202,-329 196,-329"/>
<text text-anchor="middle" x="159" y="-314" font-family="sans" font-size="10.00" fill="#000000">map_to_genome</text>
<text text-anchor="middle" x="159" y="-303" font-family="sans" font-size="10.00" fill="#000000">indiv: BB31</text>
</g>
<!-- 18&#45;&gt;20 -->
<g id="edge22" class="edge">
<title>18&#45;&gt;20</title>
<path fill="none" stroke="#c0c0c0" stroke-width="2" d="M232.519,-367.4656C219.9823,-357.8369 204.3743,-345.8493 190.7684,-335.3995"/>
<polygon fill="#c0c0c0" stroke="#c0c0c0" stroke-width="2" points="192.6637,-332.4419 182.601,-329.1265 188.3999,-337.9935 192.6637,-332.4419"/>
</g>
<!-- 21 -->
<g id="node21" class="node">
<title>21</title>
<path fill="none" stroke="#d8cb56" stroke-width="2" d="M388,-329C388,-329 314,-329 314,-329 308,-329 302,-323 302,-317 302,-317 302,-305 302,-305 302,-299 308,-293 314,-293 314,-293 388,-293 388,-293 394,-293 400,-299 400,-305 400,-305 400,-317 400,-317 400,-323 394,-329 388,-329"/>
<text text-anchor="middle" x="351" y="-314" font-family="sans" font-size="10.00" fill="#000000">map_to_genome</text>
<text text-anchor="middle" x="351" y="-303" font-family="sans" font-size="10.00" fill="#000000">indiv: BB55</text>
</g>
<!-- 18&#45;&gt;21 -->
<g id="edge24" class="edge">
<title>18&#45;&gt;21</title>
<path fill="none" stroke="#c0c0c0" stroke-width="2" d="M278.9969,-367.4656C291.2751,-357.8369 306.5613,-345.8493 319.8866,-335.3995"/>
<polygon fill="#c0c0c0" stroke="#c0c0c0" stroke-width="2" points="322.1765,-338.0516 327.8857,-329.1265 317.8569,-332.5433 322.1765,-338.0516"/>
</g>
<!-- 19 -->
<g id="node19" class="node">
<title>19</title>
<path fill="none" stroke="#b6d856" stroke-width="2" d="M478,-329C478,-329 430,-329 430,-329 424,-329 418,-323 418,-317 418,-317 418,-305 418,-305 418,-299 424,-293 430,-293 430,-293 478,-293 478,-293 484,-293 490,-299 490,-305 490,-305 490,-317 490,-317 490,-323 484,-329 478,-329"/>
<text text-anchor="middle" x="454" y="-314" font-family="sans" font-size="10.00" fill="#000000">flye</text>
<text text-anchor="middle" x="454" y="-303" font-family="sans" font-size="10.00" fill="#000000">indiv: BB55</text>
</g>
<!-- 19&#45;&gt;14 -->
<g id="edge15" class="edge">
<title>19&#45;&gt;14</title>
<path fill="none" stroke="#c0c0c0" stroke-width="2" d="M417.6554,-296.4485C414.7275,-295.2804 411.8146,-294.1197 409,-293 368.586,-276.9233 358.2846,-273.3982 318,-257 315.9293,-256.1571 313.8048,-255.2865 311.6622,-254.404"/>
<polygon fill="#c0c0c0" stroke="#c0c0c0" stroke-width="2" points="312.8413,-251.1041 302.2633,-250.5077 310.1606,-257.5705 312.8413,-251.1041"/>
</g>
<!-- 20&#45;&gt;15 -->
<g id="edge17" class="edge">
<title>20&#45;&gt;15</title>
<path fill="none" stroke="#c0c0c0" stroke-width="2" d="M159,-292.8314C159,-285.131 159,-275.9743 159,-267.4166"/>
<polygon fill="#c0c0c0" stroke="#c0c0c0" stroke-width="2" points="162.5001,-267.4132 159,-257.4133 155.5001,-267.4133 162.5001,-267.4132"/>
</g>
<!-- 21&#45;&gt;16 -->
<g id="edge18" class="edge">
<title>21&#45;&gt;16</title>
<path fill="none" stroke="#c0c0c0" stroke-width="2" d="M359.3273,-292.8314C362.973,-284.8771 367.3309,-275.369 371.3627,-266.5723"/>
<polygon fill="#c0c0c0" stroke="#c0c0c0" stroke-width="2" points="374.5757,-267.9622 375.5606,-257.4133 368.2123,-265.0456 374.5757,-267.9622"/>
</g>
<!-- 22 -->
<g id="node22" class="node">
<title>22</title>
<path fill="none" stroke="#8fd856" stroke-width="2" d="M153.5,-406C153.5,-406 64.5,-406 64.5,-406 58.5,-406 52.5,-400 52.5,-394 52.5,-394 52.5,-377 52.5,-377 52.5,-371 58.5,-365 64.5,-365 64.5,-365 153.5,-365 153.5,-365 159.5,-365 165.5,-371 165.5,-377 165.5,-377 165.5,-394 165.5,-394 165.5,-400 159.5,-406 153.5,-406"/>
<text text-anchor="middle" x="109" y="-394" font-family="sans" font-size="10.00" fill="#000000">compress_reads</text>
<text text-anchor="middle" x="109" y="-383" font-family="sans" font-size="10.00" fill="#000000">file: BB31</text>
<text text-anchor="middle" x="109" y="-372" font-family="sans" font-size="10.00" fill="#000000">path: 010_porechop</text>
</g>
<!-- 22&#45;&gt;17 -->
<g id="edge19" class="edge">
<title>22&#45;&gt;17</title>
<path fill="none" stroke="#c0c0c0" stroke-width="2" d="M94.2365,-364.7476C88.2016,-356.2645 81.1489,-346.3509 74.7556,-337.364"/>
<polygon fill="#c0c0c0" stroke="#c0c0c0" stroke-width="2" points="77.5315,-335.2282 68.8827,-329.1087 71.8276,-339.286 77.5315,-335.2282"/>
</g>
<!-- 22&#45;&gt;20 -->
<g id="edge21" class="edge">
<title>22&#45;&gt;20</title>
<path fill="none" stroke="#c0c0c0" stroke-width="2" d="M122.9278,-364.7476C128.5624,-356.352 135.1375,-346.5551 141.1193,-337.6423"/>
<polygon fill="#c0c0c0" stroke="#c0c0c0" stroke-width="2" points="144.18,-339.3625 146.8465,-329.1087 138.3676,-335.4615 144.18,-339.3625"/>
</g>
<!-- 23 -->
<g id="node23" class="node">
<title>23</title>
<path fill="none" stroke="#8fd856" stroke-width="2" d="M413.5,-406C413.5,-406 324.5,-406 324.5,-406 318.5,-406 312.5,-400 312.5,-394 312.5,-394 312.5,-377 312.5,-377 312.5,-371 318.5,-365 324.5,-365 324.5,-365 413.5,-365 413.5,-365 419.5,-365 425.5,-371 425.5,-377 425.5,-377 425.5,-394 425.5,-394 425.5,-400 419.5,-406 413.5,-406"/>
<text text-anchor="middle" x="369" y="-394" font-family="sans" font-size="10.00" fill="#000000">compress_reads</text>
<text text-anchor="middle" x="369" y="-383" font-family="sans" font-size="10.00" fill="#000000">file: BB55</text>
<text text-anchor="middle" x="369" y="-372" font-family="sans" font-size="10.00" fill="#000000">path: 010_porechop</text>
</g>
<!-- 23&#45;&gt;19 -->
<g id="edge20" class="edge">
<title>23&#45;&gt;19</title>
<path fill="none" stroke="#c0c0c0" stroke-width="2" d="M392.6772,-364.7476C402.9546,-355.7398 415.0723,-345.119 425.8102,-335.7076"/>
<polygon fill="#c0c0c0" stroke="#c0c0c0" stroke-width="2" points="428.1258,-338.3321 433.3391,-329.1087 423.5118,-333.0679 428.1258,-338.3321"/>
</g>
<!-- 23&#45;&gt;21 -->
<g id="edge23" class="edge">
<title>23&#45;&gt;21</title>
<path fill="none" stroke="#c0c0c0" stroke-width="2" d="M363.986,-364.7476C362.0632,-356.7892 359.8361,-347.5718 357.7752,-339.0418"/>
<polygon fill="#c0c0c0" stroke="#c0c0c0" stroke-width="2" points="361.126,-338.007 355.3752,-329.1087 354.3217,-339.651 361.126,-338.007"/>
</g>
<!-- 24 -->
<g id="node24" class="node">
<title>24</title>
<path fill="none" stroke="#56d86b" stroke-width="2" d="M157,-478C157,-478 61,-478 61,-478 55,-478 49,-472 49,-466 49,-466 49,-454 49,-454 49,-448 55,-442 61,-442 61,-442 157,-442 157,-442 163,-442 169,-448 169,-454 169,-454 169,-466 169,-466 169,-472 163,-478 157,-478"/>
<text text-anchor="middle" x="109" y="-457.5" font-family="sans" font-size="10.00" fill="#000000">combine_indiv_reads</text>
</g>
<!-- 24&#45;&gt;22 -->
<g id="edge25" class="edge">
<title>24&#45;&gt;22</title>
<path fill="none" stroke="#c0c0c0" stroke-width="2" d="M109,-441.9656C109,-434.3118 109,-425.1674 109,-416.4898"/>
<polygon fill="#c0c0c0" stroke="#c0c0c0" stroke-width="2" points="112.5001,-416.2678 109,-406.2679 105.5001,-416.2679 112.5001,-416.2678"/>
</g>
<!-- 25 -->
<g id="node25" class="node">
<title>25</title>
<path fill="none" stroke="#56d86b" stroke-width="2" d="M417,-478C417,-478 321,-478 321,-478 315,-478 309,-472 309,-466 309,-466 309,-454 309,-454 309,-448 315,-442 321,-442 321,-442 417,-442 417,-442 423,-442 429,-448 429,-454 429,-454 429,-466 429,-466 429,-472 423,-478 417,-478"/>
<text text-anchor="middle" x="369" y="-457.5" font-family="sans" font-size="10.00" fill="#000000">combine_indiv_reads</text>
</g>
<!-- 25&#45;&gt;23 -->
<g id="edge26" class="edge">
<title>25&#45;&gt;23</title>
<path fill="none" stroke="#c0c0c0" stroke-width="2" d="M369,-441.9656C369,-434.3118 369,-425.1674 369,-416.4898"/>
<polygon fill="#c0c0c0" stroke="#c0c0c0" stroke-width="2" points="372.5001,-416.2678 369,-406.2679 365.5001,-416.2679 372.5001,-416.2678"/>
</g>
<!-- 26 -->
<g id="node26" class="node">
<title>26</title>
<path fill="none" stroke="#56d892" stroke-width="2" d="M133,-555C133,-555 85,-555 85,-555 79,-555 73,-549 73,-543 73,-543 73,-526 73,-526 73,-520 79,-514 85,-514 85,-514 133,-514 133,-514 139,-514 145,-520 145,-526 145,-526 145,-543 145,-543 145,-549 139,-555 133,-555"/>
<text text-anchor="middle" x="109" y="-543" font-family="sans" font-size="10.00" fill="#000000">porechop</text>
<text text-anchor="middle" x="109" y="-532" font-family="sans" font-size="10.00" fill="#000000">indiv: BB31</text>
<text text-anchor="middle" x="109" y="-521" font-family="sans" font-size="10.00" fill="#000000">read: test</text>
</g>
<!-- 26&#45;&gt;24 -->
<g id="edge27" class="edge">
<title>26&#45;&gt;24</title>
<path fill="none" stroke="#c0c0c0" stroke-width="2" d="M109,-513.7476C109,-505.8767 109,-496.7743 109,-488.3232"/>
<polygon fill="#c0c0c0" stroke="#c0c0c0" stroke-width="2" points="112.5001,-488.1086 109,-478.1087 105.5001,-488.1087 112.5001,-488.1086"/>
</g>
<!-- 27 -->
<g id="node27" class="node">
<title>27</title>
<path fill="none" stroke="#56d892" stroke-width="2" d="M393,-555C393,-555 345,-555 345,-555 339,-555 333,-549 333,-543 333,-543 333,-526 333,-526 333,-520 339,-514 345,-514 345,-514 393,-514 393,-514 399,-514 405,-520 405,-526 405,-526 405,-543 405,-543 405,-549 399,-555 393,-555"/>
<text text-anchor="middle" x="369" y="-543" font-family="sans" font-size="10.00" fill="#000000">porechop</text>
<text text-anchor="middle" x="369" y="-532" font-family="sans" font-size="10.00" fill="#000000">indiv: BB55</text>
<text text-anchor="middle" x="369" y="-521" font-family="sans" font-size="10.00" fill="#000000">read: test</text>
</g>
<!-- 27&#45;&gt;25 -->
<g id="edge28" class="edge">
<title>27&#45;&gt;25</title>
<path fill="none" stroke="#c0c0c0" stroke-width="2" d="M369,-513.7476C369,-505.8767 369,-496.7743 369,-488.3232"/>
<polygon fill="#c0c0c0" stroke="#c0c0c0" stroke-width="2" points="372.5001,-488.1086 369,-478.1087 365.5001,-488.1087 372.5001,-488.1086"/>
</g>
</g>
</svg>
