<?xml version="1.0" encoding="UTF-8" standalone="no"?>
<!DOCTYPE svg PUBLIC "-//W3C//DTD SVG 1.1//EN"
 "http://www.w3.org/Graphics/SVG/1.1/DTD/svg11.dtd">
<!-- Generated by graphviz version 2.40.1 (20161225.0304)
 -->
<!-- Title: snakemake_dag Pages: 1 -->
<svg width="602pt" height="718pt"
 viewBox="0.00 0.00 602.00 718.00" xmlns="http://www.w3.org/2000/svg" xmlns:xlink="http://www.w3.org/1999/xlink">
<g id="graph0" class="graph" transform="scale(1 1) rotate(0) translate(4 714)">
<title>snakemake_dag</title>
<polygon fill="#ffffff" stroke="transparent" points="-4,4 -4,-714 598,-714 598,4 -4,4"/>
<!-- 1 -->
<g id="node1" class="node">
<title>1</title>
<path fill="none" stroke="#68d856" stroke-width="2" d="M174,-108C174,-108 112,-108 112,-108 106,-108 100,-102 100,-96 100,-96 100,-84 100,-84 100,-78 106,-72 112,-72 112,-72 174,-72 174,-72 180,-72 186,-78 186,-84 186,-84 186,-96 186,-96 186,-102 180,-108 174,-108"/>
<text text-anchor="middle" x="143" y="-87.5" font-family="sans" font-size="10.00" fill="#000000">index_bamfile</text>
</g>
<!-- 2 -->
<g id="node2" class="node">
<title>2</title>
<path fill="none" stroke="#68d856" stroke-width="2" d="M382,-108C382,-108 320,-108 320,-108 314,-108 308,-102 308,-96 308,-96 308,-84 308,-84 308,-78 314,-72 320,-72 320,-72 382,-72 382,-72 388,-72 394,-78 394,-84 394,-84 394,-96 394,-96 394,-102 388,-108 382,-108"/>
<text text-anchor="middle" x="351" y="-87.5" font-family="sans" font-size="10.00" fill="#000000">index_bamfile</text>
</g>
<!-- 3 -->
<g id="node3" class="node">
<title>3</title>
<path fill="none" stroke="#56d0d8" stroke-width="2" d="M269,-36C269,-36 219,-36 219,-36 213,-36 207,-30 207,-24 207,-24 207,-12 207,-12 207,-6 213,0 219,0 219,0 269,0 269,0 275,0 281,-6 281,-12 281,-12 281,-24 281,-24 281,-30 275,-36 269,-36"/>
<text text-anchor="middle" x="244" y="-15.5" font-family="sans" font-size="10.00" fill="#000000">sam_to_paf</text>
</g>
<!-- 4 -->
<g id="node4" class="node">
<title>4</title>
<path fill="none" stroke="#56d0d8" stroke-width="2" d="M477,-36C477,-36 427,-36 427,-36 421,-36 415,-30 415,-24 415,-24 415,-12 415,-12 415,-6 421,0 427,0 427,0 477,0 477,0 483,0 489,-6 489,-12 489,-12 489,-24 489,-24 489,-30 483,-36 477,-36"/>
<text text-anchor="middle" x="452" y="-15.5" font-family="sans" font-size="10.00" fill="#000000">sam_to_paf</text>
</g>
<!-- 5 -->
<g id="node5" class="node">
<title>5</title>
<path fill="none" stroke="#88d856" stroke-width="2" d="M122,-340C122,-340 12,-340 12,-340 6,-340 0,-334 0,-328 0,-328 0,-300 0,-300 0,-294 6,-288 12,-288 12,-288 122,-288 122,-288 128,-288 134,-294 134,-300 134,-300 134,-328 134,-328 134,-334 128,-340 122,-340"/>
<text text-anchor="middle" x="67" y="-328" font-family="sans" font-size="10.00" fill="#000000">index_fa</text>
<text text-anchor="middle" x="67" y="-317" font-family="sans" font-size="10.00" fill="#000000">ext: fasta</text>
<text text-anchor="middle" x="67" y="-306" font-family="sans" font-size="10.00" fill="#000000">file: ragtag.scaffolds</text>
<text text-anchor="middle" x="67" y="-295" font-family="sans" font-size="10.00" fill="#000000">folder: 025_ragtag/BB31</text>
</g>
<!-- 6 -->
<g id="node6" class="node">
<title>6</title>
<path fill="none" stroke="#88d856" stroke-width="2" d="M582,-340C582,-340 472,-340 472,-340 466,-340 460,-334 460,-328 460,-328 460,-300 460,-300 460,-294 466,-288 472,-288 472,-288 582,-288 582,-288 588,-288 594,-294 594,-300 594,-300 594,-328 594,-328 594,-334 588,-340 582,-340"/>
<text text-anchor="middle" x="527" y="-328" font-family="sans" font-size="10.00" fill="#000000">index_fa</text>
<text text-anchor="middle" x="527" y="-317" font-family="sans" font-size="10.00" fill="#000000">ext: fasta</text>
<text text-anchor="middle" x="527" y="-306" font-family="sans" font-size="10.00" fill="#000000">file: ragtag.scaffolds</text>
<text text-anchor="middle" x="527" y="-295" font-family="sans" font-size="10.00" fill="#000000">folder: 025_ragtag/BB55</text>
</g>
<!-- 7 -->
<g id="node7" class="node">
<title>7</title>
<path fill="none" stroke="#d87556" stroke-width="2" d="M163,-252C163,-252 133,-252 133,-252 127,-252 121,-246 121,-240 121,-240 121,-228 121,-228 121,-222 127,-216 133,-216 133,-216 163,-216 163,-216 169,-216 175,-222 175,-228 175,-228 175,-240 175,-240 175,-246 169,-252 163,-252"/>
<text text-anchor="middle" x="148" y="-231.5" font-family="sans" font-size="10.00" fill="#000000">sniffles</text>
</g>
<!-- 8 -->
<g id="node8" class="node">
<title>8</title>
<path fill="none" stroke="#d87556" stroke-width="2" d="M462,-252C462,-252 432,-252 432,-252 426,-252 420,-246 420,-240 420,-240 420,-228 420,-228 420,-222 426,-216 432,-216 432,-216 462,-216 462,-216 468,-216 474,-222 474,-228 474,-228 474,-240 474,-240 474,-246 468,-252 462,-252"/>
<text text-anchor="middle" x="447" y="-231.5" font-family="sans" font-size="10.00" fill="#000000">sniffles</text>
</g>
<!-- 9 -->
<g id="node9" class="node">
<title>9</title>
<path fill="none" stroke="#9fd856" stroke-width="2" d="M256,-180C256,-180 226,-180 226,-180 220,-180 214,-174 214,-168 214,-168 214,-156 214,-156 214,-150 220,-144 226,-144 226,-144 256,-144 256,-144 262,-144 268,-150 268,-156 268,-156 268,-168 268,-168 268,-174 262,-180 256,-180"/>
<text text-anchor="middle" x="241" y="-159.5" font-family="sans" font-size="10.00" fill="#000000">sort</text>
</g>
<!-- 9&#45;&gt;1 -->
<g id="edge1" class="edge">
<title>9&#45;&gt;1</title>
<path fill="none" stroke="#c0c0c0" stroke-width="2" d="M216.2705,-143.8314C204.0838,-134.8779 189.2177,-123.9558 176.0688,-114.2955"/>
<polygon fill="#c0c0c0" stroke="#c0c0c0" stroke-width="2" points="177.8527,-111.263 167.7216,-108.1628 173.7082,-116.9042 177.8527,-111.263"/>
</g>
<!-- 11 -->
<g id="node11" class="node">
<title>11</title>
<path fill="none" stroke="#5673d8" stroke-width="2" d="M272,-108C272,-108 216,-108 216,-108 210,-108 204,-102 204,-96 204,-96 204,-84 204,-84 204,-78 210,-72 216,-72 216,-72 272,-72 272,-72 278,-72 284,-78 284,-84 284,-84 284,-96 284,-96 284,-102 278,-108 272,-108"/>
<text text-anchor="middle" x="244" y="-87.5" font-family="sans" font-size="10.00" fill="#000000">bam_to_sam</text>
</g>
<!-- 9&#45;&gt;11 -->
<g id="edge11" class="edge">
<title>9&#45;&gt;11</title>
<path fill="none" stroke="#c0c0c0" stroke-width="2" d="M241.757,-143.8314C242.0779,-136.131 242.4594,-126.9743 242.816,-118.4166"/>
<polygon fill="#c0c0c0" stroke="#c0c0c0" stroke-width="2" points="246.3133,-118.5503 243.2328,-108.4133 239.3194,-118.2589 246.3133,-118.5503"/>
</g>
<!-- 10 -->
<g id="node10" class="node">
<title>10</title>
<path fill="none" stroke="#9fd856" stroke-width="2" d="M369,-180C369,-180 339,-180 339,-180 333,-180 327,-174 327,-168 327,-168 327,-156 327,-156 327,-150 333,-144 339,-144 339,-144 369,-144 369,-144 375,-144 381,-150 381,-156 381,-156 381,-168 381,-168 381,-174 375,-180 369,-180"/>
<text text-anchor="middle" x="354" y="-159.5" font-family="sans" font-size="10.00" fill="#000000">sort</text>
</g>
<!-- 10&#45;&gt;2 -->
<g id="edge2" class="edge">
<title>10&#45;&gt;2</title>
<path fill="none" stroke="#c0c0c0" stroke-width="2" d="M353.243,-143.8314C352.9221,-136.131 352.5406,-126.9743 352.184,-118.4166"/>
<polygon fill="#c0c0c0" stroke="#c0c0c0" stroke-width="2" points="355.6806,-118.2589 351.7672,-108.4133 348.6867,-118.5503 355.6806,-118.2589"/>
</g>
<!-- 12 -->
<g id="node12" class="node">
<title>12</title>
<path fill="none" stroke="#5673d8" stroke-width="2" d="M480,-108C480,-108 424,-108 424,-108 418,-108 412,-102 412,-96 412,-96 412,-84 412,-84 412,-78 418,-72 424,-72 424,-72 480,-72 480,-72 486,-72 492,-78 492,-84 492,-84 492,-96 492,-96 492,-102 486,-108 480,-108"/>
<text text-anchor="middle" x="452" y="-87.5" font-family="sans" font-size="10.00" fill="#000000">bam_to_sam</text>
</g>
<!-- 10&#45;&gt;12 -->
<g id="edge12" class="edge">
<title>10&#45;&gt;12</title>
<path fill="none" stroke="#c0c0c0" stroke-width="2" d="M378.7295,-143.8314C390.9162,-134.8779 405.7823,-123.9558 418.9312,-114.2955"/>
<polygon fill="#c0c0c0" stroke="#c0c0c0" stroke-width="2" points="421.2918,-116.9042 427.2784,-108.1628 417.1473,-111.263 421.2918,-116.9042"/>
</g>
<!-- 11&#45;&gt;3 -->
<g id="edge3" class="edge">
<title>11&#45;&gt;3</title>
<path fill="none" stroke="#c0c0c0" stroke-width="2" d="M244,-71.8314C244,-64.131 244,-54.9743 244,-46.4166"/>
<polygon fill="#c0c0c0" stroke="#c0c0c0" stroke-width="2" points="247.5001,-46.4132 244,-36.4133 240.5001,-46.4133 247.5001,-46.4132"/>
</g>
<!-- 12&#45;&gt;4 -->
<g id="edge4" class="edge">
<title>12&#45;&gt;4</title>
<path fill="none" stroke="#c0c0c0" stroke-width="2" d="M452,-71.8314C452,-64.131 452,-54.9743 452,-46.4166"/>
<polygon fill="#c0c0c0" stroke="#c0c0c0" stroke-width="2" points="455.5001,-46.4132 452,-36.4133 448.5001,-46.4133 455.5001,-46.4132"/>
</g>
<!-- 13 -->
<g id="node13" class="node">
<title>13</title>
<path fill="none" stroke="#5692d8" stroke-width="2" d="M99,-412C99,-412 69,-412 69,-412 63,-412 57,-406 57,-400 57,-400 57,-388 57,-388 57,-382 63,-376 69,-376 69,-376 99,-376 99,-376 105,-376 111,-382 111,-388 111,-388 111,-400 111,-400 111,-406 105,-412 99,-412"/>
<text text-anchor="middle" x="84" y="-391.5" font-family="sans" font-size="10.00" fill="#000000">ragtag</text>
</g>
<!-- 13&#45;&gt;5 -->
<g id="edge5" class="edge">
<title>13&#45;&gt;5</title>
<path fill="none" stroke="#c0c0c0" stroke-width="2" d="M80.1424,-375.8468C78.5196,-368.21 76.5711,-359.0406 74.6776,-350.1298"/>
<polygon fill="#c0c0c0" stroke="#c0c0c0" stroke-width="2" points="78.0856,-349.3287 72.5834,-340.2746 71.2385,-350.7837 78.0856,-349.3287"/>
</g>
<!-- 23 -->
<g id="node23" class="node">
<title>23</title>
<path fill="none" stroke="#d8d356" stroke-width="2" d="M266,-332C266,-332 236,-332 236,-332 230,-332 224,-326 224,-320 224,-320 224,-308 224,-308 224,-302 230,-296 236,-296 236,-296 266,-296 266,-296 272,-296 278,-302 278,-308 278,-308 278,-320 278,-320 278,-326 272,-332 266,-332"/>
<text text-anchor="middle" x="251" y="-311.5" font-family="sans" font-size="10.00" fill="#000000">wga</text>
</g>
<!-- 13&#45;&gt;23 -->
<g id="edge23" class="edge">
<title>13&#45;&gt;23</title>
<path fill="none" stroke="#c0c0c0" stroke-width="2" d="M111.3812,-379.9509C114.2723,-378.5753 117.1838,-377.2338 120,-376 161.3569,-357.8804 175.243,-361.4032 215,-340 216.3152,-339.2919 217.6376,-338.5421 218.9585,-337.7609"/>
<polygon fill="#c0c0c0" stroke="#c0c0c0" stroke-width="2" points="221.0229,-340.5953 227.563,-332.26 217.2524,-334.6976 221.0229,-340.5953"/>
</g>
<!-- 14 -->
<g id="node14" class="node">
<title>14</title>
<path fill="none" stroke="#5692d8" stroke-width="2" d="M525,-412C525,-412 495,-412 495,-412 489,-412 483,-406 483,-400 483,-400 483,-388 483,-388 483,-382 489,-376 495,-376 495,-376 525,-376 525,-376 531,-376 537,-382 537,-388 537,-388 537,-400 537,-400 537,-406 531,-412 525,-412"/>
<text text-anchor="middle" x="510" y="-391.5" font-family="sans" font-size="10.00" fill="#000000">ragtag</text>
</g>
<!-- 14&#45;&gt;6 -->
<g id="edge6" class="edge">
<title>14&#45;&gt;6</title>
<path fill="none" stroke="#c0c0c0" stroke-width="2" d="M513.8576,-375.8468C515.4804,-368.21 517.4289,-359.0406 519.3224,-350.1298"/>
<polygon fill="#c0c0c0" stroke="#c0c0c0" stroke-width="2" points="522.7615,-350.7837 521.4166,-340.2746 515.9144,-349.3287 522.7615,-350.7837"/>
</g>
<!-- 24 -->
<g id="node24" class="node">
<title>24</title>
<path fill="none" stroke="#d8d356" stroke-width="2" d="M358,-332C358,-332 328,-332 328,-332 322,-332 316,-326 316,-320 316,-320 316,-308 316,-308 316,-302 322,-296 328,-296 328,-296 358,-296 358,-296 364,-296 370,-302 370,-308 370,-308 370,-320 370,-320 370,-326 364,-332 358,-332"/>
<text text-anchor="middle" x="343" y="-311.5" font-family="sans" font-size="10.00" fill="#000000">wga</text>
</g>
<!-- 14&#45;&gt;24 -->
<g id="edge25" class="edge">
<title>14&#45;&gt;24</title>
<path fill="none" stroke="#c0c0c0" stroke-width="2" d="M482.6188,-379.9509C479.7277,-378.5753 476.8162,-377.2338 474,-376 432.6431,-357.8804 418.757,-361.4032 379,-340 377.6848,-339.2919 376.3624,-338.5421 375.0415,-337.7609"/>
<polygon fill="#c0c0c0" stroke="#c0c0c0" stroke-width="2" points="376.7476,-334.6976 366.437,-332.26 372.9771,-340.5953 376.7476,-334.6976"/>
</g>
<!-- 15 -->
<g id="node15" class="node">
<title>15</title>
<path fill="none" stroke="#9fd856" stroke-width="2" d="M194,-332C194,-332 164,-332 164,-332 158,-332 152,-326 152,-320 152,-320 152,-308 152,-308 152,-302 158,-296 164,-296 164,-296 194,-296 194,-296 200,-296 206,-302 206,-308 206,-308 206,-320 206,-320 206,-326 200,-332 194,-332"/>
<text text-anchor="middle" x="179" y="-311.5" font-family="sans" font-size="10.00" fill="#000000">sort</text>
</g>
<!-- 15&#45;&gt;7 -->
<g id="edge7" class="edge">
<title>15&#45;&gt;7</title>
<path fill="none" stroke="#c0c0c0" stroke-width="2" d="M171.9656,-295.8468C168.0417,-285.7205 163.0737,-272.8998 158.6796,-261.5602"/>
<polygon fill="#c0c0c0" stroke="#c0c0c0" stroke-width="2" points="161.8834,-260.1412 155.0065,-252.0814 155.3563,-262.6705 161.8834,-260.1412"/>
</g>
<!-- 16 -->
<g id="node16" class="node">
<title>16</title>
<path fill="none" stroke="#9fd856" stroke-width="2" d="M430,-332C430,-332 400,-332 400,-332 394,-332 388,-326 388,-320 388,-320 388,-308 388,-308 388,-302 394,-296 400,-296 400,-296 430,-296 430,-296 436,-296 442,-302 442,-308 442,-308 442,-320 442,-320 442,-326 436,-332 430,-332"/>
<text text-anchor="middle" x="415" y="-311.5" font-family="sans" font-size="10.00" fill="#000000">sort</text>
</g>
<!-- 16&#45;&gt;8 -->
<g id="edge8" class="edge">
<title>16&#45;&gt;8</title>
<path fill="none" stroke="#c0c0c0" stroke-width="2" d="M422.2613,-295.8468C426.3118,-285.7205 431.4401,-272.8998 435.9759,-261.5602"/>
<polygon fill="#c0c0c0" stroke="#c0c0c0" stroke-width="2" points="439.3031,-262.6661 439.7674,-252.0814 432.8038,-260.0663 439.3031,-262.6661"/>
</g>
<!-- 17 -->
<g id="node17" class="node">
<title>17</title>
<path fill="none" stroke="#d8b456" stroke-width="2" d="M276.5,-252C276.5,-252 205.5,-252 205.5,-252 199.5,-252 193.5,-246 193.5,-240 193.5,-240 193.5,-228 193.5,-228 193.5,-222 199.5,-216 205.5,-216 205.5,-216 276.5,-216 276.5,-216 282.5,-216 288.5,-222 288.5,-228 288.5,-228 288.5,-240 288.5,-240 288.5,-246 282.5,-252 276.5,-252"/>
<text text-anchor="middle" x="241" y="-237" font-family="sans" font-size="10.00" fill="#000000">sam_to_bam</text>
<text text-anchor="middle" x="241" y="-226" font-family="sans" font-size="10.00" fill="#000000">folder: 040_wga</text>
</g>
<!-- 17&#45;&gt;9 -->
<g id="edge9" class="edge">
<title>17&#45;&gt;9</title>
<path fill="none" stroke="#c0c0c0" stroke-width="2" d="M241,-215.8314C241,-208.131 241,-198.9743 241,-190.4166"/>
<polygon fill="#c0c0c0" stroke="#c0c0c0" stroke-width="2" points="244.5001,-190.4132 241,-180.4133 237.5001,-190.4133 244.5001,-190.4132"/>
</g>
<!-- 18 -->
<g id="node18" class="node">
<title>18</title>
<path fill="none" stroke="#d8b456" stroke-width="2" d="M389.5,-252C389.5,-252 318.5,-252 318.5,-252 312.5,-252 306.5,-246 306.5,-240 306.5,-240 306.5,-228 306.5,-228 306.5,-222 312.5,-216 318.5,-216 318.5,-216 389.5,-216 389.5,-216 395.5,-216 401.5,-222 401.5,-228 401.5,-228 401.5,-240 401.5,-240 401.5,-246 395.5,-252 389.5,-252"/>
<text text-anchor="middle" x="354" y="-237" font-family="sans" font-size="10.00" fill="#000000">sam_to_bam</text>
<text text-anchor="middle" x="354" y="-226" font-family="sans" font-size="10.00" fill="#000000">folder: 040_wga</text>
</g>
<!-- 18&#45;&gt;10 -->
<g id="edge10" class="edge">
<title>18&#45;&gt;10</title>
<path fill="none" stroke="#c0c0c0" stroke-width="2" d="M354,-215.8314C354,-208.131 354,-198.9743 354,-190.4166"/>
<polygon fill="#c0c0c0" stroke="#c0c0c0" stroke-width="2" points="357.5001,-190.4132 354,-180.4133 350.5001,-190.4133 357.5001,-190.4132"/>
</g>
<!-- 19 -->
<g id="node19" class="node">
<title>19</title>
<path fill="none" stroke="#56d882" stroke-width="2" d="M108,-484C108,-484 60,-484 60,-484 54,-484 48,-478 48,-472 48,-472 48,-460 48,-460 48,-454 54,-448 60,-448 60,-448 108,-448 108,-448 114,-448 120,-454 120,-460 120,-460 120,-472 120,-472 120,-478 114,-484 108,-484"/>
<text text-anchor="middle" x="84" y="-469" font-family="sans" font-size="10.00" fill="#000000">flye</text>
<text text-anchor="middle" x="84" y="-458" font-family="sans" font-size="10.00" fill="#000000">indiv: BB31</text>
</g>
<!-- 19&#45;&gt;13 -->
<g id="edge13" class="edge">
<title>19&#45;&gt;13</title>
<path fill="none" stroke="#c0c0c0" stroke-width="2" d="M84,-447.8314C84,-440.131 84,-430.9743 84,-422.4166"/>
<polygon fill="#c0c0c0" stroke="#c0c0c0" stroke-width="2" points="87.5001,-422.4132 84,-412.4133 80.5001,-422.4133 87.5001,-422.4132"/>
</g>
<!-- 20 -->
<g id="node20" class="node">
<title>20</title>
<path fill="none" stroke="#56d882" stroke-width="2" d="M534,-484C534,-484 486,-484 486,-484 480,-484 474,-478 474,-472 474,-472 474,-460 474,-460 474,-454 480,-448 486,-448 486,-448 534,-448 534,-448 540,-448 546,-454 546,-460 546,-460 546,-472 546,-472 546,-478 540,-484 534,-484"/>
<text text-anchor="middle" x="510" y="-469" font-family="sans" font-size="10.00" fill="#000000">flye</text>
<text text-anchor="middle" x="510" y="-458" font-family="sans" font-size="10.00" fill="#000000">indiv: BB55</text>
</g>
<!-- 20&#45;&gt;14 -->
<g id="edge14" class="edge">
<title>20&#45;&gt;14</title>
<path fill="none" stroke="#c0c0c0" stroke-width="2" d="M510,-447.8314C510,-440.131 510,-430.9743 510,-422.4166"/>
<polygon fill="#c0c0c0" stroke="#c0c0c0" stroke-width="2" points="513.5001,-422.4132 510,-412.4133 506.5001,-422.4133 513.5001,-422.4132"/>
</g>
<!-- 21 -->
<g id="node21" class="node">
<title>21</title>
<path fill="none" stroke="#d8b456" stroke-width="2" d="M231,-412C231,-412 141,-412 141,-412 135,-412 129,-406 129,-400 129,-400 129,-388 129,-388 129,-382 135,-376 141,-376 141,-376 231,-376 231,-376 237,-376 243,-382 243,-388 243,-388 243,-400 243,-400 243,-406 237,-412 231,-412"/>
<text text-anchor="middle" x="186" y="-397" font-family="sans" font-size="10.00" fill="#000000">sam_to_bam</text>
<text text-anchor="middle" x="186" y="-386" font-family="sans" font-size="10.00" fill="#000000">folder: 030_mapped</text>
</g>
<!-- 21&#45;&gt;15 -->
<g id="edge15" class="edge">
<title>21&#45;&gt;15</title>
<path fill="none" stroke="#c0c0c0" stroke-width="2" d="M184.4116,-375.8468C183.5434,-365.9251 182.449,-353.4167 181.4718,-342.2492"/>
<polygon fill="#c0c0c0" stroke="#c0c0c0" stroke-width="2" points="184.9406,-341.7382 180.5821,-332.0814 177.9672,-342.3485 184.9406,-341.7382"/>
</g>
<!-- 22 -->
<g id="node22" class="node">
<title>22</title>
<path fill="none" stroke="#d8b456" stroke-width="2" d="M453,-412C453,-412 363,-412 363,-412 357,-412 351,-406 351,-400 351,-400 351,-388 351,-388 351,-382 357,-376 363,-376 363,-376 453,-376 453,-376 459,-376 465,-382 465,-388 465,-388 465,-400 465,-400 465,-406 459,-412 453,-412"/>
<text text-anchor="middle" x="408" y="-397" font-family="sans" font-size="10.00" fill="#000000">sam_to_bam</text>
<text text-anchor="middle" x="408" y="-386" font-family="sans" font-size="10.00" fill="#000000">folder: 030_mapped</text>
</g>
<!-- 22&#45;&gt;16 -->
<g id="edge16" class="edge">
<title>22&#45;&gt;16</title>
<path fill="none" stroke="#c0c0c0" stroke-width="2" d="M409.5884,-375.8468C410.4566,-365.9251 411.551,-353.4167 412.5282,-342.2492"/>
<polygon fill="#c0c0c0" stroke="#c0c0c0" stroke-width="2" points="416.0328,-342.3485 413.4179,-332.0814 409.0594,-341.7382 416.0328,-342.3485"/>
</g>
<!-- 23&#45;&gt;17 -->
<g id="edge17" class="edge">
<title>23&#45;&gt;17</title>
<path fill="none" stroke="#c0c0c0" stroke-width="2" d="M248.7308,-295.8468C247.4906,-285.9251 245.9271,-273.4167 244.5312,-262.2492"/>
<polygon fill="#c0c0c0" stroke="#c0c0c0" stroke-width="2" points="247.9736,-261.57 243.2602,-252.0814 241.0276,-262.4383 247.9736,-261.57"/>
</g>
<!-- 24&#45;&gt;18 -->
<g id="edge18" class="edge">
<title>24&#45;&gt;18</title>
<path fill="none" stroke="#c0c0c0" stroke-width="2" d="M345.4961,-295.8468C346.8603,-285.9251 348.5802,-273.4167 350.1157,-262.2492"/>
<polygon fill="#c0c0c0" stroke="#c0c0c0" stroke-width="2" points="353.6189,-262.465 351.5138,-252.0814 346.6842,-261.5114 353.6189,-262.465"/>
</g>
<!-- 25 -->
<g id="node25" class="node">
<title>25</title>
<path fill="none" stroke="#56d8c1" stroke-width="2" d="M187.5,-561C187.5,-561 98.5,-561 98.5,-561 92.5,-561 86.5,-555 86.5,-549 86.5,-549 86.5,-532 86.5,-532 86.5,-526 92.5,-520 98.5,-520 98.5,-520 187.5,-520 187.5,-520 193.5,-520 199.5,-526 199.5,-532 199.5,-532 199.5,-549 199.5,-549 199.5,-555 193.5,-561 187.5,-561"/>
<text text-anchor="middle" x="143" y="-549" font-family="sans" font-size="10.00" fill="#000000">compress_reads</text>
<text text-anchor="middle" x="143" y="-538" font-family="sans" font-size="10.00" fill="#000000">file: BB31</text>
<text text-anchor="middle" x="143" y="-527" font-family="sans" font-size="10.00" fill="#000000">path: 010_porechop</text>
</g>
<!-- 25&#45;&gt;19 -->
<g id="edge19" class="edge">
<title>25&#45;&gt;19</title>
<path fill="none" stroke="#c0c0c0" stroke-width="2" d="M126.5652,-519.7476C119.7778,-511.177 111.834,-501.1463 104.659,-492.0864"/>
<polygon fill="#c0c0c0" stroke="#c0c0c0" stroke-width="2" points="107.2933,-489.7751 98.3411,-484.1087 101.8057,-494.121 107.2933,-489.7751"/>
</g>
<!-- 27 -->
<g id="node27" class="node">
<title>27</title>
<path fill="none" stroke="#56b1d8" stroke-width="2" d="M224,-484C224,-484 150,-484 150,-484 144,-484 138,-478 138,-472 138,-472 138,-460 138,-460 138,-454 144,-448 150,-448 150,-448 224,-448 224,-448 230,-448 236,-454 236,-460 236,-460 236,-472 236,-472 236,-478 230,-484 224,-484"/>
<text text-anchor="middle" x="187" y="-469" font-family="sans" font-size="10.00" fill="#000000">map_to_genome</text>
<text text-anchor="middle" x="187" y="-458" font-family="sans" font-size="10.00" fill="#000000">indiv: BB31</text>
</g>
<!-- 25&#45;&gt;27 -->
<g id="edge29" class="edge">
<title>25&#45;&gt;27</title>
<path fill="none" stroke="#c0c0c0" stroke-width="2" d="M155.2565,-519.7476C160.1633,-511.4394 165.8805,-501.7591 171.1003,-492.9211"/>
<polygon fill="#c0c0c0" stroke="#c0c0c0" stroke-width="2" points="174.2332,-494.499 176.3049,-484.1087 168.2059,-490.9392 174.2332,-494.499"/>
</g>
<!-- 26 -->
<g id="node26" class="node">
<title>26</title>
<path fill="none" stroke="#56d8c1" stroke-width="2" d="M467.5,-561C467.5,-561 378.5,-561 378.5,-561 372.5,-561 366.5,-555 366.5,-549 366.5,-549 366.5,-532 366.5,-532 366.5,-526 372.5,-520 378.5,-520 378.5,-520 467.5,-520 467.5,-520 473.5,-520 479.5,-526 479.5,-532 479.5,-532 479.5,-549 479.5,-549 479.5,-555 473.5,-561 467.5,-561"/>
<text text-anchor="middle" x="423" y="-549" font-family="sans" font-size="10.00" fill="#000000">compress_reads</text>
<text text-anchor="middle" x="423" y="-538" font-family="sans" font-size="10.00" fill="#000000">file: BB55</text>
<text text-anchor="middle" x="423" y="-527" font-family="sans" font-size="10.00" fill="#000000">path: 010_porechop</text>
</g>
<!-- 26&#45;&gt;20 -->
<g id="edge20" class="edge">
<title>26&#45;&gt;20</title>
<path fill="none" stroke="#c0c0c0" stroke-width="2" d="M447.2344,-519.7476C457.7536,-510.7398 470.1564,-500.119 481.1469,-490.7076"/>
<polygon fill="#c0c0c0" stroke="#c0c0c0" stroke-width="2" points="483.5338,-493.2715 488.853,-484.1087 478.9808,-487.9545 483.5338,-493.2715"/>
</g>
<!-- 28 -->
<g id="node28" class="node">
<title>28</title>
<path fill="none" stroke="#56b1d8" stroke-width="2" d="M444,-484C444,-484 370,-484 370,-484 364,-484 358,-478 358,-472 358,-472 358,-460 358,-460 358,-454 364,-448 370,-448 370,-448 444,-448 444,-448 450,-448 456,-454 456,-460 456,-460 456,-472 456,-472 456,-478 450,-484 444,-484"/>
<text text-anchor="middle" x="407" y="-469" font-family="sans" font-size="10.00" fill="#000000">map_to_genome</text>
<text text-anchor="middle" x="407" y="-458" font-family="sans" font-size="10.00" fill="#000000">indiv: BB55</text>
</g>
<!-- 26&#45;&gt;28 -->
<g id="edge31" class="edge">
<title>26&#45;&gt;28</title>
<path fill="none" stroke="#c0c0c0" stroke-width="2" d="M418.5431,-519.7476C416.8339,-511.7892 414.8544,-502.5718 413.0224,-494.0418"/>
<polygon fill="#c0c0c0" stroke="#c0c0c0" stroke-width="2" points="416.4109,-493.1508 410.8891,-484.1087 409.567,-494.6207 416.4109,-493.1508"/>
</g>
<!-- 27&#45;&gt;21 -->
<g id="edge21" class="edge">
<title>27&#45;&gt;21</title>
<path fill="none" stroke="#c0c0c0" stroke-width="2" d="M186.7477,-447.8314C186.6407,-440.131 186.5135,-430.9743 186.3947,-422.4166"/>
<polygon fill="#c0c0c0" stroke="#c0c0c0" stroke-width="2" points="189.8944,-422.3637 186.2557,-412.4133 182.8951,-422.4609 189.8944,-422.3637"/>
</g>
<!-- 28&#45;&gt;22 -->
<g id="edge22" class="edge">
<title>28&#45;&gt;22</title>
<path fill="none" stroke="#c0c0c0" stroke-width="2" d="M407.2523,-447.8314C407.3593,-440.131 407.4865,-430.9743 407.6053,-422.4166"/>
<polygon fill="#c0c0c0" stroke="#c0c0c0" stroke-width="2" points="411.1049,-422.4609 407.7443,-412.4133 404.1056,-422.3637 411.1049,-422.4609"/>
</g>
<!-- 29 -->
<g id="node29" class="node">
<title>29</title>
<path fill="none" stroke="#56d8a2" stroke-width="2" d="M328.5,-558.5C328.5,-558.5 279.5,-558.5 279.5,-558.5 273.5,-558.5 267.5,-552.5 267.5,-546.5 267.5,-546.5 267.5,-534.5 267.5,-534.5 267.5,-528.5 273.5,-522.5 279.5,-522.5 279.5,-522.5 328.5,-522.5 328.5,-522.5 334.5,-522.5 340.5,-528.5 340.5,-534.5 340.5,-534.5 340.5,-546.5 340.5,-546.5 340.5,-552.5 334.5,-558.5 328.5,-558.5"/>
<text text-anchor="middle" x="304" y="-538" font-family="sans" font-size="10.00" fill="#000000">prepare_ref</text>
</g>
<!-- 29&#45;&gt;23 -->
<g id="edge24" class="edge">
<title>29&#45;&gt;23</title>
<path fill="none" stroke="#c0c0c0" stroke-width="2" d="M299.7524,-522.3474C290.5263,-482.9192 268.6007,-389.2181 257.5728,-342.0893"/>
<polygon fill="#c0c0c0" stroke="#c0c0c0" stroke-width="2" points="260.9543,-341.1785 255.2678,-332.239 254.1384,-342.7735 260.9543,-341.1785"/>
</g>
<!-- 29&#45;&gt;24 -->
<g id="edge26" class="edge">
<title>29&#45;&gt;24</title>
<path fill="none" stroke="#c0c0c0" stroke-width="2" d="M307.1256,-522.3474C313.9003,-483.002 329.9808,-389.6116 338.1122,-342.387"/>
<polygon fill="#c0c0c0" stroke="#c0c0c0" stroke-width="2" points="341.6118,-342.6879 339.8595,-332.239 334.7133,-341.5001 341.6118,-342.6879"/>
</g>
<!-- 29&#45;&gt;27 -->
<g id="edge30" class="edge">
<title>29&#45;&gt;27</title>
<path fill="none" stroke="#c0c0c0" stroke-width="2" d="M275.6776,-522.4656C260.128,-512.5644 240.6612,-500.1689 223.9312,-489.516"/>
<polygon fill="#c0c0c0" stroke="#c0c0c0" stroke-width="2" points="225.7822,-486.5453 215.4671,-484.1265 222.0224,-492.4499 225.7822,-486.5453"/>
</g>
<!-- 29&#45;&gt;28 -->
<g id="edge32" class="edge">
<title>29&#45;&gt;28</title>
<path fill="none" stroke="#c0c0c0" stroke-width="2" d="M328.9334,-522.4656C342.3712,-512.7461 359.132,-500.6229 373.6748,-490.1041"/>
<polygon fill="#c0c0c0" stroke="#c0c0c0" stroke-width="2" points="375.8878,-492.8231 381.9392,-484.1265 371.7853,-487.1513 375.8878,-492.8231"/>
</g>
<!-- 30 -->
<g id="node30" class="node">
<title>30</title>
<path fill="none" stroke="#d85656" stroke-width="2" d="M191,-633C191,-633 95,-633 95,-633 89,-633 83,-627 83,-621 83,-621 83,-609 83,-609 83,-603 89,-597 95,-597 95,-597 191,-597 191,-597 197,-597 203,-603 203,-609 203,-609 203,-621 203,-621 203,-627 197,-633 191,-633"/>
<text text-anchor="middle" x="143" y="-612.5" font-family="sans" font-size="10.00" fill="#000000">combine_indiv_reads</text>
</g>
<!-- 30&#45;&gt;25 -->
<g id="edge27" class="edge">
<title>30&#45;&gt;25</title>
<path fill="none" stroke="#c0c0c0" stroke-width="2" d="M143,-596.9656C143,-589.3118 143,-580.1674 143,-571.4898"/>
<polygon fill="#c0c0c0" stroke="#c0c0c0" stroke-width="2" points="146.5001,-571.2678 143,-561.2679 139.5001,-571.2679 146.5001,-571.2678"/>
</g>
<!-- 31 -->
<g id="node31" class="node">
<title>31</title>
<path fill="none" stroke="#d85656" stroke-width="2" d="M471,-633C471,-633 375,-633 375,-633 369,-633 363,-627 363,-621 363,-621 363,-609 363,-609 363,-603 369,-597 375,-597 375,-597 471,-597 471,-597 477,-597 483,-603 483,-609 483,-609 483,-621 483,-621 483,-627 477,-633 471,-633"/>
<text text-anchor="middle" x="423" y="-612.5" font-family="sans" font-size="10.00" fill="#000000">combine_indiv_reads</text>
</g>
<!-- 31&#45;&gt;26 -->
<g id="edge28" class="edge">
<title>31&#45;&gt;26</title>
<path fill="none" stroke="#c0c0c0" stroke-width="2" d="M423,-596.9656C423,-589.3118 423,-580.1674 423,-571.4898"/>
<polygon fill="#c0c0c0" stroke="#c0c0c0" stroke-width="2" points="426.5001,-571.2678 423,-561.2679 419.5001,-571.2679 426.5001,-571.2678"/>
</g>
<!-- 32 -->
<g id="node32" class="node">
<title>32</title>
<path fill="none" stroke="#56d863" stroke-width="2" d="M167,-710C167,-710 119,-710 119,-710 113,-710 107,-704 107,-698 107,-698 107,-681 107,-681 107,-675 113,-669 119,-669 119,-669 167,-669 167,-669 173,-669 179,-675 179,-681 179,-681 179,-698 179,-698 179,-704 173,-710 167,-710"/>
<text text-anchor="middle" x="143" y="-698" font-family="sans" font-size="10.00" fill="#000000">porechop</text>
<text text-anchor="middle" x="143" y="-687" font-family="sans" font-size="10.00" fill="#000000">indiv: BB31</text>
<text text-anchor="middle" x="143" y="-676" font-family="sans" font-size="10.00" fill="#000000">read: test</text>
</g>
<!-- 32&#45;&gt;30 -->
<g id="edge33" class="edge">
<title>32&#45;&gt;30</title>
<path fill="none" stroke="#c0c0c0" stroke-width="2" d="M143,-668.7476C143,-660.8767 143,-651.7743 143,-643.3232"/>
<polygon fill="#c0c0c0" stroke="#c0c0c0" stroke-width="2" points="146.5001,-643.1086 143,-633.1087 139.5001,-643.1087 146.5001,-643.1086"/>
</g>
<!-- 33 -->
<g id="node33" class="node">
<title>33</title>
<path fill="none" stroke="#56d863" stroke-width="2" d="M447,-710C447,-710 399,-710 399,-710 393,-710 387,-704 387,-698 387,-698 387,-681 387,-681 387,-675 393,-669 399,-669 399,-669 447,-669 447,-669 453,-669 459,-675 459,-681 459,-681 459,-698 459,-698 459,-704 453,-710 447,-710"/>
<text text-anchor="middle" x="423" y="-698" font-family="sans" font-size="10.00" fill="#000000">porechop</text>
<text text-anchor="middle" x="423" y="-687" font-family="sans" font-size="10.00" fill="#000000">indiv: BB55</text>
<text text-anchor="middle" x="423" y="-676" font-family="sans" font-size="10.00" fill="#000000">read: test</text>
</g>
<!-- 33&#45;&gt;31 -->
<g id="edge34" class="edge">
<title>33&#45;&gt;31</title>
<path fill="none" stroke="#c0c0c0" stroke-width="2" d="M423,-668.7476C423,-660.8767 423,-651.7743 423,-643.3232"/>
<polygon fill="#c0c0c0" stroke="#c0c0c0" stroke-width="2" points="426.5001,-643.1086 423,-633.1087 419.5001,-643.1087 426.5001,-643.1086"/>
</g>
</g>
</svg>
