<?xml version="1.0" encoding="UTF-8" standalone="no"?>
<!DOCTYPE svg PUBLIC "-//W3C//DTD SVG 1.1//EN"
 "http://www.w3.org/Graphics/SVG/1.1/DTD/svg11.dtd">
<!-- Generated by graphviz version 2.40.1 (20161225.0304)
 -->
<!-- Title: snakemake_dag Pages: 1 -->
<svg width="560pt" height="894pt"
 viewBox="0.00 0.00 560.00 894.00" xmlns="http://www.w3.org/2000/svg" xmlns:xlink="http://www.w3.org/1999/xlink">
<g id="graph0" class="graph" transform="scale(1 1) rotate(0) translate(4 890)">
<title>snakemake_dag</title>
<polygon fill="#ffffff" stroke="transparent" points="-4,4 -4,-890 556,-890 556,4 -4,4"/>
<!-- 1 -->
<g id="node1" class="node">
<title>1</title>
<path fill="none" stroke="#d8c356" stroke-width="2" d="M268.5,-196C268.5,-196 206.5,-196 206.5,-196 200.5,-196 194.5,-190 194.5,-184 194.5,-184 194.5,-172 194.5,-172 194.5,-166 200.5,-160 206.5,-160 206.5,-160 268.5,-160 268.5,-160 274.5,-160 280.5,-166 280.5,-172 280.5,-172 280.5,-184 280.5,-184 280.5,-190 274.5,-196 268.5,-196"/>
<text text-anchor="middle" x="237.5" y="-175.5" font-family="sans" font-size="10.00" fill="#000000">index_bamfile</text>
</g>
<!-- 2 -->
<g id="node2" class="node">
<title>2</title>
<path fill="none" stroke="#d8c356" stroke-width="2" d="M405.5,-196C405.5,-196 343.5,-196 343.5,-196 337.5,-196 331.5,-190 331.5,-184 331.5,-184 331.5,-172 331.5,-172 331.5,-166 337.5,-160 343.5,-160 343.5,-160 405.5,-160 405.5,-160 411.5,-160 417.5,-166 417.5,-172 417.5,-172 417.5,-184 417.5,-184 417.5,-190 411.5,-196 405.5,-196"/>
<text text-anchor="middle" x="374.5" y="-175.5" font-family="sans" font-size="10.00" fill="#000000">index_bamfile</text>
</g>
<!-- 3 -->
<g id="node3" class="node">
<title>3</title>
<path fill="none" stroke="#97d856" stroke-width="2" d="M143,-36C143,-36 106,-36 106,-36 100,-36 94,-30 94,-24 94,-24 94,-12 94,-12 94,-6 100,0 106,0 106,0 143,0 143,0 149,0 155,-6 155,-12 155,-12 155,-24 155,-24 155,-30 149,-36 143,-36"/>
<text text-anchor="middle" x="124.5" y="-15.5" font-family="sans" font-size="10.00" fill="#000000">plot_wga</text>
</g>
<!-- 4 -->
<g id="node4" class="node">
<title>4</title>
<path fill="none" stroke="#97d856" stroke-width="2" d="M499,-36C499,-36 462,-36 462,-36 456,-36 450,-30 450,-24 450,-24 450,-12 450,-12 450,-6 456,0 462,0 462,0 499,0 499,0 505,0 511,-6 511,-12 511,-12 511,-24 511,-24 511,-30 505,-36 499,-36"/>
<text text-anchor="middle" x="480.5" y="-15.5" font-family="sans" font-size="10.00" fill="#000000">plot_wga</text>
</g>
<!-- 5 -->
<g id="node5" class="node">
<title>5</title>
<path fill="none" stroke="#56d8b9" stroke-width="2" d="M180.5,-444C180.5,-444 150.5,-444 150.5,-444 144.5,-444 138.5,-438 138.5,-432 138.5,-432 138.5,-420 138.5,-420 138.5,-414 144.5,-408 150.5,-408 150.5,-408 180.5,-408 180.5,-408 186.5,-408 192.5,-414 192.5,-420 192.5,-420 192.5,-432 192.5,-432 192.5,-438 186.5,-444 180.5,-444"/>
<text text-anchor="middle" x="165.5" y="-423.5" font-family="sans" font-size="10.00" fill="#000000">sniffles</text>
</g>
<!-- 6 -->
<g id="node6" class="node">
<title>6</title>
<path fill="none" stroke="#56d8b9" stroke-width="2" d="M416.5,-444C416.5,-444 386.5,-444 386.5,-444 380.5,-444 374.5,-438 374.5,-432 374.5,-432 374.5,-420 374.5,-420 374.5,-414 380.5,-408 386.5,-408 386.5,-408 416.5,-408 416.5,-408 422.5,-408 428.5,-414 428.5,-420 428.5,-420 428.5,-432 428.5,-432 428.5,-438 422.5,-444 416.5,-444"/>
<text text-anchor="middle" x="401.5" y="-423.5" font-family="sans" font-size="10.00" fill="#000000">sniffles</text>
</g>
<!-- 7 -->
<g id="node7" class="node">
<title>7</title>
<path fill="none" stroke="#56a9d8" stroke-width="2" d="M252.5,-276C252.5,-276 222.5,-276 222.5,-276 216.5,-276 210.5,-270 210.5,-264 210.5,-264 210.5,-252 210.5,-252 210.5,-246 216.5,-240 222.5,-240 222.5,-240 252.5,-240 252.5,-240 258.5,-240 264.5,-246 264.5,-252 264.5,-252 264.5,-264 264.5,-264 264.5,-270 258.5,-276 252.5,-276"/>
<text text-anchor="middle" x="237.5" y="-255.5" font-family="sans" font-size="10.00" fill="#000000">sort</text>
</g>
<!-- 7&#45;&gt;1 -->
<g id="edge1" class="edge">
<title>7&#45;&gt;1</title>
<path fill="none" stroke="#c0c0c0" stroke-width="2" d="M237.5,-239.8468C237.5,-229.9251 237.5,-217.4167 237.5,-206.2492"/>
<polygon fill="#c0c0c0" stroke="#c0c0c0" stroke-width="2" points="241.0001,-206.0814 237.5,-196.0814 234.0001,-206.0814 241.0001,-206.0814"/>
</g>
<!-- 19 -->
<g id="node19" class="node">
<title>19</title>
<path fill="none" stroke="#56d863" stroke-width="2" d="M156.5,-196C156.5,-196 100.5,-196 100.5,-196 94.5,-196 88.5,-190 88.5,-184 88.5,-184 88.5,-172 88.5,-172 88.5,-166 94.5,-160 100.5,-160 100.5,-160 156.5,-160 156.5,-160 162.5,-160 168.5,-166 168.5,-172 168.5,-172 168.5,-184 168.5,-184 168.5,-190 162.5,-196 156.5,-196"/>
<text text-anchor="middle" x="128.5" y="-175.5" font-family="sans" font-size="10.00" fill="#000000">bam_to_sam</text>
</g>
<!-- 7&#45;&gt;19 -->
<g id="edge22" class="edge">
<title>7&#45;&gt;19</title>
<path fill="none" stroke="#c0c0c0" stroke-width="2" d="M212.7662,-239.8468C197.5756,-228.6977 177.9345,-214.2822 161.4365,-202.1736"/>
<polygon fill="#c0c0c0" stroke="#c0c0c0" stroke-width="2" points="163.2685,-199.1767 153.1359,-196.0814 159.1267,-204.8199 163.2685,-199.1767"/>
</g>
<!-- 8 -->
<g id="node8" class="node">
<title>8</title>
<path fill="none" stroke="#56a9d8" stroke-width="2" d="M389.5,-276C389.5,-276 359.5,-276 359.5,-276 353.5,-276 347.5,-270 347.5,-264 347.5,-264 347.5,-252 347.5,-252 347.5,-246 353.5,-240 359.5,-240 359.5,-240 389.5,-240 389.5,-240 395.5,-240 401.5,-246 401.5,-252 401.5,-252 401.5,-264 401.5,-264 401.5,-270 395.5,-276 389.5,-276"/>
<text text-anchor="middle" x="374.5" y="-255.5" font-family="sans" font-size="10.00" fill="#000000">sort</text>
</g>
<!-- 8&#45;&gt;2 -->
<g id="edge2" class="edge">
<title>8&#45;&gt;2</title>
<path fill="none" stroke="#c0c0c0" stroke-width="2" d="M374.5,-239.8468C374.5,-229.9251 374.5,-217.4167 374.5,-206.2492"/>
<polygon fill="#c0c0c0" stroke="#c0c0c0" stroke-width="2" points="378.0001,-206.0814 374.5,-196.0814 371.0001,-206.0814 378.0001,-206.0814"/>
</g>
<!-- 21 -->
<g id="node21" class="node">
<title>21</title>
<path fill="none" stroke="#56d863" stroke-width="2" d="M504.5,-196C504.5,-196 448.5,-196 448.5,-196 442.5,-196 436.5,-190 436.5,-184 436.5,-184 436.5,-172 436.5,-172 436.5,-166 442.5,-160 448.5,-160 448.5,-160 504.5,-160 504.5,-160 510.5,-160 516.5,-166 516.5,-172 516.5,-172 516.5,-184 516.5,-184 516.5,-190 510.5,-196 504.5,-196"/>
<text text-anchor="middle" x="476.5" y="-175.5" font-family="sans" font-size="10.00" fill="#000000">bam_to_sam</text>
</g>
<!-- 8&#45;&gt;21 -->
<g id="edge24" class="edge">
<title>8&#45;&gt;21</title>
<path fill="none" stroke="#c0c0c0" stroke-width="2" d="M397.6454,-239.8468C411.73,-228.8 429.9033,-214.5464 445.253,-202.5075"/>
<polygon fill="#c0c0c0" stroke="#c0c0c0" stroke-width="2" points="447.7377,-205.0068 453.4462,-196.0814 443.4177,-199.4988 447.7377,-205.0068"/>
</g>
<!-- 9 -->
<g id="node9" class="node">
<title>9</title>
<path fill="none" stroke="#5673d8" stroke-width="2" d="M111,-372C111,-372 12,-372 12,-372 6,-372 0,-366 0,-360 0,-360 0,-332 0,-332 0,-326 6,-320 12,-320 12,-320 111,-320 111,-320 117,-320 123,-326 123,-332 123,-332 123,-360 123,-360 123,-366 117,-372 111,-372"/>
<text text-anchor="middle" x="61.5" y="-360" font-family="sans" font-size="10.00" fill="#000000">index_fa</text>
<text text-anchor="middle" x="61.5" y="-349" font-family="sans" font-size="10.00" fill="#000000">ext: fa</text>
<text text-anchor="middle" x="61.5" y="-338" font-family="sans" font-size="10.00" fill="#000000">file: BB31</text>
<text text-anchor="middle" x="61.5" y="-327" font-family="sans" font-size="10.00" fill="#000000">path: output/027_split</text>
</g>
<!-- 9&#45;&gt;3 -->
<g id="edge3" class="edge">
<title>9&#45;&gt;3</title>
<path fill="none" stroke="#c0c0c0" stroke-width="2" d="M57.8245,-319.8822C51.8863,-269.7156 44.0592,-157.2946 78.5,-72 82.6233,-61.7884 89.4787,-52.122 96.6543,-43.8658"/>
<polygon fill="#c0c0c0" stroke="#c0c0c0" stroke-width="2" points="99.3303,-46.1273 103.5535,-36.4105 94.1926,-41.3728 99.3303,-46.1273"/>
</g>
<!-- 10 -->
<g id="node10" class="node">
<title>10</title>
<path fill="none" stroke="#5673d8" stroke-width="2" d="M413,-124C413,-124 192,-124 192,-124 186,-124 180,-118 180,-112 180,-112 180,-84 180,-84 180,-78 186,-72 192,-72 192,-72 413,-72 413,-72 419,-72 425,-78 425,-84 425,-84 425,-112 425,-112 425,-118 419,-124 413,-124"/>
<text text-anchor="middle" x="302.5" y="-112" font-family="sans" font-size="10.00" fill="#000000">index_fa</text>
<text text-anchor="middle" x="302.5" y="-101" font-family="sans" font-size="10.00" fill="#000000">ext: fna</text>
<text text-anchor="middle" x="302.5" y="-90" font-family="sans" font-size="10.00" fill="#000000">file: GCF_003254395.2_Amel_HAv3.1_genomic</text>
<text text-anchor="middle" x="302.5" y="-79" font-family="sans" font-size="10.00" fill="#000000">path: data</text>
</g>
<!-- 10&#45;&gt;3 -->
<g id="edge4" class="edge">
<title>10&#45;&gt;3</title>
<path fill="none" stroke="#c0c0c0" stroke-width="2" d="M244.2161,-71.805C218.1059,-60.0701 187.9755,-46.5283 164.4742,-35.966"/>
<polygon fill="#c0c0c0" stroke="#c0c0c0" stroke-width="2" points="165.7217,-32.6894 155.1658,-31.7824 162.8521,-39.0742 165.7217,-32.6894"/>
</g>
<!-- 10&#45;&gt;4 -->
<g id="edge7" class="edge">
<title>10&#45;&gt;4</title>
<path fill="none" stroke="#c0c0c0" stroke-width="2" d="M360.7839,-71.805C386.8941,-60.0701 417.0245,-46.5283 440.5258,-35.966"/>
<polygon fill="#c0c0c0" stroke="#c0c0c0" stroke-width="2" points="442.1479,-39.0742 449.8342,-31.7824 439.2783,-32.6894 442.1479,-39.0742"/>
</g>
<!-- 11 -->
<g id="node11" class="node">
<title>11</title>
<path fill="none" stroke="#d85656" stroke-width="2" d="M149.5,-116C149.5,-116 99.5,-116 99.5,-116 93.5,-116 87.5,-110 87.5,-104 87.5,-104 87.5,-92 87.5,-92 87.5,-86 93.5,-80 99.5,-80 99.5,-80 149.5,-80 149.5,-80 155.5,-80 161.5,-86 161.5,-92 161.5,-92 161.5,-104 161.5,-104 161.5,-110 155.5,-116 149.5,-116"/>
<text text-anchor="middle" x="124.5" y="-95.5" font-family="sans" font-size="10.00" fill="#000000">sam_to_paf</text>
</g>
<!-- 11&#45;&gt;3 -->
<g id="edge5" class="edge">
<title>11&#45;&gt;3</title>
<path fill="none" stroke="#c0c0c0" stroke-width="2" d="M124.5,-79.8468C124.5,-69.9251 124.5,-57.4167 124.5,-46.2492"/>
<polygon fill="#c0c0c0" stroke="#c0c0c0" stroke-width="2" points="128.0001,-46.0814 124.5,-36.0814 121.0001,-46.0814 128.0001,-46.0814"/>
</g>
<!-- 12 -->
<g id="node12" class="node">
<title>12</title>
<path fill="none" stroke="#5673d8" stroke-width="2" d="M540,-284C540,-284 441,-284 441,-284 435,-284 429,-278 429,-272 429,-272 429,-244 429,-244 429,-238 435,-232 441,-232 441,-232 540,-232 540,-232 546,-232 552,-238 552,-244 552,-244 552,-272 552,-272 552,-278 546,-284 540,-284"/>
<text text-anchor="middle" x="490.5" y="-272" font-family="sans" font-size="10.00" fill="#000000">index_fa</text>
<text text-anchor="middle" x="490.5" y="-261" font-family="sans" font-size="10.00" fill="#000000">ext: fa</text>
<text text-anchor="middle" x="490.5" y="-250" font-family="sans" font-size="10.00" fill="#000000">file: BB55</text>
<text text-anchor="middle" x="490.5" y="-239" font-family="sans" font-size="10.00" fill="#000000">path: output/027_split</text>
</g>
<!-- 12&#45;&gt;4 -->
<g id="edge6" class="edge">
<title>12&#45;&gt;4</title>
<path fill="none" stroke="#c0c0c0" stroke-width="2" d="M509.1324,-231.8118C515.6182,-221.2108 522.1145,-208.5293 525.5,-196 539.8763,-142.7952 545.5422,-123.7187 526.5,-72 522.695,-61.6656 515.9356,-51.9621 508.75,-43.7098"/>
<polygon fill="#c0c0c0" stroke="#c0c0c0" stroke-width="2" points="511.192,-41.1965 501.8127,-36.2692 506.0721,-45.9701 511.192,-41.1965"/>
</g>
<!-- 13 -->
<g id="node13" class="node">
<title>13</title>
<path fill="none" stroke="#d85656" stroke-width="2" d="M505.5,-116C505.5,-116 455.5,-116 455.5,-116 449.5,-116 443.5,-110 443.5,-104 443.5,-104 443.5,-92 443.5,-92 443.5,-86 449.5,-80 455.5,-80 455.5,-80 505.5,-80 505.5,-80 511.5,-80 517.5,-86 517.5,-92 517.5,-92 517.5,-104 517.5,-104 517.5,-110 511.5,-116 505.5,-116"/>
<text text-anchor="middle" x="480.5" y="-95.5" font-family="sans" font-size="10.00" fill="#000000">sam_to_paf</text>
</g>
<!-- 13&#45;&gt;4 -->
<g id="edge8" class="edge">
<title>13&#45;&gt;4</title>
<path fill="none" stroke="#c0c0c0" stroke-width="2" d="M480.5,-79.8468C480.5,-69.9251 480.5,-57.4167 480.5,-46.2492"/>
<polygon fill="#c0c0c0" stroke="#c0c0c0" stroke-width="2" points="484.0001,-46.0814 480.5,-36.0814 477.0001,-46.0814 484.0001,-46.0814"/>
</g>
<!-- 14 -->
<g id="node14" class="node">
<title>14</title>
<path fill="none" stroke="#56a9d8" stroke-width="2" d="M187.5,-516C187.5,-516 157.5,-516 157.5,-516 151.5,-516 145.5,-510 145.5,-504 145.5,-504 145.5,-492 145.5,-492 145.5,-486 151.5,-480 157.5,-480 157.5,-480 187.5,-480 187.5,-480 193.5,-480 199.5,-486 199.5,-492 199.5,-492 199.5,-504 199.5,-504 199.5,-510 193.5,-516 187.5,-516"/>
<text text-anchor="middle" x="172.5" y="-495.5" font-family="sans" font-size="10.00" fill="#000000">sort</text>
</g>
<!-- 14&#45;&gt;5 -->
<g id="edge9" class="edge">
<title>14&#45;&gt;5</title>
<path fill="none" stroke="#c0c0c0" stroke-width="2" d="M170.7336,-479.8314C169.985,-472.131 169.0947,-462.9743 168.2627,-454.4166"/>
<polygon fill="#c0c0c0" stroke="#c0c0c0" stroke-width="2" points="171.7415,-454.0276 167.2902,-444.4133 164.7744,-454.7051 171.7415,-454.0276"/>
</g>
<!-- 15 -->
<g id="node15" class="node">
<title>15</title>
<path fill="none" stroke="#56a9d8" stroke-width="2" d="M402.5,-516C402.5,-516 372.5,-516 372.5,-516 366.5,-516 360.5,-510 360.5,-504 360.5,-504 360.5,-492 360.5,-492 360.5,-486 366.5,-480 372.5,-480 372.5,-480 402.5,-480 402.5,-480 408.5,-480 414.5,-486 414.5,-492 414.5,-492 414.5,-504 414.5,-504 414.5,-510 408.5,-516 402.5,-516"/>
<text text-anchor="middle" x="387.5" y="-495.5" font-family="sans" font-size="10.00" fill="#000000">sort</text>
</g>
<!-- 15&#45;&gt;6 -->
<g id="edge10" class="edge">
<title>15&#45;&gt;6</title>
<path fill="none" stroke="#c0c0c0" stroke-width="2" d="M391.0328,-479.8314C392.5301,-472.131 394.3105,-462.9743 395.9745,-454.4166"/>
<polygon fill="#c0c0c0" stroke="#c0c0c0" stroke-width="2" points="399.4465,-454.8975 397.9196,-444.4133 392.5752,-453.5614 399.4465,-454.8975"/>
</g>
<!-- 16 -->
<g id="node16" class="node">
<title>16</title>
<path fill="none" stroke="#d88d56" stroke-width="2" d="M273,-364C273,-364 202,-364 202,-364 196,-364 190,-358 190,-352 190,-352 190,-340 190,-340 190,-334 196,-328 202,-328 202,-328 273,-328 273,-328 279,-328 285,-334 285,-340 285,-340 285,-352 285,-352 285,-358 279,-364 273,-364"/>
<text text-anchor="middle" x="237.5" y="-349" font-family="sans" font-size="10.00" fill="#000000">sam_to_bam</text>
<text text-anchor="middle" x="237.5" y="-338" font-family="sans" font-size="10.00" fill="#000000">folder: 040_wga</text>
</g>
<!-- 16&#45;&gt;7 -->
<g id="edge11" class="edge">
<title>16&#45;&gt;7</title>
<path fill="none" stroke="#c0c0c0" stroke-width="2" d="M237.5,-327.7663C237.5,-315.8492 237.5,-300.0384 237.5,-286.4817"/>
<polygon fill="#c0c0c0" stroke="#c0c0c0" stroke-width="2" points="241.0001,-286.2103 237.5,-276.2103 234.0001,-286.2103 241.0001,-286.2103"/>
</g>
<!-- 17 -->
<g id="node17" class="node">
<title>17</title>
<path fill="none" stroke="#d88d56" stroke-width="2" d="M398,-364C398,-364 327,-364 327,-364 321,-364 315,-358 315,-352 315,-352 315,-340 315,-340 315,-334 321,-328 327,-328 327,-328 398,-328 398,-328 404,-328 410,-334 410,-340 410,-340 410,-352 410,-352 410,-358 404,-364 398,-364"/>
<text text-anchor="middle" x="362.5" y="-349" font-family="sans" font-size="10.00" fill="#000000">sam_to_bam</text>
<text text-anchor="middle" x="362.5" y="-338" font-family="sans" font-size="10.00" fill="#000000">folder: 040_wga</text>
</g>
<!-- 17&#45;&gt;8 -->
<g id="edge12" class="edge">
<title>17&#45;&gt;8</title>
<path fill="none" stroke="#c0c0c0" stroke-width="2" d="M364.9864,-327.7663C366.6115,-315.8492 368.7675,-300.0384 370.6161,-286.4817"/>
<polygon fill="#c0c0c0" stroke="#c0c0c0" stroke-width="2" points="374.1335,-286.5915 372.0168,-276.2103 367.1977,-285.6457 374.1335,-286.5915"/>
</g>
<!-- 18 -->
<g id="node18" class="node">
<title>18</title>
<path fill="none" stroke="#568ad8" stroke-width="2" d="M115.5,-516C115.5,-516 23.5,-516 23.5,-516 17.5,-516 11.5,-510 11.5,-504 11.5,-504 11.5,-492 11.5,-492 11.5,-486 17.5,-480 23.5,-480 23.5,-480 115.5,-480 115.5,-480 121.5,-480 127.5,-486 127.5,-492 127.5,-492 127.5,-504 127.5,-504 127.5,-510 121.5,-516 115.5,-516"/>
<text text-anchor="middle" x="69.5" y="-495.5" font-family="sans" font-size="10.00" fill="#000000">split_scaffolds_on_n</text>
</g>
<!-- 18&#45;&gt;9 -->
<g id="edge13" class="edge">
<title>18&#45;&gt;9</title>
<path fill="none" stroke="#c0c0c0" stroke-width="2" d="M68.5509,-479.9667C67.2921,-456.0494 65.0408,-413.2748 63.4203,-382.4859"/>
<polygon fill="#c0c0c0" stroke="#c0c0c0" stroke-width="2" points="66.8969,-381.9481 62.8761,-372.1459 59.9066,-382.3161 66.8969,-381.9481"/>
</g>
<!-- 24 -->
<g id="node24" class="node">
<title>24</title>
<path fill="none" stroke="#d87556" stroke-width="2" d="M252.5,-444C252.5,-444 222.5,-444 222.5,-444 216.5,-444 210.5,-438 210.5,-432 210.5,-432 210.5,-420 210.5,-420 210.5,-414 216.5,-408 222.5,-408 222.5,-408 252.5,-408 252.5,-408 258.5,-408 264.5,-414 264.5,-420 264.5,-420 264.5,-432 264.5,-432 264.5,-438 258.5,-444 252.5,-444"/>
<text text-anchor="middle" x="237.5" y="-423.5" font-family="sans" font-size="10.00" fill="#000000">wga</text>
</g>
<!-- 18&#45;&gt;24 -->
<g id="edge27" class="edge">
<title>18&#45;&gt;24</title>
<path fill="none" stroke="#c0c0c0" stroke-width="2" d="M115.9856,-479.9759C139.2534,-470.7276 167.9789,-458.9708 201.0395,-444.0705"/>
<polygon fill="#c0c0c0" stroke="#c0c0c0" stroke-width="2" points="202.8206,-447.1058 210.4784,-439.784 199.926,-440.7322 202.8206,-447.1058"/>
</g>
<!-- 19&#45;&gt;11 -->
<g id="edge14" class="edge">
<title>19&#45;&gt;11</title>
<path fill="none" stroke="#c0c0c0" stroke-width="2" d="M127.5923,-159.8468C127.0963,-149.9251 126.4708,-137.4167 125.9125,-126.2492"/>
<polygon fill="#c0c0c0" stroke="#c0c0c0" stroke-width="2" points="129.3992,-125.8941 125.4041,-116.0814 122.4079,-126.2437 129.3992,-125.8941"/>
</g>
<!-- 20 -->
<g id="node20" class="node">
<title>20</title>
<path fill="none" stroke="#568ad8" stroke-width="2" d="M536.5,-516C536.5,-516 444.5,-516 444.5,-516 438.5,-516 432.5,-510 432.5,-504 432.5,-504 432.5,-492 432.5,-492 432.5,-486 438.5,-480 444.5,-480 444.5,-480 536.5,-480 536.5,-480 542.5,-480 548.5,-486 548.5,-492 548.5,-492 548.5,-504 548.5,-504 548.5,-510 542.5,-516 536.5,-516"/>
<text text-anchor="middle" x="490.5" y="-495.5" font-family="sans" font-size="10.00" fill="#000000">split_scaffolds_on_n</text>
</g>
<!-- 20&#45;&gt;12 -->
<g id="edge15" class="edge">
<title>20&#45;&gt;12</title>
<path fill="none" stroke="#c0c0c0" stroke-width="2" d="M490.5,-479.961C490.5,-440.594 490.5,-346.3406 490.5,-294.209"/>
<polygon fill="#c0c0c0" stroke="#c0c0c0" stroke-width="2" points="494.0001,-294.0659 490.5,-284.0659 487.0001,-294.0659 494.0001,-294.0659"/>
</g>
<!-- 25 -->
<g id="node25" class="node">
<title>25</title>
<path fill="none" stroke="#d87556" stroke-width="2" d="M344.5,-444C344.5,-444 314.5,-444 314.5,-444 308.5,-444 302.5,-438 302.5,-432 302.5,-432 302.5,-420 302.5,-420 302.5,-414 308.5,-408 314.5,-408 314.5,-408 344.5,-408 344.5,-408 350.5,-408 356.5,-414 356.5,-420 356.5,-420 356.5,-432 356.5,-432 356.5,-438 350.5,-444 344.5,-444"/>
<text text-anchor="middle" x="329.5" y="-423.5" font-family="sans" font-size="10.00" fill="#000000">wga</text>
</g>
<!-- 20&#45;&gt;25 -->
<g id="edge29" class="edge">
<title>20&#45;&gt;25</title>
<path fill="none" stroke="#c0c0c0" stroke-width="2" d="M447.1369,-479.9708C425.04,-470.6229 397.6024,-458.7721 365.6724,-443.9778"/>
<polygon fill="#c0c0c0" stroke="#c0c0c0" stroke-width="2" points="367.0906,-440.7774 356.548,-439.7266 364.1343,-447.1225 367.0906,-440.7774"/>
</g>
<!-- 21&#45;&gt;13 -->
<g id="edge16" class="edge">
<title>21&#45;&gt;13</title>
<path fill="none" stroke="#c0c0c0" stroke-width="2" d="M477.4077,-159.8468C477.9037,-149.9251 478.5292,-137.4167 479.0875,-126.2492"/>
<polygon fill="#c0c0c0" stroke="#c0c0c0" stroke-width="2" points="482.5921,-126.2437 479.5959,-116.0814 475.6008,-125.8941 482.5921,-126.2437"/>
</g>
<!-- 22 -->
<g id="node22" class="node">
<title>22</title>
<path fill="none" stroke="#d88d56" stroke-width="2" d="M217.5,-588C217.5,-588 127.5,-588 127.5,-588 121.5,-588 115.5,-582 115.5,-576 115.5,-576 115.5,-564 115.5,-564 115.5,-558 121.5,-552 127.5,-552 127.5,-552 217.5,-552 217.5,-552 223.5,-552 229.5,-558 229.5,-564 229.5,-564 229.5,-576 229.5,-576 229.5,-582 223.5,-588 217.5,-588"/>
<text text-anchor="middle" x="172.5" y="-573" font-family="sans" font-size="10.00" fill="#000000">sam_to_bam</text>
<text text-anchor="middle" x="172.5" y="-562" font-family="sans" font-size="10.00" fill="#000000">folder: 030_mapped</text>
</g>
<!-- 22&#45;&gt;14 -->
<g id="edge17" class="edge">
<title>22&#45;&gt;14</title>
<path fill="none" stroke="#c0c0c0" stroke-width="2" d="M172.5,-551.8314C172.5,-544.131 172.5,-534.9743 172.5,-526.4166"/>
<polygon fill="#c0c0c0" stroke="#c0c0c0" stroke-width="2" points="176.0001,-526.4132 172.5,-516.4133 169.0001,-526.4133 176.0001,-526.4132"/>
</g>
<!-- 23 -->
<g id="node23" class="node">
<title>23</title>
<path fill="none" stroke="#d88d56" stroke-width="2" d="M432.5,-588C432.5,-588 342.5,-588 342.5,-588 336.5,-588 330.5,-582 330.5,-576 330.5,-576 330.5,-564 330.5,-564 330.5,-558 336.5,-552 342.5,-552 342.5,-552 432.5,-552 432.5,-552 438.5,-552 444.5,-558 444.5,-564 444.5,-564 444.5,-576 444.5,-576 444.5,-582 438.5,-588 432.5,-588"/>
<text text-anchor="middle" x="387.5" y="-573" font-family="sans" font-size="10.00" fill="#000000">sam_to_bam</text>
<text text-anchor="middle" x="387.5" y="-562" font-family="sans" font-size="10.00" fill="#000000">folder: 030_mapped</text>
</g>
<!-- 23&#45;&gt;15 -->
<g id="edge18" class="edge">
<title>23&#45;&gt;15</title>
<path fill="none" stroke="#c0c0c0" stroke-width="2" d="M387.5,-551.8314C387.5,-544.131 387.5,-534.9743 387.5,-526.4166"/>
<polygon fill="#c0c0c0" stroke="#c0c0c0" stroke-width="2" points="391.0001,-526.4132 387.5,-516.4133 384.0001,-526.4133 391.0001,-526.4132"/>
</g>
<!-- 24&#45;&gt;16 -->
<g id="edge19" class="edge">
<title>24&#45;&gt;16</title>
<path fill="none" stroke="#c0c0c0" stroke-width="2" d="M237.5,-407.8468C237.5,-397.9251 237.5,-385.4167 237.5,-374.2492"/>
<polygon fill="#c0c0c0" stroke="#c0c0c0" stroke-width="2" points="241.0001,-374.0814 237.5,-364.0814 234.0001,-374.0814 241.0001,-374.0814"/>
</g>
<!-- 25&#45;&gt;17 -->
<g id="edge20" class="edge">
<title>25&#45;&gt;17</title>
<path fill="none" stroke="#c0c0c0" stroke-width="2" d="M336.9882,-407.8468C341.1653,-397.7205 346.4539,-384.8998 351.1314,-373.5602"/>
<polygon fill="#c0c0c0" stroke="#c0c0c0" stroke-width="2" points="354.4636,-374.6605 355.0414,-364.0814 347.9925,-371.9911 354.4636,-374.6605"/>
</g>
<!-- 26 -->
<g id="node26" class="node">
<title>26</title>
<path fill="none" stroke="#56d89a" stroke-width="2" d="M84.5,-588C84.5,-588 54.5,-588 54.5,-588 48.5,-588 42.5,-582 42.5,-576 42.5,-576 42.5,-564 42.5,-564 42.5,-558 48.5,-552 54.5,-552 54.5,-552 84.5,-552 84.5,-552 90.5,-552 96.5,-558 96.5,-564 96.5,-564 96.5,-576 96.5,-576 96.5,-582 90.5,-588 84.5,-588"/>
<text text-anchor="middle" x="69.5" y="-567.5" font-family="sans" font-size="10.00" fill="#000000">ragtag</text>
</g>
<!-- 26&#45;&gt;18 -->
<g id="edge21" class="edge">
<title>26&#45;&gt;18</title>
<path fill="none" stroke="#c0c0c0" stroke-width="2" d="M69.5,-551.8314C69.5,-544.131 69.5,-534.9743 69.5,-526.4166"/>
<polygon fill="#c0c0c0" stroke="#c0c0c0" stroke-width="2" points="73.0001,-526.4132 69.5,-516.4133 66.0001,-526.4133 73.0001,-526.4132"/>
</g>
<!-- 27 -->
<g id="node27" class="node">
<title>27</title>
<path fill="none" stroke="#56d89a" stroke-width="2" d="M505.5,-588C505.5,-588 475.5,-588 475.5,-588 469.5,-588 463.5,-582 463.5,-576 463.5,-576 463.5,-564 463.5,-564 463.5,-558 469.5,-552 475.5,-552 475.5,-552 505.5,-552 505.5,-552 511.5,-552 517.5,-558 517.5,-564 517.5,-564 517.5,-576 517.5,-576 517.5,-582 511.5,-588 505.5,-588"/>
<text text-anchor="middle" x="490.5" y="-567.5" font-family="sans" font-size="10.00" fill="#000000">ragtag</text>
</g>
<!-- 27&#45;&gt;20 -->
<g id="edge23" class="edge">
<title>27&#45;&gt;20</title>
<path fill="none" stroke="#c0c0c0" stroke-width="2" d="M490.5,-551.8314C490.5,-544.131 490.5,-534.9743 490.5,-526.4166"/>
<polygon fill="#c0c0c0" stroke="#c0c0c0" stroke-width="2" points="494.0001,-526.4132 490.5,-516.4133 487.0001,-526.4133 494.0001,-526.4132"/>
</g>
<!-- 28 -->
<g id="node28" class="node">
<title>28</title>
<path fill="none" stroke="#ced856" stroke-width="2" d="M209.5,-660C209.5,-660 135.5,-660 135.5,-660 129.5,-660 123.5,-654 123.5,-648 123.5,-648 123.5,-636 123.5,-636 123.5,-630 129.5,-624 135.5,-624 135.5,-624 209.5,-624 209.5,-624 215.5,-624 221.5,-630 221.5,-636 221.5,-636 221.5,-648 221.5,-648 221.5,-654 215.5,-660 209.5,-660"/>
<text text-anchor="middle" x="172.5" y="-645" font-family="sans" font-size="10.00" fill="#000000">map_to_genome</text>
<text text-anchor="middle" x="172.5" y="-634" font-family="sans" font-size="10.00" fill="#000000">indiv: BB31</text>
</g>
<!-- 28&#45;&gt;22 -->
<g id="edge25" class="edge">
<title>28&#45;&gt;22</title>
<path fill="none" stroke="#c0c0c0" stroke-width="2" d="M172.5,-623.8314C172.5,-616.131 172.5,-606.9743 172.5,-598.4166"/>
<polygon fill="#c0c0c0" stroke="#c0c0c0" stroke-width="2" points="176.0001,-598.4132 172.5,-588.4133 169.0001,-598.4133 176.0001,-598.4132"/>
</g>
<!-- 29 -->
<g id="node29" class="node">
<title>29</title>
<path fill="none" stroke="#ced856" stroke-width="2" d="M424.5,-660C424.5,-660 350.5,-660 350.5,-660 344.5,-660 338.5,-654 338.5,-648 338.5,-648 338.5,-636 338.5,-636 338.5,-630 344.5,-624 350.5,-624 350.5,-624 424.5,-624 424.5,-624 430.5,-624 436.5,-630 436.5,-636 436.5,-636 436.5,-648 436.5,-648 436.5,-654 430.5,-660 424.5,-660"/>
<text text-anchor="middle" x="387.5" y="-645" font-family="sans" font-size="10.00" fill="#000000">map_to_genome</text>
<text text-anchor="middle" x="387.5" y="-634" font-family="sans" font-size="10.00" fill="#000000">indiv: BB55</text>
</g>
<!-- 29&#45;&gt;23 -->
<g id="edge26" class="edge">
<title>29&#45;&gt;23</title>
<path fill="none" stroke="#c0c0c0" stroke-width="2" d="M387.5,-623.8314C387.5,-616.131 387.5,-606.9743 387.5,-598.4166"/>
<polygon fill="#c0c0c0" stroke="#c0c0c0" stroke-width="2" points="391.0001,-598.4132 387.5,-588.4133 384.0001,-598.4133 391.0001,-598.4132"/>
</g>
<!-- 30 -->
<g id="node30" class="node">
<title>30</title>
<path fill="none" stroke="#d8ac56" stroke-width="2" d="M310,-734.5C310,-734.5 261,-734.5 261,-734.5 255,-734.5 249,-728.5 249,-722.5 249,-722.5 249,-710.5 249,-710.5 249,-704.5 255,-698.5 261,-698.5 261,-698.5 310,-698.5 310,-698.5 316,-698.5 322,-704.5 322,-710.5 322,-710.5 322,-722.5 322,-722.5 322,-728.5 316,-734.5 310,-734.5"/>
<text text-anchor="middle" x="285.5" y="-714" font-family="sans" font-size="10.00" fill="#000000">prepare_ref</text>
</g>
<!-- 30&#45;&gt;24 -->
<g id="edge28" class="edge">
<title>30&#45;&gt;24</title>
<path fill="none" stroke="#c0c0c0" stroke-width="2" d="M282.4974,-698.3279C274.3823,-649.2149 251.966,-513.5496 242.1762,-454.3009"/>
<polygon fill="#c0c0c0" stroke="#c0c0c0" stroke-width="2" points="245.585,-453.4608 240.5015,-444.1652 238.6786,-454.602 245.585,-453.4608"/>
</g>
<!-- 30&#45;&gt;25 -->
<g id="edge30" class="edge">
<title>30&#45;&gt;25</title>
<path fill="none" stroke="#c0c0c0" stroke-width="2" d="M288.2524,-698.3279C295.6912,-649.2149 316.2395,-513.5496 325.2135,-454.3009"/>
<polygon fill="#c0c0c0" stroke="#c0c0c0" stroke-width="2" points="328.7115,-454.5766 326.7486,-444.1652 321.7905,-453.5283 328.7115,-454.5766"/>
</g>
<!-- 30&#45;&gt;28 -->
<g id="edge34" class="edge">
<title>30&#45;&gt;28</title>
<path fill="none" stroke="#c0c0c0" stroke-width="2" d="M258.1459,-698.4656C243.2657,-688.6552 224.6713,-676.3961 208.614,-665.8096"/>
<polygon fill="#c0c0c0" stroke="#c0c0c0" stroke-width="2" points="210.2692,-662.7088 199.9939,-660.1265 206.4162,-668.5529 210.2692,-662.7088"/>
</g>
<!-- 30&#45;&gt;29 -->
<g id="edge36" class="edge">
<title>30&#45;&gt;29</title>
<path fill="none" stroke="#c0c0c0" stroke-width="2" d="M310.1914,-698.4656C323.4987,-688.7461 340.0968,-676.6229 354.4984,-666.1041"/>
<polygon fill="#c0c0c0" stroke="#c0c0c0" stroke-width="2" points="356.6715,-668.8511 362.6825,-660.1265 352.5427,-663.1983 356.6715,-668.8511"/>
</g>
<!-- 31 -->
<g id="node31" class="node">
<title>31</title>
<path fill="none" stroke="#61d856" stroke-width="2" d="M93.5,-660C93.5,-660 45.5,-660 45.5,-660 39.5,-660 33.5,-654 33.5,-648 33.5,-648 33.5,-636 33.5,-636 33.5,-630 39.5,-624 45.5,-624 45.5,-624 93.5,-624 93.5,-624 99.5,-624 105.5,-630 105.5,-636 105.5,-636 105.5,-648 105.5,-648 105.5,-654 99.5,-660 93.5,-660"/>
<text text-anchor="middle" x="69.5" y="-645" font-family="sans" font-size="10.00" fill="#000000">flye</text>
<text text-anchor="middle" x="69.5" y="-634" font-family="sans" font-size="10.00" fill="#000000">indiv: BB31</text>
</g>
<!-- 31&#45;&gt;26 -->
<g id="edge31" class="edge">
<title>31&#45;&gt;26</title>
<path fill="none" stroke="#c0c0c0" stroke-width="2" d="M69.5,-623.8314C69.5,-616.131 69.5,-606.9743 69.5,-598.4166"/>
<polygon fill="#c0c0c0" stroke="#c0c0c0" stroke-width="2" points="73.0001,-598.4132 69.5,-588.4133 66.0001,-598.4133 73.0001,-598.4132"/>
</g>
<!-- 32 -->
<g id="node32" class="node">
<title>32</title>
<path fill="none" stroke="#61d856" stroke-width="2" d="M514.5,-660C514.5,-660 466.5,-660 466.5,-660 460.5,-660 454.5,-654 454.5,-648 454.5,-648 454.5,-636 454.5,-636 454.5,-630 460.5,-624 466.5,-624 466.5,-624 514.5,-624 514.5,-624 520.5,-624 526.5,-630 526.5,-636 526.5,-636 526.5,-648 526.5,-648 526.5,-654 520.5,-660 514.5,-660"/>
<text text-anchor="middle" x="490.5" y="-645" font-family="sans" font-size="10.00" fill="#000000">flye</text>
<text text-anchor="middle" x="490.5" y="-634" font-family="sans" font-size="10.00" fill="#000000">indiv: BB55</text>
</g>
<!-- 32&#45;&gt;27 -->
<g id="edge32" class="edge">
<title>32&#45;&gt;27</title>
<path fill="none" stroke="#c0c0c0" stroke-width="2" d="M490.5,-623.8314C490.5,-616.131 490.5,-606.9743 490.5,-598.4166"/>
<polygon fill="#c0c0c0" stroke="#c0c0c0" stroke-width="2" points="494.0001,-598.4132 490.5,-588.4133 487.0001,-598.4133 494.0001,-598.4132"/>
</g>
<!-- 33 -->
<g id="node33" class="node">
<title>33</title>
<path fill="none" stroke="#56d8d0" stroke-width="2" d="M171,-737C171,-737 82,-737 82,-737 76,-737 70,-731 70,-725 70,-725 70,-708 70,-708 70,-702 76,-696 82,-696 82,-696 171,-696 171,-696 177,-696 183,-702 183,-708 183,-708 183,-725 183,-725 183,-731 177,-737 171,-737"/>
<text text-anchor="middle" x="126.5" y="-725" font-family="sans" font-size="10.00" fill="#000000">compress_reads</text>
<text text-anchor="middle" x="126.5" y="-714" font-family="sans" font-size="10.00" fill="#000000">file: BB31</text>
<text text-anchor="middle" x="126.5" y="-703" font-family="sans" font-size="10.00" fill="#000000">path: 010_porechop</text>
</g>
<!-- 33&#45;&gt;28 -->
<g id="edge33" class="edge">
<title>33&#45;&gt;28</title>
<path fill="none" stroke="#c0c0c0" stroke-width="2" d="M139.3136,-695.7476C144.4975,-687.352 150.5465,-677.5551 156.0497,-668.6423"/>
<polygon fill="#c0c0c0" stroke="#c0c0c0" stroke-width="2" points="159.0431,-670.4562 161.3188,-660.1087 153.087,-666.7786 159.0431,-670.4562"/>
</g>
<!-- 33&#45;&gt;31 -->
<g id="edge37" class="edge">
<title>33&#45;&gt;31</title>
<path fill="none" stroke="#c0c0c0" stroke-width="2" d="M110.6223,-695.7476C104.065,-687.177 96.3905,-677.1463 89.4587,-668.0864"/>
<polygon fill="#c0c0c0" stroke="#c0c0c0" stroke-width="2" points="92.2112,-665.924 83.355,-660.1087 86.6517,-670.1775 92.2112,-665.924"/>
</g>
<!-- 34 -->
<g id="node34" class="node">
<title>34</title>
<path fill="none" stroke="#56d8d0" stroke-width="2" d="M448,-737C448,-737 359,-737 359,-737 353,-737 347,-731 347,-725 347,-725 347,-708 347,-708 347,-702 353,-696 359,-696 359,-696 448,-696 448,-696 454,-696 460,-702 460,-708 460,-708 460,-725 460,-725 460,-731 454,-737 448,-737"/>
<text text-anchor="middle" x="403.5" y="-725" font-family="sans" font-size="10.00" fill="#000000">compress_reads</text>
<text text-anchor="middle" x="403.5" y="-714" font-family="sans" font-size="10.00" fill="#000000">file: BB55</text>
<text text-anchor="middle" x="403.5" y="-703" font-family="sans" font-size="10.00" fill="#000000">path: 010_porechop</text>
</g>
<!-- 34&#45;&gt;29 -->
<g id="edge35" class="edge">
<title>34&#45;&gt;29</title>
<path fill="none" stroke="#c0c0c0" stroke-width="2" d="M399.0431,-695.7476C397.3339,-687.7892 395.3544,-678.5718 393.5224,-670.0418"/>
<polygon fill="#c0c0c0" stroke="#c0c0c0" stroke-width="2" points="396.9109,-669.1508 391.3891,-660.1087 390.067,-670.6207 396.9109,-669.1508"/>
</g>
<!-- 34&#45;&gt;32 -->
<g id="edge38" class="edge">
<title>34&#45;&gt;32</title>
<path fill="none" stroke="#c0c0c0" stroke-width="2" d="M427.7344,-695.7476C438.2536,-686.7398 450.6564,-676.119 461.6469,-666.7076"/>
<polygon fill="#c0c0c0" stroke="#c0c0c0" stroke-width="2" points="464.0338,-669.2715 469.353,-660.1087 459.4808,-663.9545 464.0338,-669.2715"/>
</g>
<!-- 35 -->
<g id="node35" class="node">
<title>35</title>
<path fill="none" stroke="#56c1d8" stroke-width="2" d="M174.5,-809C174.5,-809 78.5,-809 78.5,-809 72.5,-809 66.5,-803 66.5,-797 66.5,-797 66.5,-785 66.5,-785 66.5,-779 72.5,-773 78.5,-773 78.5,-773 174.5,-773 174.5,-773 180.5,-773 186.5,-779 186.5,-785 186.5,-785 186.5,-797 186.5,-797 186.5,-803 180.5,-809 174.5,-809"/>
<text text-anchor="middle" x="126.5" y="-788.5" font-family="sans" font-size="10.00" fill="#000000">combine_indiv_reads</text>
</g>
<!-- 35&#45;&gt;33 -->
<g id="edge39" class="edge">
<title>35&#45;&gt;33</title>
<path fill="none" stroke="#c0c0c0" stroke-width="2" d="M126.5,-772.9656C126.5,-765.3118 126.5,-756.1674 126.5,-747.4898"/>
<polygon fill="#c0c0c0" stroke="#c0c0c0" stroke-width="2" points="130.0001,-747.2678 126.5,-737.2679 123.0001,-747.2679 130.0001,-747.2678"/>
</g>
<!-- 36 -->
<g id="node36" class="node">
<title>36</title>
<path fill="none" stroke="#56c1d8" stroke-width="2" d="M451.5,-809C451.5,-809 355.5,-809 355.5,-809 349.5,-809 343.5,-803 343.5,-797 343.5,-797 343.5,-785 343.5,-785 343.5,-779 349.5,-773 355.5,-773 355.5,-773 451.5,-773 451.5,-773 457.5,-773 463.5,-779 463.5,-785 463.5,-785 463.5,-797 463.5,-797 463.5,-803 457.5,-809 451.5,-809"/>
<text text-anchor="middle" x="403.5" y="-788.5" font-family="sans" font-size="10.00" fill="#000000">combine_indiv_reads</text>
</g>
<!-- 36&#45;&gt;34 -->
<g id="edge40" class="edge">
<title>36&#45;&gt;34</title>
<path fill="none" stroke="#c0c0c0" stroke-width="2" d="M403.5,-772.9656C403.5,-765.3118 403.5,-756.1674 403.5,-747.4898"/>
<polygon fill="#c0c0c0" stroke="#c0c0c0" stroke-width="2" points="407.0001,-747.2678 403.5,-737.2679 400.0001,-747.2679 407.0001,-747.2678"/>
</g>
<!-- 37 -->
<g id="node37" class="node">
<title>37</title>
<path fill="none" stroke="#56d882" stroke-width="2" d="M150.5,-886C150.5,-886 102.5,-886 102.5,-886 96.5,-886 90.5,-880 90.5,-874 90.5,-874 90.5,-857 90.5,-857 90.5,-851 96.5,-845 102.5,-845 102.5,-845 150.5,-845 150.5,-845 156.5,-845 162.5,-851 162.5,-857 162.5,-857 162.5,-874 162.5,-874 162.5,-880 156.5,-886 150.5,-886"/>
<text text-anchor="middle" x="126.5" y="-874" font-family="sans" font-size="10.00" fill="#000000">porechop</text>
<text text-anchor="middle" x="126.5" y="-863" font-family="sans" font-size="10.00" fill="#000000">indiv: BB31</text>
<text text-anchor="middle" x="126.5" y="-852" font-family="sans" font-size="10.00" fill="#000000">read: test</text>
</g>
<!-- 37&#45;&gt;35 -->
<g id="edge41" class="edge">
<title>37&#45;&gt;35</title>
<path fill="none" stroke="#c0c0c0" stroke-width="2" d="M126.5,-844.7476C126.5,-836.8767 126.5,-827.7743 126.5,-819.3232"/>
<polygon fill="#c0c0c0" stroke="#c0c0c0" stroke-width="2" points="130.0001,-819.1086 126.5,-809.1087 123.0001,-819.1087 130.0001,-819.1086"/>
</g>
<!-- 38 -->
<g id="node38" class="node">
<title>38</title>
<path fill="none" stroke="#56d882" stroke-width="2" d="M427.5,-886C427.5,-886 379.5,-886 379.5,-886 373.5,-886 367.5,-880 367.5,-874 367.5,-874 367.5,-857 367.5,-857 367.5,-851 373.5,-845 379.5,-845 379.5,-845 427.5,-845 427.5,-845 433.5,-845 439.5,-851 439.5,-857 439.5,-857 439.5,-874 439.5,-874 439.5,-880 433.5,-886 427.5,-886"/>
<text text-anchor="middle" x="403.5" y="-874" font-family="sans" font-size="10.00" fill="#000000">porechop</text>
<text text-anchor="middle" x="403.5" y="-863" font-family="sans" font-size="10.00" fill="#000000">indiv: BB55</text>
<text text-anchor="middle" x="403.5" y="-852" font-family="sans" font-size="10.00" fill="#000000">read: test</text>
</g>
<!-- 38&#45;&gt;36 -->
<g id="edge42" class="edge">
<title>38&#45;&gt;36</title>
<path fill="none" stroke="#c0c0c0" stroke-width="2" d="M403.5,-844.7476C403.5,-836.8767 403.5,-827.7743 403.5,-819.3232"/>
<polygon fill="#c0c0c0" stroke="#c0c0c0" stroke-width="2" points="407.0001,-819.1086 403.5,-809.1087 400.0001,-819.1087 407.0001,-819.1086"/>
</g>
</g>
</svg>
