<?xml version="1.0" encoding="UTF-8" standalone="no"?>
<!DOCTYPE svg PUBLIC "-//W3C//DTD SVG 1.1//EN"
 "http://www.w3.org/Graphics/SVG/1.1/DTD/svg11.dtd">
<!-- Generated by graphviz version 2.40.1 (20161225.0304)
 -->
<!-- Title: snakemake_dag Pages: 1 -->
<svg width="538pt" height="790pt"
 viewBox="0.00 0.00 538.00 790.00" xmlns="http://www.w3.org/2000/svg" xmlns:xlink="http://www.w3.org/1999/xlink">
<g id="graph0" class="graph" transform="scale(1 1) rotate(0) translate(4 786)">
<title>snakemake_dag</title>
<polygon fill="#ffffff" stroke="transparent" points="-4,4 -4,-786 534,-786 534,4 -4,4"/>
<!-- 1 -->
<g id="node1" class="node">
<title>1</title>
<path fill="none" stroke="#59d856" stroke-width="2" d="M143,-108C143,-108 81,-108 81,-108 75,-108 69,-102 69,-96 69,-96 69,-84 69,-84 69,-78 75,-72 81,-72 81,-72 143,-72 143,-72 149,-72 155,-78 155,-84 155,-84 155,-96 155,-96 155,-102 149,-108 143,-108"/>
<text text-anchor="middle" x="112" y="-87.5" font-family="sans" font-size="10.00" fill="#000000">index_bamfile</text>
</g>
<!-- 2 -->
<g id="node2" class="node">
<title>2</title>
<path fill="none" stroke="#59d856" stroke-width="2" d="M351,-108C351,-108 289,-108 289,-108 283,-108 277,-102 277,-96 277,-96 277,-84 277,-84 277,-78 283,-72 289,-72 289,-72 351,-72 351,-72 357,-72 363,-78 363,-84 363,-84 363,-96 363,-96 363,-102 357,-108 351,-108"/>
<text text-anchor="middle" x="320" y="-87.5" font-family="sans" font-size="10.00" fill="#000000">index_bamfile</text>
</g>
<!-- 3 -->
<g id="node3" class="node">
<title>3</title>
<path fill="none" stroke="#56c9d8" stroke-width="2" d="M238,-36C238,-36 188,-36 188,-36 182,-36 176,-30 176,-24 176,-24 176,-12 176,-12 176,-6 182,0 188,0 188,0 238,0 238,0 244,0 250,-6 250,-12 250,-12 250,-24 250,-24 250,-30 244,-36 238,-36"/>
<text text-anchor="middle" x="213" y="-15.5" font-family="sans" font-size="10.00" fill="#000000">sam_to_paf</text>
</g>
<!-- 4 -->
<g id="node4" class="node">
<title>4</title>
<path fill="none" stroke="#56c9d8" stroke-width="2" d="M446,-36C446,-36 396,-36 396,-36 390,-36 384,-30 384,-24 384,-24 384,-12 384,-12 384,-6 390,0 396,0 396,0 446,0 446,0 452,0 458,-6 458,-12 458,-12 458,-24 458,-24 458,-30 452,-36 446,-36"/>
<text text-anchor="middle" x="421" y="-15.5" font-family="sans" font-size="10.00" fill="#000000">sam_to_paf</text>
</g>
<!-- 5 -->
<g id="node5" class="node">
<title>5</title>
<path fill="none" stroke="#56d873" stroke-width="2" d="M93.5,-340C93.5,-340 22.5,-340 22.5,-340 16.5,-340 10.5,-334 10.5,-328 10.5,-328 10.5,-300 10.5,-300 10.5,-294 16.5,-288 22.5,-288 22.5,-288 93.5,-288 93.5,-288 99.5,-288 105.5,-294 105.5,-300 105.5,-300 105.5,-328 105.5,-328 105.5,-334 99.5,-340 93.5,-340"/>
<text text-anchor="middle" x="58" y="-328" font-family="sans" font-size="10.00" fill="#000000">index_fa</text>
<text text-anchor="middle" x="58" y="-317" font-family="sans" font-size="10.00" fill="#000000">ext: fa</text>
<text text-anchor="middle" x="58" y="-306" font-family="sans" font-size="10.00" fill="#000000">file: BB31</text>
<text text-anchor="middle" x="58" y="-295" font-family="sans" font-size="10.00" fill="#000000">folder: 027_split</text>
</g>
<!-- 6 -->
<g id="node6" class="node">
<title>6</title>
<path fill="none" stroke="#56d873" stroke-width="2" d="M507.5,-340C507.5,-340 436.5,-340 436.5,-340 430.5,-340 424.5,-334 424.5,-328 424.5,-328 424.5,-300 424.5,-300 424.5,-294 430.5,-288 436.5,-288 436.5,-288 507.5,-288 507.5,-288 513.5,-288 519.5,-294 519.5,-300 519.5,-300 519.5,-328 519.5,-328 519.5,-334 513.5,-340 507.5,-340"/>
<text text-anchor="middle" x="472" y="-328" font-family="sans" font-size="10.00" fill="#000000">index_fa</text>
<text text-anchor="middle" x="472" y="-317" font-family="sans" font-size="10.00" fill="#000000">ext: fa</text>
<text text-anchor="middle" x="472" y="-306" font-family="sans" font-size="10.00" fill="#000000">file: BB55</text>
<text text-anchor="middle" x="472" y="-295" font-family="sans" font-size="10.00" fill="#000000">folder: 027_split</text>
</g>
<!-- 7 -->
<g id="node7" class="node">
<title>7</title>
<path fill="none" stroke="#56d8c9" stroke-width="2" d="M171,-332C171,-332 141,-332 141,-332 135,-332 129,-326 129,-320 129,-320 129,-308 129,-308 129,-302 135,-296 141,-296 141,-296 171,-296 171,-296 177,-296 183,-302 183,-308 183,-308 183,-320 183,-320 183,-326 177,-332 171,-332"/>
<text text-anchor="middle" x="156" y="-311.5" font-family="sans" font-size="10.00" fill="#000000">sniffles</text>
</g>
<!-- 8 -->
<g id="node8" class="node">
<title>8</title>
<path fill="none" stroke="#56d8c9" stroke-width="2" d="M393,-332C393,-332 363,-332 363,-332 357,-332 351,-326 351,-320 351,-320 351,-308 351,-308 351,-302 357,-296 363,-296 363,-296 393,-296 393,-296 399,-296 405,-302 405,-308 405,-308 405,-320 405,-320 405,-326 399,-332 393,-332"/>
<text text-anchor="middle" x="378" y="-311.5" font-family="sans" font-size="10.00" fill="#000000">sniffles</text>
</g>
<!-- 9 -->
<g id="node9" class="node">
<title>9</title>
<path fill="none" stroke="#d8cb56" stroke-width="2" d="M225,-180C225,-180 195,-180 195,-180 189,-180 183,-174 183,-168 183,-168 183,-156 183,-156 183,-150 189,-144 195,-144 195,-144 225,-144 225,-144 231,-144 237,-150 237,-156 237,-156 237,-168 237,-168 237,-174 231,-180 225,-180"/>
<text text-anchor="middle" x="210" y="-159.5" font-family="sans" font-size="10.00" fill="#000000">sort</text>
</g>
<!-- 9&#45;&gt;1 -->
<g id="edge1" class="edge">
<title>9&#45;&gt;1</title>
<path fill="none" stroke="#c0c0c0" stroke-width="2" d="M185.2705,-143.8314C173.0838,-134.8779 158.2177,-123.9558 145.0688,-114.2955"/>
<polygon fill="#c0c0c0" stroke="#c0c0c0" stroke-width="2" points="146.8527,-111.263 136.7216,-108.1628 142.7082,-116.9042 146.8527,-111.263"/>
</g>
<!-- 11 -->
<g id="node11" class="node">
<title>11</title>
<path fill="none" stroke="#d85656" stroke-width="2" d="M241,-108C241,-108 185,-108 185,-108 179,-108 173,-102 173,-96 173,-96 173,-84 173,-84 173,-78 179,-72 185,-72 185,-72 241,-72 241,-72 247,-72 253,-78 253,-84 253,-84 253,-96 253,-96 253,-102 247,-108 241,-108"/>
<text text-anchor="middle" x="213" y="-87.5" font-family="sans" font-size="10.00" fill="#000000">bam_to_sam</text>
</g>
<!-- 9&#45;&gt;11 -->
<g id="edge11" class="edge">
<title>9&#45;&gt;11</title>
<path fill="none" stroke="#c0c0c0" stroke-width="2" d="M210.757,-143.8314C211.0779,-136.131 211.4594,-126.9743 211.816,-118.4166"/>
<polygon fill="#c0c0c0" stroke="#c0c0c0" stroke-width="2" points="215.3133,-118.5503 212.2328,-108.4133 208.3194,-118.2589 215.3133,-118.5503"/>
</g>
<!-- 10 -->
<g id="node10" class="node">
<title>10</title>
<path fill="none" stroke="#d8cb56" stroke-width="2" d="M338,-180C338,-180 308,-180 308,-180 302,-180 296,-174 296,-168 296,-168 296,-156 296,-156 296,-150 302,-144 308,-144 308,-144 338,-144 338,-144 344,-144 350,-150 350,-156 350,-156 350,-168 350,-168 350,-174 344,-180 338,-180"/>
<text text-anchor="middle" x="323" y="-159.5" font-family="sans" font-size="10.00" fill="#000000">sort</text>
</g>
<!-- 10&#45;&gt;2 -->
<g id="edge2" class="edge">
<title>10&#45;&gt;2</title>
<path fill="none" stroke="#c0c0c0" stroke-width="2" d="M322.243,-143.8314C321.9221,-136.131 321.5406,-126.9743 321.184,-118.4166"/>
<polygon fill="#c0c0c0" stroke="#c0c0c0" stroke-width="2" points="324.6806,-118.2589 320.7672,-108.4133 317.6867,-118.5503 324.6806,-118.2589"/>
</g>
<!-- 12 -->
<g id="node12" class="node">
<title>12</title>
<path fill="none" stroke="#d85656" stroke-width="2" d="M449,-108C449,-108 393,-108 393,-108 387,-108 381,-102 381,-96 381,-96 381,-84 381,-84 381,-78 387,-72 393,-72 393,-72 449,-72 449,-72 455,-72 461,-78 461,-84 461,-84 461,-96 461,-96 461,-102 455,-108 449,-108"/>
<text text-anchor="middle" x="421" y="-87.5" font-family="sans" font-size="10.00" fill="#000000">bam_to_sam</text>
</g>
<!-- 10&#45;&gt;12 -->
<g id="edge12" class="edge">
<title>10&#45;&gt;12</title>
<path fill="none" stroke="#c0c0c0" stroke-width="2" d="M347.7295,-143.8314C359.9162,-134.8779 374.7823,-123.9558 387.9312,-114.2955"/>
<polygon fill="#c0c0c0" stroke="#c0c0c0" stroke-width="2" points="390.2918,-116.9042 396.2784,-108.1628 386.1473,-111.263 390.2918,-116.9042"/>
</g>
<!-- 11&#45;&gt;3 -->
<g id="edge3" class="edge">
<title>11&#45;&gt;3</title>
<path fill="none" stroke="#c0c0c0" stroke-width="2" d="M213,-71.8314C213,-64.131 213,-54.9743 213,-46.4166"/>
<polygon fill="#c0c0c0" stroke="#c0c0c0" stroke-width="2" points="216.5001,-46.4132 213,-36.4133 209.5001,-46.4133 216.5001,-46.4132"/>
</g>
<!-- 12&#45;&gt;4 -->
<g id="edge4" class="edge">
<title>12&#45;&gt;4</title>
<path fill="none" stroke="#c0c0c0" stroke-width="2" d="M421,-71.8314C421,-64.131 421,-54.9743 421,-46.4166"/>
<polygon fill="#c0c0c0" stroke="#c0c0c0" stroke-width="2" points="424.5001,-46.4132 421,-36.4133 417.5001,-46.4133 424.5001,-46.4132"/>
</g>
<!-- 13 -->
<g id="node13" class="node">
<title>13</title>
<path fill="none" stroke="#5692d8" stroke-width="2" d="M104,-412C104,-412 12,-412 12,-412 6,-412 0,-406 0,-400 0,-400 0,-388 0,-388 0,-382 6,-376 12,-376 12,-376 104,-376 104,-376 110,-376 116,-382 116,-388 116,-388 116,-400 116,-400 116,-406 110,-412 104,-412"/>
<text text-anchor="middle" x="58" y="-391.5" font-family="sans" font-size="10.00" fill="#000000">split_scaffolds_on_n</text>
</g>
<!-- 13&#45;&gt;5 -->
<g id="edge5" class="edge">
<title>13&#45;&gt;5</title>
<path fill="none" stroke="#c0c0c0" stroke-width="2" d="M58,-375.8468C58,-368.2921 58,-359.2376 58,-350.4174"/>
<polygon fill="#c0c0c0" stroke="#c0c0c0" stroke-width="2" points="61.5001,-350.2746 58,-340.2746 54.5001,-350.2747 61.5001,-350.2746"/>
</g>
<!-- 23 -->
<g id="node23" class="node">
<title>23</title>
<path fill="none" stroke="#56d892" stroke-width="2" d="M243,-332C243,-332 213,-332 213,-332 207,-332 201,-326 201,-320 201,-320 201,-308 201,-308 201,-302 207,-296 213,-296 213,-296 243,-296 243,-296 249,-296 255,-302 255,-308 255,-308 255,-320 255,-320 255,-326 249,-332 243,-332"/>
<text text-anchor="middle" x="228" y="-311.5" font-family="sans" font-size="10.00" fill="#000000">wga</text>
</g>
<!-- 13&#45;&gt;23 -->
<g id="edge23" class="edge">
<title>13&#45;&gt;23</title>
<path fill="none" stroke="#c0c0c0" stroke-width="2" d="M111.2151,-375.9483C136.3676,-366.5703 166.4169,-354.1186 192,-340 193.3078,-339.2783 194.6238,-338.5168 195.9394,-337.7259"/>
<polygon fill="#c0c0c0" stroke="#c0c0c0" stroke-width="2" points="198.0193,-340.5492 204.5219,-332.1846 194.2223,-334.6684 198.0193,-340.5492"/>
</g>
<!-- 14 -->
<g id="node14" class="node">
<title>14</title>
<path fill="none" stroke="#5692d8" stroke-width="2" d="M518,-412C518,-412 426,-412 426,-412 420,-412 414,-406 414,-400 414,-400 414,-388 414,-388 414,-382 420,-376 426,-376 426,-376 518,-376 518,-376 524,-376 530,-382 530,-388 530,-388 530,-400 530,-400 530,-406 524,-412 518,-412"/>
<text text-anchor="middle" x="472" y="-391.5" font-family="sans" font-size="10.00" fill="#000000">split_scaffolds_on_n</text>
</g>
<!-- 14&#45;&gt;6 -->
<g id="edge6" class="edge">
<title>14&#45;&gt;6</title>
<path fill="none" stroke="#c0c0c0" stroke-width="2" d="M472,-375.8468C472,-368.2921 472,-359.2376 472,-350.4174"/>
<polygon fill="#c0c0c0" stroke="#c0c0c0" stroke-width="2" points="475.5001,-350.2746 472,-340.2746 468.5001,-350.2747 475.5001,-350.2746"/>
</g>
<!-- 24 -->
<g id="node24" class="node">
<title>24</title>
<path fill="none" stroke="#56d892" stroke-width="2" d="M321,-332C321,-332 291,-332 291,-332 285,-332 279,-326 279,-320 279,-320 279,-308 279,-308 279,-302 285,-296 291,-296 291,-296 321,-296 321,-296 327,-296 333,-302 333,-308 333,-308 333,-320 333,-320 333,-326 327,-332 321,-332"/>
<text text-anchor="middle" x="306" y="-311.5" font-family="sans" font-size="10.00" fill="#000000">wga</text>
</g>
<!-- 14&#45;&gt;24 -->
<g id="edge25" class="edge">
<title>14&#45;&gt;24</title>
<path fill="none" stroke="#c0c0c0" stroke-width="2" d="M421.0314,-375.9857C396.5104,-366.5334 367.0674,-354.0082 342,-340 340.6961,-339.2713 339.3833,-338.504 338.0705,-337.7081"/>
<polygon fill="#c0c0c0" stroke="#c0c0c0" stroke-width="2" points="339.7932,-334.6537 329.4993,-332.1464 335.9828,-340.5258 339.7932,-334.6537"/>
</g>
<!-- 15 -->
<g id="node15" class="node">
<title>15</title>
<path fill="none" stroke="#d8cb56" stroke-width="2" d="M176,-412C176,-412 146,-412 146,-412 140,-412 134,-406 134,-400 134,-400 134,-388 134,-388 134,-382 140,-376 146,-376 146,-376 176,-376 176,-376 182,-376 188,-382 188,-388 188,-388 188,-400 188,-400 188,-406 182,-412 176,-412"/>
<text text-anchor="middle" x="161" y="-391.5" font-family="sans" font-size="10.00" fill="#000000">sort</text>
</g>
<!-- 15&#45;&gt;7 -->
<g id="edge7" class="edge">
<title>15&#45;&gt;7</title>
<path fill="none" stroke="#c0c0c0" stroke-width="2" d="M159.8654,-375.8468C159.2453,-365.9251 158.4635,-353.4167 157.7656,-342.2492"/>
<polygon fill="#c0c0c0" stroke="#c0c0c0" stroke-width="2" points="161.2471,-341.8436 157.1301,-332.0814 154.2608,-342.2803 161.2471,-341.8436"/>
</g>
<!-- 16 -->
<g id="node16" class="node">
<title>16</title>
<path fill="none" stroke="#d8cb56" stroke-width="2" d="M384,-412C384,-412 354,-412 354,-412 348,-412 342,-406 342,-400 342,-400 342,-388 342,-388 342,-382 348,-376 354,-376 354,-376 384,-376 384,-376 390,-376 396,-382 396,-388 396,-388 396,-400 396,-400 396,-406 390,-412 384,-412"/>
<text text-anchor="middle" x="369" y="-391.5" font-family="sans" font-size="10.00" fill="#000000">sort</text>
</g>
<!-- 16&#45;&gt;8 -->
<g id="edge8" class="edge">
<title>16&#45;&gt;8</title>
<path fill="none" stroke="#c0c0c0" stroke-width="2" d="M371.0422,-375.8468C372.1584,-365.9251 373.5656,-353.4167 374.822,-342.2492"/>
<polygon fill="#c0c0c0" stroke="#c0c0c0" stroke-width="2" points="378.3259,-342.41 375.9658,-332.0814 371.3697,-341.6274 378.3259,-342.41"/>
</g>
<!-- 17 -->
<g id="node17" class="node">
<title>17</title>
<path fill="none" stroke="#8fd856" stroke-width="2" d="M245.5,-252C245.5,-252 174.5,-252 174.5,-252 168.5,-252 162.5,-246 162.5,-240 162.5,-240 162.5,-228 162.5,-228 162.5,-222 168.5,-216 174.5,-216 174.5,-216 245.5,-216 245.5,-216 251.5,-216 257.5,-222 257.5,-228 257.5,-228 257.5,-240 257.5,-240 257.5,-246 251.5,-252 245.5,-252"/>
<text text-anchor="middle" x="210" y="-237" font-family="sans" font-size="10.00" fill="#000000">sam_to_bam</text>
<text text-anchor="middle" x="210" y="-226" font-family="sans" font-size="10.00" fill="#000000">folder: 040_wga</text>
</g>
<!-- 17&#45;&gt;9 -->
<g id="edge9" class="edge">
<title>17&#45;&gt;9</title>
<path fill="none" stroke="#c0c0c0" stroke-width="2" d="M210,-215.8314C210,-208.131 210,-198.9743 210,-190.4166"/>
<polygon fill="#c0c0c0" stroke="#c0c0c0" stroke-width="2" points="213.5001,-190.4132 210,-180.4133 206.5001,-190.4133 213.5001,-190.4132"/>
</g>
<!-- 18 -->
<g id="node18" class="node">
<title>18</title>
<path fill="none" stroke="#8fd856" stroke-width="2" d="M358.5,-252C358.5,-252 287.5,-252 287.5,-252 281.5,-252 275.5,-246 275.5,-240 275.5,-240 275.5,-228 275.5,-228 275.5,-222 281.5,-216 287.5,-216 287.5,-216 358.5,-216 358.5,-216 364.5,-216 370.5,-222 370.5,-228 370.5,-228 370.5,-240 370.5,-240 370.5,-246 364.5,-252 358.5,-252"/>
<text text-anchor="middle" x="323" y="-237" font-family="sans" font-size="10.00" fill="#000000">sam_to_bam</text>
<text text-anchor="middle" x="323" y="-226" font-family="sans" font-size="10.00" fill="#000000">folder: 040_wga</text>
</g>
<!-- 18&#45;&gt;10 -->
<g id="edge10" class="edge">
<title>18&#45;&gt;10</title>
<path fill="none" stroke="#c0c0c0" stroke-width="2" d="M323,-215.8314C323,-208.131 323,-198.9743 323,-190.4166"/>
<polygon fill="#c0c0c0" stroke="#c0c0c0" stroke-width="2" points="326.5001,-190.4132 323,-180.4133 319.5001,-190.4133 326.5001,-190.4132"/>
</g>
<!-- 19 -->
<g id="node19" class="node">
<title>19</title>
<path fill="none" stroke="#5673d8" stroke-width="2" d="M73,-484C73,-484 43,-484 43,-484 37,-484 31,-478 31,-472 31,-472 31,-460 31,-460 31,-454 37,-448 43,-448 43,-448 73,-448 73,-448 79,-448 85,-454 85,-460 85,-460 85,-472 85,-472 85,-478 79,-484 73,-484"/>
<text text-anchor="middle" x="58" y="-463.5" font-family="sans" font-size="10.00" fill="#000000">ragtag</text>
</g>
<!-- 19&#45;&gt;13 -->
<g id="edge13" class="edge">
<title>19&#45;&gt;13</title>
<path fill="none" stroke="#c0c0c0" stroke-width="2" d="M58,-447.8314C58,-440.131 58,-430.9743 58,-422.4166"/>
<polygon fill="#c0c0c0" stroke="#c0c0c0" stroke-width="2" points="61.5001,-422.4132 58,-412.4133 54.5001,-422.4133 61.5001,-422.4132"/>
</g>
<!-- 20 -->
<g id="node20" class="node">
<title>20</title>
<path fill="none" stroke="#5673d8" stroke-width="2" d="M487,-484C487,-484 457,-484 457,-484 451,-484 445,-478 445,-472 445,-472 445,-460 445,-460 445,-454 451,-448 457,-448 457,-448 487,-448 487,-448 493,-448 499,-454 499,-460 499,-460 499,-472 499,-472 499,-478 493,-484 487,-484"/>
<text text-anchor="middle" x="472" y="-463.5" font-family="sans" font-size="10.00" fill="#000000">ragtag</text>
</g>
<!-- 20&#45;&gt;14 -->
<g id="edge14" class="edge">
<title>20&#45;&gt;14</title>
<path fill="none" stroke="#c0c0c0" stroke-width="2" d="M472,-447.8314C472,-440.131 472,-430.9743 472,-422.4166"/>
<polygon fill="#c0c0c0" stroke="#c0c0c0" stroke-width="2" points="475.5001,-422.4132 472,-412.4133 468.5001,-422.4133 475.5001,-422.4132"/>
</g>
<!-- 21 -->
<g id="node21" class="node">
<title>21</title>
<path fill="none" stroke="#8fd856" stroke-width="2" d="M206,-484C206,-484 116,-484 116,-484 110,-484 104,-478 104,-472 104,-472 104,-460 104,-460 104,-454 110,-448 116,-448 116,-448 206,-448 206,-448 212,-448 218,-454 218,-460 218,-460 218,-472 218,-472 218,-478 212,-484 206,-484"/>
<text text-anchor="middle" x="161" y="-469" font-family="sans" font-size="10.00" fill="#000000">sam_to_bam</text>
<text text-anchor="middle" x="161" y="-458" font-family="sans" font-size="10.00" fill="#000000">folder: 030_mapped</text>
</g>
<!-- 21&#45;&gt;15 -->
<g id="edge15" class="edge">
<title>21&#45;&gt;15</title>
<path fill="none" stroke="#c0c0c0" stroke-width="2" d="M161,-447.8314C161,-440.131 161,-430.9743 161,-422.4166"/>
<polygon fill="#c0c0c0" stroke="#c0c0c0" stroke-width="2" points="164.5001,-422.4132 161,-412.4133 157.5001,-422.4133 164.5001,-422.4132"/>
</g>
<!-- 22 -->
<g id="node22" class="node">
<title>22</title>
<path fill="none" stroke="#8fd856" stroke-width="2" d="M414,-484C414,-484 324,-484 324,-484 318,-484 312,-478 312,-472 312,-472 312,-460 312,-460 312,-454 318,-448 324,-448 324,-448 414,-448 414,-448 420,-448 426,-454 426,-460 426,-460 426,-472 426,-472 426,-478 420,-484 414,-484"/>
<text text-anchor="middle" x="369" y="-469" font-family="sans" font-size="10.00" fill="#000000">sam_to_bam</text>
<text text-anchor="middle" x="369" y="-458" font-family="sans" font-size="10.00" fill="#000000">folder: 030_mapped</text>
</g>
<!-- 22&#45;&gt;16 -->
<g id="edge16" class="edge">
<title>22&#45;&gt;16</title>
<path fill="none" stroke="#c0c0c0" stroke-width="2" d="M369,-447.8314C369,-440.131 369,-430.9743 369,-422.4166"/>
<polygon fill="#c0c0c0" stroke="#c0c0c0" stroke-width="2" points="372.5001,-422.4132 369,-412.4133 365.5001,-422.4133 372.5001,-422.4132"/>
</g>
<!-- 23&#45;&gt;17 -->
<g id="edge17" class="edge">
<title>23&#45;&gt;17</title>
<path fill="none" stroke="#c0c0c0" stroke-width="2" d="M223.9155,-295.8468C221.6601,-285.8228 218.8107,-273.1585 216.2785,-261.9043"/>
<polygon fill="#c0c0c0" stroke="#c0c0c0" stroke-width="2" points="219.6781,-261.0692 214.0683,-252.0814 212.8489,-262.6058 219.6781,-261.0692"/>
</g>
<!-- 24&#45;&gt;18 -->
<g id="edge18" class="edge">
<title>24&#45;&gt;18</title>
<path fill="none" stroke="#c0c0c0" stroke-width="2" d="M309.8576,-295.8468C311.9876,-285.8228 314.6788,-273.1585 317.0703,-261.9043"/>
<polygon fill="#c0c0c0" stroke="#c0c0c0" stroke-width="2" points="320.5026,-262.5905 319.1577,-252.0814 313.6555,-261.1355 320.5026,-262.5905"/>
</g>
<!-- 25 -->
<g id="node25" class="node">
<title>25</title>
<path fill="none" stroke="#d88d56" stroke-width="2" d="M82,-556C82,-556 34,-556 34,-556 28,-556 22,-550 22,-544 22,-544 22,-532 22,-532 22,-526 28,-520 34,-520 34,-520 82,-520 82,-520 88,-520 94,-526 94,-532 94,-532 94,-544 94,-544 94,-550 88,-556 82,-556"/>
<text text-anchor="middle" x="58" y="-541" font-family="sans" font-size="10.00" fill="#000000">flye</text>
<text text-anchor="middle" x="58" y="-530" font-family="sans" font-size="10.00" fill="#000000">indiv: BB31</text>
</g>
<!-- 25&#45;&gt;19 -->
<g id="edge19" class="edge">
<title>25&#45;&gt;19</title>
<path fill="none" stroke="#c0c0c0" stroke-width="2" d="M58,-519.8314C58,-512.131 58,-502.9743 58,-494.4166"/>
<polygon fill="#c0c0c0" stroke="#c0c0c0" stroke-width="2" points="61.5001,-494.4132 58,-484.4133 54.5001,-494.4133 61.5001,-494.4132"/>
</g>
<!-- 26 -->
<g id="node26" class="node">
<title>26</title>
<path fill="none" stroke="#d88d56" stroke-width="2" d="M496,-556C496,-556 448,-556 448,-556 442,-556 436,-550 436,-544 436,-544 436,-532 436,-532 436,-526 442,-520 448,-520 448,-520 496,-520 496,-520 502,-520 508,-526 508,-532 508,-532 508,-544 508,-544 508,-550 502,-556 496,-556"/>
<text text-anchor="middle" x="472" y="-541" font-family="sans" font-size="10.00" fill="#000000">flye</text>
<text text-anchor="middle" x="472" y="-530" font-family="sans" font-size="10.00" fill="#000000">indiv: BB55</text>
</g>
<!-- 26&#45;&gt;20 -->
<g id="edge20" class="edge">
<title>26&#45;&gt;20</title>
<path fill="none" stroke="#c0c0c0" stroke-width="2" d="M472,-519.8314C472,-512.131 472,-502.9743 472,-494.4166"/>
<polygon fill="#c0c0c0" stroke="#c0c0c0" stroke-width="2" points="475.5001,-494.4132 472,-484.4133 468.5001,-494.4133 475.5001,-494.4132"/>
</g>
<!-- 27 -->
<g id="node27" class="node">
<title>27</title>
<path fill="none" stroke="#56a9d8" stroke-width="2" d="M198,-556C198,-556 124,-556 124,-556 118,-556 112,-550 112,-544 112,-544 112,-532 112,-532 112,-526 118,-520 124,-520 124,-520 198,-520 198,-520 204,-520 210,-526 210,-532 210,-532 210,-544 210,-544 210,-550 204,-556 198,-556"/>
<text text-anchor="middle" x="161" y="-541" font-family="sans" font-size="10.00" fill="#000000">map_to_genome</text>
<text text-anchor="middle" x="161" y="-530" font-family="sans" font-size="10.00" fill="#000000">indiv: BB31</text>
</g>
<!-- 27&#45;&gt;21 -->
<g id="edge21" class="edge">
<title>27&#45;&gt;21</title>
<path fill="none" stroke="#c0c0c0" stroke-width="2" d="M161,-519.8314C161,-512.131 161,-502.9743 161,-494.4166"/>
<polygon fill="#c0c0c0" stroke="#c0c0c0" stroke-width="2" points="164.5001,-494.4132 161,-484.4133 157.5001,-494.4133 164.5001,-494.4132"/>
</g>
<!-- 28 -->
<g id="node28" class="node">
<title>28</title>
<path fill="none" stroke="#56a9d8" stroke-width="2" d="M406,-556C406,-556 332,-556 332,-556 326,-556 320,-550 320,-544 320,-544 320,-532 320,-532 320,-526 326,-520 332,-520 332,-520 406,-520 406,-520 412,-520 418,-526 418,-532 418,-532 418,-544 418,-544 418,-550 412,-556 406,-556"/>
<text text-anchor="middle" x="369" y="-541" font-family="sans" font-size="10.00" fill="#000000">map_to_genome</text>
<text text-anchor="middle" x="369" y="-530" font-family="sans" font-size="10.00" fill="#000000">indiv: BB55</text>
</g>
<!-- 28&#45;&gt;22 -->
<g id="edge22" class="edge">
<title>28&#45;&gt;22</title>
<path fill="none" stroke="#c0c0c0" stroke-width="2" d="M369,-519.8314C369,-512.131 369,-502.9743 369,-494.4166"/>
<polygon fill="#c0c0c0" stroke="#c0c0c0" stroke-width="2" points="372.5001,-494.4132 369,-484.4133 365.5001,-494.4133 372.5001,-494.4132"/>
</g>
<!-- 29 -->
<g id="node29" class="node">
<title>29</title>
<path fill="none" stroke="#d8ac56" stroke-width="2" d="M292.5,-630.5C292.5,-630.5 243.5,-630.5 243.5,-630.5 237.5,-630.5 231.5,-624.5 231.5,-618.5 231.5,-618.5 231.5,-606.5 231.5,-606.5 231.5,-600.5 237.5,-594.5 243.5,-594.5 243.5,-594.5 292.5,-594.5 292.5,-594.5 298.5,-594.5 304.5,-600.5 304.5,-606.5 304.5,-606.5 304.5,-618.5 304.5,-618.5 304.5,-624.5 298.5,-630.5 292.5,-630.5"/>
<text text-anchor="middle" x="268" y="-610" font-family="sans" font-size="10.00" fill="#000000">prepare_ref</text>
</g>
<!-- 29&#45;&gt;23 -->
<g id="edge24" class="edge">
<title>29&#45;&gt;23</title>
<path fill="none" stroke="#c0c0c0" stroke-width="2" d="M265.558,-594.2768C258.8215,-544.0052 239.9373,-403.0821 231.8045,-342.3912"/>
<polygon fill="#c0c0c0" stroke="#c0c0c0" stroke-width="2" points="235.2581,-341.8105 230.4608,-332.364 228.3201,-342.7402 235.2581,-341.8105"/>
</g>
<!-- 29&#45;&gt;24 -->
<g id="edge26" class="edge">
<title>29&#45;&gt;24</title>
<path fill="none" stroke="#c0c0c0" stroke-width="2" d="M270.3199,-594.2768C276.7196,-544.0052 294.6596,-403.0821 302.3857,-342.3912"/>
<polygon fill="#c0c0c0" stroke="#c0c0c0" stroke-width="2" points="305.8713,-342.7259 303.6622,-332.364 298.9273,-341.8419 305.8713,-342.7259"/>
</g>
<!-- 29&#45;&gt;27 -->
<g id="edge30" class="edge">
<title>29&#45;&gt;27</title>
<path fill="none" stroke="#c0c0c0" stroke-width="2" d="M242.0983,-594.4656C228.1387,-584.7461 210.7269,-572.6229 195.6194,-562.1041"/>
<polygon fill="#c0c0c0" stroke="#c0c0c0" stroke-width="2" points="197.2407,-558.9682 187.034,-556.1265 193.2409,-564.7129 197.2407,-558.9682"/>
</g>
<!-- 29&#45;&gt;28 -->
<g id="edge32" class="edge">
<title>29&#45;&gt;28</title>
<path fill="none" stroke="#c0c0c0" stroke-width="2" d="M292.4493,-594.4656C305.6261,-584.7461 322.0615,-572.6229 336.3219,-562.1041"/>
<polygon fill="#c0c0c0" stroke="#c0c0c0" stroke-width="2" points="338.4559,-564.8793 344.4258,-556.1265 334.3006,-559.246 338.4559,-564.8793"/>
</g>
<!-- 30 -->
<g id="node30" class="node">
<title>30</title>
<path fill="none" stroke="#d87556" stroke-width="2" d="M157.5,-633C157.5,-633 68.5,-633 68.5,-633 62.5,-633 56.5,-627 56.5,-621 56.5,-621 56.5,-604 56.5,-604 56.5,-598 62.5,-592 68.5,-592 68.5,-592 157.5,-592 157.5,-592 163.5,-592 169.5,-598 169.5,-604 169.5,-604 169.5,-621 169.5,-621 169.5,-627 163.5,-633 157.5,-633"/>
<text text-anchor="middle" x="113" y="-621" font-family="sans" font-size="10.00" fill="#000000">compress_reads</text>
<text text-anchor="middle" x="113" y="-610" font-family="sans" font-size="10.00" fill="#000000">file: BB31</text>
<text text-anchor="middle" x="113" y="-599" font-family="sans" font-size="10.00" fill="#000000">path: 010_porechop</text>
</g>
<!-- 30&#45;&gt;25 -->
<g id="edge27" class="edge">
<title>30&#45;&gt;25</title>
<path fill="none" stroke="#c0c0c0" stroke-width="2" d="M97.6794,-591.7476C91.4167,-583.2645 84.098,-573.3509 77.4634,-564.364"/>
<polygon fill="#c0c0c0" stroke="#c0c0c0" stroke-width="2" points="80.124,-562.075 71.3688,-556.1087 74.4924,-566.2326 80.124,-562.075"/>
</g>
<!-- 30&#45;&gt;27 -->
<g id="edge29" class="edge">
<title>30&#45;&gt;27</title>
<path fill="none" stroke="#c0c0c0" stroke-width="2" d="M126.3707,-591.7476C131.7799,-583.352 138.092,-573.5551 143.8345,-564.6423"/>
<polygon fill="#c0c0c0" stroke="#c0c0c0" stroke-width="2" points="146.8587,-566.4106 149.3327,-556.1087 140.9743,-562.6193 146.8587,-566.4106"/>
</g>
<!-- 31 -->
<g id="node31" class="node">
<title>31</title>
<path fill="none" stroke="#d87556" stroke-width="2" d="M429.5,-633C429.5,-633 340.5,-633 340.5,-633 334.5,-633 328.5,-627 328.5,-621 328.5,-621 328.5,-604 328.5,-604 328.5,-598 334.5,-592 340.5,-592 340.5,-592 429.5,-592 429.5,-592 435.5,-592 441.5,-598 441.5,-604 441.5,-604 441.5,-621 441.5,-621 441.5,-627 435.5,-633 429.5,-633"/>
<text text-anchor="middle" x="385" y="-621" font-family="sans" font-size="10.00" fill="#000000">compress_reads</text>
<text text-anchor="middle" x="385" y="-610" font-family="sans" font-size="10.00" fill="#000000">file: BB55</text>
<text text-anchor="middle" x="385" y="-599" font-family="sans" font-size="10.00" fill="#000000">path: 010_porechop</text>
</g>
<!-- 31&#45;&gt;26 -->
<g id="edge28" class="edge">
<title>31&#45;&gt;26</title>
<path fill="none" stroke="#c0c0c0" stroke-width="2" d="M409.2344,-591.7476C419.7536,-582.7398 432.1564,-572.119 443.1469,-562.7076"/>
<polygon fill="#c0c0c0" stroke="#c0c0c0" stroke-width="2" points="445.5338,-565.2715 450.853,-556.1087 440.9808,-559.9545 445.5338,-565.2715"/>
</g>
<!-- 31&#45;&gt;28 -->
<g id="edge31" class="edge">
<title>31&#45;&gt;28</title>
<path fill="none" stroke="#c0c0c0" stroke-width="2" d="M380.5431,-591.7476C378.8339,-583.7892 376.8544,-574.5718 375.0224,-566.0418"/>
<polygon fill="#c0c0c0" stroke="#c0c0c0" stroke-width="2" points="378.4109,-565.1508 372.8891,-556.1087 371.567,-566.6207 378.4109,-565.1508"/>
</g>
<!-- 32 -->
<g id="node32" class="node">
<title>32</title>
<path fill="none" stroke="#56d8a9" stroke-width="2" d="M161,-705C161,-705 65,-705 65,-705 59,-705 53,-699 53,-693 53,-693 53,-681 53,-681 53,-675 59,-669 65,-669 65,-669 161,-669 161,-669 167,-669 173,-675 173,-681 173,-681 173,-693 173,-693 173,-699 167,-705 161,-705"/>
<text text-anchor="middle" x="113" y="-684.5" font-family="sans" font-size="10.00" fill="#000000">combine_indiv_reads</text>
</g>
<!-- 32&#45;&gt;30 -->
<g id="edge33" class="edge">
<title>32&#45;&gt;30</title>
<path fill="none" stroke="#c0c0c0" stroke-width="2" d="M113,-668.9656C113,-661.3118 113,-652.1674 113,-643.4898"/>
<polygon fill="#c0c0c0" stroke="#c0c0c0" stroke-width="2" points="116.5001,-643.2678 113,-633.2679 109.5001,-643.2679 116.5001,-643.2678"/>
</g>
<!-- 33 -->
<g id="node33" class="node">
<title>33</title>
<path fill="none" stroke="#56d8a9" stroke-width="2" d="M433,-705C433,-705 337,-705 337,-705 331,-705 325,-699 325,-693 325,-693 325,-681 325,-681 325,-675 331,-669 337,-669 337,-669 433,-669 433,-669 439,-669 445,-675 445,-681 445,-681 445,-693 445,-693 445,-699 439,-705 433,-705"/>
<text text-anchor="middle" x="385" y="-684.5" font-family="sans" font-size="10.00" fill="#000000">combine_indiv_reads</text>
</g>
<!-- 33&#45;&gt;31 -->
<g id="edge34" class="edge">
<title>33&#45;&gt;31</title>
<path fill="none" stroke="#c0c0c0" stroke-width="2" d="M385,-668.9656C385,-661.3118 385,-652.1674 385,-643.4898"/>
<polygon fill="#c0c0c0" stroke="#c0c0c0" stroke-width="2" points="388.5001,-643.2678 385,-633.2679 381.5001,-643.2679 388.5001,-643.2678"/>
</g>
<!-- 34 -->
<g id="node34" class="node">
<title>34</title>
<path fill="none" stroke="#70d856" stroke-width="2" d="M137,-782C137,-782 89,-782 89,-782 83,-782 77,-776 77,-770 77,-770 77,-753 77,-753 77,-747 83,-741 89,-741 89,-741 137,-741 137,-741 143,-741 149,-747 149,-753 149,-753 149,-770 149,-770 149,-776 143,-782 137,-782"/>
<text text-anchor="middle" x="113" y="-770" font-family="sans" font-size="10.00" fill="#000000">porechop</text>
<text text-anchor="middle" x="113" y="-759" font-family="sans" font-size="10.00" fill="#000000">indiv: BB31</text>
<text text-anchor="middle" x="113" y="-748" font-family="sans" font-size="10.00" fill="#000000">read: test</text>
</g>
<!-- 34&#45;&gt;32 -->
<g id="edge35" class="edge">
<title>34&#45;&gt;32</title>
<path fill="none" stroke="#c0c0c0" stroke-width="2" d="M113,-740.7476C113,-732.8767 113,-723.7743 113,-715.3232"/>
<polygon fill="#c0c0c0" stroke="#c0c0c0" stroke-width="2" points="116.5001,-715.1086 113,-705.1087 109.5001,-715.1087 116.5001,-715.1086"/>
</g>
<!-- 35 -->
<g id="node35" class="node">
<title>35</title>
<path fill="none" stroke="#70d856" stroke-width="2" d="M409,-782C409,-782 361,-782 361,-782 355,-782 349,-776 349,-770 349,-770 349,-753 349,-753 349,-747 355,-741 361,-741 361,-741 409,-741 409,-741 415,-741 421,-747 421,-753 421,-753 421,-770 421,-770 421,-776 415,-782 409,-782"/>
<text text-anchor="middle" x="385" y="-770" font-family="sans" font-size="10.00" fill="#000000">porechop</text>
<text text-anchor="middle" x="385" y="-759" font-family="sans" font-size="10.00" fill="#000000">indiv: BB55</text>
<text text-anchor="middle" x="385" y="-748" font-family="sans" font-size="10.00" fill="#000000">read: test</text>
</g>
<!-- 35&#45;&gt;33 -->
<g id="edge36" class="edge">
<title>35&#45;&gt;33</title>
<path fill="none" stroke="#c0c0c0" stroke-width="2" d="M385,-740.7476C385,-732.8767 385,-723.7743 385,-715.3232"/>
<polygon fill="#c0c0c0" stroke="#c0c0c0" stroke-width="2" points="388.5001,-715.1086 385,-705.1087 381.5001,-715.1087 388.5001,-715.1086"/>
</g>
</g>
</svg>
